solid rw_endplate
   facet normal -0.000000e+00 -1.000000e+00 0.000000e+00
      outer loop
         vertex 4.037349e+00 3.543227e-01 3.004974e-01
         vertex 4.043659e+00 3.543227e-01 3.194785e-01
         vertex 3.850816e+00 3.543227e-01 2.542881e-01
      endloop
   endfacet
   facet normal 0.000000e+00 -1.000000e+00 0.000000e+00
      outer loop
         vertex 3.850816e+00 3.543227e-01 2.542881e-01
         vertex 4.043659e+00 3.543227e-01 3.194785e-01
         vertex 3.756417e+00 3.543227e-01 3.194785e-01
      endloop
   endfacet
   facet normal 0.000000e+00 -1.000000e+00 0.000000e+00
      outer loop
         vertex 3.850816e+00 3.543227e-01 2.542881e-01
         vertex 3.756417e+00 3.543227e-01 3.194785e-01
         vertex 3.781370e+00 3.543227e-01 2.542881e-01
      endloop
   endfacet
   facet normal 0.000000e+00 0.000000e+00 -1.000000e+00
      outer loop
         vertex 3.781370e+00 3.643227e-01 2.542881e-01
         vertex 3.850816e+00 3.643227e-01 2.542881e-01
         vertex 3.781370e+00 3.543227e-01 2.542881e-01
      endloop
   endfacet
   facet normal 0.000000e+00 0.000000e+00 -1.000000e+00
      outer loop
         vertex 3.781370e+00 3.543227e-01 2.542881e-01
         vertex 3.850816e+00 3.643227e-01 2.542881e-01
         vertex 3.850816e+00 3.543227e-01 2.542881e-01
      endloop
   endfacet
   facet normal 0.000000e+00 1.000000e+00 0.000000e+00
      outer loop
         vertex 4.043659e+00 3.643227e-01 3.194785e-01
         vertex 4.037349e+00 3.643227e-01 3.004974e-01
         vertex 3.756417e+00 3.643227e-01 3.194785e-01
      endloop
   endfacet
   facet normal 0.000000e+00 1.000000e+00 0.000000e+00
      outer loop
         vertex 3.756417e+00 3.643227e-01 3.194785e-01
         vertex 4.037349e+00 3.643227e-01 3.004974e-01
         vertex 3.850816e+00 3.643227e-01 2.542881e-01
      endloop
   endfacet
   facet normal 0.000000e+00 1.000000e+00 0.000000e+00
      outer loop
         vertex 3.756417e+00 3.643227e-01 3.194785e-01
         vertex 3.850816e+00 3.643227e-01 2.542881e-01
         vertex 3.781370e+00 3.643227e-01 2.542881e-01
      endloop
   endfacet
   facet normal 0.000000e+00 9.991131e-01 -4.210796e-02
      outer loop
         vertex 4.043659e+00 3.643227e-01 3.194785e-01
         vertex 3.756417e+00 3.643227e-01 3.194785e-01
         vertex 3.749975e+00 3.650320e-01 3.363068e-01
      endloop
   endfacet
   facet normal 0.000000e+00 9.991131e-01 -4.210796e-02
      outer loop
         vertex 4.043659e+00 3.643227e-01 3.194785e-01
         vertex 3.749975e+00 3.650320e-01 3.363068e-01
         vertex 4.049253e+00 3.650320e-01 3.363068e-01
      endloop
   endfacet
   facet normal 0.000000e+00 9.920269e-01 -1.260264e-01
      outer loop
         vertex 4.049253e+00 3.650320e-01 3.363068e-01
         vertex 3.749975e+00 3.650320e-01 3.363068e-01
         vertex 3.743579e+00 3.671547e-01 3.530158e-01
      endloop
   endfacet
   facet normal 0.000000e+00 9.920269e-01 -1.260264e-01
      outer loop
         vertex 4.049253e+00 3.650320e-01 3.363068e-01
         vertex 3.743579e+00 3.671547e-01 3.530158e-01
         vertex 4.054806e+00 3.671547e-01 3.530158e-01
      endloop
   endfacet
   facet normal 0.000000e+00 9.779050e-01 -2.090499e-01
      outer loop
         vertex 4.054806e+00 3.671547e-01 3.530158e-01
         vertex 3.743579e+00 3.671547e-01 3.530158e-01
         vertex 3.737274e+00 3.706757e-01 3.694870e-01
      endloop
   endfacet
   facet normal 0.000000e+00 9.779050e-01 -2.090499e-01
      outer loop
         vertex 4.054806e+00 3.671547e-01 3.530158e-01
         vertex 3.737274e+00 3.706757e-01 3.694870e-01
         vertex 4.060281e+00 3.706757e-01 3.694870e-01
      endloop
   endfacet
   facet normal 0.000000e+00 9.568475e-01 -2.905906e-01
      outer loop
         vertex 4.060281e+00 3.706757e-01 3.694870e-01
         vertex 3.737274e+00 3.706757e-01 3.694870e-01
         vertex 3.731105e+00 3.755702e-01 3.856034e-01
      endloop
   endfacet
   facet normal 0.000000e+00 9.568475e-01 -2.905906e-01
      outer loop
         vertex 4.060281e+00 3.706757e-01 3.694870e-01
         vertex 3.731105e+00 3.755702e-01 3.856034e-01
         vertex 4.065639e+00 3.755702e-01 3.856034e-01
      endloop
   endfacet
   facet normal 0.000000e+00 9.290032e-01 -3.700718e-01
      outer loop
         vertex 4.065639e+00 3.755702e-01 3.856034e-01
         vertex 3.731105e+00 3.755702e-01 3.856034e-01
         vertex 3.725116e+00 3.818035e-01 4.012508e-01
      endloop
   endfacet
   facet normal 0.000000e+00 9.290032e-01 -3.700718e-01
      outer loop
         vertex 4.065639e+00 3.755702e-01 3.856034e-01
         vertex 3.725116e+00 3.818035e-01 4.012508e-01
         vertex 4.070840e+00 3.818035e-01 4.012508e-01
      endloop
   endfacet
   facet normal 0.000000e+00 8.945708e-01 -4.469262e-01
      outer loop
         vertex 4.070840e+00 3.818035e-01 4.012508e-01
         vertex 3.725116e+00 3.818035e-01 4.012508e-01
         vertex 3.719348e+00 3.893312e-01 4.163184e-01
      endloop
   endfacet
   facet normal 0.000000e+00 8.945708e-01 -4.469262e-01
      outer loop
         vertex 4.070840e+00 3.818035e-01 4.012508e-01
         vertex 3.719348e+00 3.893312e-01 4.163184e-01
         vertex 4.075849e+00 3.893312e-01 4.163184e-01
      endloop
   endfacet
   facet normal 0.000000e+00 8.537928e-01 -5.206130e-01
      outer loop
         vertex 4.075849e+00 3.893312e-01 4.163184e-01
         vertex 3.719348e+00 3.893312e-01 4.163184e-01
         vertex 3.713843e+00 3.981000e-01 4.306990e-01
      endloop
   endfacet
   facet normal 0.000000e+00 8.537928e-01 -5.206130e-01
      outer loop
         vertex 4.075849e+00 3.893312e-01 4.163184e-01
         vertex 3.713843e+00 3.981000e-01 4.306990e-01
         vertex 4.080628e+00 3.981000e-01 4.306990e-01
      endloop
   endfacet
   facet normal 0.000000e+00 8.311137e-01 -5.561026e-01
      outer loop
         vertex 4.080628e+00 3.981000e-01 4.306990e-01
         vertex 3.713843e+00 3.981000e-01 4.306990e-01
         vertex 4.145327e+00 5.283333e-01 6.253370e-01
      endloop
   endfacet
   facet normal -7.594281e-08 8.311137e-01 -5.561025e-01
      outer loop
         vertex 4.145327e+00 5.283333e-01 6.253370e-01
         vertex 3.713843e+00 3.981000e-01 4.306990e-01
         vertex 3.635811e+00 5.345010e-01 6.345549e-01
      endloop
   endfacet
   facet normal 0.000000e+00 8.311157e-01 -5.560996e-01
      outer loop
         vertex 4.145327e+00 5.283333e-01 6.253370e-01
         vertex 3.635811e+00 5.345010e-01 6.345549e-01
         vertex 4.145327e+00 5.345010e-01 6.345549e-01
      endloop
   endfacet
   facet normal 7.060383e-05 8.945701e-01 -4.469276e-01
      outer loop
         vertex 3.630000e+00 5.437104e-01 6.497359e-01
         vertex 4.145327e+00 5.507976e-01 6.640031e-01
         vertex 4.145327e+00 5.432699e-01 6.489356e-01
      endloop
   endfacet
   facet normal 3.927208e-08 8.760695e-01 -4.821849e-01
      outer loop
         vertex 3.630000e+00 5.437104e-01 6.497359e-01
         vertex 4.145327e+00 5.432699e-01 6.489356e-01
         vertex 3.630306e+00 5.432709e-01 6.489375e-01
      endloop
   endfacet
   facet normal -1.494532e-07 8.537925e-01 -5.206135e-01
      outer loop
         vertex 3.630306e+00 5.432709e-01 6.489375e-01
         vertex 4.145327e+00 5.432699e-01 6.489356e-01
         vertex 4.145327e+00 5.345010e-01 6.345549e-01
      endloop
   endfacet
   facet normal 0.000000e+00 8.537948e-01 -5.206096e-01
      outer loop
         vertex 3.630306e+00 5.432709e-01 6.489375e-01
         vertex 4.145327e+00 5.345010e-01 6.345549e-01
         vertex 3.635811e+00 5.345010e-01 6.345549e-01
      endloop
   endfacet
   facet normal 0.000000e+00 8.955885e-01 -4.448833e-01
      outer loop
         vertex 3.630000e+00 5.437104e-01 6.497359e-01
         vertex 3.630000e+00 5.507976e-01 6.640031e-01
         vertex 4.145327e+00 5.507976e-01 6.640031e-01
      endloop
   endfacet
   facet normal 0.000000e+00 9.290034e-01 -3.700712e-01
      outer loop
         vertex 4.145327e+00 5.507976e-01 6.640031e-01
         vertex 3.630000e+00 5.507976e-01 6.640031e-01
         vertex 3.630000e+00 5.570308e-01 6.796505e-01
      endloop
   endfacet
   facet normal 0.000000e+00 9.290034e-01 -3.700712e-01
      outer loop
         vertex 4.145327e+00 5.507976e-01 6.640031e-01
         vertex 3.630000e+00 5.570308e-01 6.796505e-01
         vertex 4.145327e+00 5.570308e-01 6.796505e-01
      endloop
   endfacet
   facet normal 0.000000e+00 9.568475e-01 -2.905906e-01
      outer loop
         vertex 4.145327e+00 5.570308e-01 6.796505e-01
         vertex 3.630000e+00 5.570308e-01 6.796505e-01
         vertex 3.630000e+00 5.619253e-01 6.957670e-01
      endloop
   endfacet
   facet normal 0.000000e+00 9.568475e-01 -2.905906e-01
      outer loop
         vertex 4.145327e+00 5.570308e-01 6.796505e-01
         vertex 3.630000e+00 5.619253e-01 6.957670e-01
         vertex 4.145327e+00 5.619253e-01 6.957670e-01
      endloop
   endfacet
   facet normal 0.000000e+00 9.779050e-01 -2.090496e-01
      outer loop
         vertex 4.145327e+00 5.619253e-01 6.957670e-01
         vertex 3.630000e+00 5.619253e-01 6.957670e-01
         vertex 3.630000e+00 5.654464e-01 7.122381e-01
      endloop
   endfacet
   facet normal 0.000000e+00 9.779050e-01 -2.090496e-01
      outer loop
         vertex 4.145327e+00 5.619253e-01 6.957670e-01
         vertex 3.630000e+00 5.654464e-01 7.122381e-01
         vertex 4.145327e+00 5.654464e-01 7.122381e-01
      endloop
   endfacet
   facet normal 0.000000e+00 9.920269e-01 -1.260267e-01
      outer loop
         vertex 4.145327e+00 5.654464e-01 7.122381e-01
         vertex 3.630000e+00 5.654464e-01 7.122381e-01
         vertex 3.630000e+00 5.675691e-01 7.289471e-01
      endloop
   endfacet
   facet normal 0.000000e+00 9.920269e-01 -1.260267e-01
      outer loop
         vertex 4.145327e+00 5.654464e-01 7.122381e-01
         vertex 3.630000e+00 5.675691e-01 7.289471e-01
         vertex 4.145327e+00 5.675691e-01 7.289471e-01
      endloop
   endfacet
   facet normal 0.000000e+00 9.991131e-01 -4.210804e-02
      outer loop
         vertex 4.145327e+00 5.675691e-01 7.289471e-01
         vertex 3.630000e+00 5.675691e-01 7.289471e-01
         vertex 3.630000e+00 5.682783e-01 7.457754e-01
      endloop
   endfacet
   facet normal 0.000000e+00 9.991131e-01 -4.210804e-02
      outer loop
         vertex 4.145327e+00 5.675691e-01 7.289471e-01
         vertex 3.630000e+00 5.682783e-01 7.457754e-01
         vertex 4.145327e+00 5.682783e-01 7.457754e-01
      endloop
   endfacet
   facet normal 0.000000e+00 1.000000e+00 -0.000000e+00
      outer loop
         vertex 4.145327e+00 5.682783e-01 7.457754e-01
         vertex 3.630000e+00 5.682783e-01 7.457754e-01
         vertex 4.145327e+00 5.682783e-01 8.780313e-01
      endloop
   endfacet
   facet normal 0.000000e+00 1.000000e+00 0.000000e+00
      outer loop
         vertex 4.145327e+00 5.682783e-01 8.780313e-01
         vertex 3.630000e+00 5.682783e-01 7.457754e-01
         vertex 3.630000e+00 5.682783e-01 8.780313e-01
      endloop
   endfacet
   facet normal 0.000000e+00 0.000000e+00 1.000000e+00
      outer loop
         vertex 4.145327e+00 5.682783e-01 8.780313e-01
         vertex 3.630000e+00 5.682783e-01 8.780313e-01
         vertex 4.145327e+00 5.582783e-01 8.780313e-01
      endloop
   endfacet
   facet normal 0.000000e+00 0.000000e+00 1.000000e+00
      outer loop
         vertex 4.145327e+00 5.582783e-01 8.780313e-01
         vertex 3.630000e+00 5.682783e-01 8.780313e-01
         vertex 3.630000e+00 5.582783e-01 8.780313e-01
      endloop
   endfacet
   facet normal 0.000000e+00 -1.000000e+00 0.000000e+00
      outer loop
         vertex 3.630000e+00 5.582783e-01 8.780313e-01
         vertex 3.630000e+00 5.582783e-01 7.457754e-01
         vertex 4.145327e+00 5.582783e-01 8.780313e-01
      endloop
   endfacet
   facet normal 0.000000e+00 -1.000000e+00 -0.000000e+00
      outer loop
         vertex 4.145327e+00 5.582783e-01 8.780313e-01
         vertex 3.630000e+00 5.582783e-01 7.457754e-01
         vertex 4.145327e+00 5.582783e-01 7.457754e-01
      endloop
   endfacet
   facet normal 0.000000e+00 -8.473570e-01 5.310236e-01
      outer loop
         vertex 3.633682e+00 5.261899e-01 6.401159e-01
         vertex 4.145327e+00 5.261899e-01 6.401159e-01
         vertex 3.630000e+00 5.322186e-01 6.497359e-01
      endloop
   endfacet
   facet normal -2.697151e-04 -8.537947e-01 5.206097e-01
      outer loop
         vertex 3.630000e+00 5.322186e-01 6.497359e-01
         vertex 4.145327e+00 5.261899e-01 6.401159e-01
         vertex 4.145327e+00 5.345203e-01 6.537776e-01
      endloop
   endfacet
   facet normal 0.000000e+00 -9.991131e-01 4.210776e-02
      outer loop
         vertex 4.145327e+00 5.582783e-01 7.457754e-01
         vertex 3.630000e+00 5.582783e-01 7.457754e-01
         vertex 4.145327e+00 5.576046e-01 7.297885e-01
      endloop
   endfacet
   facet normal 0.000000e+00 -9.991131e-01 4.210776e-02
      outer loop
         vertex 4.145327e+00 5.576046e-01 7.297885e-01
         vertex 3.630000e+00 5.582783e-01 7.457754e-01
         vertex 3.630000e+00 5.576046e-01 7.297885e-01
      endloop
   endfacet
   facet normal 0.000000e+00 -9.920265e-01 1.260293e-01
      outer loop
         vertex 4.145327e+00 5.576046e-01 7.297885e-01
         vertex 3.630000e+00 5.576046e-01 7.297885e-01
         vertex 4.145327e+00 5.555879e-01 7.139150e-01
      endloop
   endfacet
   facet normal 0.000000e+00 -9.920265e-01 1.260293e-01
      outer loop
         vertex 4.145327e+00 5.555879e-01 7.139150e-01
         vertex 3.630000e+00 5.576046e-01 7.297885e-01
         vertex 3.630000e+00 5.555879e-01 7.139150e-01
      endloop
   endfacet
   facet normal 0.000000e+00 -9.779053e-01 2.090485e-01
      outer loop
         vertex 4.145327e+00 5.555879e-01 7.139150e-01
         vertex 3.630000e+00 5.555879e-01 7.139150e-01
         vertex 4.145327e+00 5.522429e-01 6.982674e-01
      endloop
   endfacet
   facet normal 0.000000e+00 -9.779053e-01 2.090485e-01
      outer loop
         vertex 4.145327e+00 5.522429e-01 6.982674e-01
         vertex 3.630000e+00 5.555879e-01 7.139150e-01
         vertex 3.630000e+00 5.522429e-01 6.982674e-01
      endloop
   endfacet
   facet normal 0.000000e+00 -9.568475e-01 2.905904e-01
      outer loop
         vertex 4.145327e+00 5.522429e-01 6.982674e-01
         vertex 3.630000e+00 5.522429e-01 6.982674e-01
         vertex 4.145327e+00 5.475932e-01 6.829568e-01
      endloop
   endfacet
   facet normal 0.000000e+00 -9.568475e-01 2.905904e-01
      outer loop
         vertex 4.145327e+00 5.475932e-01 6.829568e-01
         vertex 3.630000e+00 5.522429e-01 6.982674e-01
         vertex 3.630000e+00 5.475932e-01 6.829568e-01
      endloop
   endfacet
   facet normal 0.000000e+00 -9.290037e-01 3.700705e-01
      outer loop
         vertex 4.145327e+00 5.475932e-01 6.829568e-01
         vertex 3.630000e+00 5.475932e-01 6.829568e-01
         vertex 4.145327e+00 5.416716e-01 6.680917e-01
      endloop
   endfacet
   facet normal 0.000000e+00 -9.290037e-01 3.700705e-01
      outer loop
         vertex 4.145327e+00 5.416716e-01 6.680917e-01
         vertex 3.630000e+00 5.475932e-01 6.829568e-01
         vertex 3.630000e+00 5.416716e-01 6.680917e-01
      endloop
   endfacet
   facet normal 0.000000e+00 -8.945694e-01 4.469290e-01
      outer loop
         vertex 4.145327e+00 5.416716e-01 6.680917e-01
         vertex 3.630000e+00 5.416716e-01 6.680917e-01
         vertex 4.145327e+00 5.345203e-01 6.537776e-01
      endloop
   endfacet
   facet normal 0.000000e+00 -8.945694e-01 4.469290e-01
      outer loop
         vertex 4.145327e+00 5.345203e-01 6.537776e-01
         vertex 3.630000e+00 5.416716e-01 6.680917e-01
         vertex 3.630000e+00 5.345203e-01 6.537776e-01
      endloop
   endfacet
   facet normal 0.000000e+00 -8.689709e-01 4.948632e-01
      outer loop
         vertex 4.145327e+00 5.345203e-01 6.537776e-01
         vertex 3.630000e+00 5.345203e-01 6.537776e-01
         vertex 3.630000e+00 5.322186e-01 6.497359e-01
      endloop
   endfacet
   facet normal 0.000000e+00 -8.311121e-01 5.561049e-01
      outer loop
         vertex 4.145327e+00 5.261899e-01 6.401159e-01
         vertex 3.633682e+00 5.261899e-01 6.401159e-01
         vertex 4.145327e+00 5.163012e-01 6.253370e-01
      endloop
   endfacet
   facet normal -9.736212e-08 -8.311137e-01 5.561026e-01
      outer loop
         vertex 4.145327e+00 5.163012e-01 6.253370e-01
         vertex 3.633682e+00 5.261899e-01 6.401159e-01
         vertex 3.711715e+00 3.897889e-01 4.362600e-01
      endloop
   endfacet
   facet normal 0.000000e+00 -8.311138e-01 5.561024e-01
      outer loop
         vertex 4.145327e+00 5.163012e-01 6.253370e-01
         vertex 3.711715e+00 3.897889e-01 4.362600e-01
         vertex 4.082477e+00 3.897889e-01 4.362600e-01
      endloop
   endfacet
   facet normal 0.000000e+00 -8.537926e-01 5.206133e-01
      outer loop
         vertex 4.082477e+00 3.897889e-01 4.362600e-01
         vertex 3.711715e+00 3.897889e-01 4.362600e-01
         vertex 3.717494e+00 3.805816e-01 4.211603e-01
      endloop
   endfacet
   facet normal 0.000000e+00 -8.537926e-01 5.206133e-01
      outer loop
         vertex 4.082477e+00 3.897889e-01 4.362600e-01
         vertex 3.717494e+00 3.805816e-01 4.211603e-01
         vertex 4.077458e+00 3.805816e-01 4.211603e-01
      endloop
   endfacet
   facet normal 0.000000e+00 -8.945707e-01 4.469264e-01
      outer loop
         vertex 4.077458e+00 3.805816e-01 4.211603e-01
         vertex 3.717494e+00 3.805816e-01 4.211603e-01
         vertex 3.723551e+00 3.726775e-01 4.053395e-01
      endloop
   endfacet
   facet normal 0.000000e+00 -8.945707e-01 4.469264e-01
      outer loop
         vertex 4.077458e+00 3.805816e-01 4.211603e-01
         vertex 3.723551e+00 3.726775e-01 4.053395e-01
         vertex 4.072199e+00 3.726775e-01 4.053395e-01
      endloop
   endfacet
   facet normal 0.000000e+00 -9.290031e-01 3.700718e-01
      outer loop
         vertex 4.072199e+00 3.726775e-01 4.053395e-01
         vertex 3.723551e+00 3.726775e-01 4.053395e-01
         vertex 3.729840e+00 3.661326e-01 3.889096e-01
      endloop
   endfacet
   facet normal 0.000000e+00 -9.290031e-01 3.700718e-01
      outer loop
         vertex 4.072199e+00 3.726775e-01 4.053395e-01
         vertex 3.729840e+00 3.661326e-01 3.889096e-01
         vertex 4.066738e+00 3.661326e-01 3.889096e-01
      endloop
   endfacet
   facet normal 0.000000e+00 -9.568473e-01 2.905911e-01
      outer loop
         vertex 4.066738e+00 3.661326e-01 3.889096e-01
         vertex 3.729840e+00 3.661326e-01 3.889096e-01
         vertex 3.736317e+00 3.609934e-01 3.719874e-01
      endloop
   endfacet
   facet normal 0.000000e+00 -9.568473e-01 2.905911e-01
      outer loop
         vertex 4.066738e+00 3.661326e-01 3.889096e-01
         vertex 3.736317e+00 3.609934e-01 3.719874e-01
         vertex 4.061112e+00 3.609934e-01 3.719874e-01
      endloop
   endfacet
   facet normal 0.000000e+00 -9.779051e-01 2.090493e-01
      outer loop
         vertex 4.061112e+00 3.609934e-01 3.719874e-01
         vertex 3.736317e+00 3.609934e-01 3.719874e-01
         vertex 3.742937e+00 3.572963e-01 3.546927e-01
      endloop
   endfacet
   facet normal 0.000000e+00 -9.779051e-01 2.090493e-01
      outer loop
         vertex 4.061112e+00 3.609934e-01 3.719874e-01
         vertex 3.742937e+00 3.572963e-01 3.546927e-01
         vertex 4.055364e+00 3.572963e-01 3.546927e-01
      endloop
   endfacet
   facet normal 0.000000e+00 -9.920269e-01 1.260262e-01
      outer loop
         vertex 4.055364e+00 3.572963e-01 3.546927e-01
         vertex 3.742937e+00 3.572963e-01 3.546927e-01
         vertex 3.749653e+00 3.550674e-01 3.371483e-01
      endloop
   endfacet
   facet normal 0.000000e+00 -9.920269e-01 1.260262e-01
      outer loop
         vertex 4.055364e+00 3.572963e-01 3.546927e-01
         vertex 3.749653e+00 3.550674e-01 3.371483e-01
         vertex 4.049532e+00 3.550674e-01 3.371483e-01
      endloop
   endfacet
   facet normal 0.000000e+00 -9.991131e-01 4.210808e-02
      outer loop
         vertex 4.049532e+00 3.550674e-01 3.371483e-01
         vertex 3.749653e+00 3.550674e-01 3.371483e-01
         vertex 3.756417e+00 3.543227e-01 3.194785e-01
      endloop
   endfacet
   facet normal 0.000000e+00 -9.991131e-01 4.210808e-02
      outer loop
         vertex 4.049532e+00 3.550674e-01 3.371483e-01
         vertex 3.756417e+00 3.543227e-01 3.194785e-01
         vertex 4.043659e+00 3.543227e-01 3.194785e-01
      endloop
   endfacet
   facet normal -1.000000e+00 0.000000e+00 0.000000e+00
      outer loop
         vertex 3.630000e+00 5.582783e-01 8.780313e-01
         vertex 3.630000e+00 5.682783e-01 8.780313e-01
         vertex 3.630000e+00 5.582783e-01 7.457754e-01
      endloop
   endfacet
   facet normal -1.000000e+00 0.000000e+00 0.000000e+00
      outer loop
         vertex 3.630000e+00 5.582783e-01 7.457754e-01
         vertex 3.630000e+00 5.682783e-01 8.780313e-01
         vertex 3.630000e+00 5.682783e-01 7.457754e-01
      endloop
   endfacet
   facet normal -1.000000e+00 0.000000e+00 -0.000000e+00
      outer loop
         vertex 3.630000e+00 5.582783e-01 7.457754e-01
         vertex 3.630000e+00 5.682783e-01 7.457754e-01
         vertex 3.630000e+00 5.576046e-01 7.297885e-01
      endloop
   endfacet
   facet normal -1.000000e+00 0.000000e+00 0.000000e+00
      outer loop
         vertex 3.630000e+00 5.576046e-01 7.297885e-01
         vertex 3.630000e+00 5.682783e-01 7.457754e-01
         vertex 3.630000e+00 5.675691e-01 7.289471e-01
      endloop
   endfacet
   facet normal -1.000000e+00 0.000000e+00 -0.000000e+00
      outer loop
         vertex 3.630000e+00 5.576046e-01 7.297885e-01
         vertex 3.630000e+00 5.675691e-01 7.289471e-01
         vertex 3.630000e+00 5.555879e-01 7.139150e-01
      endloop
   endfacet
   facet normal -1.000000e+00 0.000000e+00 0.000000e+00
      outer loop
         vertex 3.630000e+00 5.555879e-01 7.139150e-01
         vertex 3.630000e+00 5.675691e-01 7.289471e-01
         vertex 3.630000e+00 5.654464e-01 7.122381e-01
      endloop
   endfacet
   facet normal -1.000000e+00 0.000000e+00 -0.000000e+00
      outer loop
         vertex 3.630000e+00 5.555879e-01 7.139150e-01
         vertex 3.630000e+00 5.654464e-01 7.122381e-01
         vertex 3.630000e+00 5.522429e-01 6.982674e-01
      endloop
   endfacet
   facet normal -1.000000e+00 0.000000e+00 0.000000e+00
      outer loop
         vertex 3.630000e+00 5.522429e-01 6.982674e-01
         vertex 3.630000e+00 5.654464e-01 7.122381e-01
         vertex 3.630000e+00 5.619253e-01 6.957670e-01
      endloop
   endfacet
   facet normal -1.000000e+00 0.000000e+00 -0.000000e+00
      outer loop
         vertex 3.630000e+00 5.522429e-01 6.982674e-01
         vertex 3.630000e+00 5.619253e-01 6.957670e-01
         vertex 3.630000e+00 5.475932e-01 6.829568e-01
      endloop
   endfacet
   facet normal -1.000000e+00 0.000000e+00 0.000000e+00
      outer loop
         vertex 3.630000e+00 5.475932e-01 6.829568e-01
         vertex 3.630000e+00 5.619253e-01 6.957670e-01
         vertex 3.630000e+00 5.570308e-01 6.796505e-01
      endloop
   endfacet
   facet normal -1.000000e+00 0.000000e+00 -0.000000e+00
      outer loop
         vertex 3.630000e+00 5.475932e-01 6.829568e-01
         vertex 3.630000e+00 5.570308e-01 6.796505e-01
         vertex 3.630000e+00 5.416716e-01 6.680917e-01
      endloop
   endfacet
   facet normal -1.000000e+00 0.000000e+00 0.000000e+00
      outer loop
         vertex 3.630000e+00 5.416716e-01 6.680917e-01
         vertex 3.630000e+00 5.570308e-01 6.796505e-01
         vertex 3.630000e+00 5.507976e-01 6.640031e-01
      endloop
   endfacet
   facet normal -1.000000e+00 0.000000e+00 -0.000000e+00
      outer loop
         vertex 3.630000e+00 5.416716e-01 6.680917e-01
         vertex 3.630000e+00 5.507976e-01 6.640031e-01
         vertex 3.630000e+00 5.345203e-01 6.537776e-01
      endloop
   endfacet
   facet normal -1.000000e+00 0.000000e+00 0.000000e+00
      outer loop
         vertex 3.630000e+00 5.345203e-01 6.537776e-01
         vertex 3.630000e+00 5.507976e-01 6.640031e-01
         vertex 3.630000e+00 5.437104e-01 6.497359e-01
      endloop
   endfacet
   facet normal -1.000000e+00 0.000000e+00 -0.000000e+00
      outer loop
         vertex 3.630000e+00 5.345203e-01 6.537776e-01
         vertex 3.630000e+00 5.437104e-01 6.497359e-01
         vertex 3.630000e+00 5.322186e-01 6.497359e-01
      endloop
   endfacet
   facet normal -9.339187e-01 -0.000000e+00 -3.574855e-01
      outer loop
         vertex 3.781370e+00 3.643227e-01 2.542881e-01
         vertex 3.781370e+00 3.543227e-01 2.542881e-01
         vertex 3.756417e+00 3.643227e-01 3.194785e-01
      endloop
   endfacet
   facet normal -9.339187e-01 -0.000000e+00 -3.574855e-01
      outer loop
         vertex 3.756417e+00 3.643227e-01 3.194785e-01
         vertex 3.781370e+00 3.543227e-01 2.542881e-01
         vertex 3.756417e+00 3.543227e-01 3.194785e-01
      endloop
   endfacet
   facet normal -9.339179e-01 -0.000000e+00 -3.574876e-01
      outer loop
         vertex 3.756417e+00 3.643227e-01 3.194785e-01
         vertex 3.756417e+00 3.543227e-01 3.194785e-01
         vertex 3.749975e+00 3.650320e-01 3.363068e-01
      endloop
   endfacet
   facet normal -9.339176e-01 1.359606e-06 -3.574884e-01
      outer loop
         vertex 3.749975e+00 3.650320e-01 3.363068e-01
         vertex 3.756417e+00 3.543227e-01 3.194785e-01
         vertex 3.749653e+00 3.550674e-01 3.371483e-01
      endloop
   endfacet
   facet normal -9.339153e-01 7.686615e-07 -3.574945e-01
      outer loop
         vertex 3.749975e+00 3.650320e-01 3.363068e-01
         vertex 3.749653e+00 3.550674e-01 3.371483e-01
         vertex 3.743579e+00 3.671547e-01 3.530158e-01
      endloop
   endfacet
   facet normal -9.339168e-01 -5.225110e-06 -3.574905e-01
      outer loop
         vertex 3.743579e+00 3.671547e-01 3.530158e-01
         vertex 3.749653e+00 3.550674e-01 3.371483e-01
         vertex 3.742937e+00 3.572963e-01 3.546927e-01
      endloop
   endfacet
   facet normal -9.339204e-01 -3.400540e-06 -3.574811e-01
      outer loop
         vertex 3.743579e+00 3.671547e-01 3.530158e-01
         vertex 3.742937e+00 3.572963e-01 3.546927e-01
         vertex 3.737274e+00 3.706757e-01 3.694870e-01
      endloop
   endfacet
   facet normal -9.339215e-01 -7.173718e-06 -3.574782e-01
      outer loop
         vertex 3.737274e+00 3.706757e-01 3.694870e-01
         vertex 3.742937e+00 3.572963e-01 3.546927e-01
         vertex 3.736317e+00 3.609934e-01 3.719874e-01
      endloop
   endfacet
   facet normal -9.339191e-01 -9.054098e-06 -3.574845e-01
      outer loop
         vertex 3.737274e+00 3.706757e-01 3.694870e-01
         vertex 3.736317e+00 3.609934e-01 3.719874e-01
         vertex 3.731105e+00 3.755702e-01 3.856034e-01
      endloop
   endfacet
   facet normal -9.339176e-01 -4.846668e-06 -3.574884e-01
      outer loop
         vertex 3.731105e+00 3.755702e-01 3.856034e-01
         vertex 3.736317e+00 3.609934e-01 3.719874e-01
         vertex 3.729840e+00 3.661326e-01 3.889096e-01
      endloop
   endfacet
   facet normal -9.339187e-01 -3.625067e-06 -3.574854e-01
      outer loop
         vertex 3.731105e+00 3.755702e-01 3.856034e-01
         vertex 3.729840e+00 3.661326e-01 3.889096e-01
         vertex 3.725116e+00 3.818035e-01 4.012508e-01
      endloop
   endfacet
   facet normal -9.339197e-01 -5.887141e-06 -3.574829e-01
      outer loop
         vertex 3.725116e+00 3.818035e-01 4.012508e-01
         vertex 3.729840e+00 3.661326e-01 3.889096e-01
         vertex 3.723551e+00 3.726775e-01 4.053395e-01
      endloop
   endfacet
   facet normal -9.339190e-01 -6.759734e-06 -3.574846e-01
      outer loop
         vertex 3.725116e+00 3.818035e-01 4.012508e-01
         vertex 3.723551e+00 3.726775e-01 4.053395e-01
         vertex 3.719348e+00 3.893312e-01 4.163184e-01
      endloop
   endfacet
   facet normal -9.339155e-01 1.941595e-07 -3.574938e-01
      outer loop
         vertex 3.719348e+00 3.893312e-01 4.163184e-01
         vertex 3.723551e+00 3.726775e-01 4.053395e-01
         vertex 3.717494e+00 3.805816e-01 4.211603e-01
      endloop
   endfacet
   facet normal -9.339182e-01 4.721297e-06 -3.574867e-01
      outer loop
         vertex 3.719348e+00 3.893312e-01 4.163184e-01
         vertex 3.717494e+00 3.805816e-01 4.211603e-01
         vertex 3.713843e+00 3.981000e-01 4.306990e-01
      endloop
   endfacet
   facet normal -9.339213e-01 -2.305140e-07 -3.574787e-01
      outer loop
         vertex 3.713843e+00 3.981000e-01 4.306990e-01
         vertex 3.717494e+00 3.805816e-01 4.211603e-01
         vertex 3.711715e+00 3.897889e-01 4.362600e-01
      endloop
   endfacet
   facet normal -9.339192e-01 -4.320838e-06 -3.574841e-01
      outer loop
         vertex 3.713843e+00 3.981000e-01 4.306990e-01
         vertex 3.711715e+00 3.897889e-01 4.362600e-01
         vertex 3.635811e+00 5.345010e-01 6.345549e-01
      endloop
   endfacet
   facet normal -9.339146e-01 1.454154e-05 -3.574961e-01
      outer loop
         vertex 3.635811e+00 5.345010e-01 6.345549e-01
         vertex 3.711715e+00 3.897889e-01 4.362600e-01
         vertex 3.633682e+00 5.261899e-01 6.401159e-01
      endloop
   endfacet
   facet normal -9.339125e-01 1.027357e-05 -3.575016e-01
      outer loop
         vertex 3.635811e+00 5.345010e-01 6.345549e-01
         vertex 3.633682e+00 5.261899e-01 6.401159e-01
         vertex 3.630306e+00 5.432709e-01 6.489375e-01
      endloop
   endfacet
   facet normal -9.339275e-01 -1.297620e-05 -3.574624e-01
      outer loop
         vertex 3.630306e+00 5.432709e-01 6.489375e-01
         vertex 3.633682e+00 5.261899e-01 6.401159e-01
         vertex 3.630000e+00 5.322186e-01 6.497359e-01
      endloop
   endfacet
   facet normal -9.339875e-01 0.000000e+00 -3.573057e-01
      outer loop
         vertex 3.630306e+00 5.432709e-01 6.489375e-01
         vertex 3.630000e+00 5.322186e-01 6.497359e-01
         vertex 3.630000e+00 5.437104e-01 6.497359e-01
      endloop
   endfacet
   facet normal 2.404578e-01 0.000000e+00 -9.706596e-01
      outer loop
         vertex 3.850816e+00 3.643227e-01 2.542881e-01
         vertex 4.037349e+00 3.643227e-01 3.004974e-01
         vertex 3.850816e+00 3.543227e-01 2.542881e-01
      endloop
   endfacet
   facet normal 2.404578e-01 0.000000e+00 -9.706596e-01
      outer loop
         vertex 3.850816e+00 3.543227e-01 2.542881e-01
         vertex 4.037349e+00 3.643227e-01 3.004974e-01
         vertex 4.037349e+00 3.543227e-01 3.004974e-01
      endloop
   endfacet
   facet normal 1.000000e+00 0.000000e+00 0.000000e+00
      outer loop
         vertex 4.145327e+00 5.163012e-01 6.253370e-01
         vertex 4.145327e+00 5.283333e-01 6.253370e-01
         vertex 4.145327e+00 5.261899e-01 6.401159e-01
      endloop
   endfacet
   facet normal 1.000000e+00 0.000000e+00 0.000000e+00
      outer loop
         vertex 4.145327e+00 5.261899e-01 6.401159e-01
         vertex 4.145327e+00 5.283333e-01 6.253370e-01
         vertex 4.145327e+00 5.345010e-01 6.345549e-01
      endloop
   endfacet
   facet normal 1.000000e+00 -0.000000e+00 0.000000e+00
      outer loop
         vertex 4.145327e+00 5.261899e-01 6.401159e-01
         vertex 4.145327e+00 5.345010e-01 6.345549e-01
         vertex 4.145327e+00 5.345203e-01 6.537776e-01
      endloop
   endfacet
   facet normal 1.000000e+00 0.000000e+00 0.000000e+00
      outer loop
         vertex 4.145327e+00 5.345203e-01 6.537776e-01
         vertex 4.145327e+00 5.345010e-01 6.345549e-01
         vertex 4.145327e+00 5.432699e-01 6.489356e-01
      endloop
   endfacet
   facet normal 1.000000e+00 -0.000000e+00 0.000000e+00
      outer loop
         vertex 4.145327e+00 5.345203e-01 6.537776e-01
         vertex 4.145327e+00 5.432699e-01 6.489356e-01
         vertex 4.145327e+00 5.416716e-01 6.680917e-01
      endloop
   endfacet
   facet normal 1.000000e+00 0.000000e+00 0.000000e+00
      outer loop
         vertex 4.145327e+00 5.416716e-01 6.680917e-01
         vertex 4.145327e+00 5.432699e-01 6.489356e-01
         vertex 4.145327e+00 5.507976e-01 6.640031e-01
      endloop
   endfacet
   facet normal 1.000000e+00 -0.000000e+00 0.000000e+00
      outer loop
         vertex 4.145327e+00 5.416716e-01 6.680917e-01
         vertex 4.145327e+00 5.507976e-01 6.640031e-01
         vertex 4.145327e+00 5.475932e-01 6.829568e-01
      endloop
   endfacet
   facet normal 1.000000e+00 0.000000e+00 0.000000e+00
      outer loop
         vertex 4.145327e+00 5.475932e-01 6.829568e-01
         vertex 4.145327e+00 5.507976e-01 6.640031e-01
         vertex 4.145327e+00 5.570308e-01 6.796505e-01
      endloop
   endfacet
   facet normal 1.000000e+00 -0.000000e+00 0.000000e+00
      outer loop
         vertex 4.145327e+00 5.475932e-01 6.829568e-01
         vertex 4.145327e+00 5.570308e-01 6.796505e-01
         vertex 4.145327e+00 5.522429e-01 6.982674e-01
      endloop
   endfacet
   facet normal 1.000000e+00 0.000000e+00 0.000000e+00
      outer loop
         vertex 4.145327e+00 5.522429e-01 6.982674e-01
         vertex 4.145327e+00 5.570308e-01 6.796505e-01
         vertex 4.145327e+00 5.619253e-01 6.957670e-01
      endloop
   endfacet
   facet normal 1.000000e+00 -0.000000e+00 0.000000e+00
      outer loop
         vertex 4.145327e+00 5.522429e-01 6.982674e-01
         vertex 4.145327e+00 5.619253e-01 6.957670e-01
         vertex 4.145327e+00 5.555879e-01 7.139150e-01
      endloop
   endfacet
   facet normal 1.000000e+00 0.000000e+00 0.000000e+00
      outer loop
         vertex 4.145327e+00 5.555879e-01 7.139150e-01
         vertex 4.145327e+00 5.619253e-01 6.957670e-01
         vertex 4.145327e+00 5.654464e-01 7.122381e-01
      endloop
   endfacet
   facet normal 1.000000e+00 -0.000000e+00 0.000000e+00
      outer loop
         vertex 4.145327e+00 5.555879e-01 7.139150e-01
         vertex 4.145327e+00 5.654464e-01 7.122381e-01
         vertex 4.145327e+00 5.576046e-01 7.297885e-01
      endloop
   endfacet
   facet normal 1.000000e+00 0.000000e+00 0.000000e+00
      outer loop
         vertex 4.145327e+00 5.576046e-01 7.297885e-01
         vertex 4.145327e+00 5.654464e-01 7.122381e-01
         vertex 4.145327e+00 5.675691e-01 7.289471e-01
      endloop
   endfacet
   facet normal 1.000000e+00 -0.000000e+00 0.000000e+00
      outer loop
         vertex 4.145327e+00 5.576046e-01 7.297885e-01
         vertex 4.145327e+00 5.675691e-01 7.289471e-01
         vertex 4.145327e+00 5.582783e-01 7.457754e-01
      endloop
   endfacet
   facet normal 1.000000e+00 -0.000000e+00 0.000000e+00
      outer loop
         vertex 4.145327e+00 5.582783e-01 7.457754e-01
         vertex 4.145327e+00 5.675691e-01 7.289471e-01
         vertex 4.145327e+00 5.682783e-01 7.457754e-01
      endloop
   endfacet
   facet normal 1.000000e+00 0.000000e+00 0.000000e+00
      outer loop
         vertex 4.145327e+00 5.582783e-01 7.457754e-01
         vertex 4.145327e+00 5.682783e-01 7.457754e-01
         vertex 4.145327e+00 5.582783e-01 8.780313e-01
      endloop
   endfacet
   facet normal 1.000000e+00 -0.000000e+00 0.000000e+00
      outer loop
         vertex 4.145327e+00 5.582783e-01 8.780313e-01
         vertex 4.145327e+00 5.682783e-01 7.457754e-01
         vertex 4.145327e+00 5.682783e-01 8.780313e-01
      endloop
   endfacet
   facet normal 9.489479e-01 0.000000e+00 -3.154330e-01
      outer loop
         vertex 4.145327e+00 5.283333e-01 6.253370e-01
         vertex 4.145327e+00 5.163012e-01 6.253370e-01
         vertex 4.080628e+00 3.981000e-01 4.306990e-01
      endloop
   endfacet
   facet normal 9.489449e-01 1.603377e-05 -3.154417e-01
      outer loop
         vertex 4.080628e+00 3.981000e-01 4.306990e-01
         vertex 4.145327e+00 5.163012e-01 6.253370e-01
         vertex 4.082477e+00 3.897889e-01 4.362600e-01
      endloop
   endfacet
   facet normal 9.489500e-01 2.723529e-05 -3.154267e-01
      outer loop
         vertex 4.080628e+00 3.981000e-01 4.306990e-01
         vertex 4.082477e+00 3.897889e-01 4.362600e-01
         vertex 4.075849e+00 3.893312e-01 4.163184e-01
      endloop
   endfacet
   facet normal 9.489502e-01 -1.335355e-05 -3.154258e-01
      outer loop
         vertex 4.075849e+00 3.893312e-01 4.163184e-01
         vertex 4.082477e+00 3.897889e-01 4.362600e-01
         vertex 4.077458e+00 3.805816e-01 4.211603e-01
      endloop
   endfacet
   facet normal 9.489468e-01 -1.968349e-05 -3.154361e-01
      outer loop
         vertex 4.075849e+00 3.893312e-01 4.163184e-01
         vertex 4.077458e+00 3.805816e-01 4.211603e-01
         vertex 4.070840e+00 3.818035e-01 4.012508e-01
      endloop
   endfacet
   facet normal 9.489470e-01 -1.065168e-05 -3.154356e-01
      outer loop
         vertex 4.070840e+00 3.818035e-01 4.012508e-01
         vertex 4.077458e+00 3.805816e-01 4.211603e-01
         vertex 4.072199e+00 3.726775e-01 4.053395e-01
      endloop
   endfacet
   facet normal 9.489475e-01 -9.895542e-06 -3.154341e-01
      outer loop
         vertex 4.070840e+00 3.818035e-01 4.012508e-01
         vertex 4.072199e+00 3.726775e-01 4.053395e-01
         vertex 4.065639e+00 3.755702e-01 3.856034e-01
      endloop
   endfacet
   facet normal 9.489484e-01 1.131832e-05 -3.154313e-01
      outer loop
         vertex 4.065639e+00 3.755702e-01 3.856034e-01
         vertex 4.072199e+00 3.726775e-01 4.053395e-01
         vertex 4.066738e+00 3.661326e-01 3.889096e-01
      endloop
   endfacet
   facet normal 9.489452e-01 7.502609e-06 -3.154411e-01
      outer loop
         vertex 4.065639e+00 3.755702e-01 3.856034e-01
         vertex 4.066738e+00 3.661326e-01 3.889096e-01
         vertex 4.060281e+00 3.706757e-01 3.694870e-01
      endloop
   endfacet
   facet normal 9.489443e-01 -4.828599e-06 -3.154437e-01
      outer loop
         vertex 4.060281e+00 3.706757e-01 3.694870e-01
         vertex 4.066738e+00 3.661326e-01 3.889096e-01
         vertex 4.061112e+00 3.609934e-01 3.719874e-01
      endloop
   endfacet
   facet normal 9.489480e-01 -1.626977e-06 -3.154325e-01
      outer loop
         vertex 4.060281e+00 3.706757e-01 3.694870e-01
         vertex 4.061112e+00 3.609934e-01 3.719874e-01
         vertex 4.054806e+00 3.671547e-01 3.530158e-01
      endloop
   endfacet
   facet normal 9.489485e-01 3.281794e-06 -3.154311e-01
      outer loop
         vertex 4.054806e+00 3.671547e-01 3.530158e-01
         vertex 4.061112e+00 3.609934e-01 3.719874e-01
         vertex 4.055364e+00 3.572963e-01 3.546927e-01
      endloop
   endfacet
   facet normal 9.489544e-01 6.619740e-06 -3.154134e-01
      outer loop
         vertex 4.054806e+00 3.671547e-01 3.530158e-01
         vertex 4.055364e+00 3.572963e-01 3.546927e-01
         vertex 4.049253e+00 3.650320e-01 3.363068e-01
      endloop
   endfacet
   facet normal 9.489504e-01 -2.501149e-05 -3.154254e-01
      outer loop
         vertex 4.049253e+00 3.650320e-01 3.363068e-01
         vertex 4.055364e+00 3.572963e-01 3.546927e-01
         vertex 4.049532e+00 3.550674e-01 3.371483e-01
      endloop
   endfacet
   facet normal 9.489483e-01 -2.559224e-05 -3.154316e-01
      outer loop
         vertex 4.049253e+00 3.650320e-01 3.363068e-01
         vertex 4.049532e+00 3.550674e-01 3.371483e-01
         vertex 4.043659e+00 3.643227e-01 3.194785e-01
      endloop
   endfacet
   facet normal 9.489523e-01 0.000000e+00 -3.154195e-01
      outer loop
         vertex 4.043659e+00 3.643227e-01 3.194785e-01
         vertex 4.049532e+00 3.550674e-01 3.371483e-01
         vertex 4.043659e+00 3.543227e-01 3.194785e-01
      endloop
   endfacet
   facet normal 9.489461e-01 0.000000e+00 -3.154383e-01
      outer loop
         vertex 4.043659e+00 3.643227e-01 3.194785e-01
         vertex 4.043659e+00 3.543227e-01 3.194785e-01
         vertex 4.037349e+00 3.643227e-01 3.004974e-01
      endloop
   endfacet
   facet normal 9.489461e-01 0.000000e+00 -3.154383e-01
      outer loop
         vertex 4.037349e+00 3.643227e-01 3.004974e-01
         vertex 4.043659e+00 3.543227e-01 3.194785e-01
         vertex 4.037349e+00 3.543227e-01 3.004974e-01
      endloop
   endfacet
   facet normal 0.000000e+00 1.000000e+00 0.000000e+00
      outer loop
         vertex 4.043659e+00 -3.543227e-01 3.194785e-01
         vertex 4.037349e+00 -3.543227e-01 3.004974e-01
         vertex 3.756417e+00 -3.543227e-01 3.194785e-01
      endloop
   endfacet
   facet normal 0.000000e+00 1.000000e+00 0.000000e+00
      outer loop
         vertex 3.756417e+00 -3.543227e-01 3.194785e-01
         vertex 4.037349e+00 -3.543227e-01 3.004974e-01
         vertex 3.850816e+00 -3.543227e-01 2.542881e-01
      endloop
   endfacet
   facet normal 0.000000e+00 1.000000e+00 0.000000e+00
      outer loop
         vertex 3.756417e+00 -3.543227e-01 3.194785e-01
         vertex 3.850816e+00 -3.543227e-01 2.542881e-01
         vertex 3.781370e+00 -3.543227e-01 2.542881e-01
      endloop
   endfacet
   facet normal 0.000000e+00 0.000000e+00 -1.000000e+00
      outer loop
         vertex 3.850816e+00 -3.643227e-01 2.542881e-01
         vertex 3.781370e+00 -3.643227e-01 2.542881e-01
         vertex 3.850816e+00 -3.543227e-01 2.542881e-01
      endloop
   endfacet
   facet normal -0.000000e+00 0.000000e+00 -1.000000e+00
      outer loop
         vertex 3.850816e+00 -3.543227e-01 2.542881e-01
         vertex 3.781370e+00 -3.643227e-01 2.542881e-01
         vertex 3.781370e+00 -3.543227e-01 2.542881e-01
      endloop
   endfacet
   facet normal -0.000000e+00 -1.000000e+00 0.000000e+00
      outer loop
         vertex 4.037349e+00 -3.643227e-01 3.004974e-01
         vertex 4.043659e+00 -3.643227e-01 3.194785e-01
         vertex 3.850816e+00 -3.643227e-01 2.542881e-01
      endloop
   endfacet
   facet normal 0.000000e+00 -1.000000e+00 0.000000e+00
      outer loop
         vertex 3.850816e+00 -3.643227e-01 2.542881e-01
         vertex 4.043659e+00 -3.643227e-01 3.194785e-01
         vertex 3.756417e+00 -3.643227e-01 3.194785e-01
      endloop
   endfacet
   facet normal 0.000000e+00 -1.000000e+00 0.000000e+00
      outer loop
         vertex 3.850816e+00 -3.643227e-01 2.542881e-01
         vertex 3.756417e+00 -3.643227e-01 3.194785e-01
         vertex 3.781370e+00 -3.643227e-01 2.542881e-01
      endloop
   endfacet
   facet normal 0.000000e+00 -9.991131e-01 -4.210796e-02
      outer loop
         vertex 3.756417e+00 -3.643227e-01 3.194785e-01
         vertex 4.043659e+00 -3.643227e-01 3.194785e-01
         vertex 4.049253e+00 -3.650320e-01 3.363068e-01
      endloop
   endfacet
   facet normal 0.000000e+00 -9.991131e-01 -4.210796e-02
      outer loop
         vertex 3.756417e+00 -3.643227e-01 3.194785e-01
         vertex 4.049253e+00 -3.650320e-01 3.363068e-01
         vertex 3.749975e+00 -3.650320e-01 3.363068e-01
      endloop
   endfacet
   facet normal 0.000000e+00 -9.920269e-01 -1.260264e-01
      outer loop
         vertex 3.749975e+00 -3.650320e-01 3.363068e-01
         vertex 4.049253e+00 -3.650320e-01 3.363068e-01
         vertex 4.054806e+00 -3.671547e-01 3.530158e-01
      endloop
   endfacet
   facet normal 0.000000e+00 -9.920269e-01 -1.260264e-01
      outer loop
         vertex 3.749975e+00 -3.650320e-01 3.363068e-01
         vertex 4.054806e+00 -3.671547e-01 3.530158e-01
         vertex 3.743579e+00 -3.671547e-01 3.530158e-01
      endloop
   endfacet
   facet normal 0.000000e+00 -9.779050e-01 -2.090499e-01
      outer loop
         vertex 3.743579e+00 -3.671547e-01 3.530158e-01
         vertex 4.054806e+00 -3.671547e-01 3.530158e-01
         vertex 4.060281e+00 -3.706757e-01 3.694870e-01
      endloop
   endfacet
   facet normal 0.000000e+00 -9.779050e-01 -2.090499e-01
      outer loop
         vertex 3.743579e+00 -3.671547e-01 3.530158e-01
         vertex 4.060281e+00 -3.706757e-01 3.694870e-01
         vertex 3.737274e+00 -3.706757e-01 3.694870e-01
      endloop
   endfacet
   facet normal 0.000000e+00 -9.568475e-01 -2.905906e-01
      outer loop
         vertex 3.737274e+00 -3.706757e-01 3.694870e-01
         vertex 4.060281e+00 -3.706757e-01 3.694870e-01
         vertex 4.065639e+00 -3.755702e-01 3.856034e-01
      endloop
   endfacet
   facet normal 0.000000e+00 -9.568475e-01 -2.905906e-01
      outer loop
         vertex 3.737274e+00 -3.706757e-01 3.694870e-01
         vertex 4.065639e+00 -3.755702e-01 3.856034e-01
         vertex 3.731105e+00 -3.755702e-01 3.856034e-01
      endloop
   endfacet
   facet normal 0.000000e+00 -9.290032e-01 -3.700718e-01
      outer loop
         vertex 3.731105e+00 -3.755702e-01 3.856034e-01
         vertex 4.065639e+00 -3.755702e-01 3.856034e-01
         vertex 4.070840e+00 -3.818035e-01 4.012508e-01
      endloop
   endfacet
   facet normal 0.000000e+00 -9.290032e-01 -3.700718e-01
      outer loop
         vertex 3.731105e+00 -3.755702e-01 3.856034e-01
         vertex 4.070840e+00 -3.818035e-01 4.012508e-01
         vertex 3.725116e+00 -3.818035e-01 4.012508e-01
      endloop
   endfacet
   facet normal 0.000000e+00 -8.945708e-01 -4.469262e-01
      outer loop
         vertex 3.725116e+00 -3.818035e-01 4.012508e-01
         vertex 4.070840e+00 -3.818035e-01 4.012508e-01
         vertex 4.075849e+00 -3.893312e-01 4.163184e-01
      endloop
   endfacet
   facet normal 0.000000e+00 -8.945708e-01 -4.469262e-01
      outer loop
         vertex 3.725116e+00 -3.818035e-01 4.012508e-01
         vertex 4.075849e+00 -3.893312e-01 4.163184e-01
         vertex 3.719348e+00 -3.893312e-01 4.163184e-01
      endloop
   endfacet
   facet normal 0.000000e+00 -8.537928e-01 -5.206130e-01
      outer loop
         vertex 3.719348e+00 -3.893312e-01 4.163184e-01
         vertex 4.075849e+00 -3.893312e-01 4.163184e-01
         vertex 4.080628e+00 -3.981000e-01 4.306990e-01
      endloop
   endfacet
   facet normal 0.000000e+00 -8.537928e-01 -5.206130e-01
      outer loop
         vertex 3.719348e+00 -3.893312e-01 4.163184e-01
         vertex 4.080628e+00 -3.981000e-01 4.306990e-01
         vertex 3.713843e+00 -3.981000e-01 4.306990e-01
      endloop
   endfacet
   facet normal -0.000000e+00 -8.311157e-01 -5.560996e-01
      outer loop
         vertex 4.145327e+00 -5.345010e-01 6.345549e-01
         vertex 3.635811e+00 -5.345010e-01 6.345549e-01
         vertex 4.145327e+00 -5.283333e-01 6.253370e-01
      endloop
   endfacet
   facet normal -7.594281e-08 -8.311137e-01 -5.561025e-01
      outer loop
         vertex 4.145327e+00 -5.283333e-01 6.253370e-01
         vertex 3.635811e+00 -5.345010e-01 6.345549e-01
         vertex 3.713843e+00 -3.981000e-01 4.306990e-01
      endloop
   endfacet
   facet normal 0.000000e+00 -8.311137e-01 -5.561026e-01
      outer loop
         vertex 4.145327e+00 -5.283333e-01 6.253370e-01
         vertex 3.713843e+00 -3.981000e-01 4.306990e-01
         vertex 4.080628e+00 -3.981000e-01 4.306990e-01
      endloop
   endfacet
   facet normal -0.000000e+00 -8.537925e-01 -5.206135e-01
      outer loop
         vertex 4.145327e+00 -5.345010e-01 6.345549e-01
         vertex 4.145327e+00 -5.432699e-01 6.489356e-01
         vertex 3.635811e+00 -5.345010e-01 6.345549e-01
      endloop
   endfacet
   facet normal -1.494340e-07 -8.537948e-01 -5.206097e-01
      outer loop
         vertex 3.635811e+00 -5.345010e-01 6.345549e-01
         vertex 4.145327e+00 -5.432699e-01 6.489356e-01
         vertex 3.630306e+00 -5.432709e-01 6.489375e-01
      endloop
   endfacet
   facet normal 3.927208e-08 -8.760695e-01 -4.821849e-01
      outer loop
         vertex 3.630306e+00 -5.432709e-01 6.489375e-01
         vertex 4.145327e+00 -5.432699e-01 6.489356e-01
         vertex 3.630000e+00 -5.437104e-01 6.497359e-01
      endloop
   endfacet
   facet normal 7.060383e-05 -8.945701e-01 -4.469276e-01
      outer loop
         vertex 3.630000e+00 -5.437104e-01 6.497359e-01
         vertex 4.145327e+00 -5.432699e-01 6.489356e-01
         vertex 4.145327e+00 -5.507976e-01 6.640031e-01
      endloop
   endfacet
   facet normal 0.000000e+00 -8.955885e-01 -4.448833e-01
      outer loop
         vertex 3.630000e+00 -5.437104e-01 6.497359e-01
         vertex 4.145327e+00 -5.507976e-01 6.640031e-01
         vertex 3.630000e+00 -5.507976e-01 6.640031e-01
      endloop
   endfacet
   facet normal 0.000000e+00 -9.290034e-01 -3.700712e-01
      outer loop
         vertex 3.630000e+00 -5.507976e-01 6.640031e-01
         vertex 4.145327e+00 -5.507976e-01 6.640031e-01
         vertex 4.145327e+00 -5.570308e-01 6.796505e-01
      endloop
   endfacet
   facet normal 0.000000e+00 -9.290034e-01 -3.700712e-01
      outer loop
         vertex 3.630000e+00 -5.507976e-01 6.640031e-01
         vertex 4.145327e+00 -5.570308e-01 6.796505e-01
         vertex 3.630000e+00 -5.570308e-01 6.796505e-01
      endloop
   endfacet
   facet normal 0.000000e+00 -9.568475e-01 -2.905906e-01
      outer loop
         vertex 3.630000e+00 -5.570308e-01 6.796505e-01
         vertex 4.145327e+00 -5.570308e-01 6.796505e-01
         vertex 4.145327e+00 -5.619253e-01 6.957670e-01
      endloop
   endfacet
   facet normal 0.000000e+00 -9.568475e-01 -2.905906e-01
      outer loop
         vertex 3.630000e+00 -5.570308e-01 6.796505e-01
         vertex 4.145327e+00 -5.619253e-01 6.957670e-01
         vertex 3.630000e+00 -5.619253e-01 6.957670e-01
      endloop
   endfacet
   facet normal 0.000000e+00 -9.779050e-01 -2.090496e-01
      outer loop
         vertex 3.630000e+00 -5.619253e-01 6.957670e-01
         vertex 4.145327e+00 -5.619253e-01 6.957670e-01
         vertex 4.145327e+00 -5.654464e-01 7.122381e-01
      endloop
   endfacet
   facet normal 0.000000e+00 -9.779050e-01 -2.090496e-01
      outer loop
         vertex 3.630000e+00 -5.619253e-01 6.957670e-01
         vertex 4.145327e+00 -5.654464e-01 7.122381e-01
         vertex 3.630000e+00 -5.654464e-01 7.122381e-01
      endloop
   endfacet
   facet normal 0.000000e+00 -9.920269e-01 -1.260267e-01
      outer loop
         vertex 3.630000e+00 -5.654464e-01 7.122381e-01
         vertex 4.145327e+00 -5.654464e-01 7.122381e-01
         vertex 4.145327e+00 -5.675691e-01 7.289471e-01
      endloop
   endfacet
   facet normal 0.000000e+00 -9.920269e-01 -1.260267e-01
      outer loop
         vertex 3.630000e+00 -5.654464e-01 7.122381e-01
         vertex 4.145327e+00 -5.675691e-01 7.289471e-01
         vertex 3.630000e+00 -5.675691e-01 7.289471e-01
      endloop
   endfacet
   facet normal 0.000000e+00 -9.991131e-01 -4.210804e-02
      outer loop
         vertex 3.630000e+00 -5.675691e-01 7.289471e-01
         vertex 4.145327e+00 -5.675691e-01 7.289471e-01
         vertex 4.145327e+00 -5.682783e-01 7.457754e-01
      endloop
   endfacet
   facet normal 0.000000e+00 -9.991131e-01 -4.210804e-02
      outer loop
         vertex 3.630000e+00 -5.675691e-01 7.289471e-01
         vertex 4.145327e+00 -5.682783e-01 7.457754e-01
         vertex 3.630000e+00 -5.682783e-01 7.457754e-01
      endloop
   endfacet
   facet normal 0.000000e+00 -1.000000e+00 0.000000e+00
      outer loop
         vertex 3.630000e+00 -5.682783e-01 7.457754e-01
         vertex 4.145327e+00 -5.682783e-01 7.457754e-01
         vertex 3.630000e+00 -5.682783e-01 8.780313e-01
      endloop
   endfacet
   facet normal 0.000000e+00 -1.000000e+00 0.000000e+00
      outer loop
         vertex 3.630000e+00 -5.682783e-01 8.780313e-01
         vertex 4.145327e+00 -5.682783e-01 7.457754e-01
         vertex 4.145327e+00 -5.682783e-01 8.780313e-01
      endloop
   endfacet
   facet normal 0.000000e+00 0.000000e+00 1.000000e+00
      outer loop
         vertex 3.630000e+00 -5.682783e-01 8.780313e-01
         vertex 4.145327e+00 -5.682783e-01 8.780313e-01
         vertex 3.630000e+00 -5.582783e-01 8.780313e-01
      endloop
   endfacet
   facet normal -0.000000e+00 0.000000e+00 1.000000e+00
      outer loop
         vertex 3.630000e+00 -5.582783e-01 8.780313e-01
         vertex 4.145327e+00 -5.682783e-01 8.780313e-01
         vertex 4.145327e+00 -5.582783e-01 8.780313e-01
      endloop
   endfacet
   facet normal 0.000000e+00 1.000000e+00 0.000000e+00
      outer loop
         vertex 3.630000e+00 -5.582783e-01 7.457754e-01
         vertex 3.630000e+00 -5.582783e-01 8.780313e-01
         vertex 4.145327e+00 -5.582783e-01 7.457754e-01
      endloop
   endfacet
   facet normal 0.000000e+00 1.000000e+00 -0.000000e+00
      outer loop
         vertex 4.145327e+00 -5.582783e-01 7.457754e-01
         vertex 3.630000e+00 -5.582783e-01 8.780313e-01
         vertex 4.145327e+00 -5.582783e-01 8.780313e-01
      endloop
   endfacet
   facet normal -0.000000e+00 9.991131e-01 4.210776e-02
      outer loop
         vertex 3.630000e+00 -5.582783e-01 7.457754e-01
         vertex 4.145327e+00 -5.582783e-01 7.457754e-01
         vertex 3.630000e+00 -5.576046e-01 7.297885e-01
      endloop
   endfacet
   facet normal -0.000000e+00 9.991131e-01 4.210776e-02
      outer loop
         vertex 3.630000e+00 -5.576046e-01 7.297885e-01
         vertex 4.145327e+00 -5.582783e-01 7.457754e-01
         vertex 4.145327e+00 -5.576046e-01 7.297885e-01
      endloop
   endfacet
   facet normal -0.000000e+00 9.920265e-01 1.260293e-01
      outer loop
         vertex 3.630000e+00 -5.576046e-01 7.297885e-01
         vertex 4.145327e+00 -5.576046e-01 7.297885e-01
         vertex 3.630000e+00 -5.555879e-01 7.139150e-01
      endloop
   endfacet
   facet normal -0.000000e+00 9.920265e-01 1.260293e-01
      outer loop
         vertex 3.630000e+00 -5.555879e-01 7.139150e-01
         vertex 4.145327e+00 -5.576046e-01 7.297885e-01
         vertex 4.145327e+00 -5.555879e-01 7.139150e-01
      endloop
   endfacet
   facet normal -0.000000e+00 9.779053e-01 2.090485e-01
      outer loop
         vertex 3.630000e+00 -5.555879e-01 7.139150e-01
         vertex 4.145327e+00 -5.555879e-01 7.139150e-01
         vertex 3.630000e+00 -5.522429e-01 6.982674e-01
      endloop
   endfacet
   facet normal -0.000000e+00 9.779053e-01 2.090485e-01
      outer loop
         vertex 3.630000e+00 -5.522429e-01 6.982674e-01
         vertex 4.145327e+00 -5.555879e-01 7.139150e-01
         vertex 4.145327e+00 -5.522429e-01 6.982674e-01
      endloop
   endfacet
   facet normal -0.000000e+00 9.568475e-01 2.905904e-01
      outer loop
         vertex 3.630000e+00 -5.522429e-01 6.982674e-01
         vertex 4.145327e+00 -5.522429e-01 6.982674e-01
         vertex 3.630000e+00 -5.475932e-01 6.829568e-01
      endloop
   endfacet
   facet normal -0.000000e+00 9.568475e-01 2.905904e-01
      outer loop
         vertex 3.630000e+00 -5.475932e-01 6.829568e-01
         vertex 4.145327e+00 -5.522429e-01 6.982674e-01
         vertex 4.145327e+00 -5.475932e-01 6.829568e-01
      endloop
   endfacet
   facet normal -0.000000e+00 9.290037e-01 3.700705e-01
      outer loop
         vertex 3.630000e+00 -5.475932e-01 6.829568e-01
         vertex 4.145327e+00 -5.475932e-01 6.829568e-01
         vertex 3.630000e+00 -5.416716e-01 6.680917e-01
      endloop
   endfacet
   facet normal -0.000000e+00 9.290037e-01 3.700705e-01
      outer loop
         vertex 3.630000e+00 -5.416716e-01 6.680917e-01
         vertex 4.145327e+00 -5.475932e-01 6.829568e-01
         vertex 4.145327e+00 -5.416716e-01 6.680917e-01
      endloop
   endfacet
   facet normal -0.000000e+00 8.945694e-01 4.469290e-01
      outer loop
         vertex 3.630000e+00 -5.416716e-01 6.680917e-01
         vertex 4.145327e+00 -5.416716e-01 6.680917e-01
         vertex 3.630000e+00 -5.345203e-01 6.537776e-01
      endloop
   endfacet
   facet normal -0.000000e+00 8.945694e-01 4.469290e-01
      outer loop
         vertex 3.630000e+00 -5.345203e-01 6.537776e-01
         vertex 4.145327e+00 -5.416716e-01 6.680917e-01
         vertex 4.145327e+00 -5.345203e-01 6.537776e-01
      endloop
   endfacet
   facet normal -0.000000e+00 8.689709e-01 4.948632e-01
      outer loop
         vertex 3.630000e+00 -5.345203e-01 6.537776e-01
         vertex 4.145327e+00 -5.345203e-01 6.537776e-01
         vertex 3.630000e+00 -5.322186e-01 6.497359e-01
      endloop
   endfacet
   facet normal -2.697151e-04 8.537947e-01 5.206097e-01
      outer loop
         vertex 3.630000e+00 -5.322186e-01 6.497359e-01
         vertex 4.145327e+00 -5.345203e-01 6.537776e-01
         vertex 4.145327e+00 -5.261899e-01 6.401159e-01
      endloop
   endfacet
   facet normal 0.000000e+00 8.473570e-01 5.310236e-01
      outer loop
         vertex 3.630000e+00 -5.322186e-01 6.497359e-01
         vertex 4.145327e+00 -5.261899e-01 6.401159e-01
         vertex 3.633682e+00 -5.261899e-01 6.401159e-01
      endloop
   endfacet
   facet normal 0.000000e+00 8.311138e-01 5.561024e-01
      outer loop
         vertex 4.082477e+00 -3.897889e-01 4.362600e-01
         vertex 3.711715e+00 -3.897889e-01 4.362600e-01
         vertex 4.145327e+00 -5.163012e-01 6.253370e-01
      endloop
   endfacet
   facet normal -9.736212e-08 8.311137e-01 5.561026e-01
      outer loop
         vertex 4.145327e+00 -5.163012e-01 6.253370e-01
         vertex 3.711715e+00 -3.897889e-01 4.362600e-01
         vertex 3.633682e+00 -5.261899e-01 6.401159e-01
      endloop
   endfacet
   facet normal 0.000000e+00 8.311121e-01 5.561049e-01
      outer loop
         vertex 4.145327e+00 -5.163012e-01 6.253370e-01
         vertex 3.633682e+00 -5.261899e-01 6.401159e-01
         vertex 4.145327e+00 -5.261899e-01 6.401159e-01
      endloop
   endfacet
   facet normal 0.000000e+00 9.991131e-01 4.210808e-02
      outer loop
         vertex 4.043659e+00 -3.543227e-01 3.194785e-01
         vertex 3.756417e+00 -3.543227e-01 3.194785e-01
         vertex 3.749653e+00 -3.550674e-01 3.371483e-01
      endloop
   endfacet
   facet normal 0.000000e+00 9.991131e-01 4.210808e-02
      outer loop
         vertex 4.043659e+00 -3.543227e-01 3.194785e-01
         vertex 3.749653e+00 -3.550674e-01 3.371483e-01
         vertex 4.049532e+00 -3.550674e-01 3.371483e-01
      endloop
   endfacet
   facet normal 0.000000e+00 9.920269e-01 1.260262e-01
      outer loop
         vertex 4.049532e+00 -3.550674e-01 3.371483e-01
         vertex 3.749653e+00 -3.550674e-01 3.371483e-01
         vertex 3.742937e+00 -3.572963e-01 3.546927e-01
      endloop
   endfacet
   facet normal 0.000000e+00 9.920269e-01 1.260262e-01
      outer loop
         vertex 4.049532e+00 -3.550674e-01 3.371483e-01
         vertex 3.742937e+00 -3.572963e-01 3.546927e-01
         vertex 4.055364e+00 -3.572963e-01 3.546927e-01
      endloop
   endfacet
   facet normal 0.000000e+00 9.779051e-01 2.090493e-01
      outer loop
         vertex 4.055364e+00 -3.572963e-01 3.546927e-01
         vertex 3.742937e+00 -3.572963e-01 3.546927e-01
         vertex 3.736317e+00 -3.609934e-01 3.719874e-01
      endloop
   endfacet
   facet normal 0.000000e+00 9.779051e-01 2.090493e-01
      outer loop
         vertex 4.055364e+00 -3.572963e-01 3.546927e-01
         vertex 3.736317e+00 -3.609934e-01 3.719874e-01
         vertex 4.061112e+00 -3.609934e-01 3.719874e-01
      endloop
   endfacet
   facet normal 0.000000e+00 9.568473e-01 2.905911e-01
      outer loop
         vertex 4.061112e+00 -3.609934e-01 3.719874e-01
         vertex 3.736317e+00 -3.609934e-01 3.719874e-01
         vertex 3.729840e+00 -3.661326e-01 3.889096e-01
      endloop
   endfacet
   facet normal 0.000000e+00 9.568473e-01 2.905911e-01
      outer loop
         vertex 4.061112e+00 -3.609934e-01 3.719874e-01
         vertex 3.729840e+00 -3.661326e-01 3.889096e-01
         vertex 4.066738e+00 -3.661326e-01 3.889096e-01
      endloop
   endfacet
   facet normal 0.000000e+00 9.290031e-01 3.700718e-01
      outer loop
         vertex 4.066738e+00 -3.661326e-01 3.889096e-01
         vertex 3.729840e+00 -3.661326e-01 3.889096e-01
         vertex 3.723551e+00 -3.726775e-01 4.053395e-01
      endloop
   endfacet
   facet normal 0.000000e+00 9.290031e-01 3.700718e-01
      outer loop
         vertex 4.066738e+00 -3.661326e-01 3.889096e-01
         vertex 3.723551e+00 -3.726775e-01 4.053395e-01
         vertex 4.072199e+00 -3.726775e-01 4.053395e-01
      endloop
   endfacet
   facet normal 0.000000e+00 8.945707e-01 4.469264e-01
      outer loop
         vertex 4.072199e+00 -3.726775e-01 4.053395e-01
         vertex 3.723551e+00 -3.726775e-01 4.053395e-01
         vertex 3.717494e+00 -3.805816e-01 4.211603e-01
      endloop
   endfacet
   facet normal 0.000000e+00 8.945707e-01 4.469264e-01
      outer loop
         vertex 4.072199e+00 -3.726775e-01 4.053395e-01
         vertex 3.717494e+00 -3.805816e-01 4.211603e-01
         vertex 4.077458e+00 -3.805816e-01 4.211603e-01
      endloop
   endfacet
   facet normal 0.000000e+00 8.537926e-01 5.206133e-01
      outer loop
         vertex 4.077458e+00 -3.805816e-01 4.211603e-01
         vertex 3.717494e+00 -3.805816e-01 4.211603e-01
         vertex 3.711715e+00 -3.897889e-01 4.362600e-01
      endloop
   endfacet
   facet normal 0.000000e+00 8.537926e-01 5.206133e-01
      outer loop
         vertex 4.077458e+00 -3.805816e-01 4.211603e-01
         vertex 3.711715e+00 -3.897889e-01 4.362600e-01
         vertex 4.082477e+00 -3.897889e-01 4.362600e-01
      endloop
   endfacet
   facet normal -1.000000e+00 0.000000e+00 0.000000e+00
      outer loop
         vertex 3.630000e+00 -5.682783e-01 8.780313e-01
         vertex 3.630000e+00 -5.582783e-01 8.780313e-01
         vertex 3.630000e+00 -5.682783e-01 7.457754e-01
      endloop
   endfacet
   facet normal -1.000000e+00 0.000000e+00 0.000000e+00
      outer loop
         vertex 3.630000e+00 -5.682783e-01 7.457754e-01
         vertex 3.630000e+00 -5.582783e-01 8.780313e-01
         vertex 3.630000e+00 -5.582783e-01 7.457754e-01
      endloop
   endfacet
   facet normal -1.000000e+00 0.000000e+00 0.000000e+00
      outer loop
         vertex 3.630000e+00 -5.682783e-01 7.457754e-01
         vertex 3.630000e+00 -5.582783e-01 7.457754e-01
         vertex 3.630000e+00 -5.675691e-01 7.289471e-01
      endloop
   endfacet
   facet normal -1.000000e+00 0.000000e+00 0.000000e+00
      outer loop
         vertex 3.630000e+00 -5.675691e-01 7.289471e-01
         vertex 3.630000e+00 -5.582783e-01 7.457754e-01
         vertex 3.630000e+00 -5.576046e-01 7.297885e-01
      endloop
   endfacet
   facet normal -1.000000e+00 0.000000e+00 0.000000e+00
      outer loop
         vertex 3.630000e+00 -5.675691e-01 7.289471e-01
         vertex 3.630000e+00 -5.576046e-01 7.297885e-01
         vertex 3.630000e+00 -5.654464e-01 7.122381e-01
      endloop
   endfacet
   facet normal -1.000000e+00 0.000000e+00 0.000000e+00
      outer loop
         vertex 3.630000e+00 -5.654464e-01 7.122381e-01
         vertex 3.630000e+00 -5.576046e-01 7.297885e-01
         vertex 3.630000e+00 -5.555879e-01 7.139150e-01
      endloop
   endfacet
   facet normal -1.000000e+00 0.000000e+00 0.000000e+00
      outer loop
         vertex 3.630000e+00 -5.654464e-01 7.122381e-01
         vertex 3.630000e+00 -5.555879e-01 7.139150e-01
         vertex 3.630000e+00 -5.619253e-01 6.957670e-01
      endloop
   endfacet
   facet normal -1.000000e+00 0.000000e+00 0.000000e+00
      outer loop
         vertex 3.630000e+00 -5.619253e-01 6.957670e-01
         vertex 3.630000e+00 -5.555879e-01 7.139150e-01
         vertex 3.630000e+00 -5.522429e-01 6.982674e-01
      endloop
   endfacet
   facet normal -1.000000e+00 0.000000e+00 0.000000e+00
      outer loop
         vertex 3.630000e+00 -5.619253e-01 6.957670e-01
         vertex 3.630000e+00 -5.522429e-01 6.982674e-01
         vertex 3.630000e+00 -5.570308e-01 6.796505e-01
      endloop
   endfacet
   facet normal -1.000000e+00 0.000000e+00 0.000000e+00
      outer loop
         vertex 3.630000e+00 -5.570308e-01 6.796505e-01
         vertex 3.630000e+00 -5.522429e-01 6.982674e-01
         vertex 3.630000e+00 -5.475932e-01 6.829568e-01
      endloop
   endfacet
   facet normal -1.000000e+00 0.000000e+00 0.000000e+00
      outer loop
         vertex 3.630000e+00 -5.570308e-01 6.796505e-01
         vertex 3.630000e+00 -5.475932e-01 6.829568e-01
         vertex 3.630000e+00 -5.507976e-01 6.640031e-01
      endloop
   endfacet
   facet normal -1.000000e+00 0.000000e+00 0.000000e+00
      outer loop
         vertex 3.630000e+00 -5.507976e-01 6.640031e-01
         vertex 3.630000e+00 -5.475932e-01 6.829568e-01
         vertex 3.630000e+00 -5.416716e-01 6.680917e-01
      endloop
   endfacet
   facet normal -1.000000e+00 0.000000e+00 0.000000e+00
      outer loop
         vertex 3.630000e+00 -5.507976e-01 6.640031e-01
         vertex 3.630000e+00 -5.416716e-01 6.680917e-01
         vertex 3.630000e+00 -5.437104e-01 6.497359e-01
      endloop
   endfacet
   facet normal -1.000000e+00 0.000000e+00 0.000000e+00
      outer loop
         vertex 3.630000e+00 -5.437104e-01 6.497359e-01
         vertex 3.630000e+00 -5.416716e-01 6.680917e-01
         vertex 3.630000e+00 -5.345203e-01 6.537776e-01
      endloop
   endfacet
   facet normal -1.000000e+00 0.000000e+00 0.000000e+00
      outer loop
         vertex 3.630000e+00 -5.437104e-01 6.497359e-01
         vertex 3.630000e+00 -5.345203e-01 6.537776e-01
         vertex 3.630000e+00 -5.322186e-01 6.497359e-01
      endloop
   endfacet
   facet normal -9.339875e-01 0.000000e+00 -3.573057e-01
      outer loop
         vertex 3.630000e+00 -5.437104e-01 6.497359e-01
         vertex 3.630000e+00 -5.322186e-01 6.497359e-01
         vertex 3.630306e+00 -5.432709e-01 6.489375e-01
      endloop
   endfacet
   facet normal -9.339275e-01 1.297620e-05 -3.574624e-01
      outer loop
         vertex 3.630306e+00 -5.432709e-01 6.489375e-01
         vertex 3.630000e+00 -5.322186e-01 6.497359e-01
         vertex 3.633682e+00 -5.261899e-01 6.401159e-01
      endloop
   endfacet
   facet normal -9.339187e-01 -0.000000e+00 -3.574855e-01
      outer loop
         vertex 3.781370e+00 -3.543227e-01 2.542881e-01
         vertex 3.781370e+00 -3.643227e-01 2.542881e-01
         vertex 3.756417e+00 -3.543227e-01 3.194785e-01
      endloop
   endfacet
   facet normal -9.339187e-01 -0.000000e+00 -3.574855e-01
      outer loop
         vertex 3.756417e+00 -3.543227e-01 3.194785e-01
         vertex 3.781370e+00 -3.643227e-01 2.542881e-01
         vertex 3.756417e+00 -3.643227e-01 3.194785e-01
      endloop
   endfacet
   facet normal -9.339176e-01 -0.000000e+00 -3.574883e-01
      outer loop
         vertex 3.756417e+00 -3.543227e-01 3.194785e-01
         vertex 3.756417e+00 -3.643227e-01 3.194785e-01
         vertex 3.749653e+00 -3.550674e-01 3.371483e-01
      endloop
   endfacet
   facet normal -9.339179e-01 -1.427588e-06 -3.574877e-01
      outer loop
         vertex 3.749653e+00 -3.550674e-01 3.371483e-01
         vertex 3.756417e+00 -3.643227e-01 3.194785e-01
         vertex 3.749975e+00 -3.650320e-01 3.363068e-01
      endloop
   endfacet
   facet normal -9.339165e-01 -1.086506e-06 -3.574912e-01
      outer loop
         vertex 3.749653e+00 -3.550674e-01 3.371483e-01
         vertex 3.749975e+00 -3.650320e-01 3.363068e-01
         vertex 3.742937e+00 -3.572963e-01 3.546927e-01
      endloop
   endfacet
   facet normal -9.339155e-01 5.858514e-06 -3.574937e-01
      outer loop
         vertex 3.742937e+00 -3.572963e-01 3.546927e-01
         vertex 3.749975e+00 -3.650320e-01 3.363068e-01
         vertex 3.743579e+00 -3.671547e-01 3.530158e-01
      endloop
   endfacet
   facet normal -9.339212e-01 2.972871e-06 -3.574789e-01
      outer loop
         vertex 3.742937e+00 -3.572963e-01 3.546927e-01
         vertex 3.743579e+00 -3.671547e-01 3.530158e-01
         vertex 3.736317e+00 -3.609934e-01 3.719874e-01
      endloop
   endfacet
   facet normal -9.339207e-01 7.811424e-06 -3.574803e-01
      outer loop
         vertex 3.736317e+00 -3.609934e-01 3.719874e-01
         vertex 3.743579e+00 -3.671547e-01 3.530158e-01
         vertex 3.737274e+00 -3.706757e-01 3.694870e-01
      endloop
   endfacet
   facet normal -9.339181e-01 9.826727e-06 -3.574871e-01
      outer loop
         vertex 3.736317e+00 -3.609934e-01 3.719874e-01
         vertex 3.737274e+00 -3.706757e-01 3.694870e-01
         vertex 3.729840e+00 -3.661326e-01 3.889096e-01
      endloop
   endfacet
   facet normal -9.339185e-01 3.825028e-06 -3.574859e-01
      outer loop
         vertex 3.729840e+00 -3.661326e-01 3.889096e-01
         vertex 3.737274e+00 -3.706757e-01 3.694870e-01
         vertex 3.731105e+00 -3.755702e-01 3.856034e-01
      endloop
   endfacet
   facet normal -9.339193e-01 3.019055e-06 -3.574839e-01
      outer loop
         vertex 3.729840e+00 -3.661326e-01 3.889096e-01
         vertex 3.731105e+00 -3.755702e-01 3.856034e-01
         vertex 3.723551e+00 -3.726775e-01 4.053395e-01
      endloop
   endfacet
   facet normal -9.339191e-01 6.636561e-06 -3.574844e-01
      outer loop
         vertex 3.723551e+00 -3.726775e-01 4.053395e-01
         vertex 3.731105e+00 -3.755702e-01 3.856034e-01
         vertex 3.725116e+00 -3.818035e-01 4.012508e-01
      endloop
   endfacet
   facet normal -9.339171e-01 9.349411e-06 -3.574896e-01
      outer loop
         vertex 3.723551e+00 -3.726775e-01 4.053395e-01
         vertex 3.725116e+00 -3.818035e-01 4.012508e-01
         vertex 3.717494e+00 -3.805816e-01 4.211603e-01
      endloop
   endfacet
   facet normal -9.339174e-01 -3.261012e-06 -3.574890e-01
      outer loop
         vertex 3.717494e+00 -3.805816e-01 4.211603e-01
         vertex 3.725116e+00 -3.818035e-01 4.012508e-01
         vertex 3.719348e+00 -3.893312e-01 4.163184e-01
      endloop
   endfacet
   facet normal -9.339198e-01 -7.234923e-06 -3.574827e-01
      outer loop
         vertex 3.717494e+00 -3.805816e-01 4.211603e-01
         vertex 3.719348e+00 -3.893312e-01 4.163184e-01
         vertex 3.711715e+00 -3.897889e-01 4.362600e-01
      endloop
   endfacet
   facet normal -9.339198e-01 3.117411e-06 -3.574825e-01
      outer loop
         vertex 3.711715e+00 -3.897889e-01 4.362600e-01
         vertex 3.719348e+00 -3.893312e-01 4.163184e-01
         vertex 3.713843e+00 -3.981000e-01 4.306990e-01
      endloop
   endfacet
   facet normal -9.339190e-01 4.849817e-06 -3.574847e-01
      outer loop
         vertex 3.711715e+00 -3.897889e-01 4.362600e-01
         vertex 3.713843e+00 -3.981000e-01 4.306990e-01
         vertex 3.633682e+00 -5.261899e-01 6.401159e-01
      endloop
   endfacet
   facet normal -9.339149e-01 -1.507053e-05 -3.574954e-01
      outer loop
         vertex 3.633682e+00 -5.261899e-01 6.401159e-01
         vertex 3.713843e+00 -3.981000e-01 4.306990e-01
         vertex 3.635811e+00 -5.345010e-01 6.345549e-01
      endloop
   endfacet
   facet normal -9.339125e-01 -1.027357e-05 -3.575016e-01
      outer loop
         vertex 3.633682e+00 -5.261899e-01 6.401159e-01
         vertex 3.635811e+00 -5.345010e-01 6.345549e-01
         vertex 3.630306e+00 -5.432709e-01 6.489375e-01
      endloop
   endfacet
   facet normal 2.404578e-01 0.000000e+00 -9.706596e-01
      outer loop
         vertex 4.037349e+00 -3.643227e-01 3.004974e-01
         vertex 3.850816e+00 -3.643227e-01 2.542881e-01
         vertex 4.037349e+00 -3.543227e-01 3.004974e-01
      endloop
   endfacet
   facet normal 2.404578e-01 0.000000e+00 -9.706596e-01
      outer loop
         vertex 4.037349e+00 -3.543227e-01 3.004974e-01
         vertex 3.850816e+00 -3.643227e-01 2.542881e-01
         vertex 3.850816e+00 -3.543227e-01 2.542881e-01
      endloop
   endfacet
   facet normal 1.000000e+00 0.000000e+00 0.000000e+00
      outer loop
         vertex 4.145327e+00 -5.582783e-01 8.780313e-01
         vertex 4.145327e+00 -5.682783e-01 8.780313e-01
         vertex 4.145327e+00 -5.582783e-01 7.457754e-01
      endloop
   endfacet
   facet normal 1.000000e+00 0.000000e+00 0.000000e+00
      outer loop
         vertex 4.145327e+00 -5.582783e-01 7.457754e-01
         vertex 4.145327e+00 -5.682783e-01 8.780313e-01
         vertex 4.145327e+00 -5.682783e-01 7.457754e-01
      endloop
   endfacet
   facet normal 1.000000e+00 0.000000e+00 0.000000e+00
      outer loop
         vertex 4.145327e+00 -5.582783e-01 7.457754e-01
         vertex 4.145327e+00 -5.682783e-01 7.457754e-01
         vertex 4.145327e+00 -5.576046e-01 7.297885e-01
      endloop
   endfacet
   facet normal 1.000000e+00 0.000000e+00 0.000000e+00
      outer loop
         vertex 4.145327e+00 -5.576046e-01 7.297885e-01
         vertex 4.145327e+00 -5.682783e-01 7.457754e-01
         vertex 4.145327e+00 -5.675691e-01 7.289471e-01
      endloop
   endfacet
   facet normal 1.000000e+00 0.000000e+00 0.000000e+00
      outer loop
         vertex 4.145327e+00 -5.576046e-01 7.297885e-01
         vertex 4.145327e+00 -5.675691e-01 7.289471e-01
         vertex 4.145327e+00 -5.555879e-01 7.139150e-01
      endloop
   endfacet
   facet normal 1.000000e+00 0.000000e+00 0.000000e+00
      outer loop
         vertex 4.145327e+00 -5.555879e-01 7.139150e-01
         vertex 4.145327e+00 -5.675691e-01 7.289471e-01
         vertex 4.145327e+00 -5.654464e-01 7.122381e-01
      endloop
   endfacet
   facet normal 1.000000e+00 0.000000e+00 0.000000e+00
      outer loop
         vertex 4.145327e+00 -5.555879e-01 7.139150e-01
         vertex 4.145327e+00 -5.654464e-01 7.122381e-01
         vertex 4.145327e+00 -5.522429e-01 6.982674e-01
      endloop
   endfacet
   facet normal 1.000000e+00 0.000000e+00 0.000000e+00
      outer loop
         vertex 4.145327e+00 -5.522429e-01 6.982674e-01
         vertex 4.145327e+00 -5.654464e-01 7.122381e-01
         vertex 4.145327e+00 -5.619253e-01 6.957670e-01
      endloop
   endfacet
   facet normal 1.000000e+00 0.000000e+00 0.000000e+00
      outer loop
         vertex 4.145327e+00 -5.522429e-01 6.982674e-01
         vertex 4.145327e+00 -5.619253e-01 6.957670e-01
         vertex 4.145327e+00 -5.475932e-01 6.829568e-01
      endloop
   endfacet
   facet normal 1.000000e+00 0.000000e+00 0.000000e+00
      outer loop
         vertex 4.145327e+00 -5.475932e-01 6.829568e-01
         vertex 4.145327e+00 -5.619253e-01 6.957670e-01
         vertex 4.145327e+00 -5.570308e-01 6.796505e-01
      endloop
   endfacet
   facet normal 1.000000e+00 0.000000e+00 0.000000e+00
      outer loop
         vertex 4.145327e+00 -5.475932e-01 6.829568e-01
         vertex 4.145327e+00 -5.570308e-01 6.796505e-01
         vertex 4.145327e+00 -5.416716e-01 6.680917e-01
      endloop
   endfacet
   facet normal 1.000000e+00 0.000000e+00 0.000000e+00
      outer loop
         vertex 4.145327e+00 -5.416716e-01 6.680917e-01
         vertex 4.145327e+00 -5.570308e-01 6.796505e-01
         vertex 4.145327e+00 -5.507976e-01 6.640031e-01
      endloop
   endfacet
   facet normal 1.000000e+00 0.000000e+00 0.000000e+00
      outer loop
         vertex 4.145327e+00 -5.416716e-01 6.680917e-01
         vertex 4.145327e+00 -5.507976e-01 6.640031e-01
         vertex 4.145327e+00 -5.345203e-01 6.537776e-01
      endloop
   endfacet
   facet normal 1.000000e+00 0.000000e+00 0.000000e+00
      outer loop
         vertex 4.145327e+00 -5.345203e-01 6.537776e-01
         vertex 4.145327e+00 -5.507976e-01 6.640031e-01
         vertex 4.145327e+00 -5.432699e-01 6.489356e-01
      endloop
   endfacet
   facet normal 1.000000e+00 0.000000e+00 0.000000e+00
      outer loop
         vertex 4.145327e+00 -5.345203e-01 6.537776e-01
         vertex 4.145327e+00 -5.432699e-01 6.489356e-01
         vertex 4.145327e+00 -5.261899e-01 6.401159e-01
      endloop
   endfacet
   facet normal 1.000000e+00 0.000000e+00 0.000000e+00
      outer loop
         vertex 4.145327e+00 -5.261899e-01 6.401159e-01
         vertex 4.145327e+00 -5.432699e-01 6.489356e-01
         vertex 4.145327e+00 -5.345010e-01 6.345549e-01
      endloop
   endfacet
   facet normal 1.000000e+00 0.000000e+00 0.000000e+00
      outer loop
         vertex 4.145327e+00 -5.261899e-01 6.401159e-01
         vertex 4.145327e+00 -5.345010e-01 6.345549e-01
         vertex 4.145327e+00 -5.163012e-01 6.253370e-01
      endloop
   endfacet
   facet normal 1.000000e+00 0.000000e+00 0.000000e+00
      outer loop
         vertex 4.145327e+00 -5.163012e-01 6.253370e-01
         vertex 4.145327e+00 -5.345010e-01 6.345549e-01
         vertex 4.145327e+00 -5.283333e-01 6.253370e-01
      endloop
   endfacet
   facet normal 9.489461e-01 0.000000e+00 -3.154383e-01
      outer loop
         vertex 4.037349e+00 -3.643227e-01 3.004974e-01
         vertex 4.037349e+00 -3.543227e-01 3.004974e-01
         vertex 4.043659e+00 -3.643227e-01 3.194785e-01
      endloop
   endfacet
   facet normal 9.489461e-01 0.000000e+00 -3.154383e-01
      outer loop
         vertex 4.043659e+00 -3.643227e-01 3.194785e-01
         vertex 4.037349e+00 -3.543227e-01 3.004974e-01
         vertex 4.043659e+00 -3.543227e-01 3.194785e-01
      endloop
   endfacet
   facet normal 9.489480e-01 0.000000e+00 -3.154326e-01
      outer loop
         vertex 4.043659e+00 -3.643227e-01 3.194785e-01
         vertex 4.043659e+00 -3.543227e-01 3.194785e-01
         vertex 4.049253e+00 -3.650320e-01 3.363068e-01
      endloop
   endfacet
   facet normal 9.489526e-01 2.437364e-05 -3.154186e-01
      outer loop
         vertex 4.049253e+00 -3.650320e-01 3.363068e-01
         vertex 4.043659e+00 -3.543227e-01 3.194785e-01
         vertex 4.049532e+00 -3.550674e-01 3.371483e-01
      endloop
   endfacet
   facet normal 9.489555e-01 2.356400e-05 -3.154100e-01
      outer loop
         vertex 4.049253e+00 -3.650320e-01 3.363068e-01
         vertex 4.049532e+00 -3.550674e-01 3.371483e-01
         vertex 4.054806e+00 -3.671547e-01 3.530158e-01
      endloop
   endfacet
   facet normal 9.489493e-01 -3.734828e-06 -3.154287e-01
      outer loop
         vertex 4.054806e+00 -3.671547e-01 3.530158e-01
         vertex 4.049532e+00 -3.550674e-01 3.371483e-01
         vertex 4.055364e+00 -3.572963e-01 3.546927e-01
      endloop
   endfacet
   facet normal 9.489477e-01 -2.847914e-06 -3.154334e-01
      outer loop
         vertex 4.054806e+00 -3.671547e-01 3.530158e-01
         vertex 4.055364e+00 -3.572963e-01 3.546927e-01
         vertex 4.060281e+00 -3.706757e-01 3.694870e-01
      endloop
   endfacet
   facet normal 9.489488e-01 9.800116e-07 -3.154303e-01
      outer loop
         vertex 4.060281e+00 -3.706757e-01 3.694870e-01
         vertex 4.055364e+00 -3.572963e-01 3.546927e-01
         vertex 4.061112e+00 -3.609934e-01 3.719874e-01
      endloop
   endfacet
   facet normal 9.489461e-01 3.241127e-06 -3.154382e-01
      outer loop
         vertex 4.060281e+00 -3.706757e-01 3.694870e-01
         vertex 4.061112e+00 -3.609934e-01 3.719874e-01
         vertex 4.065639e+00 -3.755702e-01 3.856034e-01
      endloop
   endfacet
   facet normal 9.489434e-01 -5.403507e-06 -3.154465e-01
      outer loop
         vertex 4.065639e+00 -3.755702e-01 3.856034e-01
         vertex 4.061112e+00 -3.609934e-01 3.719874e-01
         vertex 4.066738e+00 -3.661326e-01 3.889096e-01
      endloop
   endfacet
   facet normal 9.489454e-01 -7.764496e-06 -3.154404e-01
      outer loop
         vertex 4.065639e+00 -3.755702e-01 3.856034e-01
         vertex 4.066738e+00 -3.661326e-01 3.889096e-01
         vertex 4.070840e+00 -3.818035e-01 4.012508e-01
      endloop
   endfacet
   facet normal 9.489504e-01 5.500774e-06 -3.154253e-01
      outer loop
         vertex 4.070840e+00 -3.818035e-01 4.012508e-01
         vertex 4.066738e+00 -3.661326e-01 3.889096e-01
         vertex 4.072199e+00 -3.726775e-01 4.053395e-01
      endloop
   endfacet
   facet normal 9.489457e-01 1.250645e-05 -3.154394e-01
      outer loop
         vertex 4.070840e+00 -3.818035e-01 4.012508e-01
         vertex 4.072199e+00 -3.726775e-01 4.053395e-01
         vertex 4.075849e+00 -3.893312e-01 4.163184e-01
      endloop
   endfacet
   facet normal 9.489480e-01 1.748698e-05 -3.154325e-01
      outer loop
         vertex 4.075849e+00 -3.893312e-01 4.163184e-01
         vertex 4.072199e+00 -3.726775e-01 4.053395e-01
         vertex 4.077458e+00 -3.805816e-01 4.211603e-01
      endloop
   endfacet
   facet normal 9.489556e-01 3.498318e-06 -3.154098e-01
      outer loop
         vertex 4.075849e+00 -3.893312e-01 4.163184e-01
         vertex 4.077458e+00 -3.805816e-01 4.211603e-01
         vertex 4.080628e+00 -3.981000e-01 4.306990e-01
      endloop
   endfacet
   facet normal 9.489449e-01 -1.591642e-05 -3.154419e-01
      outer loop
         vertex 4.080628e+00 -3.981000e-01 4.306990e-01
         vertex 4.077458e+00 -3.805816e-01 4.211603e-01
         vertex 4.082477e+00 -3.897889e-01 4.362600e-01
      endloop
   endfacet
   facet normal 9.489447e-01 -1.557566e-05 -3.154424e-01
      outer loop
         vertex 4.080628e+00 -3.981000e-01 4.306990e-01
         vertex 4.082477e+00 -3.897889e-01 4.362600e-01
         vertex 4.145327e+00 -5.283333e-01 6.253370e-01
      endloop
   endfacet
   facet normal 9.489482e-01 0.000000e+00 -3.154321e-01
      outer loop
         vertex 4.145327e+00 -5.283333e-01 6.253370e-01
         vertex 4.082477e+00 -3.897889e-01 4.362600e-01
         vertex 4.145327e+00 -5.163012e-01 6.253370e-01
      endloop
   endfacet
endsolid rw_endplate