solid bad_rw_flap
   facet normal -0.000000e+00 1.000000e+00 0.000000e+00
      outer loop
         vertex 3.987932e+00 5.650000e-01 8.234692e-01
         vertex 3.996011e+00 5.650000e-01 8.296553e-01
         vertex 3.982475e+00 5.650000e-01 8.131871e-01
      endloop
   endfacet
   facet normal 0.000000e+00 1.000000e+00 0.000000e+00
      outer loop
         vertex 3.954430e+00 5.650000e-01 7.884023e-01
         vertex 3.952653e+00 5.650000e-01 7.876241e-01
         vertex 3.950426e+00 5.650000e-01 7.990682e-01
      endloop
   endfacet
   facet normal -0.000000e+00 1.000000e+00 0.000000e+00
      outer loop
         vertex 3.943700e+00 5.650000e-01 7.928091e-01
         vertex 3.944155e+00 5.650000e-01 7.934353e-01
         vertex 3.943778e+00 5.650000e-01 7.879298e-01
      endloop
   endfacet
   facet normal -0.000000e+00 1.000000e+00 0.000000e+00
      outer loop
         vertex 3.945750e+00 5.650000e-01 7.951975e-01
         vertex 3.947549e+00 5.650000e-01 7.968219e-01
         vertex 3.944050e+00 5.650000e-01 7.876934e-01
      endloop
   endfacet
   facet normal 0.000000e+00 1.000000e+00 0.000000e+00
      outer loop
         vertex 3.944050e+00 5.650000e-01 7.876934e-01
         vertex 3.947549e+00 5.650000e-01 7.968219e-01
         vertex 3.950426e+00 5.650000e-01 7.990682e-01
      endloop
   endfacet
   facet normal -0.000000e+00 1.000000e+00 0.000000e+00
      outer loop
         vertex 3.944050e+00 5.650000e-01 7.876934e-01
         vertex 3.950426e+00 5.650000e-01 7.990682e-01
         vertex 3.944184e+00 5.650000e-01 7.875881e-01
      endloop
   endfacet
   facet normal 0.000000e+00 1.000000e+00 0.000000e+00
      outer loop
         vertex 3.987932e+00 5.650000e-01 8.234692e-01
         vertex 3.982475e+00 5.650000e-01 8.131871e-01
         vertex 3.965559e+00 5.650000e-01 8.089640e-01
      endloop
   endfacet
   facet normal -0.000000e+00 1.000000e+00 0.000000e+00
      outer loop
         vertex 3.965559e+00 5.650000e-01 8.089640e-01
         vertex 3.982475e+00 5.650000e-01 8.131871e-01
         vertex 3.971459e+00 5.650000e-01 8.015233e-01
      endloop
   endfacet
   facet normal 0.000000e+00 1.000000e+00 0.000000e+00
      outer loop
         vertex 3.965559e+00 5.650000e-01 8.089640e-01
         vertex 3.971459e+00 5.650000e-01 8.015233e-01
         vertex 3.957903e+00 5.650000e-01 8.041489e-01
      endloop
   endfacet
   facet normal 0.000000e+00 1.000000e+00 0.000000e+00
      outer loop
         vertex 3.957903e+00 5.650000e-01 8.041489e-01
         vertex 3.971459e+00 5.650000e-01 8.015233e-01
         vertex 3.964516e+00 5.650000e-01 7.952395e-01
      endloop
   endfacet
   facet normal 0.000000e+00 1.000000e+00 0.000000e+00
      outer loop
         vertex 3.957903e+00 5.650000e-01 8.041489e-01
         vertex 3.964516e+00 5.650000e-01 7.952395e-01
         vertex 3.951843e+00 5.650000e-01 8.000907e-01
      endloop
   endfacet
   facet normal 0.000000e+00 1.000000e+00 0.000000e+00
      outer loop
         vertex 3.951843e+00 5.650000e-01 8.000907e-01
         vertex 3.964516e+00 5.650000e-01 7.952395e-01
         vertex 3.959954e+00 5.650000e-01 7.917286e-01
      endloop
   endfacet
   facet normal 0.000000e+00 1.000000e+00 0.000000e+00
      outer loop
         vertex 3.951843e+00 5.650000e-01 8.000907e-01
         vertex 3.959954e+00 5.650000e-01 7.917286e-01
         vertex 3.950426e+00 5.650000e-01 7.990682e-01
      endloop
   endfacet
   facet normal 0.000000e+00 1.000000e+00 0.000000e+00
      outer loop
         vertex 3.950426e+00 5.650000e-01 7.990682e-01
         vertex 3.959954e+00 5.650000e-01 7.917286e-01
         vertex 3.956768e+00 5.650000e-01 7.896623e-01
      endloop
   endfacet
   facet normal 0.000000e+00 1.000000e+00 0.000000e+00
      outer loop
         vertex 3.950426e+00 5.650000e-01 7.990682e-01
         vertex 3.956768e+00 5.650000e-01 7.896623e-01
         vertex 3.954430e+00 5.650000e-01 7.884023e-01
      endloop
   endfacet
   facet normal 0.000000e+00 1.000000e+00 0.000000e+00
      outer loop
         vertex 3.952653e+00 5.650000e-01 7.876241e-01
         vertex 3.951394e+00 5.650000e-01 7.871843e-01
         vertex 3.950426e+00 5.650000e-01 7.990682e-01
      endloop
   endfacet
   facet normal 0.000000e+00 1.000000e+00 0.000000e+00
      outer loop
         vertex 3.950426e+00 5.650000e-01 7.990682e-01
         vertex 3.951394e+00 5.650000e-01 7.871843e-01
         vertex 3.950328e+00 5.650000e-01 7.868962e-01
      endloop
   endfacet
   facet normal 0.000000e+00 1.000000e+00 0.000000e+00
      outer loop
         vertex 3.950426e+00 5.650000e-01 7.990682e-01
         vertex 3.950328e+00 5.650000e-01 7.868962e-01
         vertex 3.949408e+00 5.650000e-01 7.867189e-01
      endloop
   endfacet
   facet normal -0.000000e+00 1.000000e+00 0.000000e+00
      outer loop
         vertex 3.943778e+00 5.650000e-01 7.879298e-01
         vertex 3.944155e+00 5.650000e-01 7.934353e-01
         vertex 3.944050e+00 5.650000e-01 7.876934e-01
      endloop
   endfacet
   facet normal 0.000000e+00 1.000000e+00 0.000000e+00
      outer loop
         vertex 3.944050e+00 5.650000e-01 7.876934e-01
         vertex 3.944155e+00 5.650000e-01 7.934353e-01
         vertex 3.944798e+00 5.650000e-01 7.942032e-01
      endloop
   endfacet
   facet normal 0.000000e+00 1.000000e+00 0.000000e+00
      outer loop
         vertex 3.944050e+00 5.650000e-01 7.876934e-01
         vertex 3.944798e+00 5.650000e-01 7.942032e-01
         vertex 3.945750e+00 5.650000e-01 7.951975e-01
      endloop
   endfacet
   facet normal 0.000000e+00 1.000000e+00 -0.000000e+00
      outer loop
         vertex 3.949408e+00 5.650000e-01 7.867189e-01
         vertex 3.948601e+00 5.650000e-01 7.866251e-01
         vertex 3.950426e+00 5.650000e-01 7.990682e-01
      endloop
   endfacet
   facet normal 0.000000e+00 1.000000e+00 0.000000e+00
      outer loop
         vertex 3.950426e+00 5.650000e-01 7.990682e-01
         vertex 3.948601e+00 5.650000e-01 7.866251e-01
         vertex 3.947883e+00 5.650000e-01 7.865964e-01
      endloop
   endfacet
   facet normal 0.000000e+00 1.000000e+00 0.000000e+00
      outer loop
         vertex 3.950426e+00 5.650000e-01 7.990682e-01
         vertex 3.947883e+00 5.650000e-01 7.865964e-01
         vertex 3.947235e+00 5.650000e-01 7.866203e-01
      endloop
   endfacet
   facet normal 0.000000e+00 1.000000e+00 0.000000e+00
      outer loop
         vertex 3.943778e+00 5.650000e-01 7.879298e-01
         vertex 3.943555e+00 5.650000e-01 7.881541e-01
         vertex 3.943700e+00 5.650000e-01 7.928091e-01
      endloop
   endfacet
   facet normal 0.000000e+00 1.000000e+00 0.000000e+00
      outer loop
         vertex 3.943700e+00 5.650000e-01 7.928091e-01
         vertex 3.943555e+00 5.650000e-01 7.881541e-01
         vertex 3.943371e+00 5.650000e-01 7.883683e-01
      endloop
   endfacet
   facet normal 0.000000e+00 1.000000e+00 0.000000e+00
      outer loop
         vertex 3.943700e+00 5.650000e-01 7.928091e-01
         vertex 3.943371e+00 5.650000e-01 7.883683e-01
         vertex 3.943383e+00 5.650000e-01 7.922980e-01
      endloop
   endfacet
   facet normal 0.000000e+00 1.000000e+00 0.000000e+00
      outer loop
         vertex 3.943383e+00 5.650000e-01 7.922980e-01
         vertex 3.943371e+00 5.650000e-01 7.883683e-01
         vertex 3.943219e+00 5.650000e-01 7.885745e-01
      endloop
   endfacet
   facet normal -0.000000e+00 1.000000e+00 0.000000e+00
      outer loop
         vertex 3.942794e+00 5.650000e-01 7.908159e-01
         vertex 3.942867e+00 5.650000e-01 7.911098e-01
         vertex 3.943219e+00 5.650000e-01 7.885745e-01
      endloop
   endfacet
   facet normal 0.000000e+00 1.000000e+00 -0.000000e+00
      outer loop
         vertex 3.947235e+00 5.650000e-01 7.866203e-01
         vertex 3.946642e+00 5.650000e-01 7.866887e-01
         vertex 3.950426e+00 5.650000e-01 7.990682e-01
      endloop
   endfacet
   facet normal 0.000000e+00 1.000000e+00 0.000000e+00
      outer loop
         vertex 3.950426e+00 5.650000e-01 7.990682e-01
         vertex 3.946642e+00 5.650000e-01 7.866887e-01
         vertex 3.946092e+00 5.650000e-01 7.867965e-01
      endloop
   endfacet
   facet normal 0.000000e+00 1.000000e+00 0.000000e+00
      outer loop
         vertex 3.950426e+00 5.650000e-01 7.990682e-01
         vertex 3.946092e+00 5.650000e-01 7.867965e-01
         vertex 3.945576e+00 5.650000e-01 7.869413e-01
      endloop
   endfacet
   facet normal 0.000000e+00 1.000000e+00 0.000000e+00
      outer loop
         vertex 3.942794e+00 5.650000e-01 7.908159e-01
         vertex 3.943219e+00 5.650000e-01 7.885745e-01
         vertex 3.942749e+00 5.650000e-01 7.905468e-01
      endloop
   endfacet
   facet normal 0.000000e+00 1.000000e+00 -0.000000e+00
      outer loop
         vertex 3.945576e+00 5.650000e-01 7.869413e-01
         vertex 3.945086e+00 5.650000e-01 7.871228e-01
         vertex 3.950426e+00 5.650000e-01 7.990682e-01
      endloop
   endfacet
   facet normal 0.000000e+00 1.000000e+00 0.000000e+00
      outer loop
         vertex 3.950426e+00 5.650000e-01 7.990682e-01
         vertex 3.945086e+00 5.650000e-01 7.871228e-01
         vertex 3.944615e+00 5.650000e-01 7.873428e-01
      endloop
   endfacet
   facet normal 0.000000e+00 1.000000e+00 0.000000e+00
      outer loop
         vertex 3.950426e+00 5.650000e-01 7.990682e-01
         vertex 3.944615e+00 5.650000e-01 7.873428e-01
         vertex 3.944184e+00 5.650000e-01 7.875881e-01
      endloop
   endfacet
   facet normal -0.000000e+00 1.000000e+00 0.000000e+00
      outer loop
         vertex 3.942867e+00 5.650000e-01 7.911098e-01
         vertex 3.942975e+00 5.650000e-01 7.914370e-01
         vertex 3.943219e+00 5.650000e-01 7.885745e-01
      endloop
   endfacet
   facet normal 0.000000e+00 1.000000e+00 0.000000e+00
      outer loop
         vertex 3.943219e+00 5.650000e-01 7.885745e-01
         vertex 3.942975e+00 5.650000e-01 7.914370e-01
         vertex 3.943150e+00 5.650000e-01 7.918493e-01
      endloop
   endfacet
   facet normal 0.000000e+00 1.000000e+00 -0.000000e+00
      outer loop
         vertex 3.943219e+00 5.650000e-01 7.885745e-01
         vertex 3.943150e+00 5.650000e-01 7.918493e-01
         vertex 3.943383e+00 5.650000e-01 7.922980e-01
      endloop
   endfacet
   facet normal -0.000000e+00 1.000000e+00 -0.000000e+00
      outer loop
         vertex 3.942773e+00 5.650000e-01 7.896398e-01
         vertex 3.942740e+00 5.650000e-01 7.898613e-01
         vertex 3.943094e+00 5.650000e-01 7.887753e-01
      endloop
   endfacet
   facet normal 0.000000e+00 1.000000e+00 0.000000e+00
      outer loop
         vertex 3.943094e+00 5.650000e-01 7.887753e-01
         vertex 3.942740e+00 5.650000e-01 7.898613e-01
         vertex 3.942725e+00 5.650000e-01 7.900730e-01
      endloop
   endfacet
   facet normal -0.000000e+00 1.000000e+00 -0.000000e+00
      outer loop
         vertex 3.943094e+00 5.650000e-01 7.887753e-01
         vertex 3.942725e+00 5.650000e-01 7.900730e-01
         vertex 3.943219e+00 5.650000e-01 7.885745e-01
      endloop
   endfacet
   facet normal 0.000000e+00 1.000000e+00 0.000000e+00
      outer loop
         vertex 3.943219e+00 5.650000e-01 7.885745e-01
         vertex 3.942725e+00 5.650000e-01 7.900730e-01
         vertex 3.942727e+00 5.650000e-01 7.902996e-01
      endloop
   endfacet
   facet normal 0.000000e+00 1.000000e+00 0.000000e+00
      outer loop
         vertex 3.943219e+00 5.650000e-01 7.885745e-01
         vertex 3.942727e+00 5.650000e-01 7.902996e-01
         vertex 3.942749e+00 5.650000e-01 7.905468e-01
      endloop
   endfacet
   facet normal -0.000000e+00 1.000000e+00 -0.000000e+00
      outer loop
         vertex 3.942987e+00 5.650000e-01 7.889826e-01
         vertex 3.942897e+00 5.650000e-01 7.891979e-01
         vertex 3.943094e+00 5.650000e-01 7.887753e-01
      endloop
   endfacet
   facet normal 0.000000e+00 1.000000e+00 0.000000e+00
      outer loop
         vertex 3.943094e+00 5.650000e-01 7.887753e-01
         vertex 3.942897e+00 5.650000e-01 7.891979e-01
         vertex 3.942825e+00 5.650000e-01 7.894196e-01
      endloop
   endfacet
   facet normal 0.000000e+00 1.000000e+00 0.000000e+00
      outer loop
         vertex 3.943094e+00 5.650000e-01 7.887753e-01
         vertex 3.942825e+00 5.650000e-01 7.894196e-01
         vertex 3.942773e+00 5.650000e-01 7.896398e-01
      endloop
   endfacet
   facet normal -6.179760e-01 -0.000000e+00 -7.861970e-01
      outer loop
         vertex 3.944184e+00 5.650000e-01 7.875881e-01
         vertex 3.944184e+00 0.000000e+00 7.875881e-01
         vertex 3.944050e+00 1.110223e-16 7.876934e-01
      endloop
   endfacet
   facet normal -6.179760e-01 0.000000e+00 -7.861970e-01
      outer loop
         vertex 3.944184e+00 5.650000e-01 7.875881e-01
         vertex 3.944050e+00 1.110223e-16 7.876934e-01
         vertex 3.944050e+00 5.650000e-01 7.876934e-01
      endloop
   endfacet
   facet normal -6.562525e-01 -0.000000e+00 -7.545414e-01
      outer loop
         vertex 3.944050e+00 5.650000e-01 7.876934e-01
         vertex 3.944050e+00 1.110223e-16 7.876934e-01
         vertex 3.943778e+00 2.220446e-16 7.879298e-01
      endloop
   endfacet
   facet normal -6.562525e-01 0.000000e+00 -7.545414e-01
      outer loop
         vertex 3.944050e+00 5.650000e-01 7.876934e-01
         vertex 3.943778e+00 2.220446e-16 7.879298e-01
         vertex 3.943778e+00 5.650000e-01 7.879298e-01
      endloop
   endfacet
   facet normal -7.088942e-01 -0.000000e+00 -7.053149e-01
      outer loop
         vertex 3.943778e+00 5.650000e-01 7.879298e-01
         vertex 3.943778e+00 2.220446e-16 7.879298e-01
         vertex 3.943555e+00 4.440892e-16 7.881541e-01
      endloop
   endfacet
   facet normal -7.088942e-01 0.000000e+00 -7.053149e-01
      outer loop
         vertex 3.943778e+00 5.650000e-01 7.879298e-01
         vertex 3.943555e+00 4.440892e-16 7.881541e-01
         vertex 3.943555e+00 5.650000e-01 7.881541e-01
      endloop
   endfacet
   facet normal -7.588988e-01 -0.000000e+00 -6.512086e-01
      outer loop
         vertex 3.943555e+00 5.650000e-01 7.881541e-01
         vertex 3.943555e+00 4.440892e-16 7.881541e-01
         vertex 3.943371e+00 4.440892e-16 7.883683e-01
      endloop
   endfacet
   facet normal -7.588988e-01 0.000000e+00 -6.512086e-01
      outer loop
         vertex 3.943555e+00 5.650000e-01 7.881541e-01
         vertex 3.943371e+00 4.440892e-16 7.883683e-01
         vertex 3.943371e+00 5.650000e-01 7.883683e-01
      endloop
   endfacet
   facet normal -8.055824e-01 -0.000000e+00 -5.924838e-01
      outer loop
         vertex 3.943371e+00 5.650000e-01 7.883683e-01
         vertex 3.943371e+00 4.440892e-16 7.883683e-01
         vertex 3.943219e+00 4.440892e-16 7.885745e-01
      endloop
   endfacet
   facet normal -8.055824e-01 0.000000e+00 -5.924838e-01
      outer loop
         vertex 3.943371e+00 5.650000e-01 7.883683e-01
         vertex 3.943219e+00 4.440892e-16 7.885745e-01
         vertex 3.943219e+00 5.650000e-01 7.885745e-01
      endloop
   endfacet
   facet normal -8.485640e-01 -0.000000e+00 -5.290928e-01
      outer loop
         vertex 3.943219e+00 5.650000e-01 7.885745e-01
         vertex 3.943219e+00 4.440892e-16 7.885745e-01
         vertex 3.943094e+00 4.440892e-16 7.887753e-01
      endloop
   endfacet
   facet normal -8.485640e-01 0.000000e+00 -5.290928e-01
      outer loop
         vertex 3.943219e+00 5.650000e-01 7.885745e-01
         vertex 3.943094e+00 4.440892e-16 7.887753e-01
         vertex 3.943094e+00 5.650000e-01 7.887753e-01
      endloop
   endfacet
   facet normal -8.877468e-01 -0.000000e+00 -4.603321e-01
      outer loop
         vertex 3.943094e+00 5.650000e-01 7.887753e-01
         vertex 3.943094e+00 4.440892e-16 7.887753e-01
         vertex 3.942987e+00 4.440892e-16 7.889826e-01
      endloop
   endfacet
   facet normal -8.877468e-01 0.000000e+00 -4.603321e-01
      outer loop
         vertex 3.943094e+00 5.650000e-01 7.887753e-01
         vertex 3.942987e+00 4.440892e-16 7.889826e-01
         vertex 3.942987e+00 5.650000e-01 7.889826e-01
      endloop
   endfacet
   facet normal -9.227666e-01 -0.000000e+00 -3.853592e-01
      outer loop
         vertex 3.942987e+00 5.650000e-01 7.889826e-01
         vertex 3.942987e+00 4.440892e-16 7.889826e-01
         vertex 3.942897e+00 2.220446e-16 7.891979e-01
      endloop
   endfacet
   facet normal -9.227666e-01 0.000000e+00 -3.853592e-01
      outer loop
         vertex 3.942987e+00 5.650000e-01 7.889826e-01
         vertex 3.942897e+00 2.220446e-16 7.891979e-01
         vertex 3.942897e+00 5.650000e-01 7.891979e-01
      endloop
   endfacet
   facet normal -9.511092e-01 -0.000000e+00 -3.088548e-01
      outer loop
         vertex 3.942897e+00 5.650000e-01 7.891979e-01
         vertex 3.942897e+00 2.220446e-16 7.891979e-01
         vertex 3.942825e+00 0.000000e+00 7.894196e-01
      endloop
   endfacet
   facet normal -9.511092e-01 0.000000e+00 -3.088548e-01
      outer loop
         vertex 3.942897e+00 5.650000e-01 7.891979e-01
         vertex 3.942825e+00 0.000000e+00 7.894196e-01
         vertex 3.942825e+00 5.650000e-01 7.894196e-01
      endloop
   endfacet
   facet normal -9.735000e-01 -0.000000e+00 -2.286869e-01
      outer loop
         vertex 3.942825e+00 5.650000e-01 7.894196e-01
         vertex 3.942825e+00 0.000000e+00 7.894196e-01
         vertex 3.942773e+00 -2.220446e-16 7.896398e-01
      endloop
   endfacet
   facet normal -9.735000e-01 0.000000e+00 -2.286869e-01
      outer loop
         vertex 3.942825e+00 5.650000e-01 7.894196e-01
         vertex 3.942773e+00 -2.220446e-16 7.896398e-01
         vertex 3.942773e+00 5.650000e-01 7.896398e-01
      endloop
   endfacet
   facet normal -9.888287e-01 -0.000000e+00 -1.490563e-01
      outer loop
         vertex 3.942773e+00 5.650000e-01 7.896398e-01
         vertex 3.942773e+00 -2.220446e-16 7.896398e-01
         vertex 3.942740e+00 -6.661338e-16 7.898613e-01
      endloop
   endfacet
   facet normal -9.888287e-01 0.000000e+00 -1.490563e-01
      outer loop
         vertex 3.942773e+00 5.650000e-01 7.896398e-01
         vertex 3.942740e+00 -6.661338e-16 7.898613e-01
         vertex 3.942740e+00 5.650000e-01 7.898613e-01
      endloop
   endfacet
   facet normal -9.975715e-01 -0.000000e+00 -6.965026e-02
      outer loop
         vertex 3.942740e+00 5.650000e-01 7.898613e-01
         vertex 3.942740e+00 -6.661338e-16 7.898613e-01
         vertex 3.942725e+00 -9.992007e-16 7.900730e-01
      endloop
   endfacet
   facet normal -9.975715e-01 0.000000e+00 -6.965026e-02
      outer loop
         vertex 3.942740e+00 5.650000e-01 7.898613e-01
         vertex 3.942725e+00 -9.992007e-16 7.900730e-01
         vertex 3.942725e+00 5.650000e-01 7.900730e-01
      endloop
   endfacet
   facet normal -9.999552e-01 0.000000e+00 9.468276e-03
      outer loop
         vertex 3.942725e+00 5.650000e-01 7.900730e-01
         vertex 3.942725e+00 -9.992007e-16 7.900730e-01
         vertex 3.942727e+00 -1.332268e-15 7.902996e-01
      endloop
   endfacet
   facet normal -9.999552e-01 0.000000e+00 9.468276e-03
      outer loop
         vertex 3.942725e+00 5.650000e-01 7.900730e-01
         vertex 3.942727e+00 -1.332268e-15 7.902996e-01
         vertex 3.942727e+00 5.650000e-01 7.902996e-01
      endloop
   endfacet
   facet normal -9.961700e-01 0.000000e+00 8.743812e-02
      outer loop
         vertex 3.942727e+00 5.650000e-01 7.902996e-01
         vertex 3.942727e+00 -1.332268e-15 7.902996e-01
         vertex 3.942749e+00 -1.776357e-15 7.905468e-01
      endloop
   endfacet
   facet normal -9.961700e-01 0.000000e+00 8.743812e-02
      outer loop
         vertex 3.942727e+00 5.650000e-01 7.902996e-01
         vertex 3.942749e+00 -1.776357e-15 7.905468e-01
         vertex 3.942749e+00 5.650000e-01 7.905468e-01
      endloop
   endfacet
   facet normal -9.864116e-01 0.000000e+00 1.642927e-01
      outer loop
         vertex 3.942749e+00 5.650000e-01 7.905468e-01
         vertex 3.942749e+00 -1.776357e-15 7.905468e-01
         vertex 3.942794e+00 -2.109424e-15 7.908159e-01
      endloop
   endfacet
   facet normal -9.864116e-01 0.000000e+00 1.642927e-01
      outer loop
         vertex 3.942749e+00 5.650000e-01 7.905468e-01
         vertex 3.942794e+00 -2.109424e-15 7.908159e-01
         vertex 3.942794e+00 5.650000e-01 7.908159e-01
      endloop
   endfacet
   facet normal -9.705464e-01 0.000000e+00 2.409144e-01
      outer loop
         vertex 3.942794e+00 5.650000e-01 7.908159e-01
         vertex 3.942794e+00 -2.109424e-15 7.908159e-01
         vertex 3.942867e+00 -2.331468e-15 7.911098e-01
      endloop
   endfacet
   facet normal -9.705464e-01 0.000000e+00 2.409144e-01
      outer loop
         vertex 3.942794e+00 5.650000e-01 7.908159e-01
         vertex 3.942867e+00 -2.331468e-15 7.911098e-01
         vertex 3.942867e+00 5.650000e-01 7.911098e-01
      endloop
   endfacet
   facet normal -9.489940e-01 0.000000e+00 3.152942e-01
      outer loop
         vertex 3.942867e+00 5.650000e-01 7.911098e-01
         vertex 3.942867e+00 -2.331468e-15 7.911098e-01
         vertex 3.942975e+00 -2.442491e-15 7.914370e-01
      endloop
   endfacet
   facet normal -9.489940e-01 0.000000e+00 3.152942e-01
      outer loop
         vertex 3.942867e+00 5.650000e-01 7.911098e-01
         vertex 3.942975e+00 -2.442491e-15 7.914370e-01
         vertex 3.942975e+00 5.650000e-01 7.914370e-01
      endloop
   endfacet
   facet normal -9.208919e-01 0.000000e+00 3.898181e-01
      outer loop
         vertex 3.942975e+00 5.650000e-01 7.914370e-01
         vertex 3.942975e+00 -2.442491e-15 7.914370e-01
         vertex 3.943150e+00 -2.220446e-15 7.918493e-01
      endloop
   endfacet
   facet normal -9.208919e-01 0.000000e+00 3.898181e-01
      outer loop
         vertex 3.942975e+00 5.650000e-01 7.914370e-01
         vertex 3.943150e+00 -2.220446e-15 7.918493e-01
         vertex 3.943150e+00 5.650000e-01 7.918493e-01
      endloop
   endfacet
   facet normal -8.873152e-01 0.000000e+00 4.611634e-01
      outer loop
         vertex 3.943150e+00 5.650000e-01 7.918493e-01
         vertex 3.943150e+00 -2.220446e-15 7.918493e-01
         vertex 3.943383e+00 -1.776357e-15 7.922980e-01
      endloop
   endfacet
   facet normal -8.873152e-01 0.000000e+00 4.611634e-01
      outer loop
         vertex 3.943150e+00 5.650000e-01 7.918493e-01
         vertex 3.943383e+00 -1.776357e-15 7.922980e-01
         vertex 3.943383e+00 5.650000e-01 7.922980e-01
      endloop
   endfacet
   facet normal -8.499249e-01 0.000000e+00 5.269039e-01
      outer loop
         vertex 3.943383e+00 5.650000e-01 7.922980e-01
         vertex 3.943383e+00 -1.776357e-15 7.922980e-01
         vertex 3.943700e+00 -1.110223e-15 7.928091e-01
      endloop
   endfacet
   facet normal -8.499249e-01 0.000000e+00 5.269039e-01
      outer loop
         vertex 3.943383e+00 5.650000e-01 7.922980e-01
         vertex 3.943700e+00 -1.110223e-15 7.928091e-01
         vertex 3.943700e+00 5.650000e-01 7.928091e-01
      endloop
   endfacet
   facet normal -8.092287e-01 0.000000e+00 5.874937e-01
      outer loop
         vertex 3.943700e+00 5.650000e-01 7.928091e-01
         vertex 3.943700e+00 -1.110223e-15 7.928091e-01
         vertex 3.944155e+00 -4.440892e-16 7.934353e-01
      endloop
   endfacet
   facet normal -8.092287e-01 0.000000e+00 5.874937e-01
      outer loop
         vertex 3.943700e+00 5.650000e-01 7.928091e-01
         vertex 3.944155e+00 -4.440892e-16 7.934353e-01
         vertex 3.944155e+00 5.650000e-01 7.934353e-01
      endloop
   endfacet
   facet normal -7.666923e-01 0.000000e+00 6.420148e-01
      outer loop
         vertex 3.944155e+00 5.650000e-01 7.934353e-01
         vertex 3.944155e+00 -4.440892e-16 7.934353e-01
         vertex 3.944798e+00 -2.220446e-16 7.942032e-01
      endloop
   endfacet
   facet normal -7.666923e-01 0.000000e+00 6.420148e-01
      outer loop
         vertex 3.944155e+00 5.650000e-01 7.934353e-01
         vertex 3.944798e+00 -2.220446e-16 7.942032e-01
         vertex 3.944798e+00 5.650000e-01 7.942032e-01
      endloop
   endfacet
   facet normal -7.222901e-01 0.000000e+00 6.915902e-01
      outer loop
         vertex 3.944798e+00 5.650000e-01 7.942032e-01
         vertex 3.944798e+00 -2.220446e-16 7.942032e-01
         vertex 3.945750e+00 -2.220446e-16 7.951975e-01
      endloop
   endfacet
   facet normal -7.222901e-01 0.000000e+00 6.915902e-01
      outer loop
         vertex 3.944798e+00 5.650000e-01 7.942032e-01
         vertex 3.945750e+00 -2.220446e-16 7.951975e-01
         vertex 3.945750e+00 5.650000e-01 7.951975e-01
      endloop
   endfacet
   facet normal -6.701513e-01 0.000000e+00 7.422246e-01
      outer loop
         vertex 3.945750e+00 5.650000e-01 7.951975e-01
         vertex 3.945750e+00 -2.220446e-16 7.951975e-01
         vertex 3.947549e+00 -5.551115e-16 7.968219e-01
      endloop
   endfacet
   facet normal -6.701513e-01 0.000000e+00 7.422246e-01
      outer loop
         vertex 3.945750e+00 5.650000e-01 7.951975e-01
         vertex 3.947549e+00 -5.551115e-16 7.968219e-01
         vertex 3.947549e+00 5.650000e-01 7.968219e-01
      endloop
   endfacet
   facet normal -6.154070e-01 0.000000e+00 7.882095e-01
      outer loop
         vertex 3.947549e+00 5.650000e-01 7.968219e-01
         vertex 3.947549e+00 -5.551115e-16 7.968219e-01
         vertex 3.950426e+00 -1.332268e-15 7.990682e-01
      endloop
   endfacet
   facet normal -6.154070e-01 0.000000e+00 7.882095e-01
      outer loop
         vertex 3.947549e+00 5.650000e-01 7.968219e-01
         vertex 3.950426e+00 -1.332268e-15 7.990682e-01
         vertex 3.950426e+00 5.650000e-01 7.990682e-01
      endloop
   endfacet
   facet normal -5.851418e-01 0.000000e+00 8.109310e-01
      outer loop
         vertex 3.950426e+00 5.650000e-01 7.990682e-01
         vertex 3.950426e+00 -1.332268e-15 7.990682e-01
         vertex 3.951843e+00 -1.776357e-15 8.000907e-01
      endloop
   endfacet
   facet normal -5.851418e-01 0.000000e+00 8.109310e-01
      outer loop
         vertex 3.950426e+00 5.650000e-01 7.990682e-01
         vertex 3.951843e+00 -1.776357e-15 8.000907e-01
         vertex 3.951843e+00 5.650000e-01 8.000907e-01
      endloop
   endfacet
   facet normal -5.564322e-01 0.000000e+00 8.308930e-01
      outer loop
         vertex 3.951843e+00 5.650000e-01 8.000907e-01
         vertex 3.951843e+00 -1.776357e-15 8.000907e-01
         vertex 3.957903e+00 -3.108624e-15 8.041489e-01
      endloop
   endfacet
   facet normal -5.564322e-01 0.000000e+00 8.308930e-01
      outer loop
         vertex 3.951843e+00 5.650000e-01 8.000907e-01
         vertex 3.957903e+00 -3.108624e-15 8.041489e-01
         vertex 3.957903e+00 5.650000e-01 8.041489e-01
      endloop
   endfacet
   facet normal -5.323972e-01 0.000000e+00 8.464947e-01
      outer loop
         vertex 3.957903e+00 5.650000e-01 8.041489e-01
         vertex 3.957903e+00 -3.108624e-15 8.041489e-01
         vertex 3.965559e+00 -1.110223e-16 8.089640e-01
      endloop
   endfacet
   facet normal -5.323972e-01 0.000000e+00 8.464947e-01
      outer loop
         vertex 3.957903e+00 5.650000e-01 8.041489e-01
         vertex 3.965559e+00 -1.110223e-16 8.089640e-01
         vertex 3.965559e+00 5.650000e-01 8.089640e-01
      endloop
   endfacet
   facet normal -5.439970e-01 0.000000e+00 8.390872e-01
      outer loop
         vertex 3.965559e+00 5.650000e-01 8.089640e-01
         vertex 3.965559e+00 -1.110223e-16 8.089640e-01
         vertex 3.987932e+00 1.110223e-16 8.234692e-01
      endloop
   endfacet
   facet normal -5.439970e-01 0.000000e+00 8.390872e-01
      outer loop
         vertex 3.965559e+00 5.650000e-01 8.089640e-01
         vertex 3.987932e+00 1.110223e-16 8.234692e-01
         vertex 3.987932e+00 5.650000e-01 8.234692e-01
      endloop
   endfacet
   facet normal -6.079705e-01 0.000000e+00 7.939596e-01
      outer loop
         vertex 3.987932e+00 5.650000e-01 8.234692e-01
         vertex 3.987932e+00 1.110223e-16 8.234692e-01
         vertex 3.996011e+00 0.000000e+00 8.296553e-01
      endloop
   endfacet
   facet normal -6.079705e-01 0.000000e+00 7.939596e-01
      outer loop
         vertex 3.987932e+00 5.650000e-01 8.234692e-01
         vertex 3.996011e+00 0.000000e+00 8.296553e-01
         vertex 3.996011e+00 5.650000e-01 8.296553e-01
      endloop
   endfacet
   facet normal 7.725294e-01 0.000000e+00 -6.349790e-01
      outer loop
         vertex 3.996011e+00 5.650000e-01 8.296553e-01
         vertex 3.996011e+00 0.000000e+00 8.296553e-01
         vertex 3.982475e+00 0.000000e+00 8.131871e-01
      endloop
   endfacet
   facet normal 7.725294e-01 0.000000e+00 -6.349790e-01
      outer loop
         vertex 3.996011e+00 5.650000e-01 8.296553e-01
         vertex 3.982475e+00 0.000000e+00 8.131871e-01
         vertex 3.982475e+00 5.650000e-01 8.131871e-01
      endloop
   endfacet
   facet normal 7.270253e-01 0.000000e+00 -6.866107e-01
      outer loop
         vertex 3.982475e+00 5.650000e-01 8.131871e-01
         vertex 3.982475e+00 0.000000e+00 8.131871e-01
         vertex 3.971459e+00 -1.110223e-16 8.015233e-01
      endloop
   endfacet
   facet normal 7.270253e-01 0.000000e+00 -6.866107e-01
      outer loop
         vertex 3.982475e+00 5.650000e-01 8.131871e-01
         vertex 3.971459e+00 -1.110223e-16 8.015233e-01
         vertex 3.971459e+00 5.650000e-01 8.015233e-01
      endloop
   endfacet
   facet normal 6.710348e-01 0.000000e+00 -7.414258e-01
      outer loop
         vertex 3.971459e+00 5.650000e-01 8.015233e-01
         vertex 3.971459e+00 -1.110223e-16 8.015233e-01
         vertex 3.964516e+00 1.110223e-16 7.952395e-01
      endloop
   endfacet
   facet normal 6.710348e-01 0.000000e+00 -7.414258e-01
      outer loop
         vertex 3.971459e+00 5.650000e-01 8.015233e-01
         vertex 3.964516e+00 1.110223e-16 7.952395e-01
         vertex 3.964516e+00 5.650000e-01 7.952395e-01
      endloop
   endfacet
   facet normal 6.098604e-01 0.000000e+00 -7.925089e-01
      outer loop
         vertex 3.964516e+00 5.650000e-01 7.952395e-01
         vertex 3.964516e+00 1.110223e-16 7.952395e-01
         vertex 3.959954e+00 0.000000e+00 7.917286e-01
      endloop
   endfacet
   facet normal 6.098604e-01 0.000000e+00 -7.925089e-01
      outer loop
         vertex 3.964516e+00 5.650000e-01 7.952395e-01
         vertex 3.959954e+00 0.000000e+00 7.917286e-01
         vertex 3.959954e+00 5.650000e-01 7.917286e-01
      endloop
   endfacet
   facet normal 5.441693e-01 0.000000e+00 -8.389754e-01
      outer loop
         vertex 3.959954e+00 5.650000e-01 7.917286e-01
         vertex 3.959954e+00 0.000000e+00 7.917286e-01
         vertex 3.956768e+00 0.000000e+00 7.896623e-01
      endloop
   endfacet
   facet normal 5.441693e-01 0.000000e+00 -8.389754e-01
      outer loop
         vertex 3.959954e+00 5.650000e-01 7.917286e-01
         vertex 3.956768e+00 0.000000e+00 7.896623e-01
         vertex 3.956768e+00 5.650000e-01 7.896623e-01
      endloop
   endfacet
   facet normal 4.743447e-01 0.000000e+00 -8.803392e-01
      outer loop
         vertex 3.956768e+00 5.650000e-01 7.896623e-01
         vertex 3.956768e+00 0.000000e+00 7.896623e-01
         vertex 3.954430e+00 0.000000e+00 7.884023e-01
      endloop
   endfacet
   facet normal 4.743447e-01 0.000000e+00 -8.803392e-01
      outer loop
         vertex 3.956768e+00 5.650000e-01 7.896623e-01
         vertex 3.954430e+00 0.000000e+00 7.884023e-01
         vertex 3.954430e+00 5.650000e-01 7.884023e-01
      endloop
   endfacet
   facet normal 4.012315e-01 0.000000e+00 -9.159767e-01
      outer loop
         vertex 3.954430e+00 5.650000e-01 7.884023e-01
         vertex 3.954430e+00 0.000000e+00 7.884023e-01
         vertex 3.952653e+00 0.000000e+00 7.876241e-01
      endloop
   endfacet
   facet normal 4.012315e-01 0.000000e+00 -9.159767e-01
      outer loop
         vertex 3.954430e+00 5.650000e-01 7.884023e-01
         vertex 3.952653e+00 0.000000e+00 7.876241e-01
         vertex 3.952653e+00 5.650000e-01 7.876241e-01
      endloop
   endfacet
   facet normal 3.298485e-01 0.000000e+00 -9.440339e-01
      outer loop
         vertex 3.952653e+00 5.650000e-01 7.876241e-01
         vertex 3.952653e+00 0.000000e+00 7.876241e-01
         vertex 3.951394e+00 0.000000e+00 7.871843e-01
      endloop
   endfacet
   facet normal 3.298485e-01 0.000000e+00 -9.440339e-01
      outer loop
         vertex 3.952653e+00 5.650000e-01 7.876241e-01
         vertex 3.951394e+00 0.000000e+00 7.871843e-01
         vertex 3.951394e+00 5.650000e-01 7.871843e-01
      endloop
   endfacet
   facet normal 2.607704e-01 0.000000e+00 -9.654008e-01
      outer loop
         vertex 3.951394e+00 5.650000e-01 7.871843e-01
         vertex 3.951394e+00 0.000000e+00 7.871843e-01
         vertex 3.950328e+00 0.000000e+00 7.868962e-01
      endloop
   endfacet
   facet normal 2.607704e-01 0.000000e+00 -9.654008e-01
      outer loop
         vertex 3.951394e+00 5.650000e-01 7.871843e-01
         vertex 3.950328e+00 0.000000e+00 7.868962e-01
         vertex 3.950328e+00 5.650000e-01 7.868962e-01
      endloop
   endfacet
   facet normal 1.891871e-01 0.000000e+00 -9.819411e-01
      outer loop
         vertex 3.950328e+00 5.650000e-01 7.868962e-01
         vertex 3.950328e+00 0.000000e+00 7.868962e-01
         vertex 3.949408e+00 0.000000e+00 7.867189e-01
      endloop
   endfacet
   facet normal 1.891871e-01 0.000000e+00 -9.819411e-01
      outer loop
         vertex 3.950328e+00 5.650000e-01 7.868962e-01
         vertex 3.949408e+00 0.000000e+00 7.867189e-01
         vertex 3.949408e+00 5.650000e-01 7.867189e-01
      endloop
   endfacet
   facet normal 1.154992e-01 0.000000e+00 -9.933076e-01
      outer loop
         vertex 3.949408e+00 5.650000e-01 7.867189e-01
         vertex 3.949408e+00 0.000000e+00 7.867189e-01
         vertex 3.948601e+00 -1.110223e-16 7.866251e-01
      endloop
   endfacet
   facet normal 1.154992e-01 0.000000e+00 -9.933076e-01
      outer loop
         vertex 3.949408e+00 5.650000e-01 7.867189e-01
         vertex 3.948601e+00 -1.110223e-16 7.866251e-01
         vertex 3.948601e+00 5.650000e-01 7.866251e-01
      endloop
   endfacet
   facet normal 3.998792e-02 0.000000e+00 -9.992002e-01
      outer loop
         vertex 3.948601e+00 5.650000e-01 7.866251e-01
         vertex 3.948601e+00 -1.110223e-16 7.866251e-01
         vertex 3.947883e+00 0.000000e+00 7.865964e-01
      endloop
   endfacet
   facet normal 3.998792e-02 0.000000e+00 -9.992002e-01
      outer loop
         vertex 3.948601e+00 5.650000e-01 7.866251e-01
         vertex 3.947883e+00 0.000000e+00 7.865964e-01
         vertex 3.947883e+00 5.650000e-01 7.865964e-01
      endloop
   endfacet
   facet normal -3.685868e-02 -0.000000e+00 -9.993205e-01
      outer loop
         vertex 3.947883e+00 5.650000e-01 7.865964e-01
         vertex 3.947883e+00 0.000000e+00 7.865964e-01
         vertex 3.947235e+00 0.000000e+00 7.866203e-01
      endloop
   endfacet
   facet normal -3.685868e-02 0.000000e+00 -9.993205e-01
      outer loop
         vertex 3.947883e+00 5.650000e-01 7.865964e-01
         vertex 3.947235e+00 0.000000e+00 7.866203e-01
         vertex 3.947235e+00 5.650000e-01 7.866203e-01
      endloop
   endfacet
   facet normal -1.144953e-01 -0.000000e+00 -9.934238e-01
      outer loop
         vertex 3.947235e+00 5.650000e-01 7.866203e-01
         vertex 3.947235e+00 0.000000e+00 7.866203e-01
         vertex 3.946642e+00 -1.110223e-16 7.866887e-01
      endloop
   endfacet
   facet normal -1.144953e-01 0.000000e+00 -9.934238e-01
      outer loop
         vertex 3.947235e+00 5.650000e-01 7.866203e-01
         vertex 3.946642e+00 -1.110223e-16 7.866887e-01
         vertex 3.946642e+00 5.650000e-01 7.866887e-01
      endloop
   endfacet
   facet normal -1.923502e-01 -0.000000e+00 -9.813264e-01
      outer loop
         vertex 3.946642e+00 5.650000e-01 7.866887e-01
         vertex 3.946642e+00 -1.110223e-16 7.866887e-01
         vertex 3.946092e+00 1.110223e-16 7.867965e-01
      endloop
   endfacet
   facet normal -1.923502e-01 0.000000e+00 -9.813264e-01
      outer loop
         vertex 3.946642e+00 5.650000e-01 7.866887e-01
         vertex 3.946092e+00 1.110223e-16 7.867965e-01
         vertex 3.946092e+00 5.650000e-01 7.867965e-01
      endloop
   endfacet
   facet normal -2.702817e-01 -0.000000e+00 -9.627813e-01
      outer loop
         vertex 3.946092e+00 5.650000e-01 7.867965e-01
         vertex 3.946092e+00 1.110223e-16 7.867965e-01
         vertex 3.945576e+00 0.000000e+00 7.869413e-01
      endloop
   endfacet
   facet normal -2.702817e-01 0.000000e+00 -9.627813e-01
      outer loop
         vertex 3.946092e+00 5.650000e-01 7.867965e-01
         vertex 3.945576e+00 0.000000e+00 7.869413e-01
         vertex 3.945576e+00 5.650000e-01 7.869413e-01
      endloop
   endfacet
   facet normal -3.473218e-01 -0.000000e+00 -9.377460e-01
      outer loop
         vertex 3.945576e+00 5.650000e-01 7.869413e-01
         vertex 3.945576e+00 0.000000e+00 7.869413e-01
         vertex 3.945086e+00 -1.110223e-16 7.871228e-01
      endloop
   endfacet
   facet normal -3.473218e-01 0.000000e+00 -9.377460e-01
      outer loop
         vertex 3.945576e+00 5.650000e-01 7.869413e-01
         vertex 3.945086e+00 -1.110223e-16 7.871228e-01
         vertex 3.945086e+00 5.650000e-01 7.871228e-01
      endloop
   endfacet
   facet normal -4.229419e-01 -0.000000e+00 -9.061568e-01
      outer loop
         vertex 3.945086e+00 5.650000e-01 7.871228e-01
         vertex 3.945086e+00 -1.110223e-16 7.871228e-01
         vertex 3.944615e+00 1.110223e-16 7.873428e-01
      endloop
   endfacet
   facet normal -4.229419e-01 0.000000e+00 -9.061568e-01
      outer loop
         vertex 3.945086e+00 5.650000e-01 7.871228e-01
         vertex 3.944615e+00 1.110223e-16 7.873428e-01
         vertex 3.944615e+00 5.650000e-01 7.873428e-01
      endloop
   endfacet
   facet normal -4.945462e-01 -0.000000e+00 -8.691514e-01
      outer loop
         vertex 3.944615e+00 5.650000e-01 7.873428e-01
         vertex 3.944615e+00 1.110223e-16 7.873428e-01
         vertex 3.944184e+00 0.000000e+00 7.875881e-01
      endloop
   endfacet
   facet normal -4.945462e-01 0.000000e+00 -8.691514e-01
      outer loop
         vertex 3.944615e+00 5.650000e-01 7.873428e-01
         vertex 3.944184e+00 0.000000e+00 7.875881e-01
         vertex 3.944184e+00 5.650000e-01 7.875881e-01
      endloop
   endfacet
   facet normal 0.000000e+00 -1.000000e+00 0.000000e+00
      outer loop
         vertex 3.996011e+00 -5.650000e-01 8.296553e-01
         vertex 3.987932e+00 -5.650000e-01 8.234692e-01
         vertex 3.982475e+00 -5.650000e-01 8.131871e-01
      endloop
   endfacet
   facet normal -0.000000e+00 -1.000000e+00 0.000000e+00
      outer loop
         vertex 3.982475e+00 -5.650000e-01 8.131871e-01
         vertex 3.987932e+00 -5.650000e-01 8.234692e-01
         vertex 3.965559e+00 -5.650000e-01 8.089640e-01
      endloop
   endfacet
   facet normal 0.000000e+00 -1.000000e+00 0.000000e+00
      outer loop
         vertex 3.950328e+00 -5.650000e-01 7.868962e-01
         vertex 3.951394e+00 -5.650000e-01 7.871843e-01
         vertex 3.950426e+00 -5.650000e-01 7.990682e-01
      endloop
   endfacet
   facet normal 0.000000e+00 -1.000000e+00 0.000000e+00
      outer loop
         vertex 3.950426e+00 -5.650000e-01 7.990682e-01
         vertex 3.951394e+00 -5.650000e-01 7.871843e-01
         vertex 3.952653e+00 -5.650000e-01 7.876241e-01
      endloop
   endfacet
   facet normal 0.000000e+00 -1.000000e+00 0.000000e+00
      outer loop
         vertex 3.944050e+00 -5.650000e-01 7.876934e-01
         vertex 3.947549e+00 -5.650000e-01 7.968219e-01
         vertex 3.945750e+00 -5.650000e-01 7.951975e-01
      endloop
   endfacet
   facet normal 0.000000e+00 -1.000000e+00 0.000000e+00
      outer loop
         vertex 3.952653e+00 -5.650000e-01 7.876241e-01
         vertex 3.954430e+00 -5.650000e-01 7.884023e-01
         vertex 3.950426e+00 -5.650000e-01 7.990682e-01
      endloop
   endfacet
   facet normal 0.000000e+00 -1.000000e+00 0.000000e+00
      outer loop
         vertex 3.950426e+00 -5.650000e-01 7.990682e-01
         vertex 3.954430e+00 -5.650000e-01 7.884023e-01
         vertex 3.956768e+00 -5.650000e-01 7.896623e-01
      endloop
   endfacet
   facet normal 0.000000e+00 -1.000000e+00 0.000000e+00
      outer loop
         vertex 3.950426e+00 -5.650000e-01 7.990682e-01
         vertex 3.956768e+00 -5.650000e-01 7.896623e-01
         vertex 3.951843e+00 -5.650000e-01 8.000907e-01
      endloop
   endfacet
   facet normal 0.000000e+00 -1.000000e+00 0.000000e+00
      outer loop
         vertex 3.951843e+00 -5.650000e-01 8.000907e-01
         vertex 3.956768e+00 -5.650000e-01 7.896623e-01
         vertex 3.959954e+00 -5.650000e-01 7.917286e-01
      endloop
   endfacet
   facet normal 0.000000e+00 -1.000000e+00 0.000000e+00
      outer loop
         vertex 3.951843e+00 -5.650000e-01 8.000907e-01
         vertex 3.959954e+00 -5.650000e-01 7.917286e-01
         vertex 3.957903e+00 -5.650000e-01 8.041489e-01
      endloop
   endfacet
   facet normal 0.000000e+00 -1.000000e+00 0.000000e+00
      outer loop
         vertex 3.957903e+00 -5.650000e-01 8.041489e-01
         vertex 3.959954e+00 -5.650000e-01 7.917286e-01
         vertex 3.964516e+00 -5.650000e-01 7.952395e-01
      endloop
   endfacet
   facet normal 0.000000e+00 -1.000000e+00 0.000000e+00
      outer loop
         vertex 3.957903e+00 -5.650000e-01 8.041489e-01
         vertex 3.964516e+00 -5.650000e-01 7.952395e-01
         vertex 3.965559e+00 -5.650000e-01 8.089640e-01
      endloop
   endfacet
   facet normal 0.000000e+00 -1.000000e+00 -0.000000e+00
      outer loop
         vertex 3.965559e+00 -5.650000e-01 8.089640e-01
         vertex 3.964516e+00 -5.650000e-01 7.952395e-01
         vertex 3.971459e+00 -5.650000e-01 8.015233e-01
      endloop
   endfacet
   facet normal 0.000000e+00 -1.000000e+00 0.000000e+00
      outer loop
         vertex 3.965559e+00 -5.650000e-01 8.089640e-01
         vertex 3.971459e+00 -5.650000e-01 8.015233e-01
         vertex 3.982475e+00 -5.650000e-01 8.131871e-01
      endloop
   endfacet
   facet normal 0.000000e+00 -1.000000e+00 0.000000e+00
      outer loop
         vertex 3.945750e+00 -5.650000e-01 7.951975e-01
         vertex 3.944798e+00 -5.650000e-01 7.942032e-01
         vertex 3.944050e+00 -5.650000e-01 7.876934e-01
      endloop
   endfacet
   facet normal 0.000000e+00 -1.000000e+00 0.000000e+00
      outer loop
         vertex 3.944050e+00 -5.650000e-01 7.876934e-01
         vertex 3.944798e+00 -5.650000e-01 7.942032e-01
         vertex 3.944155e+00 -5.650000e-01 7.934353e-01
      endloop
   endfacet
   facet normal 0.000000e+00 -1.000000e+00 0.000000e+00
      outer loop
         vertex 3.944050e+00 -5.650000e-01 7.876934e-01
         vertex 3.944155e+00 -5.650000e-01 7.934353e-01
         vertex 3.943778e+00 -5.650000e-01 7.879298e-01
      endloop
   endfacet
   facet normal 0.000000e+00 -1.000000e+00 0.000000e+00
      outer loop
         vertex 3.943778e+00 -5.650000e-01 7.879298e-01
         vertex 3.944155e+00 -5.650000e-01 7.934353e-01
         vertex 3.943700e+00 -5.650000e-01 7.928091e-01
      endloop
   endfacet
   facet normal 0.000000e+00 -1.000000e+00 0.000000e+00
      outer loop
         vertex 3.943778e+00 -5.650000e-01 7.879298e-01
         vertex 3.943700e+00 -5.650000e-01 7.928091e-01
         vertex 3.943555e+00 -5.650000e-01 7.881541e-01
      endloop
   endfacet
   facet normal 0.000000e+00 -1.000000e+00 0.000000e+00
      outer loop
         vertex 3.947883e+00 -5.650000e-01 7.865964e-01
         vertex 3.948601e+00 -5.650000e-01 7.866251e-01
         vertex 3.950426e+00 -5.650000e-01 7.990682e-01
      endloop
   endfacet
   facet normal 0.000000e+00 -1.000000e+00 0.000000e+00
      outer loop
         vertex 3.950426e+00 -5.650000e-01 7.990682e-01
         vertex 3.948601e+00 -5.650000e-01 7.866251e-01
         vertex 3.949408e+00 -5.650000e-01 7.867189e-01
      endloop
   endfacet
   facet normal 0.000000e+00 -1.000000e+00 0.000000e+00
      outer loop
         vertex 3.950426e+00 -5.650000e-01 7.990682e-01
         vertex 3.949408e+00 -5.650000e-01 7.867189e-01
         vertex 3.950328e+00 -5.650000e-01 7.868962e-01
      endloop
   endfacet
   facet normal 0.000000e+00 -1.000000e+00 0.000000e+00
      outer loop
         vertex 3.946092e+00 -5.650000e-01 7.867965e-01
         vertex 3.946642e+00 -5.650000e-01 7.866887e-01
         vertex 3.950426e+00 -5.650000e-01 7.990682e-01
      endloop
   endfacet
   facet normal 0.000000e+00 -1.000000e+00 0.000000e+00
      outer loop
         vertex 3.950426e+00 -5.650000e-01 7.990682e-01
         vertex 3.946642e+00 -5.650000e-01 7.866887e-01
         vertex 3.947235e+00 -5.650000e-01 7.866203e-01
      endloop
   endfacet
   facet normal 0.000000e+00 -1.000000e+00 0.000000e+00
      outer loop
         vertex 3.950426e+00 -5.650000e-01 7.990682e-01
         vertex 3.947235e+00 -5.650000e-01 7.866203e-01
         vertex 3.947883e+00 -5.650000e-01 7.865964e-01
      endloop
   endfacet
   facet normal 0.000000e+00 -1.000000e+00 -0.000000e+00
      outer loop
         vertex 3.947549e+00 -5.650000e-01 7.968219e-01
         vertex 3.944050e+00 -5.650000e-01 7.876934e-01
         vertex 3.950426e+00 -5.650000e-01 7.990682e-01
      endloop
   endfacet
   facet normal 0.000000e+00 -1.000000e+00 0.000000e+00
      outer loop
         vertex 3.950426e+00 -5.650000e-01 7.990682e-01
         vertex 3.944050e+00 -5.650000e-01 7.876934e-01
         vertex 3.944184e+00 -5.650000e-01 7.875881e-01
      endloop
   endfacet
   facet normal 0.000000e+00 -1.000000e+00 0.000000e+00
      outer loop
         vertex 3.950426e+00 -5.650000e-01 7.990682e-01
         vertex 3.944184e+00 -5.650000e-01 7.875881e-01
         vertex 3.944615e+00 -5.650000e-01 7.873428e-01
      endloop
   endfacet
   facet normal 0.000000e+00 -1.000000e+00 0.000000e+00
      outer loop
         vertex 3.943555e+00 -5.650000e-01 7.881541e-01
         vertex 3.943700e+00 -5.650000e-01 7.928091e-01
         vertex 3.943371e+00 -5.650000e-01 7.883683e-01
      endloop
   endfacet
   facet normal 0.000000e+00 -1.000000e+00 0.000000e+00
      outer loop
         vertex 3.943371e+00 -5.650000e-01 7.883683e-01
         vertex 3.943700e+00 -5.650000e-01 7.928091e-01
         vertex 3.943383e+00 -5.650000e-01 7.922980e-01
      endloop
   endfacet
   facet normal 0.000000e+00 -1.000000e+00 0.000000e+00
      outer loop
         vertex 3.943371e+00 -5.650000e-01 7.883683e-01
         vertex 3.943383e+00 -5.650000e-01 7.922980e-01
         vertex 3.943219e+00 -5.650000e-01 7.885745e-01
      endloop
   endfacet
   facet normal 0.000000e+00 -1.000000e+00 0.000000e+00
      outer loop
         vertex 3.943219e+00 -5.650000e-01 7.885745e-01
         vertex 3.943383e+00 -5.650000e-01 7.922980e-01
         vertex 3.943150e+00 -5.650000e-01 7.918493e-01
      endloop
   endfacet
   facet normal 0.000000e+00 -1.000000e+00 0.000000e+00
      outer loop
         vertex 3.943219e+00 -5.650000e-01 7.885745e-01
         vertex 3.943150e+00 -5.650000e-01 7.918493e-01
         vertex 3.942975e+00 -5.650000e-01 7.914370e-01
      endloop
   endfacet
   facet normal 0.000000e+00 -1.000000e+00 -0.000000e+00
      outer loop
         vertex 3.942975e+00 -5.650000e-01 7.914370e-01
         vertex 3.942867e+00 -5.650000e-01 7.911098e-01
         vertex 3.943219e+00 -5.650000e-01 7.885745e-01
      endloop
   endfacet
   facet normal 0.000000e+00 -1.000000e+00 0.000000e+00
      outer loop
         vertex 3.943219e+00 -5.650000e-01 7.885745e-01
         vertex 3.942867e+00 -5.650000e-01 7.911098e-01
         vertex 3.942794e+00 -5.650000e-01 7.908159e-01
      endloop
   endfacet
   facet normal 0.000000e+00 -1.000000e+00 0.000000e+00
      outer loop
         vertex 3.943219e+00 -5.650000e-01 7.885745e-01
         vertex 3.942794e+00 -5.650000e-01 7.908159e-01
         vertex 3.942749e+00 -5.650000e-01 7.905468e-01
      endloop
   endfacet
   facet normal 0.000000e+00 -1.000000e+00 0.000000e+00
      outer loop
         vertex 3.944615e+00 -5.650000e-01 7.873428e-01
         vertex 3.945086e+00 -5.650000e-01 7.871228e-01
         vertex 3.950426e+00 -5.650000e-01 7.990682e-01
      endloop
   endfacet
   facet normal 0.000000e+00 -1.000000e+00 0.000000e+00
      outer loop
         vertex 3.950426e+00 -5.650000e-01 7.990682e-01
         vertex 3.945086e+00 -5.650000e-01 7.871228e-01
         vertex 3.945576e+00 -5.650000e-01 7.869413e-01
      endloop
   endfacet
   facet normal 0.000000e+00 -1.000000e+00 0.000000e+00
      outer loop
         vertex 3.950426e+00 -5.650000e-01 7.990682e-01
         vertex 3.945576e+00 -5.650000e-01 7.869413e-01
         vertex 3.946092e+00 -5.650000e-01 7.867965e-01
      endloop
   endfacet
   facet normal 0.000000e+00 -1.000000e+00 -0.000000e+00
      outer loop
         vertex 3.942749e+00 -5.650000e-01 7.905468e-01
         vertex 3.942727e+00 -5.650000e-01 7.902996e-01
         vertex 3.943219e+00 -5.650000e-01 7.885745e-01
      endloop
   endfacet
   facet normal 0.000000e+00 -1.000000e+00 0.000000e+00
      outer loop
         vertex 3.943219e+00 -5.650000e-01 7.885745e-01
         vertex 3.942727e+00 -5.650000e-01 7.902996e-01
         vertex 3.942725e+00 -5.650000e-01 7.900730e-01
      endloop
   endfacet
   facet normal 0.000000e+00 -1.000000e+00 0.000000e+00
      outer loop
         vertex 3.943219e+00 -5.650000e-01 7.885745e-01
         vertex 3.942725e+00 -5.650000e-01 7.900730e-01
         vertex 3.943094e+00 -5.650000e-01 7.887753e-01
      endloop
   endfacet
   facet normal 0.000000e+00 -1.000000e+00 0.000000e+00
      outer loop
         vertex 3.943094e+00 -5.650000e-01 7.887753e-01
         vertex 3.942725e+00 -5.650000e-01 7.900730e-01
         vertex 3.942740e+00 -5.650000e-01 7.898613e-01
      endloop
   endfacet
   facet normal 0.000000e+00 -1.000000e+00 0.000000e+00
      outer loop
         vertex 3.943094e+00 -5.650000e-01 7.887753e-01
         vertex 3.942740e+00 -5.650000e-01 7.898613e-01
         vertex 3.942773e+00 -5.650000e-01 7.896398e-01
      endloop
   endfacet
   facet normal 0.000000e+00 -1.000000e+00 0.000000e+00
      outer loop
         vertex 3.942773e+00 -5.650000e-01 7.896398e-01
         vertex 3.942825e+00 -5.650000e-01 7.894196e-01
         vertex 3.943094e+00 -5.650000e-01 7.887753e-01
      endloop
   endfacet
   facet normal 0.000000e+00 -1.000000e+00 0.000000e+00
      outer loop
         vertex 3.943094e+00 -5.650000e-01 7.887753e-01
         vertex 3.942825e+00 -5.650000e-01 7.894196e-01
         vertex 3.942897e+00 -5.650000e-01 7.891979e-01
      endloop
   endfacet
   facet normal 0.000000e+00 -1.000000e+00 0.000000e+00
      outer loop
         vertex 3.943094e+00 -5.650000e-01 7.887753e-01
         vertex 3.942897e+00 -5.650000e-01 7.891979e-01
         vertex 3.942987e+00 -5.650000e-01 7.889826e-01
      endloop
   endfacet
   facet normal -6.079705e-01 0.000000e+00 7.939596e-01
      outer loop
         vertex 3.996011e+00 -5.650000e-01 8.296553e-01
         vertex 3.996011e+00 0.000000e+00 8.296553e-01
         vertex 3.987932e+00 -1.110223e-16 8.234692e-01
      endloop
   endfacet
   facet normal -6.079705e-01 0.000000e+00 7.939596e-01
      outer loop
         vertex 3.996011e+00 -5.650000e-01 8.296553e-01
         vertex 3.987932e+00 -1.110223e-16 8.234692e-01
         vertex 3.987932e+00 -5.650000e-01 8.234692e-01
      endloop
   endfacet
   facet normal -5.439970e-01 0.000000e+00 8.390872e-01
      outer loop
         vertex 3.987932e+00 -5.650000e-01 8.234692e-01
         vertex 3.987932e+00 -1.110223e-16 8.234692e-01
         vertex 3.965559e+00 1.110223e-16 8.089640e-01
      endloop
   endfacet
   facet normal -5.439970e-01 0.000000e+00 8.390872e-01
      outer loop
         vertex 3.987932e+00 -5.650000e-01 8.234692e-01
         vertex 3.965559e+00 1.110223e-16 8.089640e-01
         vertex 3.965559e+00 -5.650000e-01 8.089640e-01
      endloop
   endfacet
   facet normal -5.323972e-01 0.000000e+00 8.464947e-01
      outer loop
         vertex 3.965559e+00 -5.650000e-01 8.089640e-01
         vertex 3.965559e+00 1.110223e-16 8.089640e-01
         vertex 3.957903e+00 3.108624e-15 8.041489e-01
      endloop
   endfacet
   facet normal -5.323972e-01 0.000000e+00 8.464947e-01
      outer loop
         vertex 3.965559e+00 -5.650000e-01 8.089640e-01
         vertex 3.957903e+00 3.108624e-15 8.041489e-01
         vertex 3.957903e+00 -5.650000e-01 8.041489e-01
      endloop
   endfacet
   facet normal -5.564322e-01 0.000000e+00 8.308930e-01
      outer loop
         vertex 3.957903e+00 -5.650000e-01 8.041489e-01
         vertex 3.957903e+00 3.108624e-15 8.041489e-01
         vertex 3.951843e+00 1.776357e-15 8.000907e-01
      endloop
   endfacet
   facet normal -5.564322e-01 0.000000e+00 8.308930e-01
      outer loop
         vertex 3.957903e+00 -5.650000e-01 8.041489e-01
         vertex 3.951843e+00 1.776357e-15 8.000907e-01
         vertex 3.951843e+00 -5.650000e-01 8.000907e-01
      endloop
   endfacet
   facet normal -5.851418e-01 0.000000e+00 8.109310e-01
      outer loop
         vertex 3.951843e+00 -5.650000e-01 8.000907e-01
         vertex 3.951843e+00 1.776357e-15 8.000907e-01
         vertex 3.950426e+00 1.332268e-15 7.990682e-01
      endloop
   endfacet
   facet normal -5.851418e-01 0.000000e+00 8.109310e-01
      outer loop
         vertex 3.951843e+00 -5.650000e-01 8.000907e-01
         vertex 3.950426e+00 1.332268e-15 7.990682e-01
         vertex 3.950426e+00 -5.650000e-01 7.990682e-01
      endloop
   endfacet
   facet normal -6.154070e-01 0.000000e+00 7.882095e-01
      outer loop
         vertex 3.950426e+00 -5.650000e-01 7.990682e-01
         vertex 3.950426e+00 1.332268e-15 7.990682e-01
         vertex 3.947549e+00 5.551115e-16 7.968219e-01
      endloop
   endfacet
   facet normal -6.154070e-01 0.000000e+00 7.882095e-01
      outer loop
         vertex 3.950426e+00 -5.650000e-01 7.990682e-01
         vertex 3.947549e+00 5.551115e-16 7.968219e-01
         vertex 3.947549e+00 -5.650000e-01 7.968219e-01
      endloop
   endfacet
   facet normal -6.701513e-01 0.000000e+00 7.422246e-01
      outer loop
         vertex 3.947549e+00 -5.650000e-01 7.968219e-01
         vertex 3.947549e+00 5.551115e-16 7.968219e-01
         vertex 3.945750e+00 2.220446e-16 7.951975e-01
      endloop
   endfacet
   facet normal -6.701513e-01 0.000000e+00 7.422246e-01
      outer loop
         vertex 3.947549e+00 -5.650000e-01 7.968219e-01
         vertex 3.945750e+00 2.220446e-16 7.951975e-01
         vertex 3.945750e+00 -5.650000e-01 7.951975e-01
      endloop
   endfacet
   facet normal -7.222901e-01 0.000000e+00 6.915902e-01
      outer loop
         vertex 3.945750e+00 -5.650000e-01 7.951975e-01
         vertex 3.945750e+00 2.220446e-16 7.951975e-01
         vertex 3.944798e+00 2.220446e-16 7.942032e-01
      endloop
   endfacet
   facet normal -7.222901e-01 0.000000e+00 6.915902e-01
      outer loop
         vertex 3.945750e+00 -5.650000e-01 7.951975e-01
         vertex 3.944798e+00 2.220446e-16 7.942032e-01
         vertex 3.944798e+00 -5.650000e-01 7.942032e-01
      endloop
   endfacet
   facet normal -7.666923e-01 0.000000e+00 6.420148e-01
      outer loop
         vertex 3.944798e+00 -5.650000e-01 7.942032e-01
         vertex 3.944798e+00 2.220446e-16 7.942032e-01
         vertex 3.944155e+00 4.440892e-16 7.934353e-01
      endloop
   endfacet
   facet normal -7.666923e-01 0.000000e+00 6.420148e-01
      outer loop
         vertex 3.944798e+00 -5.650000e-01 7.942032e-01
         vertex 3.944155e+00 4.440892e-16 7.934353e-01
         vertex 3.944155e+00 -5.650000e-01 7.934353e-01
      endloop
   endfacet
   facet normal -8.092287e-01 0.000000e+00 5.874937e-01
      outer loop
         vertex 3.944155e+00 -5.650000e-01 7.934353e-01
         vertex 3.944155e+00 4.440892e-16 7.934353e-01
         vertex 3.943700e+00 1.110223e-15 7.928091e-01
      endloop
   endfacet
   facet normal -8.092287e-01 0.000000e+00 5.874937e-01
      outer loop
         vertex 3.944155e+00 -5.650000e-01 7.934353e-01
         vertex 3.943700e+00 1.110223e-15 7.928091e-01
         vertex 3.943700e+00 -5.650000e-01 7.928091e-01
      endloop
   endfacet
   facet normal -8.499249e-01 0.000000e+00 5.269039e-01
      outer loop
         vertex 3.943700e+00 -5.650000e-01 7.928091e-01
         vertex 3.943700e+00 1.110223e-15 7.928091e-01
         vertex 3.943383e+00 1.776357e-15 7.922980e-01
      endloop
   endfacet
   facet normal -8.499249e-01 0.000000e+00 5.269039e-01
      outer loop
         vertex 3.943700e+00 -5.650000e-01 7.928091e-01
         vertex 3.943383e+00 1.776357e-15 7.922980e-01
         vertex 3.943383e+00 -5.650000e-01 7.922980e-01
      endloop
   endfacet
   facet normal -8.873152e-01 0.000000e+00 4.611634e-01
      outer loop
         vertex 3.943383e+00 -5.650000e-01 7.922980e-01
         vertex 3.943383e+00 1.776357e-15 7.922980e-01
         vertex 3.943150e+00 2.220446e-15 7.918493e-01
      endloop
   endfacet
   facet normal -8.873152e-01 0.000000e+00 4.611634e-01
      outer loop
         vertex 3.943383e+00 -5.650000e-01 7.922980e-01
         vertex 3.943150e+00 2.220446e-15 7.918493e-01
         vertex 3.943150e+00 -5.650000e-01 7.918493e-01
      endloop
   endfacet
   facet normal -9.208919e-01 0.000000e+00 3.898181e-01
      outer loop
         vertex 3.943150e+00 -5.650000e-01 7.918493e-01
         vertex 3.943150e+00 2.220446e-15 7.918493e-01
         vertex 3.942975e+00 2.442491e-15 7.914370e-01
      endloop
   endfacet
   facet normal -9.208919e-01 0.000000e+00 3.898181e-01
      outer loop
         vertex 3.943150e+00 -5.650000e-01 7.918493e-01
         vertex 3.942975e+00 2.442491e-15 7.914370e-01
         vertex 3.942975e+00 -5.650000e-01 7.914370e-01
      endloop
   endfacet
   facet normal -9.489940e-01 0.000000e+00 3.152942e-01
      outer loop
         vertex 3.942975e+00 -5.650000e-01 7.914370e-01
         vertex 3.942975e+00 2.442491e-15 7.914370e-01
         vertex 3.942867e+00 2.331468e-15 7.911098e-01
      endloop
   endfacet
   facet normal -9.489940e-01 0.000000e+00 3.152942e-01
      outer loop
         vertex 3.942975e+00 -5.650000e-01 7.914370e-01
         vertex 3.942867e+00 2.331468e-15 7.911098e-01
         vertex 3.942867e+00 -5.650000e-01 7.911098e-01
      endloop
   endfacet
   facet normal -9.705464e-01 0.000000e+00 2.409144e-01
      outer loop
         vertex 3.942867e+00 -5.650000e-01 7.911098e-01
         vertex 3.942867e+00 2.331468e-15 7.911098e-01
         vertex 3.942794e+00 2.109424e-15 7.908159e-01
      endloop
   endfacet
   facet normal -9.705464e-01 0.000000e+00 2.409144e-01
      outer loop
         vertex 3.942867e+00 -5.650000e-01 7.911098e-01
         vertex 3.942794e+00 2.109424e-15 7.908159e-01
         vertex 3.942794e+00 -5.650000e-01 7.908159e-01
      endloop
   endfacet
   facet normal -9.864116e-01 0.000000e+00 1.642927e-01
      outer loop
         vertex 3.942794e+00 -5.650000e-01 7.908159e-01
         vertex 3.942794e+00 2.109424e-15 7.908159e-01
         vertex 3.942749e+00 1.776357e-15 7.905468e-01
      endloop
   endfacet
   facet normal -9.864116e-01 0.000000e+00 1.642927e-01
      outer loop
         vertex 3.942794e+00 -5.650000e-01 7.908159e-01
         vertex 3.942749e+00 1.776357e-15 7.905468e-01
         vertex 3.942749e+00 -5.650000e-01 7.905468e-01
      endloop
   endfacet
   facet normal -9.961700e-01 0.000000e+00 8.743812e-02
      outer loop
         vertex 3.942749e+00 -5.650000e-01 7.905468e-01
         vertex 3.942749e+00 1.776357e-15 7.905468e-01
         vertex 3.942727e+00 1.332268e-15 7.902996e-01
      endloop
   endfacet
   facet normal -9.961700e-01 0.000000e+00 8.743812e-02
      outer loop
         vertex 3.942749e+00 -5.650000e-01 7.905468e-01
         vertex 3.942727e+00 1.332268e-15 7.902996e-01
         vertex 3.942727e+00 -5.650000e-01 7.902996e-01
      endloop
   endfacet
   facet normal -9.999552e-01 0.000000e+00 9.468276e-03
      outer loop
         vertex 3.942727e+00 -5.650000e-01 7.902996e-01
         vertex 3.942727e+00 1.332268e-15 7.902996e-01
         vertex 3.942725e+00 9.992007e-16 7.900730e-01
      endloop
   endfacet
   facet normal -9.999552e-01 0.000000e+00 9.468276e-03
      outer loop
         vertex 3.942727e+00 -5.650000e-01 7.902996e-01
         vertex 3.942725e+00 9.992007e-16 7.900730e-01
         vertex 3.942725e+00 -5.650000e-01 7.900730e-01
      endloop
   endfacet
   facet normal -9.975715e-01 0.000000e+00 -6.965026e-02
      outer loop
         vertex 3.942725e+00 -5.650000e-01 7.900730e-01
         vertex 3.942725e+00 9.992007e-16 7.900730e-01
         vertex 3.942740e+00 6.661338e-16 7.898613e-01
      endloop
   endfacet
   facet normal -9.975715e-01 0.000000e+00 -6.965026e-02
      outer loop
         vertex 3.942725e+00 -5.650000e-01 7.900730e-01
         vertex 3.942740e+00 6.661338e-16 7.898613e-01
         vertex 3.942740e+00 -5.650000e-01 7.898613e-01
      endloop
   endfacet
   facet normal -9.888287e-01 0.000000e+00 -1.490563e-01
      outer loop
         vertex 3.942740e+00 -5.650000e-01 7.898613e-01
         vertex 3.942740e+00 6.661338e-16 7.898613e-01
         vertex 3.942773e+00 2.220446e-16 7.896398e-01
      endloop
   endfacet
   facet normal -9.888287e-01 0.000000e+00 -1.490563e-01
      outer loop
         vertex 3.942740e+00 -5.650000e-01 7.898613e-01
         vertex 3.942773e+00 2.220446e-16 7.896398e-01
         vertex 3.942773e+00 -5.650000e-01 7.896398e-01
      endloop
   endfacet
   facet normal -9.735000e-01 0.000000e+00 -2.286869e-01
      outer loop
         vertex 3.942773e+00 -5.650000e-01 7.896398e-01
         vertex 3.942773e+00 2.220446e-16 7.896398e-01
         vertex 3.942825e+00 0.000000e+00 7.894196e-01
      endloop
   endfacet
   facet normal -9.735000e-01 0.000000e+00 -2.286869e-01
      outer loop
         vertex 3.942773e+00 -5.650000e-01 7.896398e-01
         vertex 3.942825e+00 0.000000e+00 7.894196e-01
         vertex 3.942825e+00 -5.650000e-01 7.894196e-01
      endloop
   endfacet
   facet normal -9.511092e-01 0.000000e+00 -3.088548e-01
      outer loop
         vertex 3.942825e+00 -5.650000e-01 7.894196e-01
         vertex 3.942825e+00 0.000000e+00 7.894196e-01
         vertex 3.942897e+00 -2.220446e-16 7.891979e-01
      endloop
   endfacet
   facet normal -9.511092e-01 0.000000e+00 -3.088548e-01
      outer loop
         vertex 3.942825e+00 -5.650000e-01 7.894196e-01
         vertex 3.942897e+00 -2.220446e-16 7.891979e-01
         vertex 3.942897e+00 -5.650000e-01 7.891979e-01
      endloop
   endfacet
   facet normal -9.227666e-01 0.000000e+00 -3.853592e-01
      outer loop
         vertex 3.942897e+00 -5.650000e-01 7.891979e-01
         vertex 3.942897e+00 -2.220446e-16 7.891979e-01
         vertex 3.942987e+00 -4.440892e-16 7.889826e-01
      endloop
   endfacet
   facet normal -9.227666e-01 0.000000e+00 -3.853592e-01
      outer loop
         vertex 3.942897e+00 -5.650000e-01 7.891979e-01
         vertex 3.942987e+00 -4.440892e-16 7.889826e-01
         vertex 3.942987e+00 -5.650000e-01 7.889826e-01
      endloop
   endfacet
   facet normal -8.877468e-01 0.000000e+00 -4.603321e-01
      outer loop
         vertex 3.942987e+00 -5.650000e-01 7.889826e-01
         vertex 3.942987e+00 -4.440892e-16 7.889826e-01
         vertex 3.943094e+00 -4.440892e-16 7.887753e-01
      endloop
   endfacet
   facet normal -8.877468e-01 0.000000e+00 -4.603321e-01
      outer loop
         vertex 3.942987e+00 -5.650000e-01 7.889826e-01
         vertex 3.943094e+00 -4.440892e-16 7.887753e-01
         vertex 3.943094e+00 -5.650000e-01 7.887753e-01
      endloop
   endfacet
   facet normal -8.485640e-01 0.000000e+00 -5.290928e-01
      outer loop
         vertex 3.943094e+00 -5.650000e-01 7.887753e-01
         vertex 3.943094e+00 -4.440892e-16 7.887753e-01
         vertex 3.943219e+00 -4.440892e-16 7.885745e-01
      endloop
   endfacet
   facet normal -8.485640e-01 0.000000e+00 -5.290928e-01
      outer loop
         vertex 3.943094e+00 -5.650000e-01 7.887753e-01
         vertex 3.943219e+00 -4.440892e-16 7.885745e-01
         vertex 3.943219e+00 -5.650000e-01 7.885745e-01
      endloop
   endfacet
   facet normal -8.055824e-01 0.000000e+00 -5.924838e-01
      outer loop
         vertex 3.943219e+00 -5.650000e-01 7.885745e-01
         vertex 3.943219e+00 -4.440892e-16 7.885745e-01
         vertex 3.943371e+00 -4.440892e-16 7.883683e-01
      endloop
   endfacet
   facet normal -8.055824e-01 0.000000e+00 -5.924838e-01
      outer loop
         vertex 3.943219e+00 -5.650000e-01 7.885745e-01
         vertex 3.943371e+00 -4.440892e-16 7.883683e-01
         vertex 3.943371e+00 -5.650000e-01 7.883683e-01
      endloop
   endfacet
   facet normal -7.588988e-01 0.000000e+00 -6.512086e-01
      outer loop
         vertex 3.943371e+00 -5.650000e-01 7.883683e-01
         vertex 3.943371e+00 -4.440892e-16 7.883683e-01
         vertex 3.943555e+00 -4.440892e-16 7.881541e-01
      endloop
   endfacet
   facet normal -7.588988e-01 0.000000e+00 -6.512086e-01
      outer loop
         vertex 3.943371e+00 -5.650000e-01 7.883683e-01
         vertex 3.943555e+00 -4.440892e-16 7.881541e-01
         vertex 3.943555e+00 -5.650000e-01 7.881541e-01
      endloop
   endfacet
   facet normal -7.088942e-01 0.000000e+00 -7.053149e-01
      outer loop
         vertex 3.943555e+00 -5.650000e-01 7.881541e-01
         vertex 3.943555e+00 -4.440892e-16 7.881541e-01
         vertex 3.943778e+00 -2.220446e-16 7.879298e-01
      endloop
   endfacet
   facet normal -7.088942e-01 0.000000e+00 -7.053149e-01
      outer loop
         vertex 3.943555e+00 -5.650000e-01 7.881541e-01
         vertex 3.943778e+00 -2.220446e-16 7.879298e-01
         vertex 3.943778e+00 -5.650000e-01 7.879298e-01
      endloop
   endfacet
   facet normal -6.562525e-01 0.000000e+00 -7.545414e-01
      outer loop
         vertex 3.943778e+00 -5.650000e-01 7.879298e-01
         vertex 3.943778e+00 -2.220446e-16 7.879298e-01
         vertex 3.944050e+00 -1.110223e-16 7.876934e-01
      endloop
   endfacet
   facet normal -6.562525e-01 0.000000e+00 -7.545414e-01
      outer loop
         vertex 3.943778e+00 -5.650000e-01 7.879298e-01
         vertex 3.944050e+00 -1.110223e-16 7.876934e-01
         vertex 3.944050e+00 -5.650000e-01 7.876934e-01
      endloop
   endfacet
   facet normal -6.179760e-01 0.000000e+00 -7.861970e-01
      outer loop
         vertex 3.944050e+00 -5.650000e-01 7.876934e-01
         vertex 3.944050e+00 -1.110223e-16 7.876934e-01
         vertex 3.944184e+00 0.000000e+00 7.875881e-01
      endloop
   endfacet
   facet normal -6.179760e-01 0.000000e+00 -7.861970e-01
      outer loop
         vertex 3.944050e+00 -5.650000e-01 7.876934e-01
         vertex 3.944184e+00 0.000000e+00 7.875881e-01
         vertex 3.944184e+00 -5.650000e-01 7.875881e-01
      endloop
   endfacet
   facet normal -4.945462e-01 0.000000e+00 -8.691514e-01
      outer loop
         vertex 3.944184e+00 -5.650000e-01 7.875881e-01
         vertex 3.944184e+00 0.000000e+00 7.875881e-01
         vertex 3.944615e+00 -1.110223e-16 7.873428e-01
      endloop
   endfacet
   facet normal -4.945462e-01 0.000000e+00 -8.691514e-01
      outer loop
         vertex 3.944184e+00 -5.650000e-01 7.875881e-01
         vertex 3.944615e+00 -1.110223e-16 7.873428e-01
         vertex 3.944615e+00 -5.650000e-01 7.873428e-01
      endloop
   endfacet
   facet normal -4.229419e-01 0.000000e+00 -9.061568e-01
      outer loop
         vertex 3.944615e+00 -5.650000e-01 7.873428e-01
         vertex 3.944615e+00 -1.110223e-16 7.873428e-01
         vertex 3.945086e+00 1.110223e-16 7.871228e-01
      endloop
   endfacet
   facet normal -4.229419e-01 0.000000e+00 -9.061568e-01
      outer loop
         vertex 3.944615e+00 -5.650000e-01 7.873428e-01
         vertex 3.945086e+00 1.110223e-16 7.871228e-01
         vertex 3.945086e+00 -5.650000e-01 7.871228e-01
      endloop
   endfacet
   facet normal -3.473218e-01 0.000000e+00 -9.377460e-01
      outer loop
         vertex 3.945086e+00 -5.650000e-01 7.871228e-01
         vertex 3.945086e+00 1.110223e-16 7.871228e-01
         vertex 3.945576e+00 0.000000e+00 7.869413e-01
      endloop
   endfacet
   facet normal -3.473218e-01 0.000000e+00 -9.377460e-01
      outer loop
         vertex 3.945086e+00 -5.650000e-01 7.871228e-01
         vertex 3.945576e+00 0.000000e+00 7.869413e-01
         vertex 3.945576e+00 -5.650000e-01 7.869413e-01
      endloop
   endfacet
   facet normal -2.702817e-01 0.000000e+00 -9.627813e-01
      outer loop
         vertex 3.945576e+00 -5.650000e-01 7.869413e-01
         vertex 3.945576e+00 0.000000e+00 7.869413e-01
         vertex 3.946092e+00 -1.110223e-16 7.867965e-01
      endloop
   endfacet
   facet normal -2.702817e-01 0.000000e+00 -9.627813e-01
      outer loop
         vertex 3.945576e+00 -5.650000e-01 7.869413e-01
         vertex 3.946092e+00 -1.110223e-16 7.867965e-01
         vertex 3.946092e+00 -5.650000e-01 7.867965e-01
      endloop
   endfacet
   facet normal -1.923502e-01 0.000000e+00 -9.813264e-01
      outer loop
         vertex 3.946092e+00 -5.650000e-01 7.867965e-01
         vertex 3.946092e+00 -1.110223e-16 7.867965e-01
         vertex 3.946642e+00 1.110223e-16 7.866887e-01
      endloop
   endfacet
   facet normal -1.923502e-01 0.000000e+00 -9.813264e-01
      outer loop
         vertex 3.946092e+00 -5.650000e-01 7.867965e-01
         vertex 3.946642e+00 1.110223e-16 7.866887e-01
         vertex 3.946642e+00 -5.650000e-01 7.866887e-01
      endloop
   endfacet
   facet normal -1.144953e-01 0.000000e+00 -9.934238e-01
      outer loop
         vertex 3.946642e+00 -5.650000e-01 7.866887e-01
         vertex 3.946642e+00 1.110223e-16 7.866887e-01
         vertex 3.947235e+00 0.000000e+00 7.866203e-01
      endloop
   endfacet
   facet normal -1.144953e-01 0.000000e+00 -9.934238e-01
      outer loop
         vertex 3.946642e+00 -5.650000e-01 7.866887e-01
         vertex 3.947235e+00 0.000000e+00 7.866203e-01
         vertex 3.947235e+00 -5.650000e-01 7.866203e-01
      endloop
   endfacet
   facet normal -3.685868e-02 0.000000e+00 -9.993205e-01
      outer loop
         vertex 3.947235e+00 -5.650000e-01 7.866203e-01
         vertex 3.947235e+00 0.000000e+00 7.866203e-01
         vertex 3.947883e+00 0.000000e+00 7.865964e-01
      endloop
   endfacet
   facet normal -3.685868e-02 0.000000e+00 -9.993205e-01
      outer loop
         vertex 3.947235e+00 -5.650000e-01 7.866203e-01
         vertex 3.947883e+00 0.000000e+00 7.865964e-01
         vertex 3.947883e+00 -5.650000e-01 7.865964e-01
      endloop
   endfacet
   facet normal 3.998792e-02 0.000000e+00 -9.992002e-01
      outer loop
         vertex 3.947883e+00 -5.650000e-01 7.865964e-01
         vertex 3.947883e+00 0.000000e+00 7.865964e-01
         vertex 3.948601e+00 1.110223e-16 7.866251e-01
      endloop
   endfacet
   facet normal 3.998792e-02 0.000000e+00 -9.992002e-01
      outer loop
         vertex 3.947883e+00 -5.650000e-01 7.865964e-01
         vertex 3.948601e+00 1.110223e-16 7.866251e-01
         vertex 3.948601e+00 -5.650000e-01 7.866251e-01
      endloop
   endfacet
   facet normal 1.154992e-01 0.000000e+00 -9.933076e-01
      outer loop
         vertex 3.948601e+00 -5.650000e-01 7.866251e-01
         vertex 3.948601e+00 1.110223e-16 7.866251e-01
         vertex 3.949408e+00 0.000000e+00 7.867189e-01
      endloop
   endfacet
   facet normal 1.154992e-01 0.000000e+00 -9.933076e-01
      outer loop
         vertex 3.948601e+00 -5.650000e-01 7.866251e-01
         vertex 3.949408e+00 0.000000e+00 7.867189e-01
         vertex 3.949408e+00 -5.650000e-01 7.867189e-01
      endloop
   endfacet
   facet normal 1.891871e-01 0.000000e+00 -9.819411e-01
      outer loop
         vertex 3.949408e+00 -5.650000e-01 7.867189e-01
         vertex 3.949408e+00 0.000000e+00 7.867189e-01
         vertex 3.950328e+00 0.000000e+00 7.868962e-01
      endloop
   endfacet
   facet normal 1.891871e-01 0.000000e+00 -9.819411e-01
      outer loop
         vertex 3.949408e+00 -5.650000e-01 7.867189e-01
         vertex 3.950328e+00 0.000000e+00 7.868962e-01
         vertex 3.950328e+00 -5.650000e-01 7.868962e-01
      endloop
   endfacet
   facet normal 2.607704e-01 0.000000e+00 -9.654008e-01
      outer loop
         vertex 3.950328e+00 -5.650000e-01 7.868962e-01
         vertex 3.950328e+00 0.000000e+00 7.868962e-01
         vertex 3.951394e+00 0.000000e+00 7.871843e-01
      endloop
   endfacet
   facet normal 2.607704e-01 0.000000e+00 -9.654008e-01
      outer loop
         vertex 3.950328e+00 -5.650000e-01 7.868962e-01
         vertex 3.951394e+00 0.000000e+00 7.871843e-01
         vertex 3.951394e+00 -5.650000e-01 7.871843e-01
      endloop
   endfacet
   facet normal 3.298485e-01 0.000000e+00 -9.440339e-01
      outer loop
         vertex 3.951394e+00 -5.650000e-01 7.871843e-01
         vertex 3.951394e+00 0.000000e+00 7.871843e-01
         vertex 3.952653e+00 0.000000e+00 7.876241e-01
      endloop
   endfacet
   facet normal 3.298485e-01 0.000000e+00 -9.440339e-01
      outer loop
         vertex 3.951394e+00 -5.650000e-01 7.871843e-01
         vertex 3.952653e+00 0.000000e+00 7.876241e-01
         vertex 3.952653e+00 -5.650000e-01 7.876241e-01
      endloop
   endfacet
   facet normal 4.012315e-01 0.000000e+00 -9.159767e-01
      outer loop
         vertex 3.952653e+00 -5.650000e-01 7.876241e-01
         vertex 3.952653e+00 0.000000e+00 7.876241e-01
         vertex 3.954430e+00 0.000000e+00 7.884023e-01
      endloop
   endfacet
   facet normal 4.012315e-01 0.000000e+00 -9.159767e-01
      outer loop
         vertex 3.952653e+00 -5.650000e-01 7.876241e-01
         vertex 3.954430e+00 0.000000e+00 7.884023e-01
         vertex 3.954430e+00 -5.650000e-01 7.884023e-01
      endloop
   endfacet
   facet normal 4.743447e-01 0.000000e+00 -8.803392e-01
      outer loop
         vertex 3.954430e+00 -5.650000e-01 7.884023e-01
         vertex 3.954430e+00 0.000000e+00 7.884023e-01
         vertex 3.956768e+00 0.000000e+00 7.896623e-01
      endloop
   endfacet
   facet normal 4.743447e-01 0.000000e+00 -8.803392e-01
      outer loop
         vertex 3.954430e+00 -5.650000e-01 7.884023e-01
         vertex 3.956768e+00 0.000000e+00 7.896623e-01
         vertex 3.956768e+00 -5.650000e-01 7.896623e-01
      endloop
   endfacet
   facet normal 5.441693e-01 0.000000e+00 -8.389754e-01
      outer loop
         vertex 3.956768e+00 -5.650000e-01 7.896623e-01
         vertex 3.956768e+00 0.000000e+00 7.896623e-01
         vertex 3.959954e+00 0.000000e+00 7.917286e-01
      endloop
   endfacet
   facet normal 5.441693e-01 0.000000e+00 -8.389754e-01
      outer loop
         vertex 3.956768e+00 -5.650000e-01 7.896623e-01
         vertex 3.959954e+00 0.000000e+00 7.917286e-01
         vertex 3.959954e+00 -5.650000e-01 7.917286e-01
      endloop
   endfacet
   facet normal 6.098604e-01 0.000000e+00 -7.925089e-01
      outer loop
         vertex 3.959954e+00 -5.650000e-01 7.917286e-01
         vertex 3.959954e+00 0.000000e+00 7.917286e-01
         vertex 3.964516e+00 -1.110223e-16 7.952395e-01
      endloop
   endfacet
   facet normal 6.098604e-01 0.000000e+00 -7.925089e-01
      outer loop
         vertex 3.959954e+00 -5.650000e-01 7.917286e-01
         vertex 3.964516e+00 -1.110223e-16 7.952395e-01
         vertex 3.964516e+00 -5.650000e-01 7.952395e-01
      endloop
   endfacet
   facet normal 6.710348e-01 0.000000e+00 -7.414258e-01
      outer loop
         vertex 3.964516e+00 -5.650000e-01 7.952395e-01
         vertex 3.964516e+00 -1.110223e-16 7.952395e-01
         vertex 3.971459e+00 1.110223e-16 8.015233e-01
      endloop
   endfacet
   facet normal 6.710348e-01 0.000000e+00 -7.414258e-01
      outer loop
         vertex 3.964516e+00 -5.650000e-01 7.952395e-01
         vertex 3.971459e+00 1.110223e-16 8.015233e-01
         vertex 3.971459e+00 -5.650000e-01 8.015233e-01
      endloop
   endfacet
   facet normal 7.270253e-01 0.000000e+00 -6.866107e-01
      outer loop
         vertex 3.971459e+00 -5.650000e-01 8.015233e-01
         vertex 3.971459e+00 1.110223e-16 8.015233e-01
         vertex 3.982475e+00 0.000000e+00 8.131871e-01
      endloop
   endfacet
   facet normal 7.270253e-01 0.000000e+00 -6.866107e-01
      outer loop
         vertex 3.971459e+00 -5.650000e-01 8.015233e-01
         vertex 3.982475e+00 0.000000e+00 8.131871e-01
         vertex 3.982475e+00 -5.650000e-01 8.131871e-01
      endloop
   endfacet
   facet normal 7.725294e-01 0.000000e+00 -6.349790e-01
      outer loop
         vertex 3.982475e+00 -5.650000e-01 8.131871e-01
         vertex 3.982475e+00 0.000000e+00 8.131871e-01
         vertex 3.996011e+00 0.000000e+00 8.296553e-01
      endloop
   endfacet
   facet normal 7.725294e-01 0.000000e+00 -6.349790e-01
      outer loop
         vertex 3.982475e+00 -5.650000e-01 8.131871e-01
         vertex 3.996011e+00 0.000000e+00 8.296553e-01
         vertex 3.996011e+00 -5.650000e-01 8.296553e-01
      endloop
   endfacet
endsolid bad_rw_flap