solid 24_RS-FW-PROFILES_V01
   facet normal 0.000000e+00 0.000000e+00 -1.000000e+00
      outer loop
         vertex -1.155000e+00 4.500000e-01 4.000000e-01
         vertex -9.900000e-01 9.000000e-01 4.000000e-01
         vertex -7.575000e-01 9.000000e-01 4.000000e-01
      endloop
   endfacet
   facet normal -0.000000e+00 0.000000e+00 -1.000000e+00
      outer loop
         vertex -9.225000e-01 4.000000e-01 4.000000e-01
         vertex -1.320000e+00 -5.645484e-14 4.000000e-01
         vertex -1.155000e+00 4.500000e-01 4.000000e-01
      endloop
   endfacet
   facet normal 0.000000e+00 0.000000e+00 -1.000000e+00
      outer loop
         vertex -7.575000e-01 9.000000e-01 4.000000e-01
         vertex -5.250000e-01 9.000000e-01 4.000000e-01
         vertex -5.250000e-01 8.500000e-01 4.000000e-01
      endloop
   endfacet
   facet normal 0.000000e+00 0.000000e+00 -1.000000e+00
      outer loop
         vertex -1.155000e+00 4.500000e-01 4.000000e-01
         vertex -7.575000e-01 9.000000e-01 4.000000e-01
         vertex -9.225000e-01 4.000000e-01 4.000000e-01
      endloop
   endfacet
   facet normal 0.000000e+00 0.000000e+00 -1.000000e+00
      outer loop
         vertex -9.225000e-01 4.000000e-01 4.000000e-01
         vertex -7.575000e-01 9.000000e-01 4.000000e-01
         vertex -5.250000e-01 8.500000e-01 4.000000e-01
      endloop
   endfacet
   facet normal 0.000000e+00 0.000000e+00 -1.000000e+00
      outer loop
         vertex -9.225000e-01 4.000000e-01 4.000000e-01
         vertex -5.250000e-01 8.500000e-01 4.000000e-01
         vertex -5.250000e-01 8.000000e-01 4.000000e-01
      endloop
   endfacet
   facet normal 0.000000e+00 0.000000e+00 1.000000e+00
      outer loop
         vertex -1.155000e+00 4.500000e-01 4.000000e-01
         vertex -1.320000e+00 -5.645484e-14 4.000000e-01
         vertex -9.225000e-01 4.000000e-01 4.000000e-01
      endloop
   endfacet
   facet normal 0.000000e+00 -0.000000e+00 1.000000e+00
      outer loop
         vertex -5.250000e-01 8.500000e-01 4.000000e-01
         vertex -5.250000e-01 9.000000e-01 4.000000e-01
         vertex -7.575000e-01 9.000000e-01 4.000000e-01
      endloop
   endfacet
   facet normal 0.000000e+00 0.000000e+00 1.000000e+00
      outer loop
         vertex -7.575000e-01 9.000000e-01 4.000000e-01
         vertex -9.900000e-01 9.000000e-01 4.000000e-01
         vertex -1.155000e+00 4.500000e-01 4.000000e-01
      endloop
   endfacet
   facet normal -0.000000e+00 0.000000e+00 1.000000e+00
      outer loop
         vertex -1.155000e+00 4.500000e-01 4.000000e-01
         vertex -9.225000e-01 4.000000e-01 4.000000e-01
         vertex -7.575000e-01 9.000000e-01 4.000000e-01
      endloop
   endfacet
   facet normal 0.000000e+00 0.000000e+00 1.000000e+00
      outer loop
         vertex -7.575000e-01 9.000000e-01 4.000000e-01
         vertex -9.225000e-01 4.000000e-01 4.000000e-01
         vertex -5.250000e-01 8.000000e-01 4.000000e-01
      endloop
   endfacet
   facet normal 0.000000e+00 0.000000e+00 1.000000e+00
      outer loop
         vertex -7.575000e-01 9.000000e-01 4.000000e-01
         vertex -5.250000e-01 8.000000e-01 4.000000e-01
         vertex -5.250000e-01 8.500000e-01 4.000000e-01
      endloop
   endfacet
endsolid 24_RS-FW-PROFILES_V01