solid 23_RS-FWEP-BODY_V01
   facet normal 0.000000e+00 1.000000e+00 0.000000e+00
      outer loop
         vertex -7.375000e-01 9.000000e-01 2.000000e-01
         vertex -9.500000e-01 9.000000e-01 2.000000e-01
         vertex -8.625000e-01 9.000000e-01 3.125000e-01
      endloop
   endfacet
   facet normal -0.000000e+00 1.000000e+00 0.000000e+00
      outer loop
         vertex -6.500000e-01 9.000000e-01 4.475000e-01
         vertex -5.250000e-01 9.000000e-01 4.700000e-01
         vertex -5.250000e-01 9.000000e-01 3.350000e-01
      endloop
   endfacet
   facet normal 0.000000e+00 1.000000e+00 0.000000e+00
      outer loop
         vertex -6.500000e-01 9.000000e-01 4.475000e-01
         vertex -5.250000e-01 9.000000e-01 3.350000e-01
         vertex -7.750000e-01 9.000000e-01 4.250000e-01
      endloop
   endfacet
   facet normal 0.000000e+00 1.000000e+00 0.000000e+00
      outer loop
         vertex -7.750000e-01 9.000000e-01 4.250000e-01
         vertex -5.250000e-01 9.000000e-01 3.350000e-01
         vertex -8.625000e-01 9.000000e-01 3.125000e-01
      endloop
   endfacet
   facet normal -0.000000e+00 1.000000e+00 0.000000e+00
      outer loop
         vertex -8.625000e-01 9.000000e-01 3.125000e-01
         vertex -5.250000e-01 9.000000e-01 3.350000e-01
         vertex -5.250000e-01 9.000000e-01 2.000000e-01
      endloop
   endfacet
   facet normal 0.000000e+00 1.000000e+00 0.000000e+00
      outer loop
         vertex -8.625000e-01 9.000000e-01 3.125000e-01
         vertex -5.250000e-01 9.000000e-01 2.000000e-01
         vertex -7.375000e-01 9.000000e-01 2.000000e-01
      endloop
   endfacet
   facet normal 0.000000e+00 -1.000000e+00 0.000000e+00
      outer loop
         vertex -7.375000e-01 9.000000e-01 2.000000e-01
         vertex -5.250000e-01 9.000000e-01 2.000000e-01
         vertex -5.250000e-01 9.000000e-01 3.350000e-01
      endloop
   endfacet
   facet normal 0.000000e+00 -1.000000e+00 -0.000000e+00
      outer loop
         vertex -8.625000e-01 9.000000e-01 3.125000e-01
         vertex -9.500000e-01 9.000000e-01 2.000000e-01
         vertex -7.375000e-01 9.000000e-01 2.000000e-01
      endloop
   endfacet
   facet normal 0.000000e+00 -1.000000e+00 0.000000e+00
      outer loop
         vertex -5.250000e-01 9.000000e-01 3.350000e-01
         vertex -5.250000e-01 9.000000e-01 4.700000e-01
         vertex -6.500000e-01 9.000000e-01 4.475000e-01
      endloop
   endfacet
   facet normal 0.000000e+00 -1.000000e+00 0.000000e+00
      outer loop
         vertex -7.375000e-01 9.000000e-01 2.000000e-01
         vertex -5.250000e-01 9.000000e-01 3.350000e-01
         vertex -8.625000e-01 9.000000e-01 3.125000e-01
      endloop
   endfacet
   facet normal 0.000000e+00 -1.000000e+00 0.000000e+00
      outer loop
         vertex -8.625000e-01 9.000000e-01 3.125000e-01
         vertex -5.250000e-01 9.000000e-01 3.350000e-01
         vertex -6.500000e-01 9.000000e-01 4.475000e-01
      endloop
   endfacet
   facet normal 0.000000e+00 -1.000000e+00 0.000000e+00
      outer loop
         vertex -8.625000e-01 9.000000e-01 3.125000e-01
         vertex -6.500000e-01 9.000000e-01 4.475000e-01
         vertex -7.750000e-01 9.000000e-01 4.250000e-01
      endloop
   endfacet
endsolid 23_RS-FWEP-BODY_V01