solid 02_RS-FLOOR-PLAN_V03
   facet normal 0.000000e+00 0.000000e+00 1.000000e+00
      outer loop
         vertex 9.947969e-01 5.706729e-01 4.510000e-01
         vertex 8.810900e-01 5.450000e-01 4.510000e-01
         vertex 8.331539e-01 4.590965e-01 4.510000e-01
      endloop
   endfacet
   facet normal 0.000000e+00 0.000000e+00 1.000000e+00
      outer loop
         vertex 4.040000e+00 3.650000e-01 4.510000e-01
         vertex 3.924043e+00 3.674668e-01 4.510000e-01
         vertex 4.040000e+00 0.000000e+00 4.510000e-01
      endloop
   endfacet
   facet normal 0.000000e+00 0.000000e+00 1.000000e+00
      outer loop
         vertex 4.040000e+00 0.000000e+00 4.510000e-01
         vertex 3.924043e+00 3.674668e-01 4.510000e-01
         vertex 3.808295e+00 3.748627e-01 4.510000e-01
      endloop
   endfacet
   facet normal 0.000000e+00 0.000000e+00 1.000000e+00
      outer loop
         vertex 4.040000e+00 0.000000e+00 4.510000e-01
         vertex 3.808295e+00 3.748627e-01 4.510000e-01
         vertex 3.692967e+00 3.871743e-01 4.510000e-01
      endloop
   endfacet
   facet normal 0.000000e+00 0.000000e+00 1.000000e+00
      outer loop
         vertex 3.692967e+00 3.871743e-01 4.510000e-01
         vertex 3.578266e+00 4.043793e-01 4.510000e-01
         vertex 4.040000e+00 0.000000e+00 4.510000e-01
      endloop
   endfacet
   facet normal 0.000000e+00 0.000000e+00 1.000000e+00
      outer loop
         vertex 4.040000e+00 0.000000e+00 4.510000e-01
         vertex 3.578266e+00 4.043793e-01 4.510000e-01
         vertex 3.464401e+00 4.264467e-01 4.510000e-01
      endloop
   endfacet
   facet normal 0.000000e+00 0.000000e+00 1.000000e+00
      outer loop
         vertex 4.040000e+00 0.000000e+00 4.510000e-01
         vertex 3.464401e+00 4.264467e-01 4.510000e-01
         vertex 6.600000e-01 2.220446e-16 4.510000e-01
      endloop
   endfacet
   facet normal 0.000000e+00 0.000000e+00 1.000000e+00
      outer loop
         vertex 6.600000e-01 2.220446e-16 4.510000e-01
         vertex 3.464401e+00 4.264467e-01 4.510000e-01
         vertex 3.351578e+00 4.533365e-01 4.510000e-01
      endloop
   endfacet
   facet normal 0.000000e+00 0.000000e+00 1.000000e+00
      outer loop
         vertex 6.600000e-01 2.220446e-16 4.510000e-01
         vertex 3.351578e+00 4.533365e-01 4.510000e-01
         vertex 3.240000e+00 4.850000e-01 4.510000e-01
      endloop
   endfacet
   facet normal 0.000000e+00 0.000000e+00 1.000000e+00
      outer loop
         vertex 2.178831e+00 7.869242e-01 4.510000e-01
         vertex 2.000000e+00 7.900000e-01 4.510000e-01
         vertex 3.240000e+00 4.850000e-01 4.510000e-01
      endloop
   endfacet
   facet normal -0.000000e+00 0.000000e+00 1.000000e+00
      outer loop
         vertex 8.331539e-01 4.590965e-01 4.510000e-01
         vertex 7.895216e-01 3.709289e-01 4.510000e-01
         vertex 9.947969e-01 5.706729e-01 4.510000e-01
      endloop
   endfacet
   facet normal 0.000000e+00 0.000000e+00 1.000000e+00
      outer loop
         vertex 9.947969e-01 5.706729e-01 4.510000e-01
         vertex 7.895216e-01 3.709289e-01 4.510000e-01
         vertex 7.502998e-01 2.807129e-01 4.510000e-01
      endloop
   endfacet
   facet normal 0.000000e+00 0.000000e+00 1.000000e+00
      outer loop
         vertex 9.947969e-01 5.706729e-01 4.510000e-01
         vertex 7.502998e-01 2.807129e-01 4.510000e-01
         vertex 7.155842e-01 1.886688e-01 4.510000e-01
      endloop
   endfacet
   facet normal 0.000000e+00 0.000000e+00 1.000000e+00
      outer loop
         vertex 1.217123e+00 6.405554e-01 4.510000e-01
         vertex 1.106921e+00 6.025568e-01 4.510000e-01
         vertex 6.600000e-01 2.220446e-16 4.510000e-01
      endloop
   endfacet
   facet normal 0.000000e+00 0.000000e+00 1.000000e+00
      outer loop
         vertex 6.600000e-01 2.220446e-16 4.510000e-01
         vertex 1.106921e+00 6.025568e-01 4.510000e-01
         vertex 9.947969e-01 5.706729e-01 4.510000e-01
      endloop
   endfacet
   facet normal 0.000000e+00 0.000000e+00 1.000000e+00
      outer loop
         vertex 6.600000e-01 2.220446e-16 4.510000e-01
         vertex 9.947969e-01 5.706729e-01 4.510000e-01
         vertex 6.854597e-01 9.502153e-02 4.510000e-01
      endloop
   endfacet
   facet normal 0.000000e+00 0.000000e+00 1.000000e+00
      outer loop
         vertex 6.854597e-01 9.502153e-02 4.510000e-01
         vertex 9.947969e-01 5.706729e-01 4.510000e-01
         vertex 7.155842e-01 1.886688e-01 4.510000e-01
      endloop
   endfacet
   facet normal -0.000000e+00 0.000000e+00 1.000000e+00
      outer loop
         vertex 1.217123e+00 6.405554e-01 4.510000e-01
         vertex 6.600000e-01 2.220446e-16 4.510000e-01
         vertex 1.325070e+00 6.845538e-01 4.510000e-01
      endloop
   endfacet
   facet normal 0.000000e+00 0.000000e+00 1.000000e+00
      outer loop
         vertex 1.325070e+00 6.845538e-01 4.510000e-01
         vertex 6.600000e-01 2.220446e-16 4.510000e-01
         vertex 3.240000e+00 4.850000e-01 4.510000e-01
      endloop
   endfacet
   facet normal -0.000000e+00 0.000000e+00 1.000000e+00
      outer loop
         vertex 1.325070e+00 6.845538e-01 4.510000e-01
         vertex 3.240000e+00 4.850000e-01 4.510000e-01
         vertex 1.430435e+00 7.344189e-01 4.510000e-01
      endloop
   endfacet
   facet normal -0.000000e+00 0.000000e+00 1.000000e+00
      outer loop
         vertex 1.430435e+00 7.344189e-01 4.510000e-01
         vertex 3.240000e+00 4.850000e-01 4.510000e-01
         vertex 2.000000e+00 7.900000e-01 4.510000e-01
      endloop
   endfacet
   facet normal 0.000000e+00 0.000000e+00 1.000000e+00
      outer loop
         vertex 1.430435e+00 7.344189e-01 4.510000e-01
         vertex 2.000000e+00 7.900000e-01 4.510000e-01
         vertex 1.532900e+00 7.900000e-01 4.510000e-01
      endloop
   endfacet
   facet normal 0.000000e+00 0.000000e+00 1.000000e+00
      outer loop
         vertex 3.240000e+00 6.400000e-01 4.510000e-01
         vertex 3.065594e+00 6.796545e-01 4.510000e-01
         vertex 3.240000e+00 4.850000e-01 4.510000e-01
      endloop
   endfacet
   facet normal 0.000000e+00 0.000000e+00 1.000000e+00
      outer loop
         vertex 3.240000e+00 4.850000e-01 4.510000e-01
         vertex 3.065594e+00 6.796545e-01 4.510000e-01
         vertex 2.889928e+00 7.132879e-01 4.510000e-01
      endloop
   endfacet
   facet normal 0.000000e+00 0.000000e+00 1.000000e+00
      outer loop
         vertex 3.240000e+00 4.850000e-01 4.510000e-01
         vertex 2.889928e+00 7.132879e-01 4.510000e-01
         vertex 2.713209e+00 7.408607e-01 4.510000e-01
      endloop
   endfacet
   facet normal 0.000000e+00 0.000000e+00 1.000000e+00
      outer loop
         vertex 2.713209e+00 7.408607e-01 4.510000e-01
         vertex 2.535646e+00 7.623401e-01 4.510000e-01
         vertex 3.240000e+00 4.850000e-01 4.510000e-01
      endloop
   endfacet
   facet normal 0.000000e+00 0.000000e+00 1.000000e+00
      outer loop
         vertex 3.240000e+00 4.850000e-01 4.510000e-01
         vertex 2.535646e+00 7.623401e-01 4.510000e-01
         vertex 2.357450e+00 7.777006e-01 4.510000e-01
      endloop
   endfacet
   facet normal 0.000000e+00 0.000000e+00 1.000000e+00
      outer loop
         vertex 3.240000e+00 4.850000e-01 4.510000e-01
         vertex 2.357450e+00 7.777006e-01 4.510000e-01
         vertex 2.178831e+00 7.869242e-01 4.510000e-01
      endloop
   endfacet
   facet normal 0.000000e+00 0.000000e+00 -1.000000e+00
      outer loop
         vertex 3.065594e+00 6.796545e-01 4.500000e-01
         vertex 3.240000e+00 6.400000e-01 4.500000e-01
         vertex 3.240000e+00 4.850000e-01 4.500000e-01
      endloop
   endfacet
   facet normal 0.000000e+00 0.000000e+00 -1.000000e+00
      outer loop
         vertex 8.331539e-01 4.590965e-01 4.500000e-01
         vertex 8.810900e-01 5.450000e-01 4.500000e-01
         vertex 9.947969e-01 5.706729e-01 4.500000e-01
      endloop
   endfacet
   facet normal 0.000000e+00 0.000000e+00 -1.000000e+00
      outer loop
         vertex 1.325070e+00 6.845538e-01 4.500000e-01
         vertex 1.430435e+00 7.344189e-01 4.500000e-01
         vertex 3.240000e+00 4.850000e-01 4.500000e-01
      endloop
   endfacet
   facet normal 0.000000e+00 0.000000e+00 -1.000000e+00
      outer loop
         vertex 6.854597e-01 9.502153e-02 4.500000e-01
         vertex 7.155842e-01 1.886688e-01 4.500000e-01
         vertex 9.947969e-01 5.706729e-01 4.500000e-01
      endloop
   endfacet
   facet normal -0.000000e+00 -0.000000e+00 -1.000000e+00
      outer loop
         vertex 3.692967e+00 3.871743e-01 4.500000e-01
         vertex 4.040000e+00 0.000000e+00 4.500000e-01
         vertex 3.578266e+00 4.043793e-01 4.500000e-01
      endloop
   endfacet
   facet normal -0.000000e+00 -0.000000e+00 -1.000000e+00
      outer loop
         vertex 3.578266e+00 4.043793e-01 4.500000e-01
         vertex 4.040000e+00 0.000000e+00 4.500000e-01
         vertex 3.464401e+00 4.264467e-01 4.500000e-01
      endloop
   endfacet
   facet normal 0.000000e+00 0.000000e+00 -1.000000e+00
      outer loop
         vertex 3.692967e+00 3.871743e-01 4.500000e-01
         vertex 3.808295e+00 3.748627e-01 4.500000e-01
         vertex 4.040000e+00 0.000000e+00 4.500000e-01
      endloop
   endfacet
   facet normal 0.000000e+00 0.000000e+00 -1.000000e+00
      outer loop
         vertex 4.040000e+00 0.000000e+00 4.500000e-01
         vertex 3.808295e+00 3.748627e-01 4.500000e-01
         vertex 3.924043e+00 3.674668e-01 4.500000e-01
      endloop
   endfacet
   facet normal 0.000000e+00 0.000000e+00 -1.000000e+00
      outer loop
         vertex 4.040000e+00 0.000000e+00 4.500000e-01
         vertex 3.924043e+00 3.674668e-01 4.500000e-01
         vertex 4.040000e+00 3.650000e-01 4.500000e-01
      endloop
   endfacet
   facet normal 0.000000e+00 0.000000e+00 -1.000000e+00
      outer loop
         vertex 7.155842e-01 1.886688e-01 4.500000e-01
         vertex 7.502998e-01 2.807129e-01 4.500000e-01
         vertex 9.947969e-01 5.706729e-01 4.500000e-01
      endloop
   endfacet
   facet normal 0.000000e+00 0.000000e+00 -1.000000e+00
      outer loop
         vertex 9.947969e-01 5.706729e-01 4.500000e-01
         vertex 7.502998e-01 2.807129e-01 4.500000e-01
         vertex 7.895216e-01 3.709289e-01 4.500000e-01
      endloop
   endfacet
   facet normal 0.000000e+00 0.000000e+00 -1.000000e+00
      outer loop
         vertex 9.947969e-01 5.706729e-01 4.500000e-01
         vertex 7.895216e-01 3.709289e-01 4.500000e-01
         vertex 8.331539e-01 4.590965e-01 4.500000e-01
      endloop
   endfacet
   facet normal 0.000000e+00 -0.000000e+00 -1.000000e+00
      outer loop
         vertex 6.854597e-01 9.502153e-02 4.500000e-01
         vertex 9.947969e-01 5.706729e-01 4.500000e-01
         vertex 6.600000e-01 4.773959e-15 4.500000e-01
      endloop
   endfacet
   facet normal 0.000000e+00 0.000000e+00 -1.000000e+00
      outer loop
         vertex 6.600000e-01 4.773959e-15 4.500000e-01
         vertex 9.947969e-01 5.706729e-01 4.500000e-01
         vertex 1.106921e+00 6.025568e-01 4.500000e-01
      endloop
   endfacet
   facet normal 0.000000e+00 0.000000e+00 -1.000000e+00
      outer loop
         vertex 6.600000e-01 4.773959e-15 4.500000e-01
         vertex 1.106921e+00 6.025568e-01 4.500000e-01
         vertex 1.217123e+00 6.405554e-01 4.500000e-01
      endloop
   endfacet
   facet normal 0.000000e+00 0.000000e+00 -1.000000e+00
      outer loop
         vertex 1.430435e+00 7.344189e-01 4.500000e-01
         vertex 1.532900e+00 7.900000e-01 4.500000e-01
         vertex 2.000000e+00 7.900000e-01 4.500000e-01
      endloop
   endfacet
   facet normal -0.000000e+00 -0.000000e+00 -1.000000e+00
      outer loop
         vertex 3.065594e+00 6.796545e-01 4.500000e-01
         vertex 3.240000e+00 4.850000e-01 4.500000e-01
         vertex 2.889928e+00 7.132879e-01 4.500000e-01
      endloop
   endfacet
   facet normal -0.000000e+00 -0.000000e+00 -1.000000e+00
      outer loop
         vertex 3.464401e+00 4.264467e-01 4.500000e-01
         vertex 4.040000e+00 0.000000e+00 4.500000e-01
         vertex 3.351578e+00 4.533365e-01 4.500000e-01
      endloop
   endfacet
   facet normal 0.000000e+00 -0.000000e+00 -1.000000e+00
      outer loop
         vertex 3.351578e+00 4.533365e-01 4.500000e-01
         vertex 4.040000e+00 0.000000e+00 4.500000e-01
         vertex 6.600000e-01 4.773959e-15 4.500000e-01
      endloop
   endfacet
   facet normal -0.000000e+00 0.000000e+00 -1.000000e+00
      outer loop
         vertex 3.351578e+00 4.533365e-01 4.500000e-01
         vertex 6.600000e-01 4.773959e-15 4.500000e-01
         vertex 3.240000e+00 4.850000e-01 4.500000e-01
      endloop
   endfacet
   facet normal -0.000000e+00 0.000000e+00 -1.000000e+00
      outer loop
         vertex 3.240000e+00 4.850000e-01 4.500000e-01
         vertex 6.600000e-01 4.773959e-15 4.500000e-01
         vertex 1.217123e+00 6.405554e-01 4.500000e-01
      endloop
   endfacet
   facet normal 0.000000e+00 0.000000e+00 -1.000000e+00
      outer loop
         vertex 3.240000e+00 4.850000e-01 4.500000e-01
         vertex 1.217123e+00 6.405554e-01 4.500000e-01
         vertex 1.325070e+00 6.845538e-01 4.500000e-01
      endloop
   endfacet
   facet normal 0.000000e+00 0.000000e+00 -1.000000e+00
      outer loop
         vertex 1.430435e+00 7.344189e-01 4.500000e-01
         vertex 2.000000e+00 7.900000e-01 4.500000e-01
         vertex 3.240000e+00 4.850000e-01 4.500000e-01
      endloop
   endfacet
   facet normal 0.000000e+00 0.000000e+00 -1.000000e+00
      outer loop
         vertex 3.240000e+00 4.850000e-01 4.500000e-01
         vertex 2.000000e+00 7.900000e-01 4.500000e-01
         vertex 2.178831e+00 7.869242e-01 4.500000e-01
      endloop
   endfacet
   facet normal 0.000000e+00 0.000000e+00 -1.000000e+00
      outer loop
         vertex 3.240000e+00 4.850000e-01 4.500000e-01
         vertex 2.178831e+00 7.869242e-01 4.500000e-01
         vertex 2.357450e+00 7.777006e-01 4.500000e-01
      endloop
   endfacet
   facet normal 0.000000e+00 0.000000e+00 -1.000000e+00
      outer loop
         vertex 2.357450e+00 7.777006e-01 4.500000e-01
         vertex 2.535646e+00 7.623401e-01 4.500000e-01
         vertex 3.240000e+00 4.850000e-01 4.500000e-01
      endloop
   endfacet
   facet normal 0.000000e+00 0.000000e+00 -1.000000e+00
      outer loop
         vertex 3.240000e+00 4.850000e-01 4.500000e-01
         vertex 2.535646e+00 7.623401e-01 4.500000e-01
         vertex 2.713209e+00 7.408607e-01 4.500000e-01
      endloop
   endfacet
   facet normal 0.000000e+00 0.000000e+00 -1.000000e+00
      outer loop
         vertex 3.240000e+00 4.850000e-01 4.500000e-01
         vertex 2.713209e+00 7.408607e-01 4.500000e-01
         vertex 2.889928e+00 7.132879e-01 4.500000e-01
      endloop
   endfacet
   facet normal -8.732413e-01 4.872880e-01 0.000000e+00
      outer loop
         vertex 8.810900e-01 5.450000e-01 4.510000e-01
         vertex 8.810900e-01 5.450000e-01 4.500000e-01
         vertex 8.331539e-01 4.590965e-01 4.500000e-01
      endloop
   endfacet
   facet normal -8.732413e-01 4.872880e-01 0.000000e+00
      outer loop
         vertex 8.810900e-01 5.450000e-01 4.510000e-01
         vertex 8.331539e-01 4.590965e-01 4.500000e-01
         vertex 8.331539e-01 4.590965e-01 4.510000e-01
      endloop
   endfacet
   facet normal -8.962555e-01 4.435381e-01 0.000000e+00
      outer loop
         vertex 8.331539e-01 4.590965e-01 4.510000e-01
         vertex 8.331539e-01 4.590965e-01 4.500000e-01
         vertex 7.895216e-01 3.709289e-01 4.500000e-01
      endloop
   endfacet
   facet normal -8.962555e-01 4.435381e-01 0.000000e+00
      outer loop
         vertex 8.331539e-01 4.590965e-01 4.510000e-01
         vertex 7.895216e-01 3.709289e-01 4.500000e-01
         vertex 7.895216e-01 3.709289e-01 4.510000e-01
      endloop
   endfacet
   facet normal -9.170793e-01 3.987049e-01 0.000000e+00
      outer loop
         vertex 7.895216e-01 3.709289e-01 4.510000e-01
         vertex 7.895216e-01 3.709289e-01 4.500000e-01
         vertex 7.502998e-01 2.807129e-01 4.500000e-01
      endloop
   endfacet
   facet normal -9.170793e-01 3.987049e-01 0.000000e+00
      outer loop
         vertex 7.895216e-01 3.709289e-01 4.510000e-01
         vertex 7.502998e-01 2.807129e-01 4.500000e-01
         vertex 7.502998e-01 2.807129e-01 4.510000e-01
      endloop
   endfacet
   facet normal -9.356622e-01 3.528968e-01 0.000000e+00
      outer loop
         vertex 7.502998e-01 2.807129e-01 4.510000e-01
         vertex 7.502998e-01 2.807129e-01 4.500000e-01
         vertex 7.155842e-01 1.886688e-01 4.500000e-01
      endloop
   endfacet
   facet normal -9.356622e-01 3.528968e-01 0.000000e+00
      outer loop
         vertex 7.502998e-01 2.807129e-01 4.510000e-01
         vertex 7.155842e-01 1.886688e-01 4.500000e-01
         vertex 7.155842e-01 1.886688e-01 4.510000e-01
      endloop
   endfacet
   facet normal -9.519589e-01 3.062259e-01 0.000000e+00
      outer loop
         vertex 7.155842e-01 1.886688e-01 4.510000e-01
         vertex 7.155842e-01 1.886688e-01 4.500000e-01
         vertex 6.854597e-01 9.502153e-02 4.500000e-01
      endloop
   endfacet
   facet normal -9.519589e-01 3.062259e-01 0.000000e+00
      outer loop
         vertex 7.155842e-01 1.886688e-01 4.510000e-01
         vertex 6.854597e-01 9.502153e-02 4.500000e-01
         vertex 6.854597e-01 9.502153e-02 4.510000e-01
      endloop
   endfacet
   facet normal -9.659290e-01 2.588073e-01 0.000000e+00
      outer loop
         vertex 6.854597e-01 9.502153e-02 4.510000e-01
         vertex 6.854597e-01 9.502153e-02 4.500000e-01
         vertex 6.600000e-01 4.773959e-15 4.500000e-01
      endloop
   endfacet
   facet normal -9.659290e-01 2.588073e-01 0.000000e+00
      outer loop
         vertex 6.854597e-01 9.502153e-02 4.510000e-01
         vertex 6.600000e-01 4.773959e-15 4.500000e-01
         vertex 6.600000e-01 4.773959e-15 4.510000e-01
      endloop
   endfacet
   facet normal -7.000000e-17 -1.000000e+00 -0.000000e+00
      outer loop
         vertex 4.040000e+00 -9.230000e-18 4.510000e-01
         vertex 6.600000e-01 2.273700e-16 4.510000e-01
         vertex 4.040000e+00 -9.230000e-18 4.500000e-01
      endloop
   endfacet
   facet normal -7.000000e-17 -1.000000e+00 0.000000e+00
      outer loop
         vertex 4.040000e+00 -9.230000e-18 4.500000e-01
         vertex 6.600000e-01 2.273700e-16 4.510000e-01
         vertex 6.600000e-01 2.273700e-16 4.500000e-01
      endloop
   endfacet
   facet normal 1.000000e+00 0.000000e+00 0.000000e+00
      outer loop
         vertex 4.040000e+00 3.650000e-01 4.510000e-01
         vertex 4.040000e+00 0.000000e+00 4.510000e-01
         vertex 4.040000e+00 3.650000e-01 4.500000e-01
      endloop
   endfacet
   facet normal 1.000000e+00 0.000000e+00 0.000000e+00
      outer loop
         vertex 4.040000e+00 3.650000e-01 4.500000e-01
         vertex 4.040000e+00 0.000000e+00 4.510000e-01
         vertex 4.040000e+00 0.000000e+00 4.500000e-01
      endloop
   endfacet
   facet normal 2.126827e-02 9.997738e-01 0.000000e+00
      outer loop
         vertex 4.040000e+00 3.650000e-01 4.510000e-01
         vertex 4.040000e+00 3.650000e-01 4.500000e-01
         vertex 3.924043e+00 3.674668e-01 4.510000e-01
      endloop
   endfacet
   facet normal 2.126827e-02 9.997738e-01 0.000000e+00
      outer loop
         vertex 3.924043e+00 3.674668e-01 4.510000e-01
         vertex 4.040000e+00 3.650000e-01 4.500000e-01
         vertex 3.924043e+00 3.674668e-01 4.500000e-01
      endloop
   endfacet
   facet normal 6.376664e-02 9.979648e-01 0.000000e+00
      outer loop
         vertex 3.924043e+00 3.674668e-01 4.510000e-01
         vertex 3.924043e+00 3.674668e-01 4.500000e-01
         vertex 3.808295e+00 3.748627e-01 4.510000e-01
      endloop
   endfacet
   facet normal 6.376664e-02 9.979648e-01 0.000000e+00
      outer loop
         vertex 3.808295e+00 3.748627e-01 4.510000e-01
         vertex 3.924043e+00 3.674668e-01 4.500000e-01
         vertex 3.808295e+00 3.748627e-01 4.500000e-01
      endloop
   endfacet
   facet normal 1.061496e-01 9.943502e-01 0.000000e+00
      outer loop
         vertex 3.808295e+00 3.748627e-01 4.510000e-01
         vertex 3.808295e+00 3.748627e-01 4.500000e-01
         vertex 3.692967e+00 3.871743e-01 4.510000e-01
      endloop
   endfacet
   facet normal 1.061496e-01 9.943502e-01 0.000000e+00
      outer loop
         vertex 3.692967e+00 3.871743e-01 4.510000e-01
         vertex 3.808295e+00 3.748627e-01 4.500000e-01
         vertex 3.692967e+00 3.871743e-01 4.500000e-01
      endloop
   endfacet
   facet normal 1.483406e-01 9.889363e-01 0.000000e+00
      outer loop
         vertex 3.692967e+00 3.871743e-01 4.510000e-01
         vertex 3.692967e+00 3.871743e-01 4.500000e-01
         vertex 3.578266e+00 4.043793e-01 4.510000e-01
      endloop
   endfacet
   facet normal 1.483406e-01 9.889363e-01 0.000000e+00
      outer loop
         vertex 3.578266e+00 4.043793e-01 4.510000e-01
         vertex 3.692967e+00 3.871743e-01 4.500000e-01
         vertex 3.578266e+00 4.043793e-01 4.500000e-01
      endloop
   endfacet
   facet normal 1.902628e-01 9.817332e-01 0.000000e+00
      outer loop
         vertex 3.578266e+00 4.043793e-01 4.510000e-01
         vertex 3.578266e+00 4.043793e-01 4.500000e-01
         vertex 3.464401e+00 4.264467e-01 4.510000e-01
      endloop
   endfacet
   facet normal 1.902628e-01 9.817332e-01 0.000000e+00
      outer loop
         vertex 3.464401e+00 4.264467e-01 4.510000e-01
         vertex 3.578266e+00 4.043793e-01 4.500000e-01
         vertex 3.464401e+00 4.264467e-01 4.500000e-01
      endloop
   endfacet
   facet normal 2.318411e-01 9.727537e-01 0.000000e+00
      outer loop
         vertex 3.464401e+00 4.264467e-01 4.510000e-01
         vertex 3.464401e+00 4.264467e-01 4.500000e-01
         vertex 3.351578e+00 4.533365e-01 4.510000e-01
      endloop
   endfacet
   facet normal 2.318411e-01 9.727537e-01 0.000000e+00
      outer loop
         vertex 3.351578e+00 4.533365e-01 4.510000e-01
         vertex 3.464401e+00 4.264467e-01 4.500000e-01
         vertex 3.351578e+00 4.533365e-01 4.500000e-01
      endloop
   endfacet
   facet normal 2.730001e-01 9.620140e-01 0.000000e+00
      outer loop
         vertex 3.351578e+00 4.533365e-01 4.510000e-01
         vertex 3.351578e+00 4.533365e-01 4.500000e-01
         vertex 3.240000e+00 4.850000e-01 4.510000e-01
      endloop
   endfacet
   facet normal 2.730001e-01 9.620140e-01 0.000000e+00
      outer loop
         vertex 3.240000e+00 4.850000e-01 4.510000e-01
         vertex 3.351578e+00 4.533365e-01 4.500000e-01
         vertex 3.240000e+00 4.850000e-01 4.500000e-01
      endloop
   endfacet
   facet normal 1.000000e+00 0.000000e+00 0.000000e+00
      outer loop
         vertex 3.240000e+00 6.400000e-01 4.510000e-01
         vertex 3.240000e+00 4.850000e-01 4.510000e-01
         vertex 3.240000e+00 6.400000e-01 4.500000e-01
      endloop
   endfacet
   facet normal 1.000000e+00 0.000000e+00 0.000000e+00
      outer loop
         vertex 3.240000e+00 6.400000e-01 4.500000e-01
         vertex 3.240000e+00 4.850000e-01 4.510000e-01
         vertex 3.240000e+00 4.850000e-01 4.500000e-01
      endloop
   endfacet
   facet normal 2.217105e-01 9.751125e-01 0.000000e+00
      outer loop
         vertex 3.240000e+00 6.400000e-01 4.510000e-01
         vertex 3.240000e+00 6.400000e-01 4.500000e-01
         vertex 3.065594e+00 6.796545e-01 4.500000e-01
      endloop
   endfacet
   facet normal 2.217105e-01 9.751125e-01 0.000000e+00
      outer loop
         vertex 3.240000e+00 6.400000e-01 4.510000e-01
         vertex 3.065594e+00 6.796545e-01 4.500000e-01
         vertex 3.065594e+00 6.796545e-01 4.510000e-01
      endloop
   endfacet
   facet normal 1.880466e-01 9.821601e-01 0.000000e+00
      outer loop
         vertex 3.065594e+00 6.796545e-01 4.510000e-01
         vertex 3.065594e+00 6.796545e-01 4.500000e-01
         vertex 2.889928e+00 7.132879e-01 4.500000e-01
      endloop
   endfacet
   facet normal 1.880466e-01 9.821601e-01 0.000000e+00
      outer loop
         vertex 3.065594e+00 6.796545e-01 4.510000e-01
         vertex 2.889928e+00 7.132879e-01 4.500000e-01
         vertex 2.889928e+00 7.132879e-01 4.510000e-01
      endloop
   endfacet
   facet normal 1.541608e-01 9.880458e-01 0.000000e+00
      outer loop
         vertex 2.889928e+00 7.132879e-01 4.510000e-01
         vertex 2.889928e+00 7.132879e-01 4.500000e-01
         vertex 2.713209e+00 7.408607e-01 4.500000e-01
      endloop
   endfacet
   facet normal 1.541608e-01 9.880458e-01 0.000000e+00
      outer loop
         vertex 2.889928e+00 7.132879e-01 4.510000e-01
         vertex 2.713209e+00 7.408607e-01 4.500000e-01
         vertex 2.713209e+00 7.408607e-01 4.510000e-01
      endloop
   endfacet
   facet normal 1.200923e-01 9.927627e-01 0.000000e+00
      outer loop
         vertex 2.713209e+00 7.408607e-01 4.510000e-01
         vertex 2.713209e+00 7.408607e-01 4.500000e-01
         vertex 2.535646e+00 7.623401e-01 4.500000e-01
      endloop
   endfacet
   facet normal 1.200923e-01 9.927627e-01 0.000000e+00
      outer loop
         vertex 2.713209e+00 7.408607e-01 4.510000e-01
         vertex 2.535646e+00 7.623401e-01 4.500000e-01
         vertex 2.535646e+00 7.623401e-01 4.510000e-01
      endloop
   endfacet
   facet normal 8.588153e-02 9.963054e-01 0.000000e+00
      outer loop
         vertex 2.535646e+00 7.623401e-01 4.510000e-01
         vertex 2.535646e+00 7.623401e-01 4.500000e-01
         vertex 2.357450e+00 7.777006e-01 4.500000e-01
      endloop
   endfacet
   facet normal 8.588153e-02 9.963054e-01 0.000000e+00
      outer loop
         vertex 2.535646e+00 7.623401e-01 4.510000e-01
         vertex 2.357450e+00 7.777006e-01 4.500000e-01
         vertex 2.357450e+00 7.777006e-01 4.510000e-01
      endloop
   endfacet
   facet normal 5.156987e-02 9.986694e-01 0.000000e+00
      outer loop
         vertex 2.357450e+00 7.777006e-01 4.510000e-01
         vertex 2.357450e+00 7.777006e-01 4.500000e-01
         vertex 2.178831e+00 7.869242e-01 4.500000e-01
      endloop
   endfacet
   facet normal 5.156987e-02 9.986694e-01 0.000000e+00
      outer loop
         vertex 2.357450e+00 7.777006e-01 4.510000e-01
         vertex 2.178831e+00 7.869242e-01 4.500000e-01
         vertex 2.178831e+00 7.869242e-01 4.510000e-01
      endloop
   endfacet
   facet normal 1.719685e-02 9.998521e-01 0.000000e+00
      outer loop
         vertex 2.178831e+00 7.869242e-01 4.510000e-01
         vertex 2.178831e+00 7.869242e-01 4.500000e-01
         vertex 2.000000e+00 7.900000e-01 4.500000e-01
      endloop
   endfacet
   facet normal 1.719685e-02 9.998521e-01 0.000000e+00
      outer loop
         vertex 2.178831e+00 7.869242e-01 4.510000e-01
         vertex 2.000000e+00 7.900000e-01 4.500000e-01
         vertex 2.000000e+00 7.900000e-01 4.510000e-01
      endloop
   endfacet
   facet normal 0.000000e+00 1.000000e+00 0.000000e+00
      outer loop
         vertex 2.000000e+00 7.900000e-01 4.510000e-01
         vertex 2.000000e+00 7.900000e-01 4.500000e-01
         vertex 1.532900e+00 7.900000e-01 4.510000e-01
      endloop
   endfacet
   facet normal 0.000000e+00 1.000000e+00 0.000000e+00
      outer loop
         vertex 1.532900e+00 7.900000e-01 4.510000e-01
         vertex 2.000000e+00 7.900000e-01 4.500000e-01
         vertex 1.532900e+00 7.900000e-01 4.500000e-01
      endloop
   endfacet
   facet normal -4.768079e-01 8.790075e-01 0.000000e+00
      outer loop
         vertex 1.532900e+00 7.900000e-01 4.510000e-01
         vertex 1.532900e+00 7.900000e-01 4.500000e-01
         vertex 1.430435e+00 7.344189e-01 4.510000e-01
      endloop
   endfacet
   facet normal -4.768079e-01 8.790075e-01 0.000000e+00
      outer loop
         vertex 1.430435e+00 7.344189e-01 4.510000e-01
         vertex 1.532900e+00 7.900000e-01 4.500000e-01
         vertex 1.430435e+00 7.344189e-01 4.500000e-01
      endloop
   endfacet
   facet normal -4.277732e-01 9.038861e-01 0.000000e+00
      outer loop
         vertex 1.430435e+00 7.344189e-01 4.510000e-01
         vertex 1.430435e+00 7.344189e-01 4.500000e-01
         vertex 1.325070e+00 6.845538e-01 4.510000e-01
      endloop
   endfacet
   facet normal -4.277732e-01 9.038861e-01 0.000000e+00
      outer loop
         vertex 1.325070e+00 6.845538e-01 4.510000e-01
         vertex 1.430435e+00 7.344189e-01 4.500000e-01
         vertex 1.325070e+00 6.845538e-01 4.500000e-01
      endloop
   endfacet
   facet normal -3.774441e-01 9.260324e-01 0.000000e+00
      outer loop
         vertex 1.325070e+00 6.845538e-01 4.510000e-01
         vertex 1.325070e+00 6.845538e-01 4.500000e-01
         vertex 1.217123e+00 6.405554e-01 4.510000e-01
      endloop
   endfacet
   facet normal -3.774441e-01 9.260324e-01 0.000000e+00
      outer loop
         vertex 1.217123e+00 6.405554e-01 4.510000e-01
         vertex 1.325070e+00 6.845538e-01 4.500000e-01
         vertex 1.217123e+00 6.405554e-01 4.500000e-01
      endloop
   endfacet
   facet normal -3.259749e-01 9.453784e-01 0.000000e+00
      outer loop
         vertex 1.217123e+00 6.405554e-01 4.510000e-01
         vertex 1.217123e+00 6.405554e-01 4.500000e-01
         vertex 1.106921e+00 6.025568e-01 4.510000e-01
      endloop
   endfacet
   facet normal -3.259749e-01 9.453784e-01 0.000000e+00
      outer loop
         vertex 1.106921e+00 6.025568e-01 4.510000e-01
         vertex 1.217123e+00 6.405554e-01 4.500000e-01
         vertex 1.106921e+00 6.025568e-01 4.500000e-01
      endloop
   endfacet
   facet normal -2.735198e-01 9.618664e-01 0.000000e+00
      outer loop
         vertex 1.106921e+00 6.025568e-01 4.510000e-01
         vertex 1.106921e+00 6.025568e-01 4.500000e-01
         vertex 9.947969e-01 5.706729e-01 4.510000e-01
      endloop
   endfacet
   facet normal -2.735198e-01 9.618664e-01 0.000000e+00
      outer loop
         vertex 9.947969e-01 5.706729e-01 4.510000e-01
         vertex 1.106921e+00 6.025568e-01 4.500000e-01
         vertex 9.947969e-01 5.706729e-01 4.500000e-01
      endloop
   endfacet
   facet normal -2.202371e-01 9.754464e-01 0.000000e+00
      outer loop
         vertex 9.947969e-01 5.706729e-01 4.510000e-01
         vertex 9.947969e-01 5.706729e-01 4.500000e-01
         vertex 8.810900e-01 5.450000e-01 4.510000e-01
      endloop
   endfacet
   facet normal -2.202371e-01 9.754464e-01 0.000000e+00
      outer loop
         vertex 8.810900e-01 5.450000e-01 4.510000e-01
         vertex 9.947969e-01 5.706729e-01 4.500000e-01
         vertex 8.810900e-01 5.450000e-01 4.500000e-01
      endloop
   endfacet
endsolid 02_RS-FLOOR-PLAN_V03