solid 04_RS_FLOOR_REAR_V01
   facet normal 0.000000e+00 -1.000000e+00 0.000000e+00
      outer loop
         vertex 4.040000e+00 3.499990e-01 6.500000e-02
         vertex 4.040000e+00 3.499990e-01 1.800000e-01
         vertex 3.310000e+00 3.499990e-01 6.500000e-02
      endloop
   endfacet
   facet normal 0.000000e+00 1.000000e+00 0.000000e+00
      outer loop
         vertex 4.040000e+00 3.499990e-01 1.800000e-01
         vertex 4.040000e+00 3.499990e-01 6.500000e-02
         vertex 3.310000e+00 3.499990e-01 6.500000e-02
      endloop
   endfacet
endsolid 04_RS_FLOOR_REAR_V01