solid RS_FLOOR_MASK
   facet normal -1.000000e+00 0.000000e+00 0.000000e+00
      outer loop
         vertex -1.500000e+00 -1.500000e+00 -3.900000e-02
         vertex -1.500000e+00 1.500000e+00 -3.900000e-02
         vertex -1.500000e+00 -1.500000e+00 -4.900000e-02
      endloop
   endfacet
   facet normal -1.000000e+00 0.000000e+00 0.000000e+00
      outer loop
         vertex -1.500000e+00 -1.500000e+00 -4.900000e-02
         vertex -1.500000e+00 1.500000e+00 -3.900000e-02
         vertex -1.500000e+00 1.500000e+00 -4.900000e-02
      endloop
   endfacet
   facet normal -0.000000e+00 -1.000000e+00 -0.000000e+00
      outer loop
         vertex 5.540000e+00 -1.500000e+00 -3.900000e-02
         vertex -1.500000e+00 -1.500000e+00 -3.900000e-02
         vertex 5.540000e+00 -1.500000e+00 -4.900000e-02
      endloop
   endfacet
   facet normal 0.000000e+00 -1.000000e+00 0.000000e+00
      outer loop
         vertex 5.540000e+00 -1.500000e+00 -4.900000e-02
         vertex -1.500000e+00 -1.500000e+00 -3.900000e-02
         vertex -1.500000e+00 -1.500000e+00 -4.900000e-02
      endloop
   endfacet
   facet normal 1.000000e+00 0.000000e+00 0.000000e+00
      outer loop
         vertex 5.540000e+00 1.500000e+00 -3.900000e-02
         vertex 5.540000e+00 -1.500000e+00 -3.900000e-02
         vertex 5.540000e+00 1.500000e+00 -4.900000e-02
      endloop
   endfacet
   facet normal 1.000000e+00 0.000000e+00 0.000000e+00
      outer loop
         vertex 5.540000e+00 1.500000e+00 -4.900000e-02
         vertex 5.540000e+00 -1.500000e+00 -3.900000e-02
         vertex 5.540000e+00 -1.500000e+00 -4.900000e-02
      endloop
   endfacet
   facet normal -0.000000e+00 1.000000e+00 0.000000e+00
      outer loop
         vertex -1.500000e+00 1.500000e+00 -3.900000e-02
         vertex 5.540000e+00 1.500000e+00 -3.900000e-02
         vertex -1.500000e+00 1.500000e+00 -4.900000e-02
      endloop
   endfacet
   facet normal 0.000000e+00 1.000000e+00 0.000000e+00
      outer loop
         vertex -1.500000e+00 1.500000e+00 -4.900000e-02
         vertex 5.540000e+00 1.500000e+00 -3.900000e-02
         vertex 5.540000e+00 1.500000e+00 -4.900000e-02
      endloop
   endfacet
   facet normal 0.000000e+00 -0.000000e+00 1.000000e+00
      outer loop
         vertex 5.540000e+00 -1.500000e+00 -3.900000e-02
         vertex 5.540000e+00 1.500000e+00 -3.900000e-02
         vertex 4.040000e+00 3.650000e-01 -3.900000e-02
      endloop
   endfacet
   facet normal 0.000000e+00 0.000000e+00 1.000000e+00
      outer loop
         vertex 4.040000e+00 3.650000e-01 -3.900000e-02
         vertex 4.040000e+00 -3.650000e-01 -3.900000e-02
         vertex 5.540000e+00 -1.500000e+00 -3.900000e-02
      endloop
   endfacet
   facet normal 0.000000e+00 0.000000e+00 1.000000e+00
      outer loop
         vertex 5.540000e+00 -1.500000e+00 -3.900000e-02
         vertex 4.040000e+00 -3.650000e-01 -3.900000e-02
         vertex 3.877707e+00 -3.698342e-01 -3.900000e-02
      endloop
   endfacet
   facet normal 0.000000e+00 0.000000e+00 1.000000e+00
      outer loop
         vertex 5.540000e+00 -1.500000e+00 -3.900000e-02
         vertex 3.877707e+00 -3.698342e-01 -3.900000e-02
         vertex 3.715989e+00 -3.843197e-01 -3.900000e-02
      endloop
   endfacet
   facet normal -0.000000e+00 0.000000e+00 1.000000e+00
      outer loop
         vertex 3.240000e+00 6.400000e-01 -3.900000e-02
         vertex 3.240000e+00 4.850000e-01 -3.900000e-02
         vertex 5.540000e+00 1.500000e+00 -3.900000e-02
      endloop
   endfacet
   facet normal 0.000000e+00 0.000000e+00 1.000000e+00
      outer loop
         vertex 5.540000e+00 1.500000e+00 -3.900000e-02
         vertex 3.240000e+00 4.850000e-01 -3.900000e-02
         vertex 3.396569e+00 4.420048e-01 -3.900000e-02
      endloop
   endfacet
   facet normal 0.000000e+00 0.000000e+00 1.000000e+00
      outer loop
         vertex 5.540000e+00 1.500000e+00 -3.900000e-02
         vertex 3.396569e+00 4.420048e-01 -3.900000e-02
         vertex 3.555420e+00 4.084050e-01 -3.900000e-02
      endloop
   endfacet
   facet normal -0.000000e+00 0.000000e+00 1.000000e+00
      outer loop
         vertex 3.555420e+00 4.084050e-01 -3.900000e-02
         vertex 3.715989e+00 3.843197e-01 -3.900000e-02
         vertex 5.540000e+00 1.500000e+00 -3.900000e-02
      endloop
   endfacet
   facet normal 0.000000e+00 0.000000e+00 1.000000e+00
      outer loop
         vertex 5.540000e+00 1.500000e+00 -3.900000e-02
         vertex 3.715989e+00 3.843197e-01 -3.900000e-02
         vertex 3.877707e+00 3.698342e-01 -3.900000e-02
      endloop
   endfacet
   facet normal 0.000000e+00 0.000000e+00 1.000000e+00
      outer loop
         vertex 5.540000e+00 1.500000e+00 -3.900000e-02
         vertex 3.877707e+00 3.698342e-01 -3.900000e-02
         vertex 4.040000e+00 3.650000e-01 -3.900000e-02
      endloop
   endfacet
   facet normal -0.000000e+00 0.000000e+00 1.000000e+00
      outer loop
         vertex 3.240000e+00 -4.850000e-01 -3.900000e-02
         vertex 3.240000e+00 -6.400000e-01 -3.900000e-02
         vertex 3.396569e+00 -4.420048e-01 -3.900000e-02
      endloop
   endfacet
   facet normal 0.000000e+00 0.000000e+00 1.000000e+00
      outer loop
         vertex 3.396569e+00 -4.420048e-01 -3.900000e-02
         vertex 3.240000e+00 -6.400000e-01 -3.900000e-02
         vertex 5.540000e+00 -1.500000e+00 -3.900000e-02
      endloop
   endfacet
   facet normal -0.000000e+00 0.000000e+00 1.000000e+00
      outer loop
         vertex 3.396569e+00 -4.420048e-01 -3.900000e-02
         vertex 5.540000e+00 -1.500000e+00 -3.900000e-02
         vertex 3.555420e+00 -4.084050e-01 -3.900000e-02
      endloop
   endfacet
   facet normal -0.000000e+00 0.000000e+00 1.000000e+00
      outer loop
         vertex 3.555420e+00 -4.084050e-01 -3.900000e-02
         vertex 5.540000e+00 -1.500000e+00 -3.900000e-02
         vertex 3.715989e+00 -3.843197e-01 -3.900000e-02
      endloop
   endfacet
   facet normal 0.000000e+00 0.000000e+00 1.000000e+00
      outer loop
         vertex -1.500000e+00 -1.500000e+00 -3.900000e-02
         vertex 1.378095e+00 -7.087620e-01 -3.900000e-02
         vertex 1.217123e+00 -6.405554e-01 -3.900000e-02
      endloop
   endfacet
   facet normal 0.000000e+00 0.000000e+00 1.000000e+00
      outer loop
         vertex 3.240000e+00 -6.400000e-01 -3.900000e-02
         vertex 2.995467e+00 -6.938328e-01 -3.900000e-02
         vertex 5.540000e+00 -1.500000e+00 -3.900000e-02
      endloop
   endfacet
   facet normal 0.000000e+00 0.000000e+00 1.000000e+00
      outer loop
         vertex 5.540000e+00 -1.500000e+00 -3.900000e-02
         vertex 2.995467e+00 -6.938328e-01 -3.900000e-02
         vertex 2.748627e+00 -7.358327e-01 -3.900000e-02
      endloop
   endfacet
   facet normal 0.000000e+00 0.000000e+00 1.000000e+00
      outer loop
         vertex 5.540000e+00 -1.500000e+00 -3.900000e-02
         vertex 2.748627e+00 -7.358327e-01 -3.900000e-02
         vertex 2.500051e+00 -7.659023e-01 -3.900000e-02
      endloop
   endfacet
   facet normal 0.000000e+00 0.000000e+00 1.000000e+00
      outer loop
         vertex 1.217123e+00 -6.405554e-01 -3.900000e-02
         vertex 1.051078e+00 -5.858440e-01 -3.900000e-02
         vertex -1.500000e+00 -1.500000e+00 -3.900000e-02
      endloop
   endfacet
   facet normal 0.000000e+00 0.000000e+00 1.000000e+00
      outer loop
         vertex -1.500000e+00 -1.500000e+00 -3.900000e-02
         vertex 1.051078e+00 -5.858440e-01 -3.900000e-02
         vertex 8.810900e-01 -5.450000e-01 -3.900000e-02
      endloop
   endfacet
   facet normal 0.000000e+00 0.000000e+00 1.000000e+00
      outer loop
         vertex -1.500000e+00 -1.500000e+00 -3.900000e-02
         vertex 8.810900e-01 -5.450000e-01 -3.900000e-02
         vertex 8.107929e-01 -4.152823e-01 -3.900000e-02
      endloop
   endfacet
   facet normal 0.000000e+00 -0.000000e+00 1.000000e+00
      outer loop
         vertex 6.999432e-01 1.420313e-01 -3.900000e-02
         vertex 7.502998e-01 2.807129e-01 -3.900000e-02
         vertex -1.500000e+00 1.500000e+00 -3.900000e-02
      endloop
   endfacet
   facet normal 0.000000e+00 0.000000e+00 1.000000e+00
      outer loop
         vertex -1.500000e+00 1.500000e+00 -3.900000e-02
         vertex 7.502998e-01 2.807129e-01 -3.900000e-02
         vertex 8.107929e-01 4.152823e-01 -3.900000e-02
      endloop
   endfacet
   facet normal 0.000000e+00 0.000000e+00 1.000000e+00
      outer loop
         vertex -1.500000e+00 1.500000e+00 -3.900000e-02
         vertex 8.107929e-01 4.152823e-01 -3.900000e-02
         vertex 8.810900e-01 5.450000e-01 -3.900000e-02
      endloop
   endfacet
   facet normal 0.000000e+00 -0.000000e+00 1.000000e+00
      outer loop
         vertex 8.810900e-01 5.450000e-01 -3.900000e-02
         vertex 1.051078e+00 5.858440e-01 -3.900000e-02
         vertex -1.500000e+00 1.500000e+00 -3.900000e-02
      endloop
   endfacet
   facet normal 0.000000e+00 0.000000e+00 1.000000e+00
      outer loop
         vertex -1.500000e+00 1.500000e+00 -3.900000e-02
         vertex 1.051078e+00 5.858440e-01 -3.900000e-02
         vertex 1.217123e+00 6.405554e-01 -3.900000e-02
      endloop
   endfacet
   facet normal 0.000000e+00 0.000000e+00 1.000000e+00
      outer loop
         vertex -1.500000e+00 1.500000e+00 -3.900000e-02
         vertex 1.217123e+00 6.405554e-01 -3.900000e-02
         vertex 1.378095e+00 7.087620e-01 -3.900000e-02
      endloop
   endfacet
   facet normal 0.000000e+00 0.000000e+00 1.000000e+00
      outer loop
         vertex 2.500051e+00 -7.659023e-01 -3.900000e-02
         vertex 2.250316e+00 -7.839721e-01 -3.900000e-02
         vertex 5.540000e+00 -1.500000e+00 -3.900000e-02
      endloop
   endfacet
   facet normal 0.000000e+00 0.000000e+00 1.000000e+00
      outer loop
         vertex 5.540000e+00 -1.500000e+00 -3.900000e-02
         vertex 2.250316e+00 -7.839721e-01 -3.900000e-02
         vertex 2.000000e+00 -7.900000e-01 -3.900000e-02
      endloop
   endfacet
   facet normal 0.000000e+00 0.000000e+00 1.000000e+00
      outer loop
         vertex 5.540000e+00 -1.500000e+00 -3.900000e-02
         vertex 2.000000e+00 -7.900000e-01 -3.900000e-02
         vertex -1.500000e+00 -1.500000e+00 -3.900000e-02
      endloop
   endfacet
   facet normal 0.000000e+00 0.000000e+00 1.000000e+00
      outer loop
         vertex -1.500000e+00 -1.500000e+00 -3.900000e-02
         vertex 2.000000e+00 -7.900000e-01 -3.900000e-02
         vertex 1.532900e+00 -7.900000e-01 -3.900000e-02
      endloop
   endfacet
   facet normal 0.000000e+00 0.000000e+00 1.000000e+00
      outer loop
         vertex -1.500000e+00 -1.500000e+00 -3.900000e-02
         vertex 1.532900e+00 -7.900000e-01 -3.900000e-02
         vertex 1.378095e+00 -7.087620e-01 -3.900000e-02
      endloop
   endfacet
   facet normal 0.000000e+00 0.000000e+00 1.000000e+00
      outer loop
         vertex 8.107929e-01 -4.152823e-01 -3.900000e-02
         vertex 7.502998e-01 -2.807129e-01 -3.900000e-02
         vertex -1.500000e+00 -1.500000e+00 -3.900000e-02
      endloop
   endfacet
   facet normal 0.000000e+00 0.000000e+00 1.000000e+00
      outer loop
         vertex -1.500000e+00 -1.500000e+00 -3.900000e-02
         vertex 7.502998e-01 -2.807129e-01 -3.900000e-02
         vertex 6.999432e-01 -1.420313e-01 -3.900000e-02
      endloop
   endfacet
   facet normal 0.000000e+00 0.000000e+00 1.000000e+00
      outer loop
         vertex -1.500000e+00 -1.500000e+00 -3.900000e-02
         vertex 6.999432e-01 -1.420313e-01 -3.900000e-02
         vertex -1.500000e+00 1.500000e+00 -3.900000e-02
      endloop
   endfacet
   facet normal 0.000000e+00 0.000000e+00 1.000000e+00
      outer loop
         vertex -1.500000e+00 1.500000e+00 -3.900000e-02
         vertex 6.999432e-01 -1.420313e-01 -3.900000e-02
         vertex 6.600000e-01 1.110223e-16 -3.900000e-02
      endloop
   endfacet
   facet normal 0.000000e+00 0.000000e+00 1.000000e+00
      outer loop
         vertex -1.500000e+00 1.500000e+00 -3.900000e-02
         vertex 6.600000e-01 1.110223e-16 -3.900000e-02
         vertex 6.999432e-01 1.420313e-01 -3.900000e-02
      endloop
   endfacet
   facet normal 0.000000e+00 -0.000000e+00 1.000000e+00
      outer loop
         vertex 1.378095e+00 7.087620e-01 -3.900000e-02
         vertex 1.532900e+00 7.900000e-01 -3.900000e-02
         vertex -1.500000e+00 1.500000e+00 -3.900000e-02
      endloop
   endfacet
   facet normal 0.000000e+00 0.000000e+00 1.000000e+00
      outer loop
         vertex -1.500000e+00 1.500000e+00 -3.900000e-02
         vertex 1.532900e+00 7.900000e-01 -3.900000e-02
         vertex 2.000000e+00 7.900000e-01 -3.900000e-02
      endloop
   endfacet
   facet normal -0.000000e+00 0.000000e+00 1.000000e+00
      outer loop
         vertex -1.500000e+00 1.500000e+00 -3.900000e-02
         vertex 2.000000e+00 7.900000e-01 -3.900000e-02
         vertex 5.540000e+00 1.500000e+00 -3.900000e-02
      endloop
   endfacet
   facet normal 0.000000e+00 0.000000e+00 1.000000e+00
      outer loop
         vertex 5.540000e+00 1.500000e+00 -3.900000e-02
         vertex 2.000000e+00 7.900000e-01 -3.900000e-02
         vertex 2.250316e+00 7.839721e-01 -3.900000e-02
      endloop
   endfacet
   facet normal 0.000000e+00 0.000000e+00 1.000000e+00
      outer loop
         vertex 5.540000e+00 1.500000e+00 -3.900000e-02
         vertex 2.250316e+00 7.839721e-01 -3.900000e-02
         vertex 2.500051e+00 7.659023e-01 -3.900000e-02
      endloop
   endfacet
   facet normal -0.000000e+00 0.000000e+00 1.000000e+00
      outer loop
         vertex 2.500051e+00 7.659023e-01 -3.900000e-02
         vertex 2.748627e+00 7.358327e-01 -3.900000e-02
         vertex 5.540000e+00 1.500000e+00 -3.900000e-02
      endloop
   endfacet
   facet normal 0.000000e+00 0.000000e+00 1.000000e+00
      outer loop
         vertex 5.540000e+00 1.500000e+00 -3.900000e-02
         vertex 2.748627e+00 7.358327e-01 -3.900000e-02
         vertex 2.995467e+00 6.938328e-01 -3.900000e-02
      endloop
   endfacet
   facet normal 0.000000e+00 0.000000e+00 1.000000e+00
      outer loop
         vertex 5.540000e+00 1.500000e+00 -3.900000e-02
         vertex 2.995467e+00 6.938328e-01 -3.900000e-02
         vertex 3.240000e+00 6.400000e-01 -3.900000e-02
      endloop
   endfacet
   facet normal 0.000000e+00 0.000000e+00 -1.000000e+00
      outer loop
         vertex 3.396569e+00 4.420048e-01 -4.900000e-02
         vertex 3.240000e+00 4.850000e-01 -4.900000e-02
         vertex 3.240000e+00 6.400000e-01 -4.900000e-02
      endloop
   endfacet
   facet normal 0.000000e+00 0.000000e+00 -1.000000e+00
      outer loop
         vertex 5.540000e+00 -1.500000e+00 -4.900000e-02
         vertex 4.040000e+00 -3.650000e-01 -4.900000e-02
         vertex 5.540000e+00 1.500000e+00 -4.900000e-02
      endloop
   endfacet
   facet normal 0.000000e+00 0.000000e+00 -1.000000e+00
      outer loop
         vertex 5.540000e+00 1.500000e+00 -4.900000e-02
         vertex 4.040000e+00 -3.650000e-01 -4.900000e-02
         vertex 4.040000e+00 3.650000e-01 -4.900000e-02
      endloop
   endfacet
   facet normal 0.000000e+00 0.000000e+00 -1.000000e+00
      outer loop
         vertex 5.540000e+00 1.500000e+00 -4.900000e-02
         vertex 4.040000e+00 3.650000e-01 -4.900000e-02
         vertex 3.877707e+00 3.698342e-01 -4.900000e-02
      endloop
   endfacet
   facet normal 0.000000e+00 -0.000000e+00 -1.000000e+00
      outer loop
         vertex 8.107929e-01 -4.152823e-01 -4.900000e-02
         vertex 8.810900e-01 -5.450000e-01 -4.900000e-02
         vertex -1.500000e+00 -1.500000e+00 -4.900000e-02
      endloop
   endfacet
   facet normal -0.000000e+00 0.000000e+00 -1.000000e+00
      outer loop
         vertex 8.107929e-01 -4.152823e-01 -4.900000e-02
         vertex -1.500000e+00 -1.500000e+00 -4.900000e-02
         vertex 7.502998e-01 -2.807129e-01 -4.900000e-02
      endloop
   endfacet
   facet normal 0.000000e+00 0.000000e+00 -1.000000e+00
      outer loop
         vertex 3.555420e+00 -4.084050e-01 -4.900000e-02
         vertex 3.715989e+00 -3.843197e-01 -4.900000e-02
         vertex 5.540000e+00 -1.500000e+00 -4.900000e-02
      endloop
   endfacet
   facet normal 0.000000e+00 0.000000e+00 -1.000000e+00
      outer loop
         vertex 5.540000e+00 -1.500000e+00 -4.900000e-02
         vertex 3.715989e+00 -3.843197e-01 -4.900000e-02
         vertex 3.877707e+00 -3.698342e-01 -4.900000e-02
      endloop
   endfacet
   facet normal 0.000000e+00 0.000000e+00 -1.000000e+00
      outer loop
         vertex 5.540000e+00 -1.500000e+00 -4.900000e-02
         vertex 3.877707e+00 -3.698342e-01 -4.900000e-02
         vertex 4.040000e+00 -3.650000e-01 -4.900000e-02
      endloop
   endfacet
   facet normal 0.000000e+00 0.000000e+00 -1.000000e+00
      outer loop
         vertex 3.877707e+00 3.698342e-01 -4.900000e-02
         vertex 3.715989e+00 3.843197e-01 -4.900000e-02
         vertex 5.540000e+00 1.500000e+00 -4.900000e-02
      endloop
   endfacet
   facet normal 0.000000e+00 0.000000e+00 -1.000000e+00
      outer loop
         vertex 5.540000e+00 1.500000e+00 -4.900000e-02
         vertex 3.715989e+00 3.843197e-01 -4.900000e-02
         vertex 3.555420e+00 4.084050e-01 -4.900000e-02
      endloop
   endfacet
   facet normal 0.000000e+00 0.000000e+00 -1.000000e+00
      outer loop
         vertex 5.540000e+00 1.500000e+00 -4.900000e-02
         vertex 3.555420e+00 4.084050e-01 -4.900000e-02
         vertex 3.396569e+00 4.420048e-01 -4.900000e-02
      endloop
   endfacet
   facet normal -0.000000e+00 0.000000e+00 -1.000000e+00
      outer loop
         vertex 1.378095e+00 7.087620e-01 -4.900000e-02
         vertex 1.217123e+00 6.405554e-01 -4.900000e-02
         vertex -1.500000e+00 1.500000e+00 -4.900000e-02
      endloop
   endfacet
   facet normal 0.000000e+00 0.000000e+00 -1.000000e+00
      outer loop
         vertex -1.500000e+00 1.500000e+00 -4.900000e-02
         vertex 1.217123e+00 6.405554e-01 -4.900000e-02
         vertex 1.051078e+00 5.858440e-01 -4.900000e-02
      endloop
   endfacet
   facet normal -0.000000e+00 0.000000e+00 -1.000000e+00
      outer loop
         vertex 1.051078e+00 5.858440e-01 -4.900000e-02
         vertex 8.810900e-01 5.450000e-01 -4.900000e-02
         vertex -1.500000e+00 1.500000e+00 -4.900000e-02
      endloop
   endfacet
   facet normal 0.000000e+00 0.000000e+00 -1.000000e+00
      outer loop
         vertex -1.500000e+00 1.500000e+00 -4.900000e-02
         vertex 8.810900e-01 5.450000e-01 -4.900000e-02
         vertex 8.107929e-01 4.152823e-01 -4.900000e-02
      endloop
   endfacet
   facet normal 0.000000e+00 0.000000e+00 -1.000000e+00
      outer loop
         vertex -1.500000e+00 1.500000e+00 -4.900000e-02
         vertex 8.107929e-01 4.152823e-01 -4.900000e-02
         vertex 7.502998e-01 2.807129e-01 -4.900000e-02
      endloop
   endfacet
   facet normal -0.000000e+00 0.000000e+00 -1.000000e+00
      outer loop
         vertex 7.502998e-01 2.807129e-01 -4.900000e-02
         vertex 6.999432e-01 1.420313e-01 -4.900000e-02
         vertex -1.500000e+00 1.500000e+00 -4.900000e-02
      endloop
   endfacet
   facet normal 0.000000e+00 0.000000e+00 -1.000000e+00
      outer loop
         vertex -1.500000e+00 1.500000e+00 -4.900000e-02
         vertex 6.999432e-01 1.420313e-01 -4.900000e-02
         vertex 6.600000e-01 -2.164935e-15 -4.900000e-02
      endloop
   endfacet
   facet normal 0.000000e+00 0.000000e+00 -1.000000e+00
      outer loop
         vertex -1.500000e+00 1.500000e+00 -4.900000e-02
         vertex 6.600000e-01 -2.164935e-15 -4.900000e-02
         vertex -1.500000e+00 -1.500000e+00 -4.900000e-02
      endloop
   endfacet
   facet normal 0.000000e+00 0.000000e+00 -1.000000e+00
      outer loop
         vertex -1.500000e+00 -1.500000e+00 -4.900000e-02
         vertex 6.600000e-01 -2.164935e-15 -4.900000e-02
         vertex 6.999432e-01 -1.420313e-01 -4.900000e-02
      endloop
   endfacet
   facet normal 0.000000e+00 0.000000e+00 -1.000000e+00
      outer loop
         vertex -1.500000e+00 -1.500000e+00 -4.900000e-02
         vertex 6.999432e-01 -1.420313e-01 -4.900000e-02
         vertex 7.502998e-01 -2.807129e-01 -4.900000e-02
      endloop
   endfacet
   facet normal 0.000000e+00 0.000000e+00 -1.000000e+00
      outer loop
         vertex 2.500051e+00 -7.659023e-01 -4.900000e-02
         vertex 2.748627e+00 -7.358327e-01 -4.900000e-02
         vertex 5.540000e+00 -1.500000e+00 -4.900000e-02
      endloop
   endfacet
   facet normal 0.000000e+00 0.000000e+00 -1.000000e+00
      outer loop
         vertex 5.540000e+00 -1.500000e+00 -4.900000e-02
         vertex 2.748627e+00 -7.358327e-01 -4.900000e-02
         vertex 2.995467e+00 -6.938328e-01 -4.900000e-02
      endloop
   endfacet
   facet normal 0.000000e+00 0.000000e+00 -1.000000e+00
      outer loop
         vertex 5.540000e+00 -1.500000e+00 -4.900000e-02
         vertex 2.995467e+00 -6.938328e-01 -4.900000e-02
         vertex 3.240000e+00 -6.400000e-01 -4.900000e-02
      endloop
   endfacet
   facet normal 0.000000e+00 0.000000e+00 -1.000000e+00
      outer loop
         vertex 3.396569e+00 4.420048e-01 -4.900000e-02
         vertex 3.240000e+00 6.400000e-01 -4.900000e-02
         vertex 5.540000e+00 1.500000e+00 -4.900000e-02
      endloop
   endfacet
   facet normal 0.000000e+00 0.000000e+00 -1.000000e+00
      outer loop
         vertex 5.540000e+00 1.500000e+00 -4.900000e-02
         vertex 3.240000e+00 6.400000e-01 -4.900000e-02
         vertex 2.995467e+00 6.938328e-01 -4.900000e-02
      endloop
   endfacet
   facet normal 0.000000e+00 0.000000e+00 -1.000000e+00
      outer loop
         vertex 5.540000e+00 1.500000e+00 -4.900000e-02
         vertex 2.995467e+00 6.938328e-01 -4.900000e-02
         vertex 2.748627e+00 7.358327e-01 -4.900000e-02
      endloop
   endfacet
   facet normal -0.000000e+00 0.000000e+00 -1.000000e+00
      outer loop
         vertex 5.540000e+00 1.500000e+00 -4.900000e-02
         vertex 2.000000e+00 7.900000e-01 -4.900000e-02
         vertex -1.500000e+00 1.500000e+00 -4.900000e-02
      endloop
   endfacet
   facet normal 0.000000e+00 0.000000e+00 -1.000000e+00
      outer loop
         vertex -1.500000e+00 1.500000e+00 -4.900000e-02
         vertex 2.000000e+00 7.900000e-01 -4.900000e-02
         vertex 1.532900e+00 7.900000e-01 -4.900000e-02
      endloop
   endfacet
   facet normal 0.000000e+00 0.000000e+00 -1.000000e+00
      outer loop
         vertex -1.500000e+00 1.500000e+00 -4.900000e-02
         vertex 1.532900e+00 7.900000e-01 -4.900000e-02
         vertex 1.378095e+00 7.087620e-01 -4.900000e-02
      endloop
   endfacet
   facet normal 0.000000e+00 -0.000000e+00 -1.000000e+00
      outer loop
         vertex 8.810900e-01 -5.450000e-01 -4.900000e-02
         vertex 1.051078e+00 -5.858440e-01 -4.900000e-02
         vertex -1.500000e+00 -1.500000e+00 -4.900000e-02
      endloop
   endfacet
   facet normal 0.000000e+00 0.000000e+00 -1.000000e+00
      outer loop
         vertex -1.500000e+00 -1.500000e+00 -4.900000e-02
         vertex 1.051078e+00 -5.858440e-01 -4.900000e-02
         vertex 1.217123e+00 -6.405554e-01 -4.900000e-02
      endloop
   endfacet
   facet normal 0.000000e+00 0.000000e+00 -1.000000e+00
      outer loop
         vertex -1.500000e+00 -1.500000e+00 -4.900000e-02
         vertex 1.217123e+00 -6.405554e-01 -4.900000e-02
         vertex 1.378095e+00 -7.087620e-01 -4.900000e-02
      endloop
   endfacet
   facet normal 0.000000e+00 0.000000e+00 -1.000000e+00
      outer loop
         vertex 3.240000e+00 -6.400000e-01 -4.900000e-02
         vertex 3.240000e+00 -4.850000e-01 -4.900000e-02
         vertex 5.540000e+00 -1.500000e+00 -4.900000e-02
      endloop
   endfacet
   facet normal 0.000000e+00 0.000000e+00 -1.000000e+00
      outer loop
         vertex 5.540000e+00 -1.500000e+00 -4.900000e-02
         vertex 3.240000e+00 -4.850000e-01 -4.900000e-02
         vertex 3.396569e+00 -4.420048e-01 -4.900000e-02
      endloop
   endfacet
   facet normal 0.000000e+00 0.000000e+00 -1.000000e+00
      outer loop
         vertex 5.540000e+00 -1.500000e+00 -4.900000e-02
         vertex 3.396569e+00 -4.420048e-01 -4.900000e-02
         vertex 3.555420e+00 -4.084050e-01 -4.900000e-02
      endloop
   endfacet
   facet normal 0.000000e+00 0.000000e+00 -1.000000e+00
      outer loop
         vertex 2.748627e+00 7.358327e-01 -4.900000e-02
         vertex 2.500051e+00 7.659023e-01 -4.900000e-02
         vertex 5.540000e+00 1.500000e+00 -4.900000e-02
      endloop
   endfacet
   facet normal 0.000000e+00 0.000000e+00 -1.000000e+00
      outer loop
         vertex 5.540000e+00 1.500000e+00 -4.900000e-02
         vertex 2.500051e+00 7.659023e-01 -4.900000e-02
         vertex 2.250316e+00 7.839721e-01 -4.900000e-02
      endloop
   endfacet
   facet normal 0.000000e+00 0.000000e+00 -1.000000e+00
      outer loop
         vertex 5.540000e+00 1.500000e+00 -4.900000e-02
         vertex 2.250316e+00 7.839721e-01 -4.900000e-02
         vertex 2.000000e+00 7.900000e-01 -4.900000e-02
      endloop
   endfacet
   facet normal 0.000000e+00 -0.000000e+00 -1.000000e+00
      outer loop
         vertex 1.378095e+00 -7.087620e-01 -4.900000e-02
         vertex 1.532900e+00 -7.900000e-01 -4.900000e-02
         vertex -1.500000e+00 -1.500000e+00 -4.900000e-02
      endloop
   endfacet
   facet normal 0.000000e+00 0.000000e+00 -1.000000e+00
      outer loop
         vertex -1.500000e+00 -1.500000e+00 -4.900000e-02
         vertex 1.532900e+00 -7.900000e-01 -4.900000e-02
         vertex 2.000000e+00 -7.900000e-01 -4.900000e-02
      endloop
   endfacet
   facet normal 0.000000e+00 0.000000e+00 -1.000000e+00
      outer loop
         vertex -1.500000e+00 -1.500000e+00 -4.900000e-02
         vertex 2.000000e+00 -7.900000e-01 -4.900000e-02
         vertex 5.540000e+00 -1.500000e+00 -4.900000e-02
      endloop
   endfacet
   facet normal 0.000000e+00 0.000000e+00 -1.000000e+00
      outer loop
         vertex 5.540000e+00 -1.500000e+00 -4.900000e-02
         vertex 2.000000e+00 -7.900000e-01 -4.900000e-02
         vertex 2.250316e+00 -7.839721e-01 -4.900000e-02
      endloop
   endfacet
   facet normal 0.000000e+00 0.000000e+00 -1.000000e+00
      outer loop
         vertex 5.540000e+00 -1.500000e+00 -4.900000e-02
         vertex 2.250316e+00 -7.839721e-01 -4.900000e-02
         vertex 2.500051e+00 -7.659023e-01 -4.900000e-02
      endloop
   endfacet
   facet normal 2.336265e-01 -9.723264e-01 0.000000e+00
      outer loop
         vertex 8.810900e-01 5.450000e-01 -3.900000e-02
         vertex 8.810900e-01 5.450000e-01 -4.900000e-02
         vertex 1.051078e+00 5.858440e-01 -4.900000e-02
      endloop
   endfacet
   facet normal 2.336265e-01 -9.723264e-01 0.000000e+00
      outer loop
         vertex 8.810900e-01 5.450000e-01 -3.900000e-02
         vertex 1.051078e+00 5.858440e-01 -4.900000e-02
         vertex 1.051078e+00 5.858440e-01 -3.900000e-02
      endloop
   endfacet
   facet normal 3.129475e-01 -9.497704e-01 0.000000e+00
      outer loop
         vertex 1.051078e+00 5.858440e-01 -3.900000e-02
         vertex 1.051078e+00 5.858440e-01 -4.900000e-02
         vertex 1.217123e+00 6.405554e-01 -4.900000e-02
      endloop
   endfacet
   facet normal 3.129475e-01 -9.497704e-01 0.000000e+00
      outer loop
         vertex 1.051078e+00 5.858440e-01 -3.900000e-02
         vertex 1.217123e+00 6.405554e-01 -4.900000e-02
         vertex 1.217123e+00 6.405554e-01 -3.900000e-02
      endloop
   endfacet
   facet normal 3.901392e-01 -9.207559e-01 0.000000e+00
      outer loop
         vertex 1.217123e+00 6.405554e-01 -3.900000e-02
         vertex 1.217123e+00 6.405554e-01 -4.900000e-02
         vertex 1.378095e+00 7.087620e-01 -4.900000e-02
      endloop
   endfacet
   facet normal 3.901392e-01 -9.207559e-01 0.000000e+00
      outer loop
         vertex 1.217123e+00 6.405554e-01 -3.900000e-02
         vertex 1.378095e+00 7.087620e-01 -4.900000e-02
         vertex 1.378095e+00 7.087620e-01 -3.900000e-02
      endloop
   endfacet
   facet normal 4.646789e-01 -8.854793e-01 0.000000e+00
      outer loop
         vertex 1.378095e+00 7.087620e-01 -3.900000e-02
         vertex 1.378095e+00 7.087620e-01 -4.900000e-02
         vertex 1.532900e+00 7.900000e-01 -4.900000e-02
      endloop
   endfacet
   facet normal 4.646789e-01 -8.854793e-01 0.000000e+00
      outer loop
         vertex 1.378095e+00 7.087620e-01 -3.900000e-02
         vertex 1.532900e+00 7.900000e-01 -4.900000e-02
         vertex 1.532900e+00 7.900000e-01 -3.900000e-02
      endloop
   endfacet
   facet normal 9.626565e-01 -2.707258e-01 0.000000e+00
      outer loop
         vertex 6.600000e-01 -2.164935e-15 -3.900000e-02
         vertex 6.600000e-01 -2.164935e-15 -4.900000e-02
         vertex 6.999432e-01 1.420313e-01 -3.900000e-02
      endloop
   endfacet
   facet normal 9.626565e-01 -2.707258e-01 0.000000e+00
      outer loop
         vertex 6.999432e-01 1.420313e-01 -3.900000e-02
         vertex 6.600000e-01 -2.164935e-15 -4.900000e-02
         vertex 6.999432e-01 1.420313e-01 -4.900000e-02
      endloop
   endfacet
   facet normal 9.399524e-01 -3.413055e-01 0.000000e+00
      outer loop
         vertex 6.999432e-01 1.420313e-01 -3.900000e-02
         vertex 6.999432e-01 1.420313e-01 -4.900000e-02
         vertex 7.502998e-01 2.807129e-01 -3.900000e-02
      endloop
   endfacet
   facet normal 9.399524e-01 -3.413055e-01 0.000000e+00
      outer loop
         vertex 7.502998e-01 2.807129e-01 -3.900000e-02
         vertex 6.999432e-01 1.420313e-01 -4.900000e-02
         vertex 7.502998e-01 2.807129e-01 -4.900000e-02
      endloop
   endfacet
   facet normal 9.120816e-01 -4.100087e-01 0.000000e+00
      outer loop
         vertex 7.502998e-01 2.807129e-01 -3.900000e-02
         vertex 7.502998e-01 2.807129e-01 -4.900000e-02
         vertex 8.107929e-01 4.152823e-01 -3.900000e-02
      endloop
   endfacet
   facet normal 9.120816e-01 -4.100087e-01 0.000000e+00
      outer loop
         vertex 8.107929e-01 4.152823e-01 -3.900000e-02
         vertex 7.502998e-01 2.807129e-01 -4.900000e-02
         vertex 8.107929e-01 4.152823e-01 -4.900000e-02
      endloop
   endfacet
   facet normal 8.791972e-01 -4.764581e-01 0.000000e+00
      outer loop
         vertex 8.107929e-01 4.152823e-01 -3.900000e-02
         vertex 8.107929e-01 4.152823e-01 -4.900000e-02
         vertex 8.810900e-01 5.450000e-01 -3.900000e-02
      endloop
   endfacet
   facet normal 8.791972e-01 -4.764581e-01 0.000000e+00
      outer loop
         vertex 8.810900e-01 5.450000e-01 -3.900000e-02
         vertex 8.107929e-01 4.152823e-01 -4.900000e-02
         vertex 8.810900e-01 5.450000e-01 -4.900000e-02
      endloop
   endfacet
   facet normal 8.791972e-01 4.764581e-01 0.000000e+00
      outer loop
         vertex 8.810900e-01 -5.450000e-01 -3.900000e-02
         vertex 8.810900e-01 -5.450000e-01 -4.900000e-02
         vertex 8.107929e-01 -4.152823e-01 -3.900000e-02
      endloop
   endfacet
   facet normal 8.791972e-01 4.764581e-01 0.000000e+00
      outer loop
         vertex 8.107929e-01 -4.152823e-01 -3.900000e-02
         vertex 8.810900e-01 -5.450000e-01 -4.900000e-02
         vertex 8.107929e-01 -4.152823e-01 -4.900000e-02
      endloop
   endfacet
   facet normal 9.120816e-01 4.100087e-01 0.000000e+00
      outer loop
         vertex 8.107929e-01 -4.152823e-01 -3.900000e-02
         vertex 8.107929e-01 -4.152823e-01 -4.900000e-02
         vertex 7.502998e-01 -2.807129e-01 -3.900000e-02
      endloop
   endfacet
   facet normal 9.120816e-01 4.100087e-01 0.000000e+00
      outer loop
         vertex 7.502998e-01 -2.807129e-01 -3.900000e-02
         vertex 8.107929e-01 -4.152823e-01 -4.900000e-02
         vertex 7.502998e-01 -2.807129e-01 -4.900000e-02
      endloop
   endfacet
   facet normal 9.399524e-01 3.413055e-01 0.000000e+00
      outer loop
         vertex 7.502998e-01 -2.807129e-01 -3.900000e-02
         vertex 7.502998e-01 -2.807129e-01 -4.900000e-02
         vertex 6.999432e-01 -1.420313e-01 -3.900000e-02
      endloop
   endfacet
   facet normal 9.399524e-01 3.413055e-01 0.000000e+00
      outer loop
         vertex 6.999432e-01 -1.420313e-01 -3.900000e-02
         vertex 7.502998e-01 -2.807129e-01 -4.900000e-02
         vertex 6.999432e-01 -1.420313e-01 -4.900000e-02
      endloop
   endfacet
   facet normal 9.626565e-01 2.707258e-01 0.000000e+00
      outer loop
         vertex 6.999432e-01 -1.420313e-01 -3.900000e-02
         vertex 6.999432e-01 -1.420313e-01 -4.900000e-02
         vertex 6.600000e-01 1.110223e-16 -3.900000e-02
      endloop
   endfacet
   facet normal 9.626565e-01 2.707258e-01 0.000000e+00
      outer loop
         vertex 6.600000e-01 1.110223e-16 -3.900000e-02
         vertex 6.999432e-01 -1.420313e-01 -4.900000e-02
         vertex 6.600000e-01 1.110223e-16 -4.900000e-02
      endloop
   endfacet
   facet normal 4.646789e-01 8.854793e-01 0.000000e+00
      outer loop
         vertex 1.532900e+00 -7.900000e-01 -3.900000e-02
         vertex 1.532900e+00 -7.900000e-01 -4.900000e-02
         vertex 1.378095e+00 -7.087620e-01 -4.900000e-02
      endloop
   endfacet
   facet normal 4.646789e-01 8.854793e-01 0.000000e+00
      outer loop
         vertex 1.532900e+00 -7.900000e-01 -3.900000e-02
         vertex 1.378095e+00 -7.087620e-01 -4.900000e-02
         vertex 1.378095e+00 -7.087620e-01 -3.900000e-02
      endloop
   endfacet
   facet normal 3.901392e-01 9.207559e-01 0.000000e+00
      outer loop
         vertex 1.378095e+00 -7.087620e-01 -3.900000e-02
         vertex 1.378095e+00 -7.087620e-01 -4.900000e-02
         vertex 1.217123e+00 -6.405554e-01 -4.900000e-02
      endloop
   endfacet
   facet normal 3.901392e-01 9.207559e-01 0.000000e+00
      outer loop
         vertex 1.378095e+00 -7.087620e-01 -3.900000e-02
         vertex 1.217123e+00 -6.405554e-01 -4.900000e-02
         vertex 1.217123e+00 -6.405554e-01 -3.900000e-02
      endloop
   endfacet
   facet normal 3.129475e-01 9.497704e-01 0.000000e+00
      outer loop
         vertex 1.217123e+00 -6.405554e-01 -3.900000e-02
         vertex 1.217123e+00 -6.405554e-01 -4.900000e-02
         vertex 1.051078e+00 -5.858440e-01 -4.900000e-02
      endloop
   endfacet
   facet normal 3.129475e-01 9.497704e-01 0.000000e+00
      outer loop
         vertex 1.217123e+00 -6.405554e-01 -3.900000e-02
         vertex 1.051078e+00 -5.858440e-01 -4.900000e-02
         vertex 1.051078e+00 -5.858440e-01 -3.900000e-02
      endloop
   endfacet
   facet normal 2.336265e-01 9.723264e-01 0.000000e+00
      outer loop
         vertex 1.051078e+00 -5.858440e-01 -3.900000e-02
         vertex 1.051078e+00 -5.858440e-01 -4.900000e-02
         vertex 8.810900e-01 -5.450000e-01 -4.900000e-02
      endloop
   endfacet
   facet normal 2.336265e-01 9.723264e-01 0.000000e+00
      outer loop
         vertex 1.051078e+00 -5.858440e-01 -3.900000e-02
         vertex 8.810900e-01 -5.450000e-01 -4.900000e-02
         vertex 8.810900e-01 -5.450000e-01 -3.900000e-02
      endloop
   endfacet
   facet normal -0.000000e+00 1.000000e+00 0.000000e+00
      outer loop
         vertex 1.532900e+00 -7.900000e-01 -3.900000e-02
         vertex 2.000000e+00 -7.900000e-01 -3.900000e-02
         vertex 1.532900e+00 -7.900000e-01 -4.900000e-02
      endloop
   endfacet
   facet normal 0.000000e+00 1.000000e+00 0.000000e+00
      outer loop
         vertex 1.532900e+00 -7.900000e-01 -4.900000e-02
         vertex 2.000000e+00 -7.900000e-01 -3.900000e-02
         vertex 2.000000e+00 -7.900000e-01 -4.900000e-02
      endloop
   endfacet
   facet normal -2.149972e-01 9.766147e-01 0.000000e+00
      outer loop
         vertex 3.240000e+00 -6.400000e-01 -3.900000e-02
         vertex 3.240000e+00 -6.400000e-01 -4.900000e-02
         vertex 2.995467e+00 -6.938328e-01 -3.900000e-02
      endloop
   endfacet
   facet normal -2.149972e-01 9.766147e-01 0.000000e+00
      outer loop
         vertex 2.995467e+00 -6.938328e-01 -3.900000e-02
         vertex 3.240000e+00 -6.400000e-01 -4.900000e-02
         vertex 2.995467e+00 -6.938328e-01 -4.900000e-02
      endloop
   endfacet
   facet normal -1.677393e-01 9.858314e-01 0.000000e+00
      outer loop
         vertex 2.995467e+00 -6.938328e-01 -3.900000e-02
         vertex 2.995467e+00 -6.938328e-01 -4.900000e-02
         vertex 2.748627e+00 -7.358327e-01 -3.900000e-02
      endloop
   endfacet
   facet normal -1.677393e-01 9.858314e-01 0.000000e+00
      outer loop
         vertex 2.748627e+00 -7.358327e-01 -3.900000e-02
         vertex 2.995467e+00 -6.938328e-01 -4.900000e-02
         vertex 2.748627e+00 -7.358327e-01 -4.900000e-02
      endloop
   endfacet
   facet normal -1.200922e-01 9.927627e-01 0.000000e+00
      outer loop
         vertex 2.748627e+00 -7.358327e-01 -3.900000e-02
         vertex 2.748627e+00 -7.358327e-01 -4.900000e-02
         vertex 2.500051e+00 -7.659023e-01 -3.900000e-02
      endloop
   endfacet
   facet normal -1.200922e-01 9.927627e-01 0.000000e+00
      outer loop
         vertex 2.500051e+00 -7.659023e-01 -3.900000e-02
         vertex 2.748627e+00 -7.358327e-01 -4.900000e-02
         vertex 2.500051e+00 -7.659023e-01 -4.900000e-02
      endloop
   endfacet
   facet normal -7.216698e-02 9.973926e-01 0.000000e+00
      outer loop
         vertex 2.500051e+00 -7.659023e-01 -3.900000e-02
         vertex 2.500051e+00 -7.659023e-01 -4.900000e-02
         vertex 2.250316e+00 -7.839721e-01 -3.900000e-02
      endloop
   endfacet
   facet normal -7.216698e-02 9.973926e-01 0.000000e+00
      outer loop
         vertex 2.250316e+00 -7.839721e-01 -3.900000e-02
         vertex 2.500051e+00 -7.659023e-01 -4.900000e-02
         vertex 2.250316e+00 -7.839721e-01 -4.900000e-02
      endloop
   endfacet
   facet normal -2.407436e-02 9.997102e-01 0.000000e+00
      outer loop
         vertex 2.250316e+00 -7.839721e-01 -3.900000e-02
         vertex 2.250316e+00 -7.839721e-01 -4.900000e-02
         vertex 2.000000e+00 -7.900000e-01 -3.900000e-02
      endloop
   endfacet
   facet normal -2.407436e-02 9.997102e-01 0.000000e+00
      outer loop
         vertex 2.000000e+00 -7.900000e-01 -3.900000e-02
         vertex 2.250316e+00 -7.839721e-01 -4.900000e-02
         vertex 2.000000e+00 -7.900000e-01 -4.900000e-02
      endloop
   endfacet
   facet normal -1.000000e+00 0.000000e+00 0.000000e+00
      outer loop
         vertex 3.240000e+00 -6.400000e-01 -3.900000e-02
         vertex 3.240000e+00 -4.850000e-01 -3.900000e-02
         vertex 3.240000e+00 -6.400000e-01 -4.900000e-02
      endloop
   endfacet
   facet normal -1.000000e+00 0.000000e+00 0.000000e+00
      outer loop
         vertex 3.240000e+00 -6.400000e-01 -4.900000e-02
         vertex 3.240000e+00 -4.850000e-01 -3.900000e-02
         vertex 3.240000e+00 -4.850000e-01 -4.900000e-02
      endloop
   endfacet
   facet normal -2.977347e-02 9.995567e-01 0.000000e+00
      outer loop
         vertex 4.040000e+00 -3.650000e-01 -3.900000e-02
         vertex 4.040000e+00 -3.650000e-01 -4.900000e-02
         vertex 3.877707e+00 -3.698342e-01 -4.900000e-02
      endloop
   endfacet
   facet normal -2.977347e-02 9.995567e-01 0.000000e+00
      outer loop
         vertex 4.040000e+00 -3.650000e-01 -3.900000e-02
         vertex 3.877707e+00 -3.698342e-01 -4.900000e-02
         vertex 3.877707e+00 -3.698342e-01 -3.900000e-02
      endloop
   endfacet
   facet normal -8.921533e-02 9.960124e-01 0.000000e+00
      outer loop
         vertex 3.877707e+00 -3.698342e-01 -3.900000e-02
         vertex 3.877707e+00 -3.698342e-01 -4.900000e-02
         vertex 3.715989e+00 -3.843197e-01 -4.900000e-02
      endloop
   endfacet
   facet normal -8.921533e-02 9.960124e-01 0.000000e+00
      outer loop
         vertex 3.877707e+00 -3.698342e-01 -3.900000e-02
         vertex 3.715989e+00 -3.843197e-01 -4.900000e-02
         vertex 3.715989e+00 -3.843197e-01 -3.900000e-02
      endloop
   endfacet
   facet normal -1.483405e-01 9.889364e-01 0.000000e+00
      outer loop
         vertex 3.715989e+00 -3.843197e-01 -3.900000e-02
         vertex 3.715989e+00 -3.843197e-01 -4.900000e-02
         vertex 3.555420e+00 -4.084050e-01 -4.900000e-02
      endloop
   endfacet
   facet normal -1.483405e-01 9.889364e-01 0.000000e+00
      outer loop
         vertex 3.715989e+00 -3.843197e-01 -3.900000e-02
         vertex 3.555420e+00 -4.084050e-01 -4.900000e-02
         vertex 3.555420e+00 -4.084050e-01 -3.900000e-02
      endloop
   endfacet
   facet normal -2.069397e-01 9.783537e-01 0.000000e+00
      outer loop
         vertex 3.555420e+00 -4.084050e-01 -3.900000e-02
         vertex 3.555420e+00 -4.084050e-01 -4.900000e-02
         vertex 3.396569e+00 -4.420048e-01 -4.900000e-02
      endloop
   endfacet
   facet normal -2.069397e-01 9.783537e-01 0.000000e+00
      outer loop
         vertex 3.555420e+00 -4.084050e-01 -3.900000e-02
         vertex 3.396569e+00 -4.420048e-01 -4.900000e-02
         vertex 3.396569e+00 -4.420048e-01 -3.900000e-02
      endloop
   endfacet
   facet normal -2.648051e-01 9.643019e-01 0.000000e+00
      outer loop
         vertex 3.396569e+00 -4.420048e-01 -3.900000e-02
         vertex 3.396569e+00 -4.420048e-01 -4.900000e-02
         vertex 3.240000e+00 -4.850000e-01 -4.900000e-02
      endloop
   endfacet
   facet normal -2.648051e-01 9.643019e-01 0.000000e+00
      outer loop
         vertex 3.396569e+00 -4.420048e-01 -3.900000e-02
         vertex 3.240000e+00 -4.850000e-01 -4.900000e-02
         vertex 3.240000e+00 -4.850000e-01 -3.900000e-02
      endloop
   endfacet
   facet normal -1.000000e+00 0.000000e+00 0.000000e+00
      outer loop
         vertex 4.040000e+00 -3.650000e-01 -3.900000e-02
         vertex 4.040000e+00 3.650000e-01 -3.900000e-02
         vertex 4.040000e+00 -3.650000e-01 -4.900000e-02
      endloop
   endfacet
   facet normal -1.000000e+00 0.000000e+00 0.000000e+00
      outer loop
         vertex 4.040000e+00 -3.650000e-01 -4.900000e-02
         vertex 4.040000e+00 3.650000e-01 -3.900000e-02
         vertex 4.040000e+00 3.650000e-01 -4.900000e-02
      endloop
   endfacet
   facet normal -2.648051e-01 -9.643019e-01 -0.000000e+00
      outer loop
         vertex 3.240000e+00 4.850000e-01 -3.900000e-02
         vertex 3.240000e+00 4.850000e-01 -4.900000e-02
         vertex 3.396569e+00 4.420048e-01 -4.900000e-02
      endloop
   endfacet
   facet normal -2.648051e-01 -9.643019e-01 0.000000e+00
      outer loop
         vertex 3.240000e+00 4.850000e-01 -3.900000e-02
         vertex 3.396569e+00 4.420048e-01 -4.900000e-02
         vertex 3.396569e+00 4.420048e-01 -3.900000e-02
      endloop
   endfacet
   facet normal -2.069397e-01 -9.783537e-01 -0.000000e+00
      outer loop
         vertex 3.396569e+00 4.420048e-01 -3.900000e-02
         vertex 3.396569e+00 4.420048e-01 -4.900000e-02
         vertex 3.555420e+00 4.084050e-01 -4.900000e-02
      endloop
   endfacet
   facet normal -2.069397e-01 -9.783537e-01 0.000000e+00
      outer loop
         vertex 3.396569e+00 4.420048e-01 -3.900000e-02
         vertex 3.555420e+00 4.084050e-01 -4.900000e-02
         vertex 3.555420e+00 4.084050e-01 -3.900000e-02
      endloop
   endfacet
   facet normal -1.483405e-01 -9.889364e-01 -0.000000e+00
      outer loop
         vertex 3.555420e+00 4.084050e-01 -3.900000e-02
         vertex 3.555420e+00 4.084050e-01 -4.900000e-02
         vertex 3.715989e+00 3.843197e-01 -4.900000e-02
      endloop
   endfacet
   facet normal -1.483405e-01 -9.889364e-01 0.000000e+00
      outer loop
         vertex 3.555420e+00 4.084050e-01 -3.900000e-02
         vertex 3.715989e+00 3.843197e-01 -4.900000e-02
         vertex 3.715989e+00 3.843197e-01 -3.900000e-02
      endloop
   endfacet
   facet normal -8.921533e-02 -9.960124e-01 -0.000000e+00
      outer loop
         vertex 3.715989e+00 3.843197e-01 -3.900000e-02
         vertex 3.715989e+00 3.843197e-01 -4.900000e-02
         vertex 3.877707e+00 3.698342e-01 -4.900000e-02
      endloop
   endfacet
   facet normal -8.921533e-02 -9.960124e-01 0.000000e+00
      outer loop
         vertex 3.715989e+00 3.843197e-01 -3.900000e-02
         vertex 3.877707e+00 3.698342e-01 -4.900000e-02
         vertex 3.877707e+00 3.698342e-01 -3.900000e-02
      endloop
   endfacet
   facet normal -2.977347e-02 -9.995567e-01 -0.000000e+00
      outer loop
         vertex 3.877707e+00 3.698342e-01 -3.900000e-02
         vertex 3.877707e+00 3.698342e-01 -4.900000e-02
         vertex 4.040000e+00 3.650000e-01 -4.900000e-02
      endloop
   endfacet
   facet normal -2.977347e-02 -9.995567e-01 0.000000e+00
      outer loop
         vertex 3.877707e+00 3.698342e-01 -3.900000e-02
         vertex 4.040000e+00 3.650000e-01 -4.900000e-02
         vertex 4.040000e+00 3.650000e-01 -3.900000e-02
      endloop
   endfacet
   facet normal -1.000000e+00 0.000000e+00 0.000000e+00
      outer loop
         vertex 3.240000e+00 4.850000e-01 -3.900000e-02
         vertex 3.240000e+00 6.400000e-01 -3.900000e-02
         vertex 3.240000e+00 4.850000e-01 -4.900000e-02
      endloop
   endfacet
   facet normal -1.000000e+00 0.000000e+00 0.000000e+00
      outer loop
         vertex 3.240000e+00 4.850000e-01 -4.900000e-02
         vertex 3.240000e+00 6.400000e-01 -3.900000e-02
         vertex 3.240000e+00 6.400000e-01 -4.900000e-02
      endloop
   endfacet
   facet normal -2.407436e-02 -9.997102e-01 -0.000000e+00
      outer loop
         vertex 2.000000e+00 7.900000e-01 -3.900000e-02
         vertex 2.000000e+00 7.900000e-01 -4.900000e-02
         vertex 2.250316e+00 7.839721e-01 -3.900000e-02
      endloop
   endfacet
   facet normal -2.407436e-02 -9.997102e-01 -0.000000e+00
      outer loop
         vertex 2.250316e+00 7.839721e-01 -3.900000e-02
         vertex 2.000000e+00 7.900000e-01 -4.900000e-02
         vertex 2.250316e+00 7.839721e-01 -4.900000e-02
      endloop
   endfacet
   facet normal -7.216698e-02 -9.973926e-01 -0.000000e+00
      outer loop
         vertex 2.250316e+00 7.839721e-01 -3.900000e-02
         vertex 2.250316e+00 7.839721e-01 -4.900000e-02
         vertex 2.500051e+00 7.659023e-01 -3.900000e-02
      endloop
   endfacet
   facet normal -7.216698e-02 -9.973926e-01 -0.000000e+00
      outer loop
         vertex 2.500051e+00 7.659023e-01 -3.900000e-02
         vertex 2.250316e+00 7.839721e-01 -4.900000e-02
         vertex 2.500051e+00 7.659023e-01 -4.900000e-02
      endloop
   endfacet
   facet normal -1.200922e-01 -9.927627e-01 -0.000000e+00
      outer loop
         vertex 2.500051e+00 7.659023e-01 -3.900000e-02
         vertex 2.500051e+00 7.659023e-01 -4.900000e-02
         vertex 2.748627e+00 7.358327e-01 -3.900000e-02
      endloop
   endfacet
   facet normal -1.200922e-01 -9.927627e-01 -0.000000e+00
      outer loop
         vertex 2.748627e+00 7.358327e-01 -3.900000e-02
         vertex 2.500051e+00 7.659023e-01 -4.900000e-02
         vertex 2.748627e+00 7.358327e-01 -4.900000e-02
      endloop
   endfacet
   facet normal -1.677393e-01 -9.858314e-01 -0.000000e+00
      outer loop
         vertex 2.748627e+00 7.358327e-01 -3.900000e-02
         vertex 2.748627e+00 7.358327e-01 -4.900000e-02
         vertex 2.995467e+00 6.938328e-01 -3.900000e-02
      endloop
   endfacet
   facet normal -1.677393e-01 -9.858314e-01 -0.000000e+00
      outer loop
         vertex 2.995467e+00 6.938328e-01 -3.900000e-02
         vertex 2.748627e+00 7.358327e-01 -4.900000e-02
         vertex 2.995467e+00 6.938328e-01 -4.900000e-02
      endloop
   endfacet
   facet normal -2.149972e-01 -9.766147e-01 -0.000000e+00
      outer loop
         vertex 2.995467e+00 6.938328e-01 -3.900000e-02
         vertex 2.995467e+00 6.938328e-01 -4.900000e-02
         vertex 3.240000e+00 6.400000e-01 -3.900000e-02
      endloop
   endfacet
   facet normal -2.149972e-01 -9.766147e-01 -0.000000e+00
      outer loop
         vertex 3.240000e+00 6.400000e-01 -3.900000e-02
         vertex 2.995467e+00 6.938328e-01 -4.900000e-02
         vertex 3.240000e+00 6.400000e-01 -4.900000e-02
      endloop
   endfacet
   facet normal -0.000000e+00 -1.000000e+00 -0.000000e+00
      outer loop
         vertex 2.000000e+00 7.900000e-01 -3.900000e-02
         vertex 1.532900e+00 7.900000e-01 -3.900000e-02
         vertex 2.000000e+00 7.900000e-01 -4.900000e-02
      endloop
   endfacet
   facet normal 0.000000e+00 -1.000000e+00 0.000000e+00
      outer loop
         vertex 2.000000e+00 7.900000e-01 -4.900000e-02
         vertex 1.532900e+00 7.900000e-01 -3.900000e-02
         vertex 1.532900e+00 7.900000e-01 -4.900000e-02
      endloop
   endfacet
endsolid RS_FLOOR_MASK