solid RV_RR_WING_PROFILES_V01
   facet normal 0.000000e+00 0.000000e+00 1.000000e+00
      outer loop
         vertex 4.155000e+00 4.800000e-01 9.100000e-01
         vertex 4.130000e+00 4.800000e-01 9.100000e-01
         vertex 4.155000e+00 0.000000e+00 9.100000e-01
      endloop
   endfacet
   facet normal 0.000000e+00 0.000000e+00 1.000000e+00
      outer loop
         vertex 4.155000e+00 0.000000e+00 9.100000e-01
         vertex 4.130000e+00 4.800000e-01 9.100000e-01
         vertex 4.130000e+00 0.000000e+00 9.100000e-01
      endloop
   endfacet
   facet normal -4.369037e-01 0.000000e+00 8.995083e-01
      outer loop
         vertex 4.130000e+00 4.800000e-01 9.100000e-01
         vertex 3.955000e+00 4.800000e-01 8.250000e-01
         vertex 4.130000e+00 0.000000e+00 9.100000e-01
      endloop
   endfacet
   facet normal -4.369037e-01 0.000000e+00 8.995083e-01
      outer loop
         vertex 4.130000e+00 0.000000e+00 9.100000e-01
         vertex 3.955000e+00 4.800000e-01 8.250000e-01
         vertex 3.955000e+00 0.000000e+00 8.250000e-01
      endloop
   endfacet
   facet normal 1.000000e+00 0.000000e+00 -0.000000e+00
      outer loop
         vertex 4.155000e+00 4.800000e-01 6.700000e-01
         vertex 4.155000e+00 4.800000e-01 9.100000e-01
         vertex 4.155000e+00 0.000000e+00 6.700000e-01
      endloop
   endfacet
   facet normal 1.000000e+00 0.000000e+00 0.000000e+00
      outer loop
         vertex 4.155000e+00 0.000000e+00 6.700000e-01
         vertex 4.155000e+00 4.800000e-01 9.100000e-01
         vertex 4.155000e+00 0.000000e+00 9.100000e-01
      endloop
   endfacet
   facet normal 0.000000e+00 -0.000000e+00 1.000000e+00
      outer loop
         vertex 4.155000e+00 -4.800000e-01 9.100000e-01
         vertex 4.155000e+00 0.000000e+00 9.100000e-01
         vertex 4.130000e+00 -4.800000e-01 9.100000e-01
      endloop
   endfacet
   facet normal 0.000000e+00 0.000000e+00 1.000000e+00
      outer loop
         vertex 4.130000e+00 -4.800000e-01 9.100000e-01
         vertex 4.155000e+00 0.000000e+00 9.100000e-01
         vertex 4.130000e+00 0.000000e+00 9.100000e-01
      endloop
   endfacet
   facet normal -0.000000e+00 1.000000e+00 0.000000e+00
      outer loop
         vertex 4.130000e+00 4.800000e-01 9.100000e-01
         vertex 4.155000e+00 4.800000e-01 9.100000e-01
         vertex 3.955000e+00 4.800000e-01 8.250000e-01
      endloop
   endfacet
   facet normal -0.000000e+00 1.000000e+00 0.000000e+00
      outer loop
         vertex 3.955000e+00 4.800000e-01 8.250000e-01
         vertex 4.155000e+00 4.800000e-01 9.100000e-01
         vertex 4.155000e+00 4.800000e-01 6.700000e-01
      endloop
   endfacet
   facet normal 0.000000e+00 1.000000e+00 0.000000e+00
      outer loop
         vertex 3.955000e+00 4.800000e-01 8.250000e-01
         vertex 4.155000e+00 4.800000e-01 6.700000e-01
         vertex 3.740000e+00 4.800000e-01 8.250000e-01
      endloop
   endfacet
   facet normal 0.000000e+00 1.000000e+00 0.000000e+00
      outer loop
         vertex 3.740000e+00 4.800000e-01 8.250000e-01
         vertex 4.155000e+00 4.800000e-01 6.700000e-01
         vertex 3.740000e+00 4.800000e-01 6.700000e-01
      endloop
   endfacet
   facet normal 0.000000e+00 0.000000e+00 1.000000e+00
      outer loop
         vertex 3.955000e+00 4.800000e-01 8.250000e-01
         vertex 3.740000e+00 4.800000e-01 8.250000e-01
         vertex 3.955000e+00 0.000000e+00 8.250000e-01
      endloop
   endfacet
   facet normal 0.000000e+00 0.000000e+00 1.000000e+00
      outer loop
         vertex 3.955000e+00 0.000000e+00 8.250000e-01
         vertex 3.740000e+00 4.800000e-01 8.250000e-01
         vertex 3.740000e+00 0.000000e+00 8.250000e-01
      endloop
   endfacet
   facet normal -4.369037e-01 0.000000e+00 8.995083e-01
      outer loop
         vertex 4.130000e+00 -4.800000e-01 9.100000e-01
         vertex 4.130000e+00 0.000000e+00 9.100000e-01
         vertex 3.955000e+00 -4.800000e-01 8.250000e-01
      endloop
   endfacet
   facet normal -4.369037e-01 0.000000e+00 8.995083e-01
      outer loop
         vertex 3.955000e+00 -4.800000e-01 8.250000e-01
         vertex 4.130000e+00 0.000000e+00 9.100000e-01
         vertex 3.955000e+00 0.000000e+00 8.250000e-01
      endloop
   endfacet
   facet normal 0.000000e+00 0.000000e+00 -1.000000e+00
      outer loop
         vertex 3.740000e+00 4.800000e-01 6.700000e-01
         vertex 4.155000e+00 4.800000e-01 6.700000e-01
         vertex 3.740000e+00 0.000000e+00 6.700000e-01
      endloop
   endfacet
   facet normal 0.000000e+00 0.000000e+00 -1.000000e+00
      outer loop
         vertex 3.740000e+00 0.000000e+00 6.700000e-01
         vertex 4.155000e+00 4.800000e-01 6.700000e-01
         vertex 4.155000e+00 0.000000e+00 6.700000e-01
      endloop
   endfacet
   facet normal 1.000000e+00 0.000000e+00 0.000000e+00
      outer loop
         vertex 4.155000e+00 -4.800000e-01 6.700000e-01
         vertex 4.155000e+00 0.000000e+00 6.700000e-01
         vertex 4.155000e+00 -4.800000e-01 9.100000e-01
      endloop
   endfacet
   facet normal 1.000000e+00 -0.000000e+00 0.000000e+00
      outer loop
         vertex 4.155000e+00 -4.800000e-01 9.100000e-01
         vertex 4.155000e+00 0.000000e+00 6.700000e-01
         vertex 4.155000e+00 0.000000e+00 9.100000e-01
      endloop
   endfacet
   facet normal 0.000000e+00 -1.000000e+00 0.000000e+00
      outer loop
         vertex 3.740000e+00 -4.800000e-01 8.250000e-01
         vertex 3.740000e+00 -4.800000e-01 6.700000e-01
         vertex 3.955000e+00 -4.800000e-01 8.250000e-01
      endloop
   endfacet
   facet normal 0.000000e+00 -1.000000e+00 -0.000000e+00
      outer loop
         vertex 3.955000e+00 -4.800000e-01 8.250000e-01
         vertex 3.740000e+00 -4.800000e-01 6.700000e-01
         vertex 4.155000e+00 -4.800000e-01 6.700000e-01
      endloop
   endfacet
   facet normal 0.000000e+00 -1.000000e+00 0.000000e+00
      outer loop
         vertex 3.955000e+00 -4.800000e-01 8.250000e-01
         vertex 4.155000e+00 -4.800000e-01 6.700000e-01
         vertex 4.130000e+00 -4.800000e-01 9.100000e-01
      endloop
   endfacet
   facet normal 0.000000e+00 -1.000000e+00 0.000000e+00
      outer loop
         vertex 4.130000e+00 -4.800000e-01 9.100000e-01
         vertex 4.155000e+00 -4.800000e-01 6.700000e-01
         vertex 4.155000e+00 -4.800000e-01 9.100000e-01
      endloop
   endfacet
   facet normal -1.000000e+00 -0.000000e+00 -0.000000e+00
      outer loop
         vertex 3.740000e+00 4.800000e-01 8.250000e-01
         vertex 3.740000e+00 4.800000e-01 6.700000e-01
         vertex 3.740000e+00 0.000000e+00 8.250000e-01
      endloop
   endfacet
   facet normal -1.000000e+00 0.000000e+00 0.000000e+00
      outer loop
         vertex 3.740000e+00 0.000000e+00 8.250000e-01
         vertex 3.740000e+00 4.800000e-01 6.700000e-01
         vertex 3.740000e+00 0.000000e+00 6.700000e-01
      endloop
   endfacet
   facet normal 0.000000e+00 -0.000000e+00 1.000000e+00
      outer loop
         vertex 3.955000e+00 -4.800000e-01 8.250000e-01
         vertex 3.955000e+00 0.000000e+00 8.250000e-01
         vertex 3.740000e+00 -4.800000e-01 8.250000e-01
      endloop
   endfacet
   facet normal 0.000000e+00 0.000000e+00 1.000000e+00
      outer loop
         vertex 3.740000e+00 -4.800000e-01 8.250000e-01
         vertex 3.955000e+00 0.000000e+00 8.250000e-01
         vertex 3.740000e+00 0.000000e+00 8.250000e-01
      endloop
   endfacet
   facet normal 0.000000e+00 0.000000e+00 -1.000000e+00
      outer loop
         vertex 3.740000e+00 -4.800000e-01 6.700000e-01
         vertex 3.740000e+00 0.000000e+00 6.700000e-01
         vertex 4.155000e+00 -4.800000e-01 6.700000e-01
      endloop
   endfacet
   facet normal 0.000000e+00 0.000000e+00 -1.000000e+00
      outer loop
         vertex 4.155000e+00 -4.800000e-01 6.700000e-01
         vertex 3.740000e+00 0.000000e+00 6.700000e-01
         vertex 4.155000e+00 0.000000e+00 6.700000e-01
      endloop
   endfacet
   facet normal -1.000000e+00 0.000000e+00 0.000000e+00
      outer loop
         vertex 3.740000e+00 -4.800000e-01 8.250000e-01
         vertex 3.740000e+00 0.000000e+00 8.250000e-01
         vertex 3.740000e+00 -4.800000e-01 6.700000e-01
      endloop
   endfacet
   facet normal -1.000000e+00 0.000000e+00 0.000000e+00
      outer loop
         vertex 3.740000e+00 -4.800000e-01 6.700000e-01
         vertex 3.740000e+00 0.000000e+00 8.250000e-01
         vertex 3.740000e+00 0.000000e+00 6.700000e-01
      endloop
   endfacet
endsolid RV_RR_WING_PROFILES_V01