solid engine_in
   facet normal 0.000000e+00 4.313844e-02 -9.990691e-01
      outer loop
         vertex 2.031293e+00 5.654611e-02 8.212556e-01
         vertex 1.931293e+00 5.654611e-02 8.212556e-01
         vertex 1.931293e+00 5.865816e-02 8.213468e-01
      endloop
   endfacet
   facet normal 0.000000e+00 4.313844e-02 -9.990691e-01
      outer loop
         vertex 2.031293e+00 5.654611e-02 8.212556e-01
         vertex 1.931293e+00 5.865816e-02 8.213468e-01
         vertex 2.031293e+00 5.865816e-02 8.213468e-01
      endloop
   endfacet
   facet normal 0.000000e+00 1.277628e-01 -9.918048e-01
      outer loop
         vertex 2.031293e+00 5.865816e-02 8.213468e-01
         vertex 1.931293e+00 5.865816e-02 8.213468e-01
         vertex 1.931293e+00 6.067970e-02 8.216072e-01
      endloop
   endfacet
   facet normal 0.000000e+00 1.277628e-01 -9.918048e-01
      outer loop
         vertex 2.031293e+00 5.865816e-02 8.213468e-01
         vertex 1.931293e+00 6.067970e-02 8.216072e-01
         vertex 2.031293e+00 6.067970e-02 8.216072e-01
      endloop
   endfacet
   facet normal 0.000000e+00 2.098642e-01 -9.777305e-01
      outer loop
         vertex 2.031293e+00 6.067970e-02 8.216072e-01
         vertex 1.931293e+00 6.067970e-02 8.216072e-01
         vertex 1.931293e+00 6.266158e-02 8.220326e-01
      endloop
   endfacet
   facet normal 0.000000e+00 2.098642e-01 -9.777305e-01
      outer loop
         vertex 2.031293e+00 6.067970e-02 8.216072e-01
         vertex 1.931293e+00 6.266158e-02 8.220326e-01
         vertex 2.031293e+00 6.266158e-02 8.220326e-01
      endloop
   endfacet
   facet normal 0.000000e+00 2.901034e-01 -9.569953e-01
      outer loop
         vertex 2.031293e+00 6.266158e-02 8.220326e-01
         vertex 1.931293e+00 6.266158e-02 8.220326e-01
         vertex 1.931293e+00 6.459125e-02 8.226176e-01
      endloop
   endfacet
   facet normal 0.000000e+00 2.901034e-01 -9.569953e-01
      outer loop
         vertex 2.031293e+00 6.266158e-02 8.220326e-01
         vertex 1.931293e+00 6.459125e-02 8.226176e-01
         vertex 2.031293e+00 6.459125e-02 8.226176e-01
      endloop
   endfacet
   facet normal 0.000000e+00 3.682276e-01 -9.297357e-01
      outer loop
         vertex 2.031293e+00 6.459125e-02 8.226176e-01
         vertex 1.931293e+00 6.459125e-02 8.226176e-01
         vertex 1.931293e+00 6.646913e-02 8.233613e-01
      endloop
   endfacet
   facet normal 0.000000e+00 3.682276e-01 -9.297357e-01
      outer loop
         vertex 2.031293e+00 6.459125e-02 8.226176e-01
         vertex 1.931293e+00 6.646913e-02 8.233613e-01
         vertex 2.031293e+00 6.646913e-02 8.233613e-01
      endloop
   endfacet
   facet normal 0.000000e+00 4.440704e-01 -8.959919e-01
      outer loop
         vertex 2.031293e+00 6.646913e-02 8.233613e-01
         vertex 1.931293e+00 6.646913e-02 8.233613e-01
         vertex 1.931293e+00 6.829809e-02 8.242678e-01
      endloop
   endfacet
   facet normal 0.000000e+00 4.440704e-01 -8.959919e-01
      outer loop
         vertex 2.031293e+00 6.646913e-02 8.233613e-01
         vertex 1.931293e+00 6.829809e-02 8.242678e-01
         vertex 2.031293e+00 6.829809e-02 8.242678e-01
      endloop
   endfacet
   facet normal 0.000000e+00 5.170087e-01 -8.559802e-01
      outer loop
         vertex 2.031293e+00 6.829809e-02 8.242678e-01
         vertex 1.931293e+00 6.829809e-02 8.242678e-01
         vertex 1.931293e+00 7.004697e-02 8.253241e-01
      endloop
   endfacet
   facet normal 0.000000e+00 5.170087e-01 -8.559802e-01
      outer loop
         vertex 2.031293e+00 6.829809e-02 8.242678e-01
         vertex 1.931293e+00 7.004697e-02 8.253241e-01
         vertex 2.031293e+00 7.004697e-02 8.253241e-01
      endloop
   endfacet
   facet normal 0.000000e+00 5.867952e-01 -8.097354e-01
      outer loop
         vertex 2.031293e+00 7.004697e-02 8.253241e-01
         vertex 1.931293e+00 7.004697e-02 8.253241e-01
         vertex 1.931293e+00 7.170966e-02 8.265290e-01
      endloop
   endfacet
   facet normal 0.000000e+00 5.867952e-01 -8.097354e-01
      outer loop
         vertex 2.031293e+00 7.004697e-02 8.253241e-01
         vertex 1.931293e+00 7.170966e-02 8.265290e-01
         vertex 2.031293e+00 7.170966e-02 8.265290e-01
      endloop
   endfacet
   facet normal 0.000000e+00 6.518480e-01 -7.583497e-01
      outer loop
         vertex 2.031293e+00 7.170966e-02 8.265290e-01
         vertex 1.931293e+00 7.170966e-02 8.265290e-01
         vertex 1.931293e+00 7.326148e-02 8.278629e-01
      endloop
   endfacet
   facet normal 0.000000e+00 6.518480e-01 -7.583497e-01
      outer loop
         vertex 2.031293e+00 7.170966e-02 8.265290e-01
         vertex 1.931293e+00 7.326148e-02 8.278629e-01
         vertex 2.031293e+00 7.326148e-02 8.278629e-01
      endloop
   endfacet
   facet normal 0.000000e+00 7.125716e-01 -7.015994e-01
      outer loop
         vertex 2.031293e+00 7.326148e-02 8.278629e-01
         vertex 1.931293e+00 7.326148e-02 8.278629e-01
         vertex 1.931293e+00 7.472314e-02 8.293474e-01
      endloop
   endfacet
   facet normal 0.000000e+00 7.125716e-01 -7.015994e-01
      outer loop
         vertex 2.031293e+00 7.326148e-02 8.278629e-01
         vertex 1.931293e+00 7.472314e-02 8.293474e-01
         vertex 2.031293e+00 7.472314e-02 8.293474e-01
      endloop
   endfacet
   facet normal 0.000000e+00 7.687949e-01 -6.394955e-01
      outer loop
         vertex 2.031293e+00 7.472314e-02 8.293474e-01
         vertex 1.931293e+00 7.472314e-02 8.293474e-01
         vertex 1.931293e+00 7.606512e-02 8.309608e-01
      endloop
   endfacet
   facet normal 0.000000e+00 7.687949e-01 -6.394955e-01
      outer loop
         vertex 2.031293e+00 7.472314e-02 8.293474e-01
         vertex 1.931293e+00 7.606512e-02 8.309608e-01
         vertex 2.031293e+00 7.606512e-02 8.309608e-01
      endloop
   endfacet
   facet normal 0.000000e+00 8.193932e-01 -5.732318e-01
      outer loop
         vertex 2.031293e+00 7.606512e-02 8.309608e-01
         vertex 1.931293e+00 7.606512e-02 8.309608e-01
         vertex 1.931293e+00 7.726153e-02 8.326709e-01
      endloop
   endfacet
   facet normal 0.000000e+00 8.193932e-01 -5.732318e-01
      outer loop
         vertex 2.031293e+00 7.606512e-02 8.309608e-01
         vertex 1.931293e+00 7.726153e-02 8.326709e-01
         vertex 2.031293e+00 7.726153e-02 8.326709e-01
      endloop
   endfacet
   facet normal 0.000000e+00 8.640095e-01 -5.034755e-01
      outer loop
         vertex 2.031293e+00 7.726153e-02 8.326709e-01
         vertex 1.931293e+00 7.726153e-02 8.326709e-01
         vertex 1.931293e+00 7.831602e-02 8.344805e-01
      endloop
   endfacet
   facet normal 0.000000e+00 8.640095e-01 -5.034755e-01
      outer loop
         vertex 2.031293e+00 7.726153e-02 8.326709e-01
         vertex 1.931293e+00 7.831602e-02 8.344805e-01
         vertex 2.031293e+00 7.831602e-02 8.344805e-01
      endloop
   endfacet
   facet normal 0.000000e+00 9.028662e-01 -4.299216e-01
      outer loop
         vertex 2.031293e+00 7.831602e-02 8.344805e-01
         vertex 1.931293e+00 7.831602e-02 8.344805e-01
         vertex 1.931293e+00 7.923208e-02 8.364043e-01
      endloop
   endfacet
   facet normal 0.000000e+00 9.028662e-01 -4.299216e-01
      outer loop
         vertex 2.031293e+00 7.831602e-02 8.344805e-01
         vertex 1.931293e+00 7.923208e-02 8.364043e-01
         vertex 2.031293e+00 7.923208e-02 8.364043e-01
      endloop
   endfacet
   facet normal 0.000000e+00 9.355046e-01 -3.533145e-01
      outer loop
         vertex 2.031293e+00 7.923208e-02 8.364043e-01
         vertex 1.931293e+00 7.923208e-02 8.364043e-01
         vertex 1.931293e+00 7.998593e-02 8.384004e-01
      endloop
   endfacet
   facet normal 0.000000e+00 9.355046e-01 -3.533145e-01
      outer loop
         vertex 2.031293e+00 7.923208e-02 8.364043e-01
         vertex 1.931293e+00 7.998593e-02 8.384004e-01
         vertex 2.031293e+00 7.998593e-02 8.384004e-01
      endloop
   endfacet
   facet normal 0.000000e+00 9.617719e-01 -2.738519e-01
      outer loop
         vertex 2.031293e+00 7.998593e-02 8.384004e-01
         vertex 1.931293e+00 7.998593e-02 8.384004e-01
         vertex 1.931293e+00 8.057351e-02 8.404639e-01
      endloop
   endfacet
   facet normal 0.000000e+00 9.617719e-01 -2.738519e-01
      outer loop
         vertex 2.031293e+00 7.998593e-02 8.384004e-01
         vertex 1.931293e+00 8.057351e-02 8.404639e-01
         vertex 2.031293e+00 8.057351e-02 8.404639e-01
      endloop
   endfacet
   facet normal 0.000000e+00 9.811691e-01 -1.931507e-01
      outer loop
         vertex 2.031293e+00 8.057351e-02 8.404639e-01
         vertex 1.931293e+00 8.057351e-02 8.404639e-01
         vertex 1.931293e+00 8.098510e-02 8.425547e-01
      endloop
   endfacet
   facet normal 0.000000e+00 9.811691e-01 -1.931507e-01
      outer loop
         vertex 2.031293e+00 8.057351e-02 8.404639e-01
         vertex 1.931293e+00 8.098510e-02 8.425547e-01
         vertex 2.031293e+00 8.098510e-02 8.425547e-01
      endloop
   endfacet
   facet normal 0.000000e+00 9.937727e-01 -1.114264e-01
      outer loop
         vertex 2.031293e+00 8.098510e-02 8.425547e-01
         vertex 1.931293e+00 8.098510e-02 8.425547e-01
         vertex 1.931293e+00 8.122504e-02 8.446947e-01
      endloop
   endfacet
   facet normal 0.000000e+00 9.937727e-01 -1.114264e-01
      outer loop
         vertex 2.031293e+00 8.098510e-02 8.425547e-01
         vertex 1.931293e+00 8.122504e-02 8.446947e-01
         vertex 2.031293e+00 8.122504e-02 8.446947e-01
      endloop
   endfacet
   facet normal 0.000000e+00 9.996034e-01 -2.816141e-02
      outer loop
         vertex 2.031293e+00 8.122504e-02 8.446947e-01
         vertex 1.931293e+00 8.122504e-02 8.446947e-01
         vertex 1.931293e+00 8.128636e-02 8.468712e-01
      endloop
   endfacet
   facet normal 0.000000e+00 9.996034e-01 -2.816141e-02
      outer loop
         vertex 2.031293e+00 8.122504e-02 8.446947e-01
         vertex 1.931293e+00 8.128636e-02 8.468712e-01
         vertex 2.031293e+00 8.128636e-02 8.468712e-01
      endloop
   endfacet
   facet normal 0.000000e+00 9.984939e-01 5.486268e-02
      outer loop
         vertex 2.031293e+00 8.128636e-02 8.468712e-01
         vertex 1.931293e+00 8.128636e-02 8.468712e-01
         vertex 1.931293e+00 8.116871e-02 8.490123e-01
      endloop
   endfacet
   facet normal 0.000000e+00 9.984939e-01 5.486268e-02
      outer loop
         vertex 2.031293e+00 8.128636e-02 8.468712e-01
         vertex 1.931293e+00 8.116871e-02 8.490123e-01
         vertex 2.031293e+00 8.116871e-02 8.490123e-01
      endloop
   endfacet
   facet normal 0.000000e+00 9.905745e-01 1.369753e-01
      outer loop
         vertex 2.031293e+00 8.116871e-02 8.490123e-01
         vertex 1.931293e+00 8.116871e-02 8.490123e-01
         vertex 1.931293e+00 8.087496e-02 8.511366e-01
      endloop
   endfacet
   facet normal 0.000000e+00 9.905745e-01 1.369753e-01
      outer loop
         vertex 2.031293e+00 8.116871e-02 8.490123e-01
         vertex 1.931293e+00 8.087496e-02 8.511366e-01
         vertex 2.031293e+00 8.087496e-02 8.511366e-01
      endloop
   endfacet
   facet normal 0.000000e+00 9.757996e-01 2.186667e-01
      outer loop
         vertex 2.031293e+00 8.087496e-02 8.511366e-01
         vertex 1.931293e+00 8.087496e-02 8.511366e-01
         vertex 1.931293e+00 8.040244e-02 8.532453e-01
      endloop
   endfacet
   facet normal 0.000000e+00 9.757996e-01 2.186667e-01
      outer loop
         vertex 2.031293e+00 8.087496e-02 8.511366e-01
         vertex 1.931293e+00 8.040244e-02 8.532453e-01
         vertex 2.031293e+00 8.040244e-02 8.532453e-01
      endloop
   endfacet
   facet normal 0.000000e+00 9.659258e-01 2.588192e-01
      outer loop
         vertex 2.031293e+00 6.614078e-02 9.064705e-01
         vertex 2.031293e+00 8.040244e-02 8.532453e-01
         vertex 1.931293e+00 6.614078e-02 9.064705e-01
      endloop
   endfacet
   facet normal 0.000000e+00 9.659258e-01 2.588192e-01
      outer loop
         vertex 1.931293e+00 6.614078e-02 9.064705e-01
         vertex 2.031293e+00 8.040244e-02 8.532453e-01
         vertex 1.931293e+00 8.040244e-02 8.532453e-01
      endloop
   endfacet
   facet normal 0.000000e+00 9.537168e-01 3.007063e-01
      outer loop
         vertex 2.031293e+00 6.614078e-02 9.064705e-01
         vertex 1.931293e+00 6.614078e-02 9.064705e-01
         vertex 1.931293e+00 6.548495e-02 9.085505e-01
      endloop
   endfacet
   facet normal 0.000000e+00 9.537168e-01 3.007063e-01
      outer loop
         vertex 2.031293e+00 6.614078e-02 9.064705e-01
         vertex 1.931293e+00 6.548495e-02 9.085505e-01
         vertex 2.031293e+00 6.548495e-02 9.085505e-01
      endloop
   endfacet
   facet normal 0.000000e+00 9.238782e-01 3.826866e-01
      outer loop
         vertex 2.031293e+00 6.548495e-02 9.085505e-01
         vertex 1.931293e+00 6.548495e-02 9.085505e-01
         vertex 1.931293e+00 6.465033e-02 9.105654e-01
      endloop
   endfacet
   facet normal 0.000000e+00 9.238782e-01 3.826866e-01
      outer loop
         vertex 2.031293e+00 6.548495e-02 9.085505e-01
         vertex 1.931293e+00 6.465033e-02 9.105654e-01
         vertex 2.031293e+00 6.465033e-02 9.105654e-01
      endloop
   endfacet
   facet normal 0.000000e+00 8.870155e-01 4.617396e-01
      outer loop
         vertex 2.031293e+00 6.465033e-02 9.105654e-01
         vertex 1.931293e+00 6.465033e-02 9.105654e-01
         vertex 1.931293e+00 6.364327e-02 9.125000e-01
      endloop
   endfacet
   facet normal 0.000000e+00 8.870155e-01 4.617396e-01
      outer loop
         vertex 2.031293e+00 6.465033e-02 9.105654e-01
         vertex 1.931293e+00 6.364327e-02 9.125000e-01
         vertex 2.031293e+00 6.364327e-02 9.125000e-01
      endloop
   endfacet
   facet normal 0.000000e+00 8.433898e-01 5.373023e-01
      outer loop
         vertex 2.031293e+00 6.364327e-02 9.125000e-01
         vertex 1.931293e+00 6.364327e-02 9.125000e-01
         vertex 1.931293e+00 6.247143e-02 9.143394e-01
      endloop
   endfacet
   facet normal 0.000000e+00 8.433898e-01 5.373023e-01
      outer loop
         vertex 2.031293e+00 6.364327e-02 9.125000e-01
         vertex 1.931293e+00 6.247143e-02 9.143394e-01
         vertex 2.031293e+00 6.247143e-02 9.143394e-01
      endloop
   endfacet
   facet normal 0.000000e+00 7.933507e-01 6.087649e-01
      outer loop
         vertex 2.031293e+00 6.247143e-02 9.143394e-01
         vertex 1.931293e+00 6.247143e-02 9.143394e-01
         vertex 1.931293e+00 6.114374e-02 9.160697e-01
      endloop
   endfacet
   facet normal 0.000000e+00 7.933507e-01 6.087649e-01
      outer loop
         vertex 2.031293e+00 6.247143e-02 9.143394e-01
         vertex 1.931293e+00 6.114374e-02 9.160697e-01
         vertex 2.031293e+00 6.114374e-02 9.160697e-01
      endloop
   endfacet
   facet normal 0.000000e+00 7.372721e-01 6.755959e-01
      outer loop
         vertex 2.031293e+00 6.114374e-02 9.160697e-01
         vertex 1.931293e+00 6.114374e-02 9.160697e-01
         vertex 1.931293e+00 5.967030e-02 9.176776e-01
      endloop
   endfacet
   facet normal 0.000000e+00 7.372721e-01 6.755959e-01
      outer loop
         vertex 2.031293e+00 6.114374e-02 9.160697e-01
         vertex 1.931293e+00 5.967030e-02 9.176776e-01
         vertex 2.031293e+00 5.967030e-02 9.176776e-01
      endloop
   endfacet
   facet normal 0.000000e+00 6.756019e-01 7.372666e-01
      outer loop
         vertex 2.031293e+00 5.967030e-02 9.176776e-01
         vertex 1.931293e+00 5.967030e-02 9.176776e-01
         vertex 1.931293e+00 5.806233e-02 9.191511e-01
      endloop
   endfacet
   facet normal 0.000000e+00 6.756019e-01 7.372666e-01
      outer loop
         vertex 2.031293e+00 5.967030e-02 9.176776e-01
         vertex 1.931293e+00 5.806233e-02 9.191511e-01
         vertex 2.031293e+00 5.806233e-02 9.191511e-01
      endloop
   endfacet
   facet normal 0.000000e+00 6.087619e-01 7.933530e-01
      outer loop
         vertex 2.031293e+00 5.806233e-02 9.191511e-01
         vertex 1.931293e+00 5.806233e-02 9.191511e-01
         vertex 1.931293e+00 5.633204e-02 9.204788e-01
      endloop
   endfacet
   facet normal 0.000000e+00 6.087619e-01 7.933530e-01
      outer loop
         vertex 2.031293e+00 5.806233e-02 9.191511e-01
         vertex 1.931293e+00 5.633204e-02 9.204788e-01
         vertex 2.031293e+00 5.633204e-02 9.204788e-01
      endloop
   endfacet
   facet normal 0.000000e+00 5.372975e-01 8.433928e-01
      outer loop
         vertex 2.031293e+00 5.633204e-02 9.204788e-01
         vertex 1.931293e+00 5.633204e-02 9.204788e-01
         vertex 1.931293e+00 5.449263e-02 9.216506e-01
      endloop
   endfacet
   facet normal 0.000000e+00 5.372975e-01 8.433928e-01
      outer loop
         vertex 2.031293e+00 5.633204e-02 9.204788e-01
         vertex 1.931293e+00 5.449263e-02 9.216506e-01
         vertex 2.031293e+00 5.449263e-02 9.216506e-01
      endloop
   endfacet
   facet normal 0.000000e+00 4.617345e-01 8.870182e-01
      outer loop
         vertex 2.031293e+00 5.449263e-02 9.216506e-01
         vertex 1.931293e+00 5.449263e-02 9.216506e-01
         vertex 1.931293e+00 5.255809e-02 9.226577e-01
      endloop
   endfacet
   facet normal 0.000000e+00 4.617345e-01 8.870182e-01
      outer loop
         vertex 2.031293e+00 5.449263e-02 9.216506e-01
         vertex 1.931293e+00 5.255809e-02 9.226577e-01
         vertex 2.031293e+00 5.255809e-02 9.226577e-01
      endloop
   endfacet
   facet normal 0.000000e+00 3.826923e-01 9.238759e-01
      outer loop
         vertex 2.031293e+00 5.255809e-02 9.226577e-01
         vertex 1.931293e+00 5.255809e-02 9.226577e-01
         vertex 1.931293e+00 5.054314e-02 9.234923e-01
      endloop
   endfacet
   facet normal 0.000000e+00 3.826923e-01 9.238759e-01
      outer loop
         vertex 2.031293e+00 5.255809e-02 9.226577e-01
         vertex 1.931293e+00 5.054314e-02 9.234923e-01
         vertex 2.031293e+00 5.054314e-02 9.234923e-01
      endloop
   endfacet
   facet normal 0.000000e+00 3.007058e-01 9.537170e-01
      outer loop
         vertex 2.031293e+00 5.054314e-02 9.234923e-01
         vertex 1.931293e+00 5.054314e-02 9.234923e-01
         vertex 1.931293e+00 4.846311e-02 9.241481e-01
      endloop
   endfacet
   facet normal 0.000000e+00 3.007058e-01 9.537170e-01
      outer loop
         vertex 2.031293e+00 5.054314e-02 9.234923e-01
         vertex 1.931293e+00 4.846311e-02 9.241481e-01
         vertex 2.031293e+00 4.846311e-02 9.241481e-01
      endloop
   endfacet
   facet normal 0.000000e+00 2.164486e-01 9.762940e-01
      outer loop
         vertex 2.031293e+00 4.846311e-02 9.241481e-01
         vertex 1.931293e+00 4.846311e-02 9.241481e-01
         vertex 1.931293e+00 4.633384e-02 9.246202e-01
      endloop
   endfacet
   facet normal 0.000000e+00 2.164486e-01 9.762940e-01
      outer loop
         vertex 2.031293e+00 4.846311e-02 9.241481e-01
         vertex 1.931293e+00 4.633384e-02 9.246202e-01
         vertex 2.031293e+00 4.633384e-02 9.246202e-01
      endloop
   endfacet
   facet normal 0.000000e+00 1.305253e-01 9.914450e-01
      outer loop
         vertex 2.031293e+00 4.633384e-02 9.246202e-01
         vertex 1.931293e+00 4.633384e-02 9.246202e-01
         vertex 1.931293e+00 4.417153e-02 9.249049e-01
      endloop
   endfacet
   facet normal 0.000000e+00 1.305253e-01 9.914450e-01
      outer loop
         vertex 2.031293e+00 4.633384e-02 9.246202e-01
         vertex 1.931293e+00 4.417153e-02 9.249049e-01
         vertex 2.031293e+00 4.417153e-02 9.249049e-01
      endloop
   endfacet
   facet normal 0.000000e+00 4.361779e-02 9.990483e-01
      outer loop
         vertex 2.031293e+00 4.417153e-02 9.249049e-01
         vertex 1.931293e+00 4.417153e-02 9.249049e-01
         vertex 1.931293e+00 4.199263e-02 9.250000e-01
      endloop
   endfacet
   facet normal 0.000000e+00 4.361779e-02 9.990483e-01
      outer loop
         vertex 2.031293e+00 4.417153e-02 9.249049e-01
         vertex 1.931293e+00 4.199263e-02 9.250000e-01
         vertex 2.031293e+00 4.199263e-02 9.250000e-01
      endloop
   endfacet
   facet normal 0.000000e+00 -0.000000e+00 1.000000e+00
      outer loop
         vertex 2.031293e+00 -4.199263e-02 9.250000e-01
         vertex 2.031293e+00 4.199263e-02 9.250000e-01
         vertex 1.931293e+00 -4.199263e-02 9.250000e-01
      endloop
   endfacet
   facet normal 0.000000e+00 0.000000e+00 1.000000e+00
      outer loop
         vertex 1.931293e+00 -4.199263e-02 9.250000e-01
         vertex 2.031293e+00 4.199263e-02 9.250000e-01
         vertex 1.931293e+00 4.199263e-02 9.250000e-01
      endloop
   endfacet
   facet normal 0.000000e+00 -4.361779e-02 9.990483e-01
      outer loop
         vertex 2.031293e+00 -4.199263e-02 9.250000e-01
         vertex 1.931293e+00 -4.199263e-02 9.250000e-01
         vertex 1.931293e+00 -4.417153e-02 9.249049e-01
      endloop
   endfacet
   facet normal 0.000000e+00 -4.361779e-02 9.990483e-01
      outer loop
         vertex 2.031293e+00 -4.199263e-02 9.250000e-01
         vertex 1.931293e+00 -4.417153e-02 9.249049e-01
         vertex 2.031293e+00 -4.417153e-02 9.249049e-01
      endloop
   endfacet
   facet normal 0.000000e+00 -1.305253e-01 9.914450e-01
      outer loop
         vertex 2.031293e+00 -4.417153e-02 9.249049e-01
         vertex 1.931293e+00 -4.417153e-02 9.249049e-01
         vertex 1.931293e+00 -4.633384e-02 9.246202e-01
      endloop
   endfacet
   facet normal 0.000000e+00 -1.305253e-01 9.914450e-01
      outer loop
         vertex 2.031293e+00 -4.417153e-02 9.249049e-01
         vertex 1.931293e+00 -4.633384e-02 9.246202e-01
         vertex 2.031293e+00 -4.633384e-02 9.246202e-01
      endloop
   endfacet
   facet normal 0.000000e+00 -2.164486e-01 9.762940e-01
      outer loop
         vertex 2.031293e+00 -4.633384e-02 9.246202e-01
         vertex 1.931293e+00 -4.633384e-02 9.246202e-01
         vertex 1.931293e+00 -4.846311e-02 9.241481e-01
      endloop
   endfacet
   facet normal 0.000000e+00 -2.164486e-01 9.762940e-01
      outer loop
         vertex 2.031293e+00 -4.633384e-02 9.246202e-01
         vertex 1.931293e+00 -4.846311e-02 9.241481e-01
         vertex 2.031293e+00 -4.846311e-02 9.241481e-01
      endloop
   endfacet
   facet normal 0.000000e+00 -3.007058e-01 9.537170e-01
      outer loop
         vertex 2.031293e+00 -4.846311e-02 9.241481e-01
         vertex 1.931293e+00 -4.846311e-02 9.241481e-01
         vertex 1.931293e+00 -5.054314e-02 9.234923e-01
      endloop
   endfacet
   facet normal 0.000000e+00 -3.007058e-01 9.537170e-01
      outer loop
         vertex 2.031293e+00 -4.846311e-02 9.241481e-01
         vertex 1.931293e+00 -5.054314e-02 9.234923e-01
         vertex 2.031293e+00 -5.054314e-02 9.234923e-01
      endloop
   endfacet
   facet normal 0.000000e+00 -3.826923e-01 9.238759e-01
      outer loop
         vertex 2.031293e+00 -5.054314e-02 9.234923e-01
         vertex 1.931293e+00 -5.054314e-02 9.234923e-01
         vertex 1.931293e+00 -5.255809e-02 9.226577e-01
      endloop
   endfacet
   facet normal 0.000000e+00 -3.826923e-01 9.238759e-01
      outer loop
         vertex 2.031293e+00 -5.054314e-02 9.234923e-01
         vertex 1.931293e+00 -5.255809e-02 9.226577e-01
         vertex 2.031293e+00 -5.255809e-02 9.226577e-01
      endloop
   endfacet
   facet normal 0.000000e+00 -4.617345e-01 8.870182e-01
      outer loop
         vertex 2.031293e+00 -5.255809e-02 9.226577e-01
         vertex 1.931293e+00 -5.255809e-02 9.226577e-01
         vertex 1.931293e+00 -5.449263e-02 9.216506e-01
      endloop
   endfacet
   facet normal 0.000000e+00 -4.617345e-01 8.870182e-01
      outer loop
         vertex 2.031293e+00 -5.255809e-02 9.226577e-01
         vertex 1.931293e+00 -5.449263e-02 9.216506e-01
         vertex 2.031293e+00 -5.449263e-02 9.216506e-01
      endloop
   endfacet
   facet normal 0.000000e+00 -5.372975e-01 8.433928e-01
      outer loop
         vertex 2.031293e+00 -5.449263e-02 9.216506e-01
         vertex 1.931293e+00 -5.449263e-02 9.216506e-01
         vertex 1.931293e+00 -5.633204e-02 9.204788e-01
      endloop
   endfacet
   facet normal 0.000000e+00 -5.372975e-01 8.433928e-01
      outer loop
         vertex 2.031293e+00 -5.449263e-02 9.216506e-01
         vertex 1.931293e+00 -5.633204e-02 9.204788e-01
         vertex 2.031293e+00 -5.633204e-02 9.204788e-01
      endloop
   endfacet
   facet normal 0.000000e+00 -6.087619e-01 7.933530e-01
      outer loop
         vertex 2.031293e+00 -5.633204e-02 9.204788e-01
         vertex 1.931293e+00 -5.633204e-02 9.204788e-01
         vertex 1.931293e+00 -5.806233e-02 9.191511e-01
      endloop
   endfacet
   facet normal 0.000000e+00 -6.087619e-01 7.933530e-01
      outer loop
         vertex 2.031293e+00 -5.633204e-02 9.204788e-01
         vertex 1.931293e+00 -5.806233e-02 9.191511e-01
         vertex 2.031293e+00 -5.806233e-02 9.191511e-01
      endloop
   endfacet
   facet normal 0.000000e+00 -6.756019e-01 7.372666e-01
      outer loop
         vertex 2.031293e+00 -5.806233e-02 9.191511e-01
         vertex 1.931293e+00 -5.806233e-02 9.191511e-01
         vertex 1.931293e+00 -5.967030e-02 9.176776e-01
      endloop
   endfacet
   facet normal 0.000000e+00 -6.756019e-01 7.372666e-01
      outer loop
         vertex 2.031293e+00 -5.806233e-02 9.191511e-01
         vertex 1.931293e+00 -5.967030e-02 9.176776e-01
         vertex 2.031293e+00 -5.967030e-02 9.176776e-01
      endloop
   endfacet
   facet normal 0.000000e+00 -7.372721e-01 6.755959e-01
      outer loop
         vertex 2.031293e+00 -5.967030e-02 9.176776e-01
         vertex 1.931293e+00 -5.967030e-02 9.176776e-01
         vertex 1.931293e+00 -6.114374e-02 9.160697e-01
      endloop
   endfacet
   facet normal 0.000000e+00 -7.372721e-01 6.755959e-01
      outer loop
         vertex 2.031293e+00 -5.967030e-02 9.176776e-01
         vertex 1.931293e+00 -6.114374e-02 9.160697e-01
         vertex 2.031293e+00 -6.114374e-02 9.160697e-01
      endloop
   endfacet
   facet normal 0.000000e+00 -7.933507e-01 6.087649e-01
      outer loop
         vertex 2.031293e+00 -6.114374e-02 9.160697e-01
         vertex 1.931293e+00 -6.114374e-02 9.160697e-01
         vertex 1.931293e+00 -6.247143e-02 9.143394e-01
      endloop
   endfacet
   facet normal 0.000000e+00 -7.933507e-01 6.087649e-01
      outer loop
         vertex 2.031293e+00 -6.114374e-02 9.160697e-01
         vertex 1.931293e+00 -6.247143e-02 9.143394e-01
         vertex 2.031293e+00 -6.247143e-02 9.143394e-01
      endloop
   endfacet
   facet normal 0.000000e+00 -8.433898e-01 5.373023e-01
      outer loop
         vertex 2.031293e+00 -6.247143e-02 9.143394e-01
         vertex 1.931293e+00 -6.247143e-02 9.143394e-01
         vertex 1.931293e+00 -6.364327e-02 9.125000e-01
      endloop
   endfacet
   facet normal 0.000000e+00 -8.433898e-01 5.373023e-01
      outer loop
         vertex 2.031293e+00 -6.247143e-02 9.143394e-01
         vertex 1.931293e+00 -6.364327e-02 9.125000e-01
         vertex 2.031293e+00 -6.364327e-02 9.125000e-01
      endloop
   endfacet
   facet normal 0.000000e+00 -8.870155e-01 4.617396e-01
      outer loop
         vertex 2.031293e+00 -6.364327e-02 9.125000e-01
         vertex 1.931293e+00 -6.364327e-02 9.125000e-01
         vertex 1.931293e+00 -6.465033e-02 9.105654e-01
      endloop
   endfacet
   facet normal 0.000000e+00 -8.870155e-01 4.617396e-01
      outer loop
         vertex 2.031293e+00 -6.364327e-02 9.125000e-01
         vertex 1.931293e+00 -6.465033e-02 9.105654e-01
         vertex 2.031293e+00 -6.465033e-02 9.105654e-01
      endloop
   endfacet
   facet normal 0.000000e+00 -9.238782e-01 3.826866e-01
      outer loop
         vertex 2.031293e+00 -6.465033e-02 9.105654e-01
         vertex 1.931293e+00 -6.465033e-02 9.105654e-01
         vertex 1.931293e+00 -6.548495e-02 9.085505e-01
      endloop
   endfacet
   facet normal 0.000000e+00 -9.238782e-01 3.826866e-01
      outer loop
         vertex 2.031293e+00 -6.465033e-02 9.105654e-01
         vertex 1.931293e+00 -6.548495e-02 9.085505e-01
         vertex 2.031293e+00 -6.548495e-02 9.085505e-01
      endloop
   endfacet
   facet normal 0.000000e+00 -9.537168e-01 3.007063e-01
      outer loop
         vertex 2.031293e+00 -6.548495e-02 9.085505e-01
         vertex 1.931293e+00 -6.548495e-02 9.085505e-01
         vertex 1.931293e+00 -6.614078e-02 9.064705e-01
      endloop
   endfacet
   facet normal 0.000000e+00 -9.537168e-01 3.007063e-01
      outer loop
         vertex 2.031293e+00 -6.548495e-02 9.085505e-01
         vertex 1.931293e+00 -6.614078e-02 9.064705e-01
         vertex 2.031293e+00 -6.614078e-02 9.064705e-01
      endloop
   endfacet
   facet normal 0.000000e+00 -9.659258e-01 2.588192e-01
      outer loop
         vertex 2.031293e+00 -8.040244e-02 8.532453e-01
         vertex 2.031293e+00 -6.614078e-02 9.064705e-01
         vertex 1.931293e+00 -8.040244e-02 8.532453e-01
      endloop
   endfacet
   facet normal 0.000000e+00 -9.659258e-01 2.588192e-01
      outer loop
         vertex 1.931293e+00 -8.040244e-02 8.532453e-01
         vertex 2.031293e+00 -6.614078e-02 9.064705e-01
         vertex 1.931293e+00 -6.614078e-02 9.064705e-01
      endloop
   endfacet
   facet normal 0.000000e+00 -9.682095e-01 2.501408e-01
      outer loop
         vertex 2.031293e+00 -8.040244e-02 8.532453e-01
         vertex 1.931293e+00 -8.040244e-02 8.532453e-01
         vertex 1.931293e+00 -8.052041e-02 8.527886e-01
      endloop
   endfacet
   facet normal 0.000000e+00 -9.682095e-01 2.501408e-01
      outer loop
         vertex 2.031293e+00 -8.040244e-02 8.532453e-01
         vertex 1.931293e+00 -8.052041e-02 8.527886e-01
         vertex 2.031293e+00 -8.052041e-02 8.527886e-01
      endloop
   endfacet
   facet normal 0.000000e+00 -9.791406e-01 2.031839e-01
      outer loop
         vertex 2.031293e+00 -8.052041e-02 8.527886e-01
         vertex 1.931293e+00 -8.052041e-02 8.527886e-01
         vertex 1.931293e+00 -8.093543e-02 8.507887e-01
      endloop
   endfacet
   facet normal 0.000000e+00 -9.791406e-01 2.031839e-01
      outer loop
         vertex 2.031293e+00 -8.052041e-02 8.527886e-01
         vertex 1.931293e+00 -8.093543e-02 8.507887e-01
         vertex 2.031293e+00 -8.093543e-02 8.507887e-01
      endloop
   endfacet
   facet normal 0.000000e+00 -9.923887e-01 1.231450e-01
      outer loop
         vertex 2.031293e+00 -8.093543e-02 8.507887e-01
         vertex 1.931293e+00 -8.093543e-02 8.507887e-01
         vertex 1.931293e+00 -8.120146e-02 8.486448e-01
      endloop
   endfacet
   facet normal 0.000000e+00 -9.923887e-01 1.231450e-01
      outer loop
         vertex 2.031293e+00 -8.093543e-02 8.507887e-01
         vertex 1.931293e+00 -8.120146e-02 8.486448e-01
         vertex 2.031293e+00 -8.120146e-02 8.486448e-01
      endloop
   endfacet
   facet normal 0.000000e+00 -9.991621e-01 4.092787e-02
      outer loop
         vertex 2.031293e+00 -8.120146e-02 8.486448e-01
         vertex 1.931293e+00 -8.120146e-02 8.486448e-01
         vertex 1.931293e+00 -8.128883e-02 8.465120e-01
      endloop
   endfacet
   facet normal 0.000000e+00 -9.991621e-01 4.092787e-02
      outer loop
         vertex 2.031293e+00 -8.120146e-02 8.486448e-01
         vertex 1.931293e+00 -8.128883e-02 8.465120e-01
         vertex 2.031293e+00 -8.128883e-02 8.465120e-01
      endloop
   endfacet
   facet normal -0.000000e+00 -9.991405e-01 -4.145175e-02
      outer loop
         vertex 2.031293e+00 -8.128883e-02 8.465120e-01
         vertex 1.931293e+00 -8.128883e-02 8.465120e-01
         vertex 1.931293e+00 -8.119974e-02 8.443645e-01
      endloop
   endfacet
   facet normal 0.000000e+00 -9.991405e-01 -4.145175e-02
      outer loop
         vertex 2.031293e+00 -8.128883e-02 8.465120e-01
         vertex 1.931293e+00 -8.119974e-02 8.443645e-01
         vertex 2.031293e+00 -8.119974e-02 8.443645e-01
      endloop
   endfacet
   facet normal -0.000000e+00 -9.922511e-01 -1.242487e-01
      outer loop
         vertex 2.031293e+00 -8.119974e-02 8.443645e-01
         vertex 1.931293e+00 -8.119974e-02 8.443645e-01
         vertex 1.931293e+00 -8.093141e-02 8.422216e-01
      endloop
   endfacet
   facet normal 0.000000e+00 -9.922511e-01 -1.242487e-01
      outer loop
         vertex 2.031293e+00 -8.119974e-02 8.443645e-01
         vertex 1.931293e+00 -8.093141e-02 8.422216e-01
         vertex 2.031293e+00 -8.093141e-02 8.422216e-01
      endloop
   endfacet
   facet normal -0.000000e+00 -9.786244e-01 -2.056558e-01
      outer loop
         vertex 2.031293e+00 -8.093141e-02 8.422216e-01
         vertex 1.931293e+00 -8.093141e-02 8.422216e-01
         vertex 1.931293e+00 -8.049594e-02 8.401494e-01
      endloop
   endfacet
   facet normal 0.000000e+00 -9.786244e-01 -2.056558e-01
      outer loop
         vertex 2.031293e+00 -8.093141e-02 8.422216e-01
         vertex 1.931293e+00 -8.049594e-02 8.401494e-01
         vertex 2.031293e+00 -8.049594e-02 8.401494e-01
      endloop
   endfacet
   facet normal -0.000000e+00 -9.584226e-01 -2.853526e-01
      outer loop
         vertex 2.031293e+00 -8.049594e-02 8.401494e-01
         vertex 1.931293e+00 -8.049594e-02 8.401494e-01
         vertex 1.931293e+00 -7.989378e-02 8.381269e-01
      endloop
   endfacet
   facet normal 0.000000e+00 -9.584226e-01 -2.853526e-01
      outer loop
         vertex 2.031293e+00 -8.049594e-02 8.401494e-01
         vertex 1.931293e+00 -7.989378e-02 8.381269e-01
         vertex 2.031293e+00 -7.989378e-02 8.381269e-01
      endloop
   endfacet
   facet normal -0.000000e+00 -9.316505e-01 -3.633557e-01
      outer loop
         vertex 2.031293e+00 -7.989378e-02 8.381269e-01
         vertex 1.931293e+00 -7.989378e-02 8.381269e-01
         vertex 1.931293e+00 -7.912768e-02 8.361626e-01
      endloop
   endfacet
   facet normal 0.000000e+00 -9.316505e-01 -3.633557e-01
      outer loop
         vertex 2.031293e+00 -7.989378e-02 8.381269e-01
         vertex 1.931293e+00 -7.912768e-02 8.361626e-01
         vertex 2.031293e+00 -7.912768e-02 8.361626e-01
      endloop
   endfacet
   facet normal -0.000000e+00 -8.985200e-01 -4.389326e-01
      outer loop
         vertex 2.031293e+00 -7.912768e-02 8.361626e-01
         vertex 1.931293e+00 -7.912768e-02 8.361626e-01
         vertex 1.931293e+00 -7.820018e-02 8.342640e-01
      endloop
   endfacet
   facet normal 0.000000e+00 -8.985200e-01 -4.389326e-01
      outer loop
         vertex 2.031293e+00 -7.912768e-02 8.361626e-01
         vertex 1.931293e+00 -7.820018e-02 8.342640e-01
         vertex 2.031293e+00 -7.820018e-02 8.342640e-01
      endloop
   endfacet
   facet normal -0.000000e+00 -8.591591e-01 -5.117086e-01
      outer loop
         vertex 2.031293e+00 -7.820018e-02 8.342640e-01
         vertex 1.931293e+00 -7.820018e-02 8.342640e-01
         vertex 1.931293e+00 -7.713199e-02 8.324705e-01
      endloop
   endfacet
   facet normal 0.000000e+00 -8.591591e-01 -5.117086e-01
      outer loop
         vertex 2.031293e+00 -7.820018e-02 8.342640e-01
         vertex 1.931293e+00 -7.713199e-02 8.324705e-01
         vertex 2.031293e+00 -7.713199e-02 8.324705e-01
      endloop
   endfacet
   facet normal -0.000000e+00 -8.139578e-01 -5.809239e-01
      outer loop
         vertex 2.031293e+00 -7.713199e-02 8.324705e-01
         vertex 1.931293e+00 -7.713199e-02 8.324705e-01
         vertex 1.931293e+00 -7.592147e-02 8.307744e-01
      endloop
   endfacet
   facet normal 0.000000e+00 -8.139578e-01 -5.809239e-01
      outer loop
         vertex 2.031293e+00 -7.713199e-02 8.324705e-01
         vertex 1.931293e+00 -7.592147e-02 8.307744e-01
         vertex 2.031293e+00 -7.592147e-02 8.307744e-01
      endloop
   endfacet
   facet normal -0.000000e+00 -7.633230e-01 -6.460170e-01
      outer loop
         vertex 2.031293e+00 -7.592147e-02 8.307744e-01
         vertex 1.931293e+00 -7.592147e-02 8.307744e-01
         vertex 1.931293e+00 -7.459452e-02 8.292065e-01
      endloop
   endfacet
   facet normal 0.000000e+00 -7.633230e-01 -6.460170e-01
      outer loop
         vertex 2.031293e+00 -7.592147e-02 8.307744e-01
         vertex 1.931293e+00 -7.459452e-02 8.292065e-01
         vertex 2.031293e+00 -7.459452e-02 8.292065e-01
      endloop
   endfacet
   facet normal -0.000000e+00 -7.072863e-01 -7.069272e-01
      outer loop
         vertex 2.031293e+00 -7.459452e-02 8.292065e-01
         vertex 1.931293e+00 -7.459452e-02 8.292065e-01
         vertex 1.931293e+00 -7.312774e-02 8.277389e-01
      endloop
   endfacet
   facet normal 0.000000e+00 -7.072863e-01 -7.069272e-01
      outer loop
         vertex 2.031293e+00 -7.459452e-02 8.292065e-01
         vertex 1.931293e+00 -7.312774e-02 8.277389e-01
         vertex 2.031293e+00 -7.312774e-02 8.277389e-01
      endloop
   endfacet
   facet normal -0.000000e+00 -6.464248e-01 -7.629777e-01
      outer loop
         vertex 2.031293e+00 -7.312774e-02 8.277389e-01
         vertex 1.931293e+00 -7.312774e-02 8.277389e-01
         vertex 1.931293e+00 -7.157452e-02 8.264230e-01
      endloop
   endfacet
   facet normal 0.000000e+00 -6.464248e-01 -7.629777e-01
      outer loop
         vertex 2.031293e+00 -7.312774e-02 8.277389e-01
         vertex 1.931293e+00 -7.157452e-02 8.264230e-01
         vertex 2.031293e+00 -7.157452e-02 8.264230e-01
      endloop
   endfacet
   facet normal -0.000000e+00 -5.816887e-01 -8.134115e-01
      outer loop
         vertex 2.031293e+00 -7.157452e-02 8.264230e-01
         vertex 1.931293e+00 -7.157452e-02 8.264230e-01
         vertex 1.931293e+00 -6.993204e-02 8.252484e-01
      endloop
   endfacet
   facet normal 0.000000e+00 -5.816887e-01 -8.134115e-01
      outer loop
         vertex 2.031293e+00 -7.157452e-02 8.264230e-01
         vertex 1.931293e+00 -6.993204e-02 8.252484e-01
         vertex 2.031293e+00 -6.993204e-02 8.252484e-01
      endloop
   endfacet
   facet normal -0.000000e+00 -5.125745e-01 -8.586427e-01
      outer loop
         vertex 2.031293e+00 -6.993204e-02 8.252484e-01
         vertex 1.931293e+00 -6.993204e-02 8.252484e-01
         vertex 1.931293e+00 -6.819690e-02 8.242126e-01
      endloop
   endfacet
   facet normal 0.000000e+00 -5.125745e-01 -8.586427e-01
      outer loop
         vertex 2.031293e+00 -6.993204e-02 8.252484e-01
         vertex 1.931293e+00 -6.819690e-02 8.242126e-01
         vertex 2.031293e+00 -6.819690e-02 8.242126e-01
      endloop
   endfacet
   facet normal -0.000000e+00 -4.399084e-01 -8.980427e-01
      outer loop
         vertex 2.031293e+00 -6.819690e-02 8.242126e-01
         vertex 1.931293e+00 -6.819690e-02 8.242126e-01
         vertex 1.931293e+00 -6.636649e-02 8.233160e-01
      endloop
   endfacet
   facet normal 0.000000e+00 -4.399084e-01 -8.980427e-01
      outer loop
         vertex 2.031293e+00 -6.819690e-02 8.242126e-01
         vertex 1.931293e+00 -6.636649e-02 8.233160e-01
         vertex 2.031293e+00 -6.636649e-02 8.233160e-01
      endloop
   endfacet
   facet normal -0.000000e+00 -3.638177e-01 -9.314702e-01
      outer loop
         vertex 2.031293e+00 -6.636649e-02 8.233160e-01
         vertex 1.931293e+00 -6.636649e-02 8.233160e-01
         vertex 1.931293e+00 -6.447908e-02 8.225788e-01
      endloop
   endfacet
   facet normal 0.000000e+00 -3.638177e-01 -9.314702e-01
      outer loop
         vertex 2.031293e+00 -6.636649e-02 8.233160e-01
         vertex 1.931293e+00 -6.447908e-02 8.225788e-01
         vertex 2.031293e+00 -6.447908e-02 8.225788e-01
      endloop
   endfacet
   facet normal -0.000000e+00 -2.855020e-01 -9.583781e-01
      outer loop
         vertex 2.031293e+00 -6.447908e-02 8.225788e-01
         vertex 1.931293e+00 -6.447908e-02 8.225788e-01
         vertex 1.931293e+00 -6.254929e-02 8.220039e-01
      endloop
   endfacet
   facet normal 0.000000e+00 -2.855020e-01 -9.583781e-01
      outer loop
         vertex 2.031293e+00 -6.447908e-02 8.225788e-01
         vertex 1.931293e+00 -6.254929e-02 8.220039e-01
         vertex 2.031293e+00 -6.254929e-02 8.220039e-01
      endloop
   endfacet
   facet normal -0.000000e+00 -2.055851e-01 -9.786392e-01
      outer loop
         vertex 2.031293e+00 -6.254929e-02 8.220039e-01
         vertex 1.931293e+00 -6.254929e-02 8.220039e-01
         vertex 1.931293e+00 -6.058302e-02 8.215908e-01
      endloop
   endfacet
   facet normal 0.000000e+00 -2.055851e-01 -9.786392e-01
      outer loop
         vertex 2.031293e+00 -6.254929e-02 8.220039e-01
         vertex 1.931293e+00 -6.058302e-02 8.215908e-01
         vertex 2.031293e+00 -6.058302e-02 8.215908e-01
      endloop
   endfacet
   facet normal -0.000000e+00 -1.240318e-01 -9.922782e-01
      outer loop
         vertex 2.031293e+00 -6.058302e-02 8.215908e-01
         vertex 1.931293e+00 -6.058302e-02 8.215908e-01
         vertex 1.931293e+00 -5.857262e-02 8.213395e-01
      endloop
   endfacet
   facet normal 0.000000e+00 -1.240318e-01 -9.922782e-01
      outer loop
         vertex 2.031293e+00 -6.058302e-02 8.215908e-01
         vertex 1.931293e+00 -5.857262e-02 8.213395e-01
         vertex 2.031293e+00 -5.857262e-02 8.213395e-01
      endloop
   endfacet
   facet normal -0.000000e+00 -4.137729e-02 -9.991436e-01
      outer loop
         vertex 2.031293e+00 -5.857262e-02 8.213395e-01
         vertex 1.931293e+00 -5.857262e-02 8.213395e-01
         vertex 1.931293e+00 -5.654611e-02 8.212556e-01
      endloop
   endfacet
   facet normal 0.000000e+00 -4.137729e-02 -9.991436e-01
      outer loop
         vertex 2.031293e+00 -5.857262e-02 8.213395e-01
         vertex 1.931293e+00 -5.654611e-02 8.212556e-01
         vertex 2.031293e+00 -5.654611e-02 8.212556e-01
      endloop
   endfacet
   facet normal -0.000000e+00 -0.000000e+00 -1.000000e+00
      outer loop
         vertex 2.031293e+00 5.654611e-02 8.212556e-01
         vertex 2.031293e+00 -5.654611e-02 8.212556e-01
         vertex 1.931293e+00 5.654611e-02 8.212556e-01
      endloop
   endfacet
   facet normal 0.000000e+00 0.000000e+00 -1.000000e+00
      outer loop
         vertex 1.931293e+00 5.654611e-02 8.212556e-01
         vertex 2.031293e+00 -5.654611e-02 8.212556e-01
         vertex 1.931293e+00 -5.654611e-02 8.212556e-01
      endloop
   endfacet
   facet normal 1.000000e+00 0.000000e+00 -0.000000e+00
      outer loop
         vertex 2.031293e+00 8.098510e-02 8.425547e-01
         vertex 2.031293e+00 8.122504e-02 8.446947e-01
         vertex 2.031293e+00 -8.040244e-02 8.532453e-01
      endloop
   endfacet
   facet normal 1.000000e+00 0.000000e+00 0.000000e+00
      outer loop
         vertex 2.031293e+00 -8.040244e-02 8.532453e-01
         vertex 2.031293e+00 8.122504e-02 8.446947e-01
         vertex 2.031293e+00 8.128636e-02 8.468712e-01
      endloop
   endfacet
   facet normal 1.000000e+00 0.000000e+00 0.000000e+00
      outer loop
         vertex 2.031293e+00 -8.040244e-02 8.532453e-01
         vertex 2.031293e+00 8.128636e-02 8.468712e-01
         vertex 2.031293e+00 8.116871e-02 8.490123e-01
      endloop
   endfacet
   facet normal 1.000000e+00 0.000000e+00 0.000000e+00
      outer loop
         vertex 2.031293e+00 5.865816e-02 8.213468e-01
         vertex 2.031293e+00 6.067970e-02 8.216072e-01
         vertex 2.031293e+00 8.098510e-02 8.425547e-01
      endloop
   endfacet
   facet normal 1.000000e+00 0.000000e+00 0.000000e+00
      outer loop
         vertex 2.031293e+00 8.098510e-02 8.425547e-01
         vertex 2.031293e+00 6.067970e-02 8.216072e-01
         vertex 2.031293e+00 6.266158e-02 8.220326e-01
      endloop
   endfacet
   facet normal 1.000000e+00 0.000000e+00 0.000000e+00
      outer loop
         vertex 2.031293e+00 8.098510e-02 8.425547e-01
         vertex 2.031293e+00 6.266158e-02 8.220326e-01
         vertex 2.031293e+00 6.459125e-02 8.226176e-01
      endloop
   endfacet
   facet normal 1.000000e+00 -0.000000e+00 0.000000e+00
      outer loop
         vertex 2.031293e+00 -4.417153e-02 9.249049e-01
         vertex 2.031293e+00 -6.614078e-02 9.064705e-01
         vertex 2.031293e+00 -4.199263e-02 9.250000e-01
      endloop
   endfacet
   facet normal 1.000000e+00 0.000000e+00 0.000000e+00
      outer loop
         vertex 2.031293e+00 -4.199263e-02 9.250000e-01
         vertex 2.031293e+00 -6.614078e-02 9.064705e-01
         vertex 2.031293e+00 -8.040244e-02 8.532453e-01
      endloop
   endfacet
   facet normal 1.000000e+00 -0.000000e+00 0.000000e+00
      outer loop
         vertex 2.031293e+00 -4.199263e-02 9.250000e-01
         vertex 2.031293e+00 -8.040244e-02 8.532453e-01
         vertex 2.031293e+00 4.199263e-02 9.250000e-01
      endloop
   endfacet
   facet normal 1.000000e+00 0.000000e+00 0.000000e+00
      outer loop
         vertex 2.031293e+00 -4.417153e-02 9.249049e-01
         vertex 2.031293e+00 -4.633384e-02 9.246202e-01
         vertex 2.031293e+00 -6.614078e-02 9.064705e-01
      endloop
   endfacet
   facet normal 1.000000e+00 0.000000e+00 0.000000e+00
      outer loop
         vertex 2.031293e+00 -6.614078e-02 9.064705e-01
         vertex 2.031293e+00 -4.633384e-02 9.246202e-01
         vertex 2.031293e+00 -4.846311e-02 9.241481e-01
      endloop
   endfacet
   facet normal 1.000000e+00 0.000000e+00 0.000000e+00
      outer loop
         vertex 2.031293e+00 -6.614078e-02 9.064705e-01
         vertex 2.031293e+00 -4.846311e-02 9.241481e-01
         vertex 2.031293e+00 -5.054314e-02 9.234923e-01
      endloop
   endfacet
   facet normal 1.000000e+00 0.000000e+00 0.000000e+00
      outer loop
         vertex 2.031293e+00 -8.120146e-02 8.486448e-01
         vertex 2.031293e+00 -8.128883e-02 8.465120e-01
         vertex 2.031293e+00 -7.157452e-02 8.264230e-01
      endloop
   endfacet
   facet normal 1.000000e+00 0.000000e+00 0.000000e+00
      outer loop
         vertex 2.031293e+00 5.967030e-02 9.176776e-01
         vertex 2.031293e+00 5.806233e-02 9.191511e-01
         vertex 2.031293e+00 6.614078e-02 9.064705e-01
      endloop
   endfacet
   facet normal 1.000000e+00 0.000000e+00 0.000000e+00
      outer loop
         vertex 2.031293e+00 5.255809e-02 9.226577e-01
         vertex 2.031293e+00 5.054314e-02 9.234923e-01
         vertex 2.031293e+00 6.614078e-02 9.064705e-01
      endloop
   endfacet
   facet normal 1.000000e+00 0.000000e+00 0.000000e+00
      outer loop
         vertex 2.031293e+00 6.614078e-02 9.064705e-01
         vertex 2.031293e+00 5.054314e-02 9.234923e-01
         vertex 2.031293e+00 4.846311e-02 9.241481e-01
      endloop
   endfacet
   facet normal 1.000000e+00 0.000000e+00 0.000000e+00
      outer loop
         vertex 2.031293e+00 6.614078e-02 9.064705e-01
         vertex 2.031293e+00 4.846311e-02 9.241481e-01
         vertex 2.031293e+00 4.633384e-02 9.246202e-01
      endloop
   endfacet
   facet normal 1.000000e+00 0.000000e+00 0.000000e+00
      outer loop
         vertex 2.031293e+00 8.116871e-02 8.490123e-01
         vertex 2.031293e+00 8.087496e-02 8.511366e-01
         vertex 2.031293e+00 -8.040244e-02 8.532453e-01
      endloop
   endfacet
   facet normal 1.000000e+00 -0.000000e+00 0.000000e+00
      outer loop
         vertex 2.031293e+00 -8.040244e-02 8.532453e-01
         vertex 2.031293e+00 8.087496e-02 8.511366e-01
         vertex 2.031293e+00 8.040244e-02 8.532453e-01
      endloop
   endfacet
   facet normal 1.000000e+00 0.000000e+00 0.000000e+00
      outer loop
         vertex 2.031293e+00 -8.040244e-02 8.532453e-01
         vertex 2.031293e+00 8.040244e-02 8.532453e-01
         vertex 2.031293e+00 4.199263e-02 9.250000e-01
      endloop
   endfacet
   facet normal 1.000000e+00 0.000000e+00 0.000000e+00
      outer loop
         vertex 2.031293e+00 4.199263e-02 9.250000e-01
         vertex 2.031293e+00 8.040244e-02 8.532453e-01
         vertex 2.031293e+00 6.614078e-02 9.064705e-01
      endloop
   endfacet
   facet normal 1.000000e+00 0.000000e+00 0.000000e+00
      outer loop
         vertex 2.031293e+00 4.199263e-02 9.250000e-01
         vertex 2.031293e+00 6.614078e-02 9.064705e-01
         vertex 2.031293e+00 4.417153e-02 9.249049e-01
      endloop
   endfacet
   facet normal 1.000000e+00 0.000000e+00 0.000000e+00
      outer loop
         vertex 2.031293e+00 4.417153e-02 9.249049e-01
         vertex 2.031293e+00 6.614078e-02 9.064705e-01
         vertex 2.031293e+00 4.633384e-02 9.246202e-01
      endloop
   endfacet
   facet normal 1.000000e+00 -0.000000e+00 0.000000e+00
      outer loop
         vertex 2.031293e+00 -8.120146e-02 8.486448e-01
         vertex 2.031293e+00 -7.157452e-02 8.264230e-01
         vertex 2.031293e+00 -8.093543e-02 8.507887e-01
      endloop
   endfacet
   facet normal 1.000000e+00 0.000000e+00 0.000000e+00
      outer loop
         vertex 2.031293e+00 -8.093543e-02 8.507887e-01
         vertex 2.031293e+00 -7.157452e-02 8.264230e-01
         vertex 2.031293e+00 -6.993204e-02 8.252484e-01
      endloop
   endfacet
   facet normal 1.000000e+00 0.000000e+00 0.000000e+00
      outer loop
         vertex 2.031293e+00 -8.093543e-02 8.507887e-01
         vertex 2.031293e+00 -6.993204e-02 8.252484e-01
         vertex 2.031293e+00 -6.819690e-02 8.242126e-01
      endloop
   endfacet
   facet normal 1.000000e+00 -0.000000e+00 -0.000000e+00
      outer loop
         vertex 2.031293e+00 -6.254929e-02 8.220039e-01
         vertex 2.031293e+00 -6.058302e-02 8.215908e-01
         vertex 2.031293e+00 -8.093543e-02 8.507887e-01
      endloop
   endfacet
   facet normal 1.000000e+00 0.000000e+00 0.000000e+00
      outer loop
         vertex 2.031293e+00 -8.093543e-02 8.507887e-01
         vertex 2.031293e+00 -6.058302e-02 8.215908e-01
         vertex 2.031293e+00 -5.857262e-02 8.213395e-01
      endloop
   endfacet
   facet normal 1.000000e+00 0.000000e+00 0.000000e+00
      outer loop
         vertex 2.031293e+00 -8.093543e-02 8.507887e-01
         vertex 2.031293e+00 -5.857262e-02 8.213395e-01
         vertex 2.031293e+00 -5.654611e-02 8.212556e-01
      endloop
   endfacet
   facet normal 1.000000e+00 0.000000e+00 -0.000000e+00
      outer loop
         vertex 2.031293e+00 5.865816e-02 8.213468e-01
         vertex 2.031293e+00 8.098510e-02 8.425547e-01
         vertex 2.031293e+00 5.654611e-02 8.212556e-01
      endloop
   endfacet
   facet normal 1.000000e+00 0.000000e+00 -0.000000e+00
      outer loop
         vertex 2.031293e+00 5.654611e-02 8.212556e-01
         vertex 2.031293e+00 8.098510e-02 8.425547e-01
         vertex 2.031293e+00 -8.040244e-02 8.532453e-01
      endloop
   endfacet
   facet normal 1.000000e+00 0.000000e+00 0.000000e+00
      outer loop
         vertex 2.031293e+00 5.654611e-02 8.212556e-01
         vertex 2.031293e+00 -8.040244e-02 8.532453e-01
         vertex 2.031293e+00 -5.654611e-02 8.212556e-01
      endloop
   endfacet
   facet normal 1.000000e+00 0.000000e+00 0.000000e+00
      outer loop
         vertex 2.031293e+00 -5.654611e-02 8.212556e-01
         vertex 2.031293e+00 -8.040244e-02 8.532453e-01
         vertex 2.031293e+00 -8.052041e-02 8.527886e-01
      endloop
   endfacet
   facet normal 1.000000e+00 0.000000e+00 0.000000e+00
      outer loop
         vertex 2.031293e+00 -5.654611e-02 8.212556e-01
         vertex 2.031293e+00 -8.052041e-02 8.527886e-01
         vertex 2.031293e+00 -8.093543e-02 8.507887e-01
      endloop
   endfacet
   facet normal 1.000000e+00 0.000000e+00 0.000000e+00
      outer loop
         vertex 2.031293e+00 7.726153e-02 8.326709e-01
         vertex 2.031293e+00 6.646913e-02 8.233613e-01
         vertex 2.031293e+00 6.829809e-02 8.242678e-01
      endloop
   endfacet
   facet normal 1.000000e+00 0.000000e+00 0.000000e+00
      outer loop
         vertex 2.031293e+00 7.726153e-02 8.326709e-01
         vertex 2.031293e+00 7.326148e-02 8.278629e-01
         vertex 2.031293e+00 7.606512e-02 8.309608e-01
      endloop
   endfacet
   facet normal 1.000000e+00 0.000000e+00 0.000000e+00
      outer loop
         vertex 2.031293e+00 7.606512e-02 8.309608e-01
         vertex 2.031293e+00 7.326148e-02 8.278629e-01
         vertex 2.031293e+00 7.472314e-02 8.293474e-01
      endloop
   endfacet
   facet normal 1.000000e+00 0.000000e+00 -0.000000e+00
      outer loop
         vertex 2.031293e+00 6.646913e-02 8.233613e-01
         vertex 2.031293e+00 7.726153e-02 8.326709e-01
         vertex 2.031293e+00 6.459125e-02 8.226176e-01
      endloop
   endfacet
   facet normal 1.000000e+00 0.000000e+00 0.000000e+00
      outer loop
         vertex 2.031293e+00 6.459125e-02 8.226176e-01
         vertex 2.031293e+00 7.726153e-02 8.326709e-01
         vertex 2.031293e+00 7.831602e-02 8.344805e-01
      endloop
   endfacet
   facet normal 1.000000e+00 0.000000e+00 0.000000e+00
      outer loop
         vertex 2.031293e+00 6.459125e-02 8.226176e-01
         vertex 2.031293e+00 7.831602e-02 8.344805e-01
         vertex 2.031293e+00 7.923208e-02 8.364043e-01
      endloop
   endfacet
   facet normal 1.000000e+00 0.000000e+00 0.000000e+00
      outer loop
         vertex 2.031293e+00 5.806233e-02 9.191511e-01
         vertex 2.031293e+00 5.633204e-02 9.204788e-01
         vertex 2.031293e+00 6.614078e-02 9.064705e-01
      endloop
   endfacet
   facet normal 1.000000e+00 0.000000e+00 0.000000e+00
      outer loop
         vertex 2.031293e+00 6.614078e-02 9.064705e-01
         vertex 2.031293e+00 5.633204e-02 9.204788e-01
         vertex 2.031293e+00 5.449263e-02 9.216506e-01
      endloop
   endfacet
   facet normal 1.000000e+00 0.000000e+00 0.000000e+00
      outer loop
         vertex 2.031293e+00 6.614078e-02 9.064705e-01
         vertex 2.031293e+00 5.449263e-02 9.216506e-01
         vertex 2.031293e+00 5.255809e-02 9.226577e-01
      endloop
   endfacet
   facet normal 1.000000e+00 0.000000e+00 0.000000e+00
      outer loop
         vertex 2.031293e+00 -5.054314e-02 9.234923e-01
         vertex 2.031293e+00 -5.255809e-02 9.226577e-01
         vertex 2.031293e+00 -6.614078e-02 9.064705e-01
      endloop
   endfacet
   facet normal 1.000000e+00 0.000000e+00 0.000000e+00
      outer loop
         vertex 2.031293e+00 -6.614078e-02 9.064705e-01
         vertex 2.031293e+00 -5.255809e-02 9.226577e-01
         vertex 2.031293e+00 -5.449263e-02 9.216506e-01
      endloop
   endfacet
   facet normal 1.000000e+00 0.000000e+00 0.000000e+00
      outer loop
         vertex 2.031293e+00 -6.614078e-02 9.064705e-01
         vertex 2.031293e+00 -5.449263e-02 9.216506e-01
         vertex 2.031293e+00 -6.548495e-02 9.085505e-01
      endloop
   endfacet
   facet normal 1.000000e+00 0.000000e+00 0.000000e+00
      outer loop
         vertex 2.031293e+00 -6.548495e-02 9.085505e-01
         vertex 2.031293e+00 -5.449263e-02 9.216506e-01
         vertex 2.031293e+00 -5.633204e-02 9.204788e-01
      endloop
   endfacet
   facet normal 1.000000e+00 0.000000e+00 0.000000e+00
      outer loop
         vertex 2.031293e+00 -8.128883e-02 8.465120e-01
         vertex 2.031293e+00 -8.119974e-02 8.443645e-01
         vertex 2.031293e+00 -7.157452e-02 8.264230e-01
      endloop
   endfacet
   facet normal 1.000000e+00 0.000000e+00 0.000000e+00
      outer loop
         vertex 2.031293e+00 -7.157452e-02 8.264230e-01
         vertex 2.031293e+00 -8.119974e-02 8.443645e-01
         vertex 2.031293e+00 -8.093141e-02 8.422216e-01
      endloop
   endfacet
   facet normal 1.000000e+00 0.000000e+00 0.000000e+00
      outer loop
         vertex 2.031293e+00 -7.157452e-02 8.264230e-01
         vertex 2.031293e+00 -8.093141e-02 8.422216e-01
         vertex 2.031293e+00 -8.049594e-02 8.401494e-01
      endloop
   endfacet
   facet normal 1.000000e+00 -0.000000e+00 -0.000000e+00
      outer loop
         vertex 2.031293e+00 -7.592147e-02 8.307744e-01
         vertex 2.031293e+00 -7.459452e-02 8.292065e-01
         vertex 2.031293e+00 -8.049594e-02 8.401494e-01
      endloop
   endfacet
   facet normal 1.000000e+00 0.000000e+00 0.000000e+00
      outer loop
         vertex 2.031293e+00 -8.049594e-02 8.401494e-01
         vertex 2.031293e+00 -7.459452e-02 8.292065e-01
         vertex 2.031293e+00 -7.312774e-02 8.277389e-01
      endloop
   endfacet
   facet normal 1.000000e+00 0.000000e+00 0.000000e+00
      outer loop
         vertex 2.031293e+00 -8.049594e-02 8.401494e-01
         vertex 2.031293e+00 -7.312774e-02 8.277389e-01
         vertex 2.031293e+00 -7.157452e-02 8.264230e-01
      endloop
   endfacet
   facet normal 1.000000e+00 0.000000e+00 0.000000e+00
      outer loop
         vertex 2.031293e+00 6.829809e-02 8.242678e-01
         vertex 2.031293e+00 7.004697e-02 8.253241e-01
         vertex 2.031293e+00 7.726153e-02 8.326709e-01
      endloop
   endfacet
   facet normal 1.000000e+00 0.000000e+00 0.000000e+00
      outer loop
         vertex 2.031293e+00 7.726153e-02 8.326709e-01
         vertex 2.031293e+00 7.004697e-02 8.253241e-01
         vertex 2.031293e+00 7.170966e-02 8.265290e-01
      endloop
   endfacet
   facet normal 1.000000e+00 0.000000e+00 0.000000e+00
      outer loop
         vertex 2.031293e+00 7.726153e-02 8.326709e-01
         vertex 2.031293e+00 7.170966e-02 8.265290e-01
         vertex 2.031293e+00 7.326148e-02 8.278629e-01
      endloop
   endfacet
   facet normal 1.000000e+00 0.000000e+00 -0.000000e+00
      outer loop
         vertex 2.031293e+00 7.923208e-02 8.364043e-01
         vertex 2.031293e+00 7.998593e-02 8.384004e-01
         vertex 2.031293e+00 6.459125e-02 8.226176e-01
      endloop
   endfacet
   facet normal 1.000000e+00 0.000000e+00 0.000000e+00
      outer loop
         vertex 2.031293e+00 6.459125e-02 8.226176e-01
         vertex 2.031293e+00 7.998593e-02 8.384004e-01
         vertex 2.031293e+00 8.057351e-02 8.404639e-01
      endloop
   endfacet
   facet normal 1.000000e+00 0.000000e+00 0.000000e+00
      outer loop
         vertex 2.031293e+00 6.459125e-02 8.226176e-01
         vertex 2.031293e+00 8.057351e-02 8.404639e-01
         vertex 2.031293e+00 8.098510e-02 8.425547e-01
      endloop
   endfacet
   facet normal 1.000000e+00 0.000000e+00 0.000000e+00
      outer loop
         vertex 2.031293e+00 -5.633204e-02 9.204788e-01
         vertex 2.031293e+00 -5.806233e-02 9.191511e-01
         vertex 2.031293e+00 -6.548495e-02 9.085505e-01
      endloop
   endfacet
   facet normal 1.000000e+00 0.000000e+00 0.000000e+00
      outer loop
         vertex 2.031293e+00 -6.548495e-02 9.085505e-01
         vertex 2.031293e+00 -5.806233e-02 9.191511e-01
         vertex 2.031293e+00 -5.967030e-02 9.176776e-01
      endloop
   endfacet
   facet normal 1.000000e+00 0.000000e+00 0.000000e+00
      outer loop
         vertex 2.031293e+00 -6.548495e-02 9.085505e-01
         vertex 2.031293e+00 -5.967030e-02 9.176776e-01
         vertex 2.031293e+00 -6.114374e-02 9.160697e-01
      endloop
   endfacet
   facet normal 1.000000e+00 0.000000e+00 0.000000e+00
      outer loop
         vertex 2.031293e+00 -8.049594e-02 8.401494e-01
         vertex 2.031293e+00 -7.989378e-02 8.381269e-01
         vertex 2.031293e+00 -7.592147e-02 8.307744e-01
      endloop
   endfacet
   facet normal 1.000000e+00 0.000000e+00 0.000000e+00
      outer loop
         vertex 2.031293e+00 -7.592147e-02 8.307744e-01
         vertex 2.031293e+00 -7.989378e-02 8.381269e-01
         vertex 2.031293e+00 -7.912768e-02 8.361626e-01
      endloop
   endfacet
   facet normal 1.000000e+00 0.000000e+00 0.000000e+00
      outer loop
         vertex 2.031293e+00 -7.592147e-02 8.307744e-01
         vertex 2.031293e+00 -7.912768e-02 8.361626e-01
         vertex 2.031293e+00 -7.713199e-02 8.324705e-01
      endloop
   endfacet
   facet normal 1.000000e+00 0.000000e+00 0.000000e+00
      outer loop
         vertex 2.031293e+00 -7.713199e-02 8.324705e-01
         vertex 2.031293e+00 -7.912768e-02 8.361626e-01
         vertex 2.031293e+00 -7.820018e-02 8.342640e-01
      endloop
   endfacet
   facet normal 1.000000e+00 -0.000000e+00 -0.000000e+00
      outer loop
         vertex 2.031293e+00 -6.819690e-02 8.242126e-01
         vertex 2.031293e+00 -6.636649e-02 8.233160e-01
         vertex 2.031293e+00 -8.093543e-02 8.507887e-01
      endloop
   endfacet
   facet normal 1.000000e+00 0.000000e+00 0.000000e+00
      outer loop
         vertex 2.031293e+00 -8.093543e-02 8.507887e-01
         vertex 2.031293e+00 -6.636649e-02 8.233160e-01
         vertex 2.031293e+00 -6.447908e-02 8.225788e-01
      endloop
   endfacet
   facet normal 1.000000e+00 0.000000e+00 0.000000e+00
      outer loop
         vertex 2.031293e+00 -8.093543e-02 8.507887e-01
         vertex 2.031293e+00 -6.447908e-02 8.225788e-01
         vertex 2.031293e+00 -6.254929e-02 8.220039e-01
      endloop
   endfacet
   facet normal 1.000000e+00 0.000000e+00 0.000000e+00
      outer loop
         vertex 2.031293e+00 6.364327e-02 9.125000e-01
         vertex 2.031293e+00 6.247143e-02 9.143394e-01
         vertex 2.031293e+00 6.465033e-02 9.105654e-01
      endloop
   endfacet
   facet normal 1.000000e+00 0.000000e+00 0.000000e+00
      outer loop
         vertex 2.031293e+00 6.465033e-02 9.105654e-01
         vertex 2.031293e+00 6.247143e-02 9.143394e-01
         vertex 2.031293e+00 6.548495e-02 9.085505e-01
      endloop
   endfacet
   facet normal 1.000000e+00 0.000000e+00 0.000000e+00
      outer loop
         vertex 2.031293e+00 6.548495e-02 9.085505e-01
         vertex 2.031293e+00 6.247143e-02 9.143394e-01
         vertex 2.031293e+00 6.614078e-02 9.064705e-01
      endloop
   endfacet
   facet normal 1.000000e+00 0.000000e+00 0.000000e+00
      outer loop
         vertex 2.031293e+00 6.614078e-02 9.064705e-01
         vertex 2.031293e+00 6.247143e-02 9.143394e-01
         vertex 2.031293e+00 6.114374e-02 9.160697e-01
      endloop
   endfacet
   facet normal 1.000000e+00 0.000000e+00 0.000000e+00
      outer loop
         vertex 2.031293e+00 6.614078e-02 9.064705e-01
         vertex 2.031293e+00 6.114374e-02 9.160697e-01
         vertex 2.031293e+00 5.967030e-02 9.176776e-01
      endloop
   endfacet
   facet normal 1.000000e+00 0.000000e+00 0.000000e+00
      outer loop
         vertex 2.031293e+00 -6.114374e-02 9.160697e-01
         vertex 2.031293e+00 -6.247143e-02 9.143394e-01
         vertex 2.031293e+00 -6.548495e-02 9.085505e-01
      endloop
   endfacet
   facet normal 1.000000e+00 0.000000e+00 0.000000e+00
      outer loop
         vertex 2.031293e+00 -6.548495e-02 9.085505e-01
         vertex 2.031293e+00 -6.247143e-02 9.143394e-01
         vertex 2.031293e+00 -6.364327e-02 9.125000e-01
      endloop
   endfacet
   facet normal 1.000000e+00 0.000000e+00 0.000000e+00
      outer loop
         vertex 2.031293e+00 -6.548495e-02 9.085505e-01
         vertex 2.031293e+00 -6.364327e-02 9.125000e-01
         vertex 2.031293e+00 -6.465033e-02 9.105654e-01
      endloop
   endfacet
   facet normal -1.000000e+00 -0.000000e+00 -0.000000e+00
      outer loop
         vertex 1.931293e+00 6.614078e-02 9.064705e-01
         vertex 1.931293e+00 8.040244e-02 8.532453e-01
         vertex 1.931293e+00 4.199263e-02 9.250000e-01
      endloop
   endfacet
   facet normal -1.000000e+00 -0.000000e+00 -0.000000e+00
      outer loop
         vertex 1.931293e+00 8.087496e-02 8.511366e-01
         vertex 1.931293e+00 8.116871e-02 8.490123e-01
         vertex 1.931293e+00 -8.040244e-02 8.532453e-01
      endloop
   endfacet
   facet normal -1.000000e+00 -0.000000e+00 -0.000000e+00
      outer loop
         vertex 1.931293e+00 4.199263e-02 9.250000e-01
         vertex 1.931293e+00 8.040244e-02 8.532453e-01
         vertex 1.931293e+00 -4.199263e-02 9.250000e-01
      endloop
   endfacet
   facet normal -1.000000e+00 -0.000000e+00 -0.000000e+00
      outer loop
         vertex 1.931293e+00 8.116871e-02 8.490123e-01
         vertex 1.931293e+00 8.128636e-02 8.468712e-01
         vertex 1.931293e+00 -8.040244e-02 8.532453e-01
      endloop
   endfacet
   facet normal -1.000000e+00 0.000000e+00 0.000000e+00
      outer loop
         vertex 1.931293e+00 -8.040244e-02 8.532453e-01
         vertex 1.931293e+00 8.128636e-02 8.468712e-01
         vertex 1.931293e+00 8.122504e-02 8.446947e-01
      endloop
   endfacet
   facet normal -1.000000e+00 0.000000e+00 0.000000e+00
      outer loop
         vertex 1.931293e+00 -8.040244e-02 8.532453e-01
         vertex 1.931293e+00 8.122504e-02 8.446947e-01
         vertex 1.931293e+00 8.098510e-02 8.425547e-01
      endloop
   endfacet
   facet normal -1.000000e+00 0.000000e+00 0.000000e+00
      outer loop
         vertex 1.931293e+00 -8.119974e-02 8.443645e-01
         vertex 1.931293e+00 -8.128883e-02 8.465120e-01
         vertex 1.931293e+00 -7.157452e-02 8.264230e-01
      endloop
   endfacet
   facet normal -1.000000e+00 0.000000e+00 0.000000e+00
      outer loop
         vertex 1.931293e+00 -4.633384e-02 9.246202e-01
         vertex 1.931293e+00 -6.614078e-02 9.064705e-01
         vertex 1.931293e+00 -4.846311e-02 9.241481e-01
      endloop
   endfacet
   facet normal -1.000000e+00 0.000000e+00 0.000000e+00
      outer loop
         vertex 1.931293e+00 -4.846311e-02 9.241481e-01
         vertex 1.931293e+00 -6.614078e-02 9.064705e-01
         vertex 1.931293e+00 -5.054314e-02 9.234923e-01
      endloop
   endfacet
   facet normal -1.000000e+00 0.000000e+00 -0.000000e+00
      outer loop
         vertex 1.931293e+00 -4.633384e-02 9.246202e-01
         vertex 1.931293e+00 -4.417153e-02 9.249049e-01
         vertex 1.931293e+00 -6.614078e-02 9.064705e-01
      endloop
   endfacet
   facet normal -1.000000e+00 0.000000e+00 0.000000e+00
      outer loop
         vertex 1.931293e+00 -6.614078e-02 9.064705e-01
         vertex 1.931293e+00 -4.417153e-02 9.249049e-01
         vertex 1.931293e+00 -4.199263e-02 9.250000e-01
      endloop
   endfacet
   facet normal -1.000000e+00 0.000000e+00 -0.000000e+00
      outer loop
         vertex 1.931293e+00 -6.614078e-02 9.064705e-01
         vertex 1.931293e+00 -4.199263e-02 9.250000e-01
         vertex 1.931293e+00 -8.040244e-02 8.532453e-01
      endloop
   endfacet
   facet normal -1.000000e+00 0.000000e+00 0.000000e+00
      outer loop
         vertex 1.931293e+00 -8.040244e-02 8.532453e-01
         vertex 1.931293e+00 -4.199263e-02 9.250000e-01
         vertex 1.931293e+00 8.040244e-02 8.532453e-01
      endloop
   endfacet
   facet normal -1.000000e+00 0.000000e+00 0.000000e+00
      outer loop
         vertex 1.931293e+00 -8.040244e-02 8.532453e-01
         vertex 1.931293e+00 8.040244e-02 8.532453e-01
         vertex 1.931293e+00 8.087496e-02 8.511366e-01
      endloop
   endfacet
   facet normal -1.000000e+00 0.000000e+00 0.000000e+00
      outer loop
         vertex 1.931293e+00 8.098510e-02 8.425547e-01
         vertex 1.931293e+00 6.266158e-02 8.220326e-01
         vertex 1.931293e+00 6.067970e-02 8.216072e-01
      endloop
   endfacet
   facet normal -1.000000e+00 0.000000e+00 0.000000e+00
      outer loop
         vertex 1.931293e+00 -8.093543e-02 8.507887e-01
         vertex 1.931293e+00 -5.654611e-02 8.212556e-01
         vertex 1.931293e+00 -5.857262e-02 8.213395e-01
      endloop
   endfacet
   facet normal -1.000000e+00 0.000000e+00 0.000000e+00
      outer loop
         vertex 1.931293e+00 -8.128883e-02 8.465120e-01
         vertex 1.931293e+00 -8.120146e-02 8.486448e-01
         vertex 1.931293e+00 -7.157452e-02 8.264230e-01
      endloop
   endfacet
   facet normal -1.000000e+00 0.000000e+00 0.000000e+00
      outer loop
         vertex 1.931293e+00 -7.157452e-02 8.264230e-01
         vertex 1.931293e+00 -8.120146e-02 8.486448e-01
         vertex 1.931293e+00 -8.093543e-02 8.507887e-01
      endloop
   endfacet
   facet normal -1.000000e+00 0.000000e+00 0.000000e+00
      outer loop
         vertex 1.931293e+00 -7.157452e-02 8.264230e-01
         vertex 1.931293e+00 -8.093543e-02 8.507887e-01
         vertex 1.931293e+00 -6.993204e-02 8.252484e-01
      endloop
   endfacet
   facet normal -1.000000e+00 0.000000e+00 -0.000000e+00
      outer loop
         vertex 1.931293e+00 -5.967030e-02 9.176776e-01
         vertex 1.931293e+00 -5.806233e-02 9.191511e-01
         vertex 1.931293e+00 -6.548495e-02 9.085505e-01
      endloop
   endfacet
   facet normal -1.000000e+00 0.000000e+00 0.000000e+00
      outer loop
         vertex 1.931293e+00 4.199263e-02 9.250000e-01
         vertex 1.931293e+00 4.417153e-02 9.249049e-01
         vertex 1.931293e+00 6.614078e-02 9.064705e-01
      endloop
   endfacet
   facet normal -1.000000e+00 0.000000e+00 0.000000e+00
      outer loop
         vertex 1.931293e+00 6.614078e-02 9.064705e-01
         vertex 1.931293e+00 4.417153e-02 9.249049e-01
         vertex 1.931293e+00 4.633384e-02 9.246202e-01
      endloop
   endfacet
   facet normal -1.000000e+00 0.000000e+00 0.000000e+00
      outer loop
         vertex 1.931293e+00 6.614078e-02 9.064705e-01
         vertex 1.931293e+00 4.633384e-02 9.246202e-01
         vertex 1.931293e+00 4.846311e-02 9.241481e-01
      endloop
   endfacet
   facet normal -1.000000e+00 0.000000e+00 0.000000e+00
      outer loop
         vertex 1.931293e+00 4.846311e-02 9.241481e-01
         vertex 1.931293e+00 5.054314e-02 9.234923e-01
         vertex 1.931293e+00 6.614078e-02 9.064705e-01
      endloop
   endfacet
   facet normal -1.000000e+00 0.000000e+00 0.000000e+00
      outer loop
         vertex 1.931293e+00 6.614078e-02 9.064705e-01
         vertex 1.931293e+00 5.054314e-02 9.234923e-01
         vertex 1.931293e+00 5.255809e-02 9.226577e-01
      endloop
   endfacet
   facet normal -1.000000e+00 0.000000e+00 0.000000e+00
      outer loop
         vertex 1.931293e+00 6.614078e-02 9.064705e-01
         vertex 1.931293e+00 5.255809e-02 9.226577e-01
         vertex 1.931293e+00 5.449263e-02 9.216506e-01
      endloop
   endfacet
   facet normal -1.000000e+00 0.000000e+00 0.000000e+00
      outer loop
         vertex 1.931293e+00 7.606512e-02 8.309608e-01
         vertex 1.931293e+00 7.472314e-02 8.293474e-01
         vertex 1.931293e+00 7.326148e-02 8.278629e-01
      endloop
   endfacet
   facet normal -1.000000e+00 0.000000e+00 0.000000e+00
      outer loop
         vertex 1.931293e+00 -5.857262e-02 8.213395e-01
         vertex 1.931293e+00 -6.058302e-02 8.215908e-01
         vertex 1.931293e+00 -8.093543e-02 8.507887e-01
      endloop
   endfacet
   facet normal -1.000000e+00 0.000000e+00 0.000000e+00
      outer loop
         vertex 1.931293e+00 -8.093543e-02 8.507887e-01
         vertex 1.931293e+00 -6.058302e-02 8.215908e-01
         vertex 1.931293e+00 -6.254929e-02 8.220039e-01
      endloop
   endfacet
   facet normal -1.000000e+00 0.000000e+00 0.000000e+00
      outer loop
         vertex 1.931293e+00 -8.093543e-02 8.507887e-01
         vertex 1.931293e+00 -6.254929e-02 8.220039e-01
         vertex 1.931293e+00 -6.447908e-02 8.225788e-01
      endloop
   endfacet
   facet normal -1.000000e+00 0.000000e+00 0.000000e+00
      outer loop
         vertex 1.931293e+00 -7.312774e-02 8.277389e-01
         vertex 1.931293e+00 -7.459452e-02 8.292065e-01
         vertex 1.931293e+00 -8.049594e-02 8.401494e-01
      endloop
   endfacet
   facet normal -1.000000e+00 0.000000e+00 0.000000e+00
      outer loop
         vertex 1.931293e+00 -8.049594e-02 8.401494e-01
         vertex 1.931293e+00 -7.459452e-02 8.292065e-01
         vertex 1.931293e+00 -7.592147e-02 8.307744e-01
      endloop
   endfacet
   facet normal -1.000000e+00 0.000000e+00 0.000000e+00
      outer loop
         vertex 1.931293e+00 -8.049594e-02 8.401494e-01
         vertex 1.931293e+00 -7.592147e-02 8.307744e-01
         vertex 1.931293e+00 -7.989378e-02 8.381269e-01
      endloop
   endfacet
   facet normal -1.000000e+00 0.000000e+00 0.000000e+00
      outer loop
         vertex 1.931293e+00 -7.312774e-02 8.277389e-01
         vertex 1.931293e+00 -8.049594e-02 8.401494e-01
         vertex 1.931293e+00 -7.157452e-02 8.264230e-01
      endloop
   endfacet
   facet normal -1.000000e+00 0.000000e+00 0.000000e+00
      outer loop
         vertex 1.931293e+00 -7.157452e-02 8.264230e-01
         vertex 1.931293e+00 -8.049594e-02 8.401494e-01
         vertex 1.931293e+00 -8.093141e-02 8.422216e-01
      endloop
   endfacet
   facet normal -1.000000e+00 0.000000e+00 0.000000e+00
      outer loop
         vertex 1.931293e+00 -7.157452e-02 8.264230e-01
         vertex 1.931293e+00 -8.093141e-02 8.422216e-01
         vertex 1.931293e+00 -8.119974e-02 8.443645e-01
      endloop
   endfacet
   facet normal -1.000000e+00 0.000000e+00 -0.000000e+00
      outer loop
         vertex 1.931293e+00 -5.806233e-02 9.191511e-01
         vertex 1.931293e+00 -5.633204e-02 9.204788e-01
         vertex 1.931293e+00 -6.548495e-02 9.085505e-01
      endloop
   endfacet
   facet normal -1.000000e+00 0.000000e+00 0.000000e+00
      outer loop
         vertex 1.931293e+00 -6.548495e-02 9.085505e-01
         vertex 1.931293e+00 -5.633204e-02 9.204788e-01
         vertex 1.931293e+00 -5.449263e-02 9.216506e-01
      endloop
   endfacet
   facet normal -1.000000e+00 0.000000e+00 -0.000000e+00
      outer loop
         vertex 1.931293e+00 -6.548495e-02 9.085505e-01
         vertex 1.931293e+00 -5.449263e-02 9.216506e-01
         vertex 1.931293e+00 -6.614078e-02 9.064705e-01
      endloop
   endfacet
   facet normal -1.000000e+00 0.000000e+00 0.000000e+00
      outer loop
         vertex 1.931293e+00 -6.614078e-02 9.064705e-01
         vertex 1.931293e+00 -5.449263e-02 9.216506e-01
         vertex 1.931293e+00 -5.255809e-02 9.226577e-01
      endloop
   endfacet
   facet normal -1.000000e+00 0.000000e+00 0.000000e+00
      outer loop
         vertex 1.931293e+00 -6.614078e-02 9.064705e-01
         vertex 1.931293e+00 -5.255809e-02 9.226577e-01
         vertex 1.931293e+00 -5.054314e-02 9.234923e-01
      endloop
   endfacet
   facet normal -1.000000e+00 0.000000e+00 0.000000e+00
      outer loop
         vertex 1.931293e+00 7.998593e-02 8.384004e-01
         vertex 1.931293e+00 7.923208e-02 8.364043e-01
         vertex 1.931293e+00 6.459125e-02 8.226176e-01
      endloop
   endfacet
   facet normal -1.000000e+00 0.000000e+00 0.000000e+00
      outer loop
         vertex 1.931293e+00 6.459125e-02 8.226176e-01
         vertex 1.931293e+00 7.923208e-02 8.364043e-01
         vertex 1.931293e+00 7.831602e-02 8.344805e-01
      endloop
   endfacet
   facet normal -1.000000e+00 0.000000e+00 0.000000e+00
      outer loop
         vertex 1.931293e+00 6.459125e-02 8.226176e-01
         vertex 1.931293e+00 7.831602e-02 8.344805e-01
         vertex 1.931293e+00 7.726153e-02 8.326709e-01
      endloop
   endfacet
   facet normal -1.000000e+00 -0.000000e+00 0.000000e+00
      outer loop
         vertex 1.931293e+00 7.004697e-02 8.253241e-01
         vertex 1.931293e+00 6.829809e-02 8.242678e-01
         vertex 1.931293e+00 7.726153e-02 8.326709e-01
      endloop
   endfacet
   facet normal -1.000000e+00 0.000000e+00 0.000000e+00
      outer loop
         vertex 1.931293e+00 7.726153e-02 8.326709e-01
         vertex 1.931293e+00 6.829809e-02 8.242678e-01
         vertex 1.931293e+00 6.646913e-02 8.233613e-01
      endloop
   endfacet
   facet normal -1.000000e+00 0.000000e+00 0.000000e+00
      outer loop
         vertex 1.931293e+00 7.726153e-02 8.326709e-01
         vertex 1.931293e+00 6.646913e-02 8.233613e-01
         vertex 1.931293e+00 6.459125e-02 8.226176e-01
      endloop
   endfacet
   facet normal -1.000000e+00 -0.000000e+00 0.000000e+00
      outer loop
         vertex 1.931293e+00 6.067970e-02 8.216072e-01
         vertex 1.931293e+00 5.865816e-02 8.213468e-01
         vertex 1.931293e+00 8.098510e-02 8.425547e-01
      endloop
   endfacet
   facet normal -1.000000e+00 0.000000e+00 0.000000e+00
      outer loop
         vertex 1.931293e+00 8.098510e-02 8.425547e-01
         vertex 1.931293e+00 5.865816e-02 8.213468e-01
         vertex 1.931293e+00 5.654611e-02 8.212556e-01
      endloop
   endfacet
   facet normal -1.000000e+00 -0.000000e+00 0.000000e+00
      outer loop
         vertex 1.931293e+00 8.098510e-02 8.425547e-01
         vertex 1.931293e+00 5.654611e-02 8.212556e-01
         vertex 1.931293e+00 -8.040244e-02 8.532453e-01
      endloop
   endfacet
   facet normal -1.000000e+00 0.000000e+00 0.000000e+00
      outer loop
         vertex 1.931293e+00 -8.040244e-02 8.532453e-01
         vertex 1.931293e+00 5.654611e-02 8.212556e-01
         vertex 1.931293e+00 -5.654611e-02 8.212556e-01
      endloop
   endfacet
   facet normal -1.000000e+00 0.000000e+00 -0.000000e+00
      outer loop
         vertex 1.931293e+00 -8.040244e-02 8.532453e-01
         vertex 1.931293e+00 -5.654611e-02 8.212556e-01
         vertex 1.931293e+00 -8.052041e-02 8.527886e-01
      endloop
   endfacet
   facet normal -1.000000e+00 0.000000e+00 -0.000000e+00
      outer loop
         vertex 1.931293e+00 -8.052041e-02 8.527886e-01
         vertex 1.931293e+00 -5.654611e-02 8.212556e-01
         vertex 1.931293e+00 -8.093543e-02 8.507887e-01
      endloop
   endfacet
   facet normal -1.000000e+00 0.000000e+00 0.000000e+00
      outer loop
         vertex 1.931293e+00 -6.447908e-02 8.225788e-01
         vertex 1.931293e+00 -6.636649e-02 8.233160e-01
         vertex 1.931293e+00 -8.093543e-02 8.507887e-01
      endloop
   endfacet
   facet normal -1.000000e+00 0.000000e+00 0.000000e+00
      outer loop
         vertex 1.931293e+00 -8.093543e-02 8.507887e-01
         vertex 1.931293e+00 -6.636649e-02 8.233160e-01
         vertex 1.931293e+00 -6.819690e-02 8.242126e-01
      endloop
   endfacet
   facet normal -1.000000e+00 0.000000e+00 0.000000e+00
      outer loop
         vertex 1.931293e+00 -8.093543e-02 8.507887e-01
         vertex 1.931293e+00 -6.819690e-02 8.242126e-01
         vertex 1.931293e+00 -6.993204e-02 8.252484e-01
      endloop
   endfacet
   facet normal -1.000000e+00 0.000000e+00 0.000000e+00
      outer loop
         vertex 1.931293e+00 -7.989378e-02 8.381269e-01
         vertex 1.931293e+00 -7.592147e-02 8.307744e-01
         vertex 1.931293e+00 -7.912768e-02 8.361626e-01
      endloop
   endfacet
   facet normal -1.000000e+00 0.000000e+00 0.000000e+00
      outer loop
         vertex 1.931293e+00 -7.912768e-02 8.361626e-01
         vertex 1.931293e+00 -7.592147e-02 8.307744e-01
         vertex 1.931293e+00 -7.713199e-02 8.324705e-01
      endloop
   endfacet
   facet normal -1.000000e+00 0.000000e+00 0.000000e+00
      outer loop
         vertex 1.931293e+00 -7.912768e-02 8.361626e-01
         vertex 1.931293e+00 -7.713199e-02 8.324705e-01
         vertex 1.931293e+00 -7.820018e-02 8.342640e-01
      endloop
   endfacet
   facet normal -1.000000e+00 0.000000e+00 0.000000e+00
      outer loop
         vertex 1.931293e+00 -6.548495e-02 9.085505e-01
         vertex 1.931293e+00 -6.465033e-02 9.105654e-01
         vertex 1.931293e+00 -6.364327e-02 9.125000e-01
      endloop
   endfacet
   facet normal -1.000000e+00 0.000000e+00 0.000000e+00
      outer loop
         vertex 1.931293e+00 6.247143e-02 9.143394e-01
         vertex 1.931293e+00 6.364327e-02 9.125000e-01
         vertex 1.931293e+00 6.465033e-02 9.105654e-01
      endloop
   endfacet
   facet normal -1.000000e+00 0.000000e+00 0.000000e+00
      outer loop
         vertex 1.931293e+00 6.266158e-02 8.220326e-01
         vertex 1.931293e+00 8.098510e-02 8.425547e-01
         vertex 1.931293e+00 6.459125e-02 8.226176e-01
      endloop
   endfacet
   facet normal -1.000000e+00 0.000000e+00 0.000000e+00
      outer loop
         vertex 1.931293e+00 6.459125e-02 8.226176e-01
         vertex 1.931293e+00 8.098510e-02 8.425547e-01
         vertex 1.931293e+00 8.057351e-02 8.404639e-01
      endloop
   endfacet
   facet normal -1.000000e+00 0.000000e+00 0.000000e+00
      outer loop
         vertex 1.931293e+00 6.459125e-02 8.226176e-01
         vertex 1.931293e+00 8.057351e-02 8.404639e-01
         vertex 1.931293e+00 7.998593e-02 8.384004e-01
      endloop
   endfacet
   facet normal -1.000000e+00 -0.000000e+00 0.000000e+00
      outer loop
         vertex 1.931293e+00 7.606512e-02 8.309608e-01
         vertex 1.931293e+00 7.326148e-02 8.278629e-01
         vertex 1.931293e+00 7.726153e-02 8.326709e-01
      endloop
   endfacet
   facet normal -1.000000e+00 0.000000e+00 0.000000e+00
      outer loop
         vertex 1.931293e+00 7.726153e-02 8.326709e-01
         vertex 1.931293e+00 7.326148e-02 8.278629e-01
         vertex 1.931293e+00 7.170966e-02 8.265290e-01
      endloop
   endfacet
   facet normal -1.000000e+00 0.000000e+00 0.000000e+00
      outer loop
         vertex 1.931293e+00 7.726153e-02 8.326709e-01
         vertex 1.931293e+00 7.170966e-02 8.265290e-01
         vertex 1.931293e+00 7.004697e-02 8.253241e-01
      endloop
   endfacet
   facet normal -1.000000e+00 0.000000e+00 -0.000000e+00
      outer loop
         vertex 1.931293e+00 -6.364327e-02 9.125000e-01
         vertex 1.931293e+00 -6.247143e-02 9.143394e-01
         vertex 1.931293e+00 -6.548495e-02 9.085505e-01
      endloop
   endfacet
   facet normal -1.000000e+00 0.000000e+00 0.000000e+00
      outer loop
         vertex 1.931293e+00 -6.548495e-02 9.085505e-01
         vertex 1.931293e+00 -6.247143e-02 9.143394e-01
         vertex 1.931293e+00 -6.114374e-02 9.160697e-01
      endloop
   endfacet
   facet normal -1.000000e+00 0.000000e+00 0.000000e+00
      outer loop
         vertex 1.931293e+00 -6.548495e-02 9.085505e-01
         vertex 1.931293e+00 -6.114374e-02 9.160697e-01
         vertex 1.931293e+00 -5.967030e-02 9.176776e-01
      endloop
   endfacet
   facet normal -1.000000e+00 0.000000e+00 0.000000e+00
      outer loop
         vertex 1.931293e+00 5.449263e-02 9.216506e-01
         vertex 1.931293e+00 5.633204e-02 9.204788e-01
         vertex 1.931293e+00 6.614078e-02 9.064705e-01
      endloop
   endfacet
   facet normal -1.000000e+00 0.000000e+00 0.000000e+00
      outer loop
         vertex 1.931293e+00 6.614078e-02 9.064705e-01
         vertex 1.931293e+00 5.633204e-02 9.204788e-01
         vertex 1.931293e+00 5.806233e-02 9.191511e-01
      endloop
   endfacet
   facet normal -1.000000e+00 0.000000e+00 0.000000e+00
      outer loop
         vertex 1.931293e+00 6.614078e-02 9.064705e-01
         vertex 1.931293e+00 5.806233e-02 9.191511e-01
         vertex 1.931293e+00 5.967030e-02 9.176776e-01
      endloop
   endfacet
   facet normal -1.000000e+00 0.000000e+00 0.000000e+00
      outer loop
         vertex 1.931293e+00 5.967030e-02 9.176776e-01
         vertex 1.931293e+00 6.114374e-02 9.160697e-01
         vertex 1.931293e+00 6.614078e-02 9.064705e-01
      endloop
   endfacet
   facet normal -1.000000e+00 0.000000e+00 0.000000e+00
      outer loop
         vertex 1.931293e+00 6.614078e-02 9.064705e-01
         vertex 1.931293e+00 6.114374e-02 9.160697e-01
         vertex 1.931293e+00 6.247143e-02 9.143394e-01
      endloop
   endfacet
   facet normal -1.000000e+00 0.000000e+00 0.000000e+00
      outer loop
         vertex 1.931293e+00 6.614078e-02 9.064705e-01
         vertex 1.931293e+00 6.247143e-02 9.143394e-01
         vertex 1.931293e+00 6.548495e-02 9.085505e-01
      endloop
   endfacet
   facet normal -1.000000e+00 0.000000e+00 0.000000e+00
      outer loop
         vertex 1.931293e+00 6.548495e-02 9.085505e-01
         vertex 1.931293e+00 6.247143e-02 9.143394e-01
         vertex 1.931293e+00 6.465033e-02 9.105654e-01
      endloop
   endfacet
endsolid engine_in