solid porus
   facet normal 6.103794e-01 0.000000e+00 7.921092e-01
      outer loop
         vertex 2.129992e+00 6.600000e-01 2.019876e-01
         vertex 1.745164e+00 6.600000e-01 4.985265e-01
         vertex 2.129992e+00 3.600000e-01 2.019876e-01
      endloop
   endfacet
   facet normal 6.103794e-01 0.000000e+00 7.921092e-01
      outer loop
         vertex 2.129992e+00 3.600000e-01 2.019876e-01
         vertex 1.745164e+00 6.600000e-01 4.985265e-01
         vertex 1.745164e+00 3.600000e-01 4.985265e-01
      endloop
   endfacet
   facet normal 7.921091e-01 0.000000e+00 -6.103795e-01
      outer loop
         vertex 2.093369e+00 6.600000e-01 1.544611e-01
         vertex 2.129992e+00 6.600000e-01 2.019876e-01
         vertex 2.093369e+00 3.600000e-01 1.544611e-01
      endloop
   endfacet
   facet normal 7.921091e-01 0.000000e+00 -6.103795e-01
      outer loop
         vertex 2.093369e+00 3.600000e-01 1.544611e-01
         vertex 2.129992e+00 6.600000e-01 2.019876e-01
         vertex 2.129992e+00 3.600000e-01 2.019876e-01
      endloop
   endfacet
   facet normal -6.103794e-01 -0.000000e+00 -7.921092e-01
      outer loop
         vertex 1.708541e+00 6.600000e-01 4.510000e-01
         vertex 2.093369e+00 6.600000e-01 1.544611e-01
         vertex 1.708541e+00 3.600000e-01 4.510000e-01
      endloop
   endfacet
   facet normal -6.103794e-01 0.000000e+00 -7.921092e-01
      outer loop
         vertex 1.708541e+00 3.600000e-01 4.510000e-01
         vertex 2.093369e+00 6.600000e-01 1.544611e-01
         vertex 2.093369e+00 3.600000e-01 1.544611e-01
      endloop
   endfacet
   facet normal -7.921091e-01 0.000000e+00 6.103795e-01
      outer loop
         vertex 1.745164e+00 6.600000e-01 4.985265e-01
         vertex 1.708541e+00 6.600000e-01 4.510000e-01
         vertex 1.745164e+00 3.600000e-01 4.985265e-01
      endloop
   endfacet
   facet normal -7.921091e-01 0.000000e+00 6.103795e-01
      outer loop
         vertex 1.745164e+00 3.600000e-01 4.985265e-01
         vertex 1.708541e+00 6.600000e-01 4.510000e-01
         vertex 1.708541e+00 3.600000e-01 4.510000e-01
      endloop
   endfacet
   facet normal 0.000000e+00 1.000000e+00 -0.000000e+00
      outer loop
         vertex 2.093369e+00 6.600000e-01 1.544611e-01
         vertex 1.708541e+00 6.600000e-01 4.510000e-01
         vertex 2.129992e+00 6.600000e-01 2.019876e-01
      endloop
   endfacet
   facet normal 0.000000e+00 1.000000e+00 0.000000e+00
      outer loop
         vertex 2.129992e+00 6.600000e-01 2.019876e-01
         vertex 1.708541e+00 6.600000e-01 4.510000e-01
         vertex 1.745164e+00 6.600000e-01 4.985265e-01
      endloop
   endfacet
   facet normal 0.000000e+00 -1.000000e+00 0.000000e+00
      outer loop
         vertex 1.708541e+00 3.600000e-01 4.510000e-01
         vertex 2.093369e+00 3.600000e-01 1.544611e-01
         vertex 1.745164e+00 3.600000e-01 4.985265e-01
      endloop
   endfacet
   facet normal 0.000000e+00 -1.000000e+00 0.000000e+00
      outer loop
         vertex 1.745164e+00 3.600000e-01 4.985265e-01
         vertex 2.093369e+00 3.600000e-01 1.544611e-01
         vertex 2.129992e+00 3.600000e-01 2.019876e-01
      endloop
   endfacet
endsolid porus